<?xml version="1.0" encoding="UTF-8" ?>
<!DOCTYPE svg PUBLIC "-//W3C//DTD SVG 1.1//EN" "http://www.w3.org/Graphics/SVG/1.1/DTD/svg11.dtd">
<svg width="355pt" height="152pt" viewBox="0 0 355 152" version="1.1" xmlns="http://www.w3.org/2000/svg">
<g id="#121212ff">
<path fill="#121212" opacity="1.00" d=" M 1.65 0.00 L 276.61 0.00 C 290.47 2.92 304.48 6.10 316.98 13.03 C 320.46 15.18 324.54 16.66 327.21 19.91 C 321.47 18.19 316.76 14.10 311.29 11.74 C 293.27 4.11 273.58 0.05 254.00 0.98 C 174.00 1.01 94.00 1.03 13.99 0.97 C 10.05 1.12 6.02 0.80 2.12 1.60 C 2.00 1.20 1.76 0.40 1.65 0.00 Z" />
</g>
<g id="#2f362fff">
<path fill="#2f362f" opacity="1.00" d=" M 2.12 1.60 C 6.02 0.80 10.05 1.12 13.99 0.97 C 94.00 1.03 174.00 1.01 254.00 0.98 C 273.58 0.05 293.27 4.11 311.29 11.74 C 316.76 14.10 321.47 18.19 327.21 19.91 C 338.10 29.77 346.72 42.36 350.27 56.74 C 350.88 62.51 351.67 68.92 354.20 73.94 L 355.00 74.49 L 355.00 77.65 C 351.34 95.61 345.40 113.89 332.24 127.24 C 324.51 136.72 312.89 141.45 301.73 145.59 C 293.87 148.74 285.45 150.26 277.05 151.04 C 186.69 150.93 96.33 151.06 5.97 150.98 C 4.66 150.95 3.39 150.67 2.12 150.37 C 1.45 149.22 0.89 147.99 0.00 146.99 L 0.00 142.34 C 0.57 141.51 1.14 140.67 1.72 139.85 C 3.64 138.80 5.47 137.58 7.36 136.48 C 19.60 136.20 32.00 137.80 44.20 136.20 C 124.78 135.70 205.37 136.18 285.96 135.97 L 286.04 135.02 C 277.36 134.86 268.68 135.16 260.01 134.95 C 260.02 133.23 260.03 129.78 260.04 128.06 C 265.06 127.02 271.79 129.59 276.22 127.20 C 276.54 126.67 277.18 125.61 277.50 125.08 C 278.35 122.77 278.55 120.42 278.09 118.03 C 279.57 115.82 279.87 113.47 279.00 110.99 C 280.51 108.93 280.86 106.65 280.05 104.14 C 280.72 100.46 281.04 96.74 281.02 92.99 C 281.62 89.98 282.13 86.95 282.09 83.87 C 283.82 86.86 287.39 90.52 291.00 88.06 C 291.03 89.53 291.08 92.47 291.11 93.93 C 296.40 94.00 301.70 94.03 307.00 94.00 C 313.51 95.72 320.29 94.91 326.94 94.95 C 326.99 82.32 327.17 69.67 326.92 57.04 C 320.28 57.10 313.49 56.26 307.00 58.01 C 301.70 57.98 296.40 57.99 291.10 58.07 C 291.08 59.53 291.03 62.47 291.00 63.94 C 287.39 61.48 283.82 65.14 282.09 68.13 C 282.00 65.02 282.51 61.80 281.24 58.88 C 280.74 55.64 281.79 51.98 280.09 49.00 C 279.92 46.25 280.25 43.43 279.25 40.82 C 280.24 37.87 279.80 35.63 277.92 34.12 C 277.68 31.32 278.39 27.95 276.22 25.79 C 271.33 24.04 265.27 25.59 260.02 24.93 C 259.88 22.30 259.90 19.67 260.06 17.04 C 267.67 16.79 275.30 17.26 282.92 16.94 L 283.08 16.01 C 203.39 15.99 123.69 15.99 44.00 16.01 C 31.27 16.02 18.55 15.86 5.83 16.18 C 2.96 14.94 1.40 12.26 0.00 9.63 L 0.00 5.02 C 0.90 4.01 1.45 2.76 2.12 1.60 M 187.39 6.30 C 185.46 5.91 183.43 5.84 181.53 6.42 C 180.05 5.89 180.08 4.32 179.76 3.03 C 177.78 2.97 176.00 4.09 174.02 4.01 C 150.68 4.04 127.34 3.93 103.99 4.03 C 100.72 3.15 98.04 4.89 95.39 6.29 C 93.46 5.90 91.46 5.89 89.55 6.36 C 86.26 3.15 81.29 3.11 77.00 3.89 C 61.46 4.52 45.83 3.21 30.32 4.55 C 22.42 4.36 13.07 1.61 6.09 6.17 C 4.26 12.96 13.83 12.95 17.99 12.99 C 50.87 12.80 83.86 13.48 116.67 12.57 C 120.39 11.47 124.23 13.01 127.99 13.03 C 138.09 12.80 148.24 13.58 158.29 12.39 C 173.12 14.17 188.31 11.98 203.23 13.48 C 224.77 11.81 246.39 13.65 268.00 12.98 C 285.26 12.35 302.97 16.00 317.68 25.32 C 318.04 26.35 317.67 28.60 319.33 27.38 C 325.11 27.84 326.75 35.19 331.96 37.04 C 334.64 38.53 335.42 43.41 339.06 43.02 C 338.58 40.71 337.38 38.63 336.55 36.44 C 331.19 33.15 329.28 26.38 324.11 22.87 C 312.10 14.82 298.40 9.14 284.09 6.80 C 277.73 5.50 271.31 3.86 264.77 4.40 C 241.29 3.43 217.77 4.40 194.28 3.88 C 194.15 3.40 193.89 2.45 193.77 1.97 C 192.46 4.39 189.61 5.00 187.39 6.30 M 343.02 71.01 C 343.01 73.76 343.01 79.26 343.01 82.01 L 343.98 81.99 C 343.99 79.24 343.99 73.74 343.99 70.99 L 343.02 71.01 M 348.04 73.01 C 348.45 75.01 346.47 79.88 349.96 78.99 C 349.54 76.98 351.53 72.12 348.04 73.01 M 329.19 116.10 C 323.08 126.78 310.94 131.75 299.86 135.79 C 283.81 141.48 266.49 137.35 250.00 139.88 C 235.06 137.96 219.89 140.62 204.92 138.25 C 191.58 140.33 177.73 138.02 164.25 139.40 C 155.11 139.94 146.00 138.14 136.77 139.43 C 126.84 137.89 116.88 141.16 107.00 139.09 C 76.98 138.66 46.99 139.53 16.99 139.04 C 12.91 138.99 5.02 139.89 6.07 145.83 C 7.74 147.14 9.93 147.63 11.99 147.97 C 33.90 148.15 55.82 147.78 77.73 148.13 C 77.85 148.59 78.10 149.50 78.23 149.96 C 81.18 146.45 86.52 149.10 89.56 145.65 C 91.49 146.12 93.52 146.12 95.45 145.64 C 96.90 146.52 98.13 148.12 99.99 148.00 C 108.91 148.09 117.85 148.12 126.76 147.59 C 144.38 149.36 162.52 145.75 179.84 150.02 C 180.20 148.45 179.50 146.12 181.56 145.60 C 183.48 146.17 185.52 146.10 187.46 145.64 C 188.89 146.52 190.13 148.12 191.99 147.99 C 217.66 147.98 243.33 148.06 269.01 147.95 C 282.71 146.55 296.52 144.11 309.03 138.09 C 319.60 134.68 327.28 126.46 334.25 118.26 C 337.21 115.24 330.96 115.12 329.19 116.10 Z" />
</g>
<g id="#394239ff">
<path fill="#394239" opacity="1.00" d=" M 187.39 6.30 C 189.61 5.00 192.46 4.39 193.77 1.97 C 193.89 2.45 194.15 3.40 194.28 3.88 C 217.77 4.40 241.29 3.43 264.77 4.40 C 271.31 3.86 277.73 5.50 284.09 6.80 C 298.40 9.14 312.10 14.82 324.11 22.87 C 329.28 26.38 331.19 33.15 336.55 36.44 C 337.38 38.63 338.58 40.71 339.06 43.02 C 335.42 43.41 334.64 38.53 331.96 37.04 C 326.75 35.19 325.11 27.84 319.33 27.38 C 317.67 28.60 318.04 26.35 317.68 25.32 C 302.97 16.00 285.26 12.35 268.00 12.98 C 246.39 13.65 224.77 11.81 203.23 13.48 C 188.31 11.98 173.12 14.17 158.29 12.39 C 148.24 13.58 138.09 12.80 127.99 13.03 C 124.23 13.01 120.39 11.47 116.67 12.57 C 83.86 13.48 50.87 12.80 17.99 12.99 C 13.83 12.95 4.26 12.96 6.09 6.17 C 13.07 1.61 22.42 4.36 30.32 4.55 C 45.83 3.21 61.46 4.52 77.00 3.89 C 81.29 3.11 86.26 3.15 89.55 6.36 C 90.26 8.97 94.90 9.07 95.39 6.29 C 98.04 4.89 100.72 3.15 103.99 4.03 C 127.34 3.93 150.68 4.04 174.02 4.01 C 176.00 4.09 177.78 2.97 179.76 3.03 C 180.08 4.32 180.05 5.89 181.53 6.42 C 182.32 8.97 186.89 9.06 187.39 6.30 Z" />
<path fill="#394239" opacity="1.00" d=" M 329.19 116.10 C 330.96 115.12 337.21 115.24 334.25 118.26 C 327.28 126.46 319.60 134.68 309.03 138.09 C 296.52 144.11 282.71 146.55 269.01 147.95 C 243.33 148.06 217.66 147.98 191.99 147.99 C 190.13 148.12 188.89 146.52 187.46 145.64 C 186.73 143.05 182.27 142.98 181.56 145.60 C 179.50 146.12 180.20 148.45 179.84 150.02 C 162.52 145.75 144.38 149.36 126.76 147.59 C 117.85 148.12 108.91 148.09 99.99 148.00 C 98.13 148.12 96.90 146.52 95.45 145.64 C 94.73 143.03 90.24 143.01 89.56 145.65 C 86.52 149.10 81.18 146.45 78.23 149.96 C 78.10 149.50 77.85 148.59 77.73 148.13 C 55.82 147.78 33.90 148.15 11.99 147.97 C 9.93 147.63 7.74 147.14 6.07 145.83 C 5.02 139.89 12.91 138.99 16.99 139.04 C 46.99 139.53 76.98 138.66 107.00 139.09 C 116.88 141.16 126.84 137.89 136.77 139.43 C 146.00 138.14 155.11 139.94 164.25 139.40 C 177.73 138.02 191.58 140.33 204.92 138.25 C 219.89 140.62 235.06 137.96 250.00 139.88 C 266.49 137.35 283.81 141.48 299.86 135.79 C 310.94 131.75 323.08 126.78 329.19 116.10 Z" />
</g>
<g id="#575852ff">
<path fill="#575852" opacity="1.00" d=" M 89.55 6.36 C 91.46 5.89 93.46 5.90 95.39 6.29 C 94.90 9.07 90.26 8.97 89.55 6.36 Z" />
<path fill="#575852" opacity="1.00" d=" M 181.53 6.42 C 183.43 5.84 185.46 5.91 187.39 6.30 C 186.89 9.06 182.32 8.97 181.53 6.42 Z" />
<path fill="#575852" opacity="1.00" d=" M 89.56 145.65 C 90.24 143.01 94.73 143.03 95.45 145.64 C 93.52 146.12 91.49 146.12 89.56 145.65 Z" />
<path fill="#575852" opacity="1.00" d=" M 181.56 145.60 C 182.27 142.98 186.73 143.05 187.46 145.64 C 185.52 146.10 183.48 146.17 181.56 145.60 Z" />
</g>
<g id="#242925ff">
<path fill="#242925" opacity="1.00" d=" M 5.83 16.18 C 18.55 15.86 31.27 16.02 44.00 16.01 C 43.90 22.75 44.28 29.50 43.85 36.22 C 43.23 35.10 42.72 33.92 42.18 32.75 C 41.71 31.36 40.98 29.76 39.26 29.75 C 33.28 28.50 27.14 29.19 21.07 28.94 C 20.36 27.95 19.49 27.20 18.21 27.57 C 15.39 22.56 10.44 19.36 5.83 16.18 Z" />
</g>
<g id="#010100ff">
<path fill="#010100" opacity="1.00" d=" M 44.00 16.01 C 123.69 15.99 203.39 15.99 283.08 16.01 L 282.92 16.94 C 275.30 17.26 267.67 16.79 260.06 17.04 C 259.90 19.67 259.88 22.30 260.02 24.93 C 265.27 25.59 271.33 24.04 276.22 25.79 C 270.84 25.87 265.45 25.97 260.08 26.09 C 260.06 27.84 260.03 31.36 260.01 33.12 C 259.97 36.35 259.94 39.60 260.18 42.82 C 256.03 42.94 251.89 43.01 247.76 43.06 L 248.26 41.97 C 250.93 41.96 256.27 41.95 258.93 41.95 C 259.07 35.28 259.02 28.60 259.03 21.93 C 259.03 20.30 259.03 18.68 258.91 17.05 C 252.63 17.00 246.35 16.75 240.08 17.07 L 240.04 17.95 C 239.98 19.28 239.97 20.61 239.99 21.95 C 240.06 28.27 239.75 34.61 240.09 40.92 C 241.56 40.92 244.52 40.90 245.99 40.90 C 246.56 41.16 247.70 41.70 248.26 41.97 C 245.45 41.96 242.64 41.95 239.84 41.93 C 239.36 41.91 238.38 41.88 237.89 41.86 C 238.48 40.74 238.99 39.57 238.86 38.27 C 239.01 34.19 239.04 30.12 238.97 26.04 C 201.00 26.01 163.02 25.89 125.05 26.09 C 125.02 28.79 125.03 31.48 125.08 34.18 C 124.97 51.87 124.89 69.55 125.13 87.24 C 124.99 92.78 124.88 98.33 125.04 103.88 C 126.36 111.57 124.78 119.25 125.04 126.95 C 163.02 126.99 201.01 127.12 238.99 126.91 C 238.72 122.89 239.71 118.66 238.44 114.75 C 237.82 112.50 236.93 110.33 235.88 108.25 C 238.02 106.86 241.54 106.24 238.97 101.99 C 239.05 90.59 239.08 79.20 238.89 67.81 C 238.65 62.31 239.90 56.41 237.91 51.13 C 238.41 51.11 239.40 51.07 239.90 51.04 C 243.15 51.44 247.09 49.95 250.00 51.99 C 246.66 51.97 243.37 51.85 240.05 52.09 C 239.96 63.33 239.88 74.57 240.09 85.81 C 240.08 87.47 240.07 89.14 240.12 90.81 C 239.96 102.53 239.96 114.25 240.02 125.97 C 240.00 127.34 239.99 128.71 240.00 130.08 C 240.00 130.82 240.01 132.29 240.01 133.02 C 240.03 133.51 240.07 134.47 240.09 134.96 C 246.35 134.99 252.65 135.27 258.91 134.91 C 259.04 133.33 259.04 131.74 259.04 130.15 C 259.03 125.37 259.00 120.60 258.92 115.82 C 259.03 106.58 259.04 97.33 258.98 88.09 C 258.83 76.44 259.30 64.78 258.90 53.14 C 256.17 52.20 252.46 54.06 250.00 51.99 C 253.30 52.03 256.65 52.01 259.97 51.98 C 260.07 74.27 259.92 96.56 260.04 118.86 C 259.96 121.55 259.96 124.24 260.07 126.94 C 265.45 127.03 270.83 127.12 276.22 127.20 C 271.79 129.59 265.06 127.02 260.04 128.06 C 260.03 129.78 260.02 133.23 260.01 134.95 C 268.68 135.16 277.36 134.86 286.04 135.02 L 285.96 135.97 C 205.37 136.18 124.78 135.70 44.20 136.20 C 43.97 129.74 44.13 123.28 43.91 116.82 C 42.83 119.00 41.78 121.31 39.71 122.76 C 37.17 122.85 34.62 122.96 32.08 123.08 C 35.73 122.77 39.67 122.07 41.69 118.71 C 43.14 112.58 44.15 105.72 41.04 99.97 C 39.90 96.85 35.42 97.40 33.01 96.92 C 33.67 96.27 34.32 95.62 34.95 94.96 C 35.15 82.33 34.99 69.69 34.95 57.06 C 32.31 56.92 29.66 56.89 27.01 56.97 C 32.15 55.81 38.21 57.37 42.13 53.08 C 41.55 55.07 40.26 57.10 37.92 57.06 C 37.46 57.12 36.55 57.23 36.09 57.29 C 35.88 69.59 35.96 81.90 36.07 94.20 C 35.29 96.84 38.36 95.76 39.89 96.06 C 42.61 97.80 45.01 107.95 44.12 97.16 L 45.06 97.19 C 45.05 105.72 44.80 114.27 45.12 122.81 C 45.03 126.85 45.00 130.90 45.04 134.96 C 64.34 135.00 83.64 135.11 102.93 134.93 C 103.06 133.23 103.04 131.53 102.99 129.83 C 102.97 129.38 102.92 128.48 102.90 128.02 C 86.95 127.79 70.99 128.25 55.05 127.92 C 54.82 118.03 55.22 108.14 54.89 98.26 C 53.68 97.92 51.27 97.24 50.06 96.91 C 51.60 97.12 54.67 97.54 56.21 97.75 C 56.02 107.48 55.75 117.22 56.09 126.95 C 71.70 127.03 87.33 127.10 102.95 126.93 C 102.96 125.45 103.00 122.49 103.01 121.01 C 103.04 117.00 103.03 112.99 103.00 108.99 L 103.00 107.99 C 103.00 107.24 103.00 105.75 103.00 105.00 L 102.98 104.01 C 102.93 102.31 102.82 98.92 102.76 97.22 C 103.18 82.75 103.02 68.28 102.90 53.82 C 102.99 47.26 103.09 40.70 102.96 34.14 C 102.67 31.44 104.26 27.87 101.73 26.15 C 86.55 25.84 71.36 25.96 56.18 26.08 C 56.69 28.68 56.28 30.98 54.97 32.99 C 54.93 30.34 54.97 27.69 55.08 25.05 C 71.04 24.77 87.02 25.26 102.98 24.92 C 103.11 22.29 103.10 19.67 102.94 17.05 C 83.64 17.00 64.34 16.87 45.05 17.08 C 44.98 37.18 44.90 57.28 45.08 77.37 C 44.72 76.74 44.00 75.47 43.64 74.84 C 44.03 66.50 44.29 58.14 43.86 49.80 C 43.23 50.86 42.70 51.98 42.13 53.08 C 42.58 49.36 43.51 45.71 43.93 42.00 C 43.45 38.89 41.70 36.01 42.18 32.75 C 42.72 33.92 43.23 35.10 43.85 36.22 C 44.28 29.50 43.90 22.75 44.00 16.01 M 104.03 17.03 C 103.89 19.62 103.93 22.21 104.12 24.79 C 103.84 29.42 103.87 34.08 104.16 38.70 C 103.86 46.18 103.95 53.67 104.09 61.15 C 103.91 71.71 103.90 82.28 104.10 92.84 C 103.98 94.92 103.92 97.01 103.99 99.10 C 103.94 101.80 103.98 104.50 104.11 107.20 C 103.89 109.86 103.91 112.54 104.18 115.22 C 103.88 119.19 103.86 123.18 104.12 127.19 C 103.93 128.79 103.96 130.42 104.00 132.03 C 104.00 132.76 104.01 134.23 104.01 134.96 C 110.66 135.06 117.31 135.06 123.96 134.97 C 124.05 133.60 124.08 132.23 124.04 130.86 C 124.02 129.12 123.97 125.65 123.94 123.91 C 124.09 120.70 124.19 117.43 123.85 114.23 C 124.10 84.73 124.12 55.20 123.83 25.69 C 123.87 24.98 123.96 23.56 124.00 22.85 C 123.97 22.32 123.91 21.26 123.88 20.72 C 124.42 18.36 124.23 15.93 121.20 17.11 C 115.48 16.82 109.75 16.99 104.03 17.03 M 125.05 17.03 C 125.36 19.97 122.79 26.74 127.68 24.82 C 163.83 25.20 200.02 24.97 236.18 24.93 C 241.32 26.76 237.86 19.15 238.98 17.06 C 201.01 16.92 163.02 17.01 125.05 17.03 M 125.01 134.94 C 162.99 135.08 200.98 134.99 238.97 134.97 C 238.87 132.06 240.82 126.35 236.32 128.18 C 199.84 127.78 163.34 128.03 126.85 128.08 C 122.64 126.47 126.92 134.33 125.01 134.94 Z" />
</g>
<g id="#2f352dff">
<path fill="#2f352d" opacity="1.00" d=" M 45.05 17.08 C 64.34 16.87 83.64 17.00 102.94 17.05 C 103.10 19.67 103.11 22.29 102.98 24.92 C 87.02 25.26 71.04 24.77 55.08 25.05 C 54.97 27.69 54.93 30.34 54.97 32.99 C 54.38 33.94 54.09 34.99 54.08 36.12 C 53.91 39.22 52.97 42.17 51.92 45.08 C 50.80 48.01 49.89 51.06 50.18 54.23 C 48.73 61.97 47.69 69.90 45.08 77.37 C 44.90 57.28 44.98 37.18 45.05 17.08 Z" />
</g>
<g id="#32322aff">
<path fill="#32322a" opacity="1.00" d=" M 104.03 17.03 C 109.75 16.99 115.48 16.82 121.20 17.11 C 119.20 20.73 115.22 22.50 112.58 25.59 C 110.04 28.29 106.64 26.41 104.12 24.79 C 103.93 22.21 103.89 19.62 104.03 17.03 Z" />
</g>
<g id="#3b3a30ff">
<path fill="#3b3a30" opacity="1.00" d=" M 121.20 17.11 C 124.23 15.93 124.42 18.36 123.88 20.72 C 118.84 22.35 113.71 26.25 114.41 32.29 C 115.03 37.68 115.28 44.62 110.27 48.03 C 108.87 44.58 108.34 39.93 104.16 38.70 C 103.87 34.08 103.84 29.42 104.12 24.79 C 106.64 26.41 110.04 28.29 112.58 25.59 C 115.22 22.50 119.20 20.73 121.20 17.11 Z" />
<path fill="#3b3a30" opacity="1.00" d=" M 248.10 57.08 C 251.14 55.99 249.09 59.30 249.22 60.89 C 250.92 63.98 250.81 69.08 254.88 70.15 C 257.27 71.83 257.83 79.30 253.16 77.49 C 251.07 79.52 250.27 86.55 254.66 86.73 C 255.20 83.58 257.96 86.88 258.98 88.09 C 259.04 97.33 259.03 106.58 258.92 115.82 C 258.03 116.79 257.20 117.81 256.29 118.76 C 255.00 117.00 252.97 115.40 253.06 113.02 C 254.94 109.01 251.64 107.46 249.51 105.48 C 248.13 102.94 247.94 100.18 249.86 97.89 C 248.76 92.11 246.03 86.73 246.29 80.68 C 246.32 72.81 247.22 64.91 248.10 57.08 Z" />
</g>
<g id="#2d342dff">
<path fill="#2d342d" opacity="1.00" d=" M 125.05 17.03 C 163.02 17.01 201.01 16.92 238.98 17.06 C 237.86 19.15 241.32 26.76 236.18 24.93 C 235.93 23.59 236.06 22.00 234.71 21.20 C 222.75 19.37 210.63 21.12 198.64 20.36 C 184.80 20.92 170.93 20.84 157.09 21.29 C 154.49 22.32 152.22 20.03 149.64 20.45 C 142.89 21.52 135.68 19.09 129.26 22.23 C 128.65 23.04 128.13 23.91 127.68 24.82 C 122.79 26.74 125.36 19.97 125.05 17.03 Z" />
<path fill="#2d342d" opacity="1.00" d=" M 125.01 134.94 C 126.92 134.33 122.64 126.47 126.85 128.08 C 127.61 129.35 128.31 130.66 129.22 131.84 C 159.68 131.33 190.40 129.74 220.65 132.56 C 223.75 131.89 226.81 131.09 230.02 131.15 C 233.94 133.46 235.10 130.37 236.32 128.18 C 240.82 126.35 238.87 132.06 238.97 134.97 C 200.98 134.99 162.99 135.08 125.01 134.94 Z" />
</g>
<g id="#34342bff">
<path fill="#34342b" opacity="1.00" d=" M 240.08 17.07 C 246.35 16.75 252.63 17.00 258.91 17.05 C 259.03 18.68 259.03 20.30 259.03 21.93 C 255.00 19.08 255.87 29.72 250.13 24.93 C 246.80 22.54 243.44 20.22 240.04 17.95 L 240.08 17.07 Z" />
</g>
<g id="#3e3d32ff">
<path fill="#3e3d32" opacity="1.00" d=" M 240.04 17.95 C 243.44 20.22 246.80 22.54 250.13 24.93 C 255.87 29.72 255.00 19.08 259.03 21.93 C 259.02 28.60 259.07 35.28 258.93 41.95 C 256.27 41.95 250.93 41.96 248.26 41.97 C 247.70 41.70 246.56 41.16 245.99 40.90 C 246.60 36.05 247.63 31.11 246.81 26.24 C 245.13 23.99 242.55 22.85 239.99 21.95 C 239.97 20.61 239.98 19.28 240.04 17.95 Z" />
</g>
<g id="#323932ff">
<path fill="#323932" opacity="1.00" d=" M 129.26 22.23 C 135.68 19.09 142.89 21.52 149.64 20.45 C 152.22 20.03 154.49 22.32 157.09 21.29 C 170.93 20.84 184.80 20.92 198.64 20.36 C 210.63 21.12 222.75 19.37 234.71 21.20 C 236.06 22.00 235.93 23.59 236.18 24.93 C 200.02 24.97 163.83 25.20 127.68 24.82 C 128.13 23.91 128.65 23.04 129.26 22.23 Z" />
<path fill="#323932" opacity="1.00" d=" M 126.85 128.08 C 163.34 128.03 199.84 127.78 236.32 128.18 C 235.10 130.37 233.94 133.46 230.02 131.15 C 226.81 131.09 223.75 131.89 220.65 132.56 C 190.40 129.74 159.68 131.33 129.22 131.84 C 128.31 130.66 127.61 129.35 126.85 128.08 Z" />
</g>
<g id="#413f34ff">
<path fill="#413f34" opacity="1.00" d=" M 114.41 32.29 C 113.71 26.25 118.84 22.35 123.88 20.72 C 123.91 21.26 123.97 22.32 124.00 22.85 C 123.28 22.94 121.83 23.12 121.10 23.21 C 114.00 31.42 116.37 43.09 116.00 53.01 C 116.80 62.26 116.03 71.79 118.44 80.77 C 117.31 83.78 118.19 91.22 113.15 89.21 C 111.12 92.53 109.87 96.31 107.20 99.26 C 106.56 100.64 104.96 99.26 103.99 99.10 C 103.92 97.01 103.98 94.92 104.10 92.84 C 104.59 95.01 107.79 96.02 108.42 93.38 C 113.50 86.28 111.36 77.31 110.47 69.31 C 109.40 66.01 113.18 60.60 109.76 58.10 C 107.27 57.30 105.78 59.85 104.09 61.15 C 103.95 53.67 103.86 46.18 104.16 38.70 C 108.34 39.93 108.87 44.58 110.27 48.03 C 115.28 44.62 115.03 37.68 114.41 32.29 Z" />
</g>
<g id="#49483cff">
<path fill="#49483c" opacity="1.00" d=" M 239.99 21.95 C 242.55 22.85 245.13 23.99 246.81 26.24 C 247.63 31.11 246.60 36.05 245.99 40.90 C 244.52 40.90 241.56 40.92 240.09 40.92 C 239.75 34.61 240.06 28.27 239.99 21.95 Z" />
</g>
<g id="#464539ff">
<path fill="#464539" opacity="1.00" d=" M 121.10 23.21 C 121.83 23.12 123.28 22.94 124.00 22.85 C 123.96 23.56 123.87 24.98 123.83 25.69 C 118.78 27.09 121.87 33.86 119.00 37.01 C 115.25 41.62 118.76 47.77 117.94 53.01 C 115.81 57.39 120.37 60.30 119.63 64.31 C 119.85 68.18 119.45 72.02 119.16 75.87 C 121.57 79.99 121.38 85.17 120.78 89.75 C 118.52 92.61 116.21 95.92 112.28 96.27 C 108.96 99.41 108.83 105.21 104.11 107.20 C 103.98 104.50 103.94 101.80 103.99 99.10 C 104.96 99.26 106.56 100.64 107.20 99.26 C 109.87 96.31 111.12 92.53 113.15 89.21 C 118.19 91.22 117.31 83.78 118.44 80.77 C 116.03 71.79 116.80 62.26 116.00 53.01 C 116.37 43.09 114.00 31.42 121.10 23.21 Z" />
</g>
<g id="#171814ff">
<path fill="#171814" opacity="1.00" d=" M 56.18 26.08 C 71.36 25.96 86.55 25.84 101.73 26.15 C 104.26 27.87 102.67 31.44 102.96 34.14 C 101.32 32.06 99.61 30.03 97.78 28.11 C 91.70 27.65 85.79 28.65 79.89 29.31 C 80.65 31.39 82.42 32.86 83.35 34.85 C 77.50 33.38 72.12 29.96 66.21 29.09 C 62.90 31.28 67.76 33.59 66.95 36.34 C 62.74 36.84 56.54 31.55 54.08 36.12 C 54.09 34.99 54.38 33.94 54.97 32.99 C 56.28 30.98 56.69 28.68 56.18 26.08 Z" />
<path fill="#171814" opacity="1.00" d=" M 7.24 94.18 C 10.06 93.75 12.94 94.13 15.78 94.20 C 19.57 94.78 23.38 94.98 27.21 94.80 C 29.79 94.90 32.37 94.96 34.95 94.96 C 34.32 95.62 33.67 96.27 33.01 96.92 C 35.42 97.40 39.90 96.85 41.04 99.97 C 44.15 105.72 43.14 112.58 41.69 118.71 C 39.67 122.07 35.73 122.77 32.08 123.08 C 26.67 124.08 19.73 121.06 14.99 124.12 C 12.69 124.01 10.44 123.51 8.28 122.73 C 6.77 121.09 6.08 118.91 4.90 117.05 C 4.74 111.99 5.69 106.79 4.41 101.82 C 4.63 98.98 4.64 95.86 7.24 94.18 M 12.37 100.35 C 9.74 101.37 8.14 103.37 9.81 106.09 C 13.11 111.01 5.12 111.78 8.22 116.63 C 9.81 117.35 11.10 119.17 12.98 118.97 C 19.86 117.29 26.87 120.04 33.69 119.70 C 35.29 118.21 37.05 116.95 38.89 115.79 C 37.83 111.67 37.11 107.38 37.93 103.17 C 35.43 101.26 32.29 100.00 29.01 101.00 C 23.40 101.64 17.95 99.33 12.37 100.35 Z" />
</g>
<g id="#4c4a3eff">
<path fill="#4c4a3e" opacity="1.00" d=" M 119.00 37.01 C 121.87 33.86 118.78 27.09 123.83 25.69 C 124.12 55.20 124.10 84.73 123.85 114.23 C 117.80 110.83 124.69 101.45 119.09 97.89 C 117.85 100.13 118.83 103.52 116.38 104.92 C 114.98 103.33 114.71 99.95 112.15 100.02 C 109.57 105.12 107.23 110.35 104.18 115.22 C 103.91 112.54 103.89 109.86 104.11 107.20 C 108.83 105.21 108.96 99.41 112.28 96.27 C 116.21 95.92 118.52 92.61 120.78 89.75 C 121.38 85.17 121.57 79.99 119.16 75.87 C 119.45 72.02 119.85 68.18 119.63 64.31 C 120.37 60.30 115.81 57.39 117.94 53.01 C 118.76 47.77 115.25 41.62 119.00 37.01 Z" />
</g>
<g id="#1a1c18ff">
<path fill="#1a1c18" opacity="1.00" d=" M 125.05 26.09 C 163.02 25.89 201.00 26.01 238.97 26.04 C 239.04 30.12 239.01 34.19 238.86 38.27 C 236.92 35.87 237.50 32.07 234.73 30.31 C 225.96 31.83 217.02 24.49 208.59 29.35 C 192.44 29.88 175.75 31.61 159.97 28.02 C 155.68 27.50 151.40 28.07 147.31 29.28 C 140.12 27.36 128.52 25.53 125.08 34.18 C 125.03 31.48 125.02 28.79 125.05 26.09 Z" />
<path fill="#1a1c18" opacity="1.00" d=" M 260.04 118.86 C 261.96 121.10 263.45 125.32 267.59 122.42 C 270.52 122.00 273.97 120.21 276.71 122.04 C 276.91 122.80 277.30 124.32 277.50 125.08 C 277.18 125.61 276.54 126.67 276.22 127.20 C 270.83 127.12 265.45 127.03 260.07 126.94 C 259.96 124.24 259.96 121.55 260.04 118.86 Z" />
</g>
<g id="#181a17ff">
<path fill="#181a17" opacity="1.00" d=" M 260.08 26.09 C 265.45 25.97 270.84 25.87 276.22 25.79 C 278.39 27.95 277.68 31.32 277.92 34.12 C 276.74 31.66 277.14 27.17 271.97 29.83 C 267.57 28.46 262.99 29.77 260.01 33.12 C 260.03 31.36 260.06 27.84 260.08 26.09 Z" />
</g>
<g id="#c2c2c2ff">
<path fill="#c2c2c2" opacity="1.00" d=" M 7.85 27.79 C 9.56 25.71 13.31 25.98 15.11 27.91 C 13.30 27.88 9.67 27.82 7.85 27.79 Z" />
<path fill="#c2c2c2" opacity="1.00" d=" M 15.78 94.20 C 19.61 94.01 23.43 94.21 27.21 94.80 C 23.38 94.98 19.57 94.78 15.78 94.20 Z" />
</g>
<g id="#151612ff">
<path fill="#151612" opacity="1.00" d=" M 18.21 27.57 C 19.49 27.20 20.36 27.95 21.07 28.94 C 26.58 31.04 33.25 29.79 39.26 29.75 C 40.98 29.76 41.71 31.36 42.18 32.75 C 41.70 36.01 43.45 38.89 43.93 42.00 C 43.51 45.71 42.58 49.36 42.13 53.08 C 38.21 57.37 32.15 55.81 27.01 56.97 C 20.27 57.07 13.51 56.86 6.77 57.20 C 4.56 56.03 5.07 53.34 4.64 51.27 C 4.67 46.14 5.76 40.86 4.40 35.82 C 4.44 32.64 5.00 29.53 7.85 27.79 C 9.67 27.82 13.30 27.88 15.11 27.91 C 15.89 27.83 17.44 27.66 18.21 27.57 M 14.22 32.48 C 9.68 32.64 6.99 37.85 8.00 42.00 C 8.94 45.46 7.72 50.43 11.21 52.78 C 15.82 53.03 20.52 54.58 25.00 53.02 C 28.87 54.27 33.79 53.65 36.72 50.73 C 39.07 46.60 37.77 41.53 39.66 37.20 C 39.40 33.95 35.47 34.70 34.65 32.18 C 27.97 32.80 21.05 32.95 14.22 32.48 Z" />
</g>
<g id="#24241fff">
<path fill="#24241f" opacity="1.00" d=" M 79.89 29.31 C 85.79 28.65 91.70 27.65 97.78 28.11 C 99.61 30.03 101.32 32.06 102.96 34.14 C 103.09 40.70 102.99 47.26 102.90 53.82 C 101.49 56.39 100.84 60.84 96.01 58.05 C 91.33 57.02 84.50 60.39 81.17 55.74 C 80.91 51.55 82.80 47.54 84.49 43.77 C 84.50 40.81 84.51 37.61 83.35 34.85 C 82.42 32.86 80.65 31.39 79.89 29.31 Z" />
<path fill="#24241f" opacity="1.00" d=" M 259.97 51.98 L 260.92 52.06 C 261.73 55.12 262.58 58.16 263.45 61.21 C 263.22 62.74 261.59 64.00 262.34 65.67 C 262.96 67.65 262.82 71.39 265.80 71.05 C 264.87 68.72 266.21 67.27 267.92 65.89 C 270.42 63.92 268.07 59.93 271.14 58.50 C 274.43 59.78 276.75 55.20 279.94 57.94 C 280.26 58.17 280.92 58.64 281.24 58.88 C 280.78 70.24 281.09 81.62 281.02 92.99 C 280.14 96.65 279.82 100.37 280.05 104.14 C 278.38 106.16 278.03 108.44 279.00 110.99 C 277.37 113.15 277.07 115.49 278.09 118.03 C 276.65 118.83 276.80 120.64 276.71 122.04 C 273.97 120.21 270.52 122.00 267.59 122.42 C 263.45 125.32 261.96 121.10 260.04 118.86 C 259.92 96.56 260.07 74.27 259.97 51.98 M 263.20 94.07 C 262.09 98.15 261.72 102.42 262.15 106.64 C 266.45 108.17 260.54 111.05 261.19 113.64 C 264.20 114.38 263.65 119.03 266.03 119.93 C 269.02 118.36 271.04 115.06 273.67 112.88 C 272.76 110.89 273.03 106.89 274.24 110.94 C 276.47 108.82 275.94 104.20 274.76 101.26 C 271.39 101.41 271.01 98.71 271.76 95.25 C 270.13 92.26 265.37 95.42 263.20 94.07 Z" />
</g>
<g id="#20211dff">
<path fill="#20211d" opacity="1.00" d=" M 125.08 34.18 C 128.52 25.53 140.12 27.36 147.31 29.28 C 151.40 28.07 155.68 27.50 159.97 28.02 C 175.75 31.61 192.44 29.88 208.59 29.35 C 217.02 24.49 225.96 31.83 234.73 30.31 C 237.50 32.07 236.92 35.87 238.86 38.27 C 238.99 39.57 238.48 40.74 237.89 41.86 C 236.92 43.43 236.98 45.33 236.75 47.10 C 234.68 46.11 232.68 44.97 231.03 43.34 C 232.38 42.94 233.80 42.65 234.99 41.84 C 234.83 39.21 234.47 36.62 233.84 34.07 C 232.27 34.09 230.73 34.36 229.17 34.48 C 227.00 33.01 224.79 31.32 222.02 31.46 C 216.74 32.33 211.40 30.30 206.20 32.14 C 203.81 35.37 200.01 30.35 197.00 32.05 C 190.58 32.53 183.08 30.01 177.63 34.47 C 174.09 34.09 170.03 35.38 166.97 33.07 C 161.80 30.06 155.66 32.43 150.11 31.27 C 148.41 32.51 146.62 32.44 144.89 31.30 C 139.66 32.22 134.31 30.27 129.24 32.29 C 127.83 36.32 126.69 44.31 133.89 42.27 C 137.40 43.19 143.07 41.30 144.06 45.96 C 139.20 46.60 133.71 44.64 129.24 47.25 C 127.98 50.94 128.78 54.89 128.28 58.69 C 129.49 59.09 131.75 58.82 130.77 60.75 C 128.65 62.67 124.40 63.48 127.32 67.92 C 127.13 71.06 127.93 73.99 128.95 76.91 C 128.09 78.68 126.62 80.16 126.11 82.08 C 126.13 83.93 127.15 86.07 125.13 87.24 C 124.89 69.55 124.97 51.87 125.08 34.18 Z" />
<path fill="#20211d" opacity="1.00" d=" M 234.37 75.40 C 237.23 73.84 239.12 71.38 238.89 67.81 C 239.08 79.20 239.05 90.59 238.97 101.99 C 241.54 106.24 238.02 106.86 235.88 108.25 C 234.63 106.83 236.09 105.25 236.37 103.75 C 236.24 99.41 235.60 95.07 233.64 91.17 C 234.56 87.51 235.88 83.95 236.52 80.23 C 235.87 78.59 234.97 77.06 234.37 75.40 Z" />
</g>
<g id="#010101ff">
<path fill="#010101" opacity="1.00" d=" M 21.07 28.94 C 27.14 29.19 33.28 28.50 39.26 29.75 C 33.25 29.79 26.58 31.04 21.07 28.94 Z" />
<path fill="#010101" opacity="1.00" d=" M 6.77 57.20 C 13.51 56.86 20.27 57.07 27.01 56.97 C 20.50 58.47 13.14 58.66 6.77 57.20 Z" />
<path fill="#010101" opacity="1.00" d=" M 291.10 58.07 C 296.40 57.99 301.70 57.98 307.00 58.01 C 302.05 58.90 297.07 59.28 292.03 59.14 C 292.04 60.57 292.05 63.43 292.06 64.86 C 292.08 65.59 292.14 67.03 292.16 67.75 C 292.08 69.89 292.01 72.03 292.02 74.17 C 292.00 75.39 292.00 76.61 292.02 77.83 C 292.01 79.97 292.08 82.11 292.16 84.25 C 292.14 84.97 292.08 86.41 292.06 87.14 C 292.05 88.57 292.04 91.43 292.03 92.86 C 297.07 92.71 302.06 93.09 307.00 94.00 C 301.70 94.03 296.40 94.00 291.11 93.93 C 291.08 92.47 291.03 89.53 291.00 88.06 C 291.00 80.02 291.03 71.98 291.00 63.94 C 291.03 62.47 291.08 59.53 291.10 58.07 Z" />
</g>
<g id="#5b3723ff">
<path fill="#5b3723" opacity="1.00" d=" M 66.21 29.09 C 72.12 29.96 77.50 33.38 83.35 34.85 C 82.60 38.42 79.53 37.19 76.93 38.02 C 74.87 36.05 72.27 34.78 69.38 35.32 C 68.56 33.19 67.74 35.47 66.95 36.34 C 67.76 33.59 62.90 31.28 66.21 29.09 Z" />
</g>
<g id="#242520ff">
<path fill="#242520" opacity="1.00" d=" M 260.01 33.12 C 262.99 29.77 267.57 28.46 271.97 29.83 C 277.14 27.17 276.74 31.66 277.92 34.12 C 276.61 37.36 277.06 39.59 279.25 40.82 C 279.07 42.51 278.89 44.19 278.66 45.86 C 278.07 47.09 278.33 49.69 276.29 48.78 C 274.66 46.97 273.75 43.78 269.96 45.98 C 265.99 44.03 263.53 46.95 261.10 49.12 C 260.87 47.55 260.41 44.40 260.18 42.82 C 259.94 39.60 259.97 36.35 260.01 33.12 Z" />
</g>
<g id="#262722ff">
<path fill="#262722" opacity="1.00" d=" M 129.24 32.29 C 134.31 30.27 139.66 32.22 144.89 31.30 C 146.62 32.44 148.41 32.51 150.11 31.27 C 155.66 32.43 161.80 30.06 166.97 33.07 C 170.03 35.38 174.09 34.09 177.63 34.47 C 183.08 30.01 190.58 32.53 197.00 32.05 C 200.01 30.35 203.81 35.37 206.20 32.14 C 211.40 30.30 216.74 32.33 222.02 31.46 C 224.79 31.32 227.00 33.01 229.17 34.48 C 230.73 34.36 232.27 34.09 233.84 34.07 C 234.47 36.62 234.83 39.21 234.99 41.84 C 233.80 42.65 232.38 42.94 231.03 43.34 C 232.68 44.97 234.68 46.11 236.75 47.10 C 237.02 48.47 237.28 49.87 237.91 51.13 C 239.90 56.41 238.65 62.31 238.89 67.81 C 239.12 71.38 237.23 73.84 234.37 75.40 C 234.97 77.06 235.87 78.59 236.52 80.23 C 235.88 83.95 234.56 87.51 233.64 91.17 C 235.60 95.07 236.24 99.41 236.37 103.75 C 236.09 105.25 234.63 106.83 235.88 108.25 C 236.93 110.33 237.82 112.50 238.44 114.75 C 238.22 117.05 237.89 119.49 235.72 120.79 C 229.43 122.77 222.85 120.09 216.62 122.50 C 210.25 122.55 203.49 123.68 197.27 121.78 C 196.97 120.75 197.10 116.08 196.13 119.12 C 196.27 121.64 193.57 120.88 191.92 121.07 L 192.20 120.21 C 193.55 119.55 195.69 119.15 194.94 117.15 C 191.66 115.91 188.01 116.53 184.74 115.33 C 187.30 114.68 191.88 116.38 193.11 114.01 C 190.33 114.02 184.76 114.03 181.98 114.04 C 178.37 113.16 174.71 112.81 171.00 113.00 C 167.37 112.20 163.71 111.87 160.00 112.01 C 156.71 111.16 153.37 110.94 150.00 110.99 C 146.37 110.20 142.71 109.86 139.00 109.98 C 135.81 109.31 132.61 108.92 129.37 108.86 C 128.00 107.13 126.41 105.60 125.04 103.88 C 124.88 98.33 124.99 92.78 125.13 87.24 C 127.15 86.07 126.13 83.93 126.11 82.08 C 126.62 80.16 128.09 78.68 128.95 76.91 C 127.93 73.99 127.13 71.06 127.32 67.92 C 124.40 63.48 128.65 62.67 130.77 60.75 C 131.75 58.82 129.49 59.09 128.28 58.69 C 128.78 54.89 127.98 50.94 129.24 47.25 C 133.71 44.64 139.20 46.60 144.06 45.96 C 143.07 41.30 137.40 43.19 133.89 42.27 C 126.69 44.31 127.83 36.32 129.24 32.29 M 215.21 32.26 C 213.96 33.21 213.15 35.35 211.28 34.64 C 207.29 34.16 203.90 36.43 201.13 38.99 C 200.14 37.48 198.83 35.81 199.78 33.96 C 196.55 36.38 189.05 32.29 189.82 37.99 C 187.05 38.35 184.00 34.29 181.76 37.76 C 180.32 40.39 177.47 36.66 175.78 38.77 C 172.96 40.98 169.27 41.48 166.01 39.97 C 166.01 40.48 166.01 41.50 166.01 42.02 C 173.11 40.77 180.12 42.07 187.21 42.81 C 178.13 44.05 168.97 41.49 160.01 42.97 C 156.08 43.80 149.27 41.34 147.04 45.89 C 145.83 46.46 145.52 48.02 144.08 48.36 C 144.78 50.51 147.25 49.82 148.99 50.14 C 149.21 51.56 148.56 52.24 147.04 52.19 C 148.12 53.18 149.23 53.95 149.34 55.66 C 158.10 59.97 167.94 58.21 177.23 58.80 C 189.59 58.77 201.92 58.27 214.27 58.67 C 221.20 59.48 228.16 56.53 235.06 58.00 C 234.59 54.78 231.39 52.72 232.84 49.22 C 228.23 44.38 219.87 47.47 213.90 45.94 C 216.03 44.01 213.63 44.48 212.95 43.01 C 217.07 41.97 226.12 45.95 225.80 39.36 C 223.27 38.04 221.51 35.65 219.63 33.56 C 218.05 33.55 216.66 32.77 215.21 32.26 M 164.23 62.20 C 163.10 63.28 161.97 64.37 161.08 65.65 C 163.50 66.87 165.54 68.70 167.78 70.22 C 166.75 75.84 173.11 74.20 177.00 74.90 C 182.06 74.01 187.53 74.91 192.30 72.42 C 194.40 72.38 198.03 73.83 198.89 70.92 C 198.29 68.43 201.47 68.45 201.26 70.83 C 203.76 69.71 206.14 68.32 208.68 67.25 C 209.52 68.44 210.46 69.57 211.36 70.72 C 213.07 71.84 212.74 69.16 214.12 69.13 C 215.22 68.97 215.95 68.38 216.30 67.33 C 218.12 67.87 220.30 67.71 221.74 69.08 C 221.43 70.31 221.02 71.53 220.99 72.81 C 223.67 72.93 226.15 73.97 228.72 74.62 C 230.38 73.15 232.39 72.52 234.76 72.75 C 236.28 70.15 236.38 67.10 236.70 64.17 C 235.04 61.68 232.06 60.93 229.01 61.95 C 223.96 61.20 218.89 63.87 214.00 62.04 C 206.33 61.68 198.64 63.04 191.01 62.11 C 182.07 60.58 172.96 63.87 164.23 62.20 M 140.27 83.29 C 138.16 83.87 136.81 85.54 136.64 87.71 C 135.78 90.11 132.92 88.60 131.13 88.33 C 128.98 89.12 131.39 90.65 131.96 91.79 C 129.51 91.95 126.19 94.08 127.20 96.90 C 128.29 99.43 126.70 103.07 129.25 104.75 C 131.57 104.60 133.60 105.21 135.33 106.59 C 141.33 105.83 147.92 108.29 153.83 105.03 C 152.64 103.37 153.85 101.65 155.85 101.97 C 155.91 102.72 156.04 104.21 156.10 104.95 C 158.12 105.18 155.82 100.58 158.90 102.06 C 160.99 103.93 164.42 105.58 164.21 108.94 C 171.71 108.19 179.10 111.15 186.66 110.86 C 186.90 106.87 192.88 110.49 194.63 109.21 C 195.37 110.49 196.15 111.75 196.94 113.00 C 198.19 115.37 203.85 112.42 200.18 118.88 C 205.16 120.85 210.02 118.94 214.98 118.28 C 216.55 118.61 218.14 119.30 219.78 118.87 C 221.49 116.22 224.75 113.15 228.05 113.76 C 227.70 110.54 227.06 107.28 228.08 104.09 C 228.37 104.57 228.96 105.54 229.25 106.02 C 232.32 105.11 229.15 102.77 229.56 100.76 C 229.76 98.35 225.02 98.63 226.79 96.06 C 222.84 96.06 219.06 94.07 215.09 94.76 C 210.05 92.24 204.53 97.65 199.93 94.04 C 195.72 94.88 191.47 94.22 187.16 94.40 C 185.53 95.66 185.36 97.91 184.70 99.72 C 183.13 100.08 181.56 100.43 179.99 100.78 C 177.66 100.24 176.34 97.11 173.20 98.80 C 172.28 96.22 170.95 95.94 168.77 97.59 C 166.22 96.58 163.40 95.01 161.29 97.88 C 159.01 92.00 151.12 93.55 146.00 94.07 C 145.04 91.79 149.70 94.11 148.62 92.26 C 146.87 88.85 157.79 93.00 155.26 88.75 C 153.67 84.11 148.04 86.49 144.37 84.72 C 144.18 82.60 141.79 82.70 140.27 83.29 Z" />
</g>
<g id="#1d1e19ff">
<path fill="#1d1e19" opacity="1.00" d=" M 14.22 32.48 C 21.05 32.95 27.97 32.80 34.65 32.18 C 35.47 34.70 39.40 33.95 39.66 37.20 C 37.77 41.53 39.07 46.60 36.72 50.73 C 33.79 53.65 28.87 54.27 25.00 53.02 C 20.52 54.58 15.82 53.03 11.21 52.78 C 7.72 50.43 8.94 45.46 8.00 42.00 C 6.99 37.85 9.68 32.64 14.22 32.48 M 31.10 33.97 C 30.61 34.88 31.79 38.64 30.29 37.71 C 29.37 33.69 23.52 37.21 23.37 39.79 C 24.09 41.22 24.77 43.84 26.91 42.79 C 29.19 41.63 31.44 43.46 33.78 42.88 C 34.85 40.46 37.60 38.91 37.97 36.26 C 35.32 36.31 33.78 33.49 31.10 33.97 Z" />
</g>
<g id="#2a2b25ff">
<path fill="#2a2b25" opacity="1.00" d=" M 215.21 32.26 C 216.66 32.77 218.05 33.55 219.63 33.56 C 221.51 35.65 223.27 38.04 225.80 39.36 C 226.12 45.95 217.07 41.97 212.95 43.01 C 213.63 44.48 216.03 44.01 213.90 45.94 C 210.22 45.98 206.57 46.01 202.90 46.01 C 201.96 44.60 202.90 43.73 204.11 43.00 C 198.47 42.97 192.84 43.04 187.21 42.81 C 180.12 42.07 173.11 40.77 166.01 42.02 C 166.01 41.50 166.01 40.48 166.01 39.97 C 169.27 41.48 172.96 40.98 175.78 38.77 C 177.47 36.66 180.32 40.39 181.76 37.76 C 184.00 34.29 187.05 38.35 189.82 37.99 C 189.05 32.29 196.55 36.38 199.78 33.96 C 198.83 35.81 200.14 37.48 201.13 38.99 C 203.90 36.43 207.29 34.16 211.28 34.64 C 213.15 35.35 213.96 33.21 215.21 32.26 Z" />
<path fill="#2a2b25" opacity="1.00" d=" M 144.08 48.36 C 145.52 48.02 145.83 46.46 147.04 45.89 C 151.36 46.53 155.79 47.27 160.11 46.28 C 167.79 45.56 175.54 46.13 183.25 46.19 C 177.68 47.23 173.76 51.44 169.12 54.35 C 170.85 57.19 173.76 58.90 177.23 58.80 C 167.94 58.21 158.10 59.97 149.34 55.66 C 149.23 53.95 148.12 53.18 147.04 52.19 C 148.56 52.24 149.21 51.56 148.99 50.14 C 147.25 49.82 144.78 50.51 144.08 48.36 Z" />
<path fill="#2a2b25" opacity="1.00" d=" M 164.23 62.20 C 172.96 63.87 182.07 60.58 191.01 62.11 C 198.64 63.04 206.33 61.68 214.00 62.04 C 218.89 63.87 223.96 61.20 229.01 61.95 C 232.06 60.93 235.04 61.68 236.70 64.17 C 236.38 67.10 236.28 70.15 234.76 72.75 C 232.39 72.52 230.38 73.15 228.72 74.62 C 226.15 73.97 223.67 72.93 220.99 72.81 C 221.02 71.53 221.43 70.31 221.74 69.08 C 220.30 67.71 218.12 67.87 216.30 67.33 C 215.95 68.38 215.22 68.97 214.12 69.13 C 212.74 69.16 213.07 71.84 211.36 70.72 C 210.46 69.57 209.52 68.44 208.68 67.25 C 206.14 68.32 203.76 69.71 201.26 70.83 C 201.47 68.45 198.29 68.43 198.89 70.92 C 198.03 73.83 194.40 72.38 192.30 72.42 C 187.53 74.91 182.06 74.01 177.00 74.90 C 173.11 74.20 166.75 75.84 167.78 70.22 C 165.54 68.70 163.50 66.87 161.08 65.65 C 161.97 64.37 163.10 63.28 164.23 62.20 Z" />
</g>
<g id="#23241eff">
<path fill="#23241e" opacity="1.00" d=" M 31.10 33.97 C 33.78 33.49 35.32 36.31 37.97 36.26 C 37.60 38.91 34.85 40.46 33.78 42.88 C 31.44 43.46 29.19 41.63 26.91 42.79 C 24.77 43.84 24.09 41.22 23.37 39.79 C 23.52 37.21 29.37 33.69 30.29 37.71 C 31.79 38.64 30.61 34.88 31.10 33.97 Z" />
</g>
<g id="#6f5a3cff">
<path fill="#6f5a3c" opacity="1.00" d=" M 54.08 36.12 C 56.54 31.55 62.74 36.84 66.95 36.34 C 70.20 37.28 73.53 38.05 76.93 38.02 C 78.86 38.86 80.90 39.44 82.84 40.25 C 82.40 44.07 81.35 47.80 80.69 51.59 C 80.31 51.74 79.54 52.04 79.16 52.19 C 78.43 50.41 78.08 48.51 77.23 46.78 C 76.71 48.41 77.88 51.97 75.02 50.98 C 72.26 50.94 73.90 46.90 72.13 45.89 C 71.71 47.55 72.85 50.88 70.00 50.02 C 65.71 51.33 69.95 44.34 67.09 43.97 C 70.38 50.10 65.80 48.99 63.18 48.93 C 62.41 47.64 61.90 46.24 61.28 44.89 C 61.32 47.10 60.61 48.55 58.21 47.85 C 55.93 47.13 51.69 48.30 51.92 45.08 C 52.97 42.17 53.91 39.22 54.08 36.12 Z" />
<path fill="#6f5a3c" opacity="1.00" d=" M 85.72 75.89 C 87.52 75.94 89.32 76.01 91.12 76.07 C 89.72 79.13 90.06 81.38 92.13 82.82 C 91.98 88.21 91.95 93.61 92.02 99.00 L 93.00 98.99 C 92.63 93.69 93.99 87.92 92.13 82.82 C 92.06 81.14 91.93 77.76 91.86 76.07 C 94.87 75.98 97.87 75.98 100.90 76.07 C 101.83 83.09 101.90 90.19 102.76 97.22 C 102.82 98.92 102.93 102.31 102.98 104.01 C 101.62 103.98 100.25 103.95 98.89 103.91 C 100.28 100.84 99.94 98.59 97.86 97.18 C 98.01 91.78 98.05 86.39 97.98 81.00 L 97.00 81.01 C 97.36 86.31 96.01 92.08 97.86 97.18 C 97.94 98.86 98.08 102.22 98.15 103.90 C 94.72 103.96 91.31 103.96 87.89 104.09 C 87.70 95.02 87.70 85.75 85.95 76.86 L 85.72 75.89 Z" />
</g>
<g id="#2f1f14ff">
<path fill="#2f1f14" opacity="1.00" d=" M 66.95 36.34 C 67.74 35.47 68.56 33.19 69.38 35.32 C 72.27 34.78 74.87 36.05 76.93 38.02 C 73.53 38.05 70.20 37.28 66.95 36.34 Z" />
</g>
<g id="#000000ff">
<path fill="#000000" opacity="1.00" d=" M 277.92 34.12 C 279.80 35.63 280.24 37.87 279.25 40.82 C 277.06 39.59 276.61 37.36 277.92 34.12 Z" />
<path fill="#000000" opacity="1.00" d=" M 4.40 35.82 C 5.76 40.86 4.67 46.14 4.64 51.27 C 3.17 46.25 4.22 40.92 4.40 35.82 Z" />
<path fill="#000000" opacity="1.00" d=" M 279.25 40.82 C 280.25 43.43 279.92 46.25 280.09 49.00 C 279.44 48.03 278.96 46.99 278.66 45.86 C 278.89 44.19 279.07 42.51 279.25 40.82 Z" />
<path fill="#000000" opacity="1.00" d=" M 236.75 47.10 C 236.98 45.33 236.92 43.43 237.89 41.86 C 237.88 44.94 237.93 48.04 237.91 51.13 C 237.28 49.87 237.02 48.47 236.75 47.10 Z" />
<path fill="#000000" opacity="1.00" d=" M 260.18 42.82 C 260.41 44.40 260.87 47.55 261.10 49.12 C 261.05 49.86 260.96 51.33 260.92 52.06 L 259.97 51.98 C 260.03 48.93 260.10 45.87 260.18 42.82 Z" />
<path fill="#000000" opacity="1.00" d=" M 280.09 49.00 C 281.79 51.98 280.74 55.64 281.24 58.88 C 280.92 58.64 280.26 58.17 279.94 57.94 C 279.99 54.96 280.04 51.97 280.09 49.00 Z" />
<path fill="#000000" opacity="1.00" d=" M 307.00 58.01 C 313.49 56.26 320.28 57.10 326.92 57.04 C 327.17 69.67 326.99 82.32 326.94 94.95 C 320.29 94.91 313.51 95.72 307.00 94.00 C 313.31 93.96 319.64 94.24 325.95 93.91 C 326.06 81.96 326.08 70.00 325.95 58.05 C 319.62 57.95 313.31 57.91 307.00 58.01 Z" />
<path fill="#000000" opacity="1.00" d=" M 343.02 71.01 L 343.99 70.99 C 343.99 73.74 343.99 79.24 343.98 81.99 L 343.01 82.01 C 343.01 79.26 343.01 73.76 343.02 71.01 Z" />
<path fill="#000000" opacity="1.00" d=" M 280.05 104.14 C 279.82 100.37 280.14 96.65 281.02 92.99 C 281.04 96.74 280.72 100.46 280.05 104.14 Z" />
<path fill="#000000" opacity="1.00" d=" M 4.41 101.82 C 5.69 106.79 4.74 111.99 4.90 117.05 C 2.54 112.39 4.63 106.77 4.41 101.82 Z" />
<path fill="#000000" opacity="1.00" d=" M 279.00 110.99 C 278.03 108.44 278.38 106.16 280.05 104.14 C 280.86 106.65 280.51 108.93 279.00 110.99 Z" />
<path fill="#000000" opacity="1.00" d=" M 129.37 108.86 C 132.61 108.92 135.81 109.31 139.00 109.98 C 135.58 109.93 132.18 110.04 128.78 109.69 L 129.37 108.86 Z" />
<path fill="#000000" opacity="1.00" d=" M 139.00 109.98 C 142.71 109.86 146.37 110.20 150.00 110.99 C 146.28 111.15 142.61 110.81 139.00 109.98 Z" />
<path fill="#000000" opacity="1.00" d=" M 150.00 110.99 C 153.37 110.94 156.71 111.16 160.00 112.01 C 156.64 112.07 153.27 111.83 150.00 110.99 Z" />
<path fill="#000000" opacity="1.00" d=" M 278.09 118.03 C 277.07 115.49 277.37 113.15 279.00 110.99 C 279.87 113.47 279.57 115.82 278.09 118.03 Z" />
<path fill="#000000" opacity="1.00" d=" M 160.00 112.01 C 163.71 111.87 167.37 112.20 171.00 113.00 C 167.28 113.13 163.62 112.80 160.00 112.01 Z" />
<path fill="#000000" opacity="1.00" d=" M 171.00 113.00 C 174.71 112.81 178.37 113.16 181.98 114.04 C 178.27 114.13 174.61 113.78 171.00 113.00 Z" />
<path fill="#000000" opacity="1.00" d=" M 181.98 114.04 C 184.76 114.03 190.33 114.02 193.11 114.01 C 191.88 116.38 187.30 114.68 184.74 115.33 C 183.78 114.98 182.86 114.55 181.98 114.04 Z" />
<path fill="#000000" opacity="1.00" d=" M 128.74 116.22 C 128.75 115.84 128.78 115.09 128.79 114.71 C 132.20 114.94 135.60 115.29 138.97 115.93 C 135.55 115.90 132.14 115.97 128.74 116.22 Z" />
<path fill="#000000" opacity="1.00" d=" M 138.97 115.93 C 142.69 115.85 146.37 116.21 150.01 116.99 C 146.26 117.20 142.58 116.84 138.97 115.93 Z" />
<path fill="#000000" opacity="1.00" d=" M 150.01 116.99 C 153.35 116.95 156.68 117.15 159.95 117.95 C 159.40 118.00 158.30 118.11 157.75 118.16 C 155.15 117.90 152.56 117.43 150.01 116.99 Z" />
<path fill="#000000" opacity="1.00" d=" M 159.95 117.95 C 163.67 117.87 167.36 118.22 171.00 119.00 C 167.24 119.20 163.56 118.85 159.95 117.95 Z" />
<path fill="#000000" opacity="1.00" d=" M 276.71 122.04 C 276.80 120.64 276.65 118.83 278.09 118.03 C 278.55 120.42 278.35 122.77 277.50 125.08 C 277.30 124.32 276.91 122.80 276.71 122.04 Z" />
<path fill="#000000" opacity="1.00" d=" M 171.00 119.00 C 174.71 118.86 178.38 119.20 182.01 120.00 C 178.29 120.12 174.62 119.79 171.00 119.00 Z" />
<path fill="#000000" opacity="1.00" d=" M 182.01 120.00 C 185.41 120.08 188.79 120.11 192.20 120.21 L 191.92 121.07 C 188.58 121.22 185.25 120.72 182.01 120.00 Z" />
<path fill="#000000" opacity="1.00" d=" M 14.99 124.12 C 19.73 121.06 26.67 124.08 32.08 123.08 C 28.22 125.25 23.45 123.39 19.29 124.14 C 18.93 125.27 19.09 128.36 17.86 125.90 C 18.56 123.62 16.54 124.02 14.99 124.12 Z" />
<path fill="#000000" opacity="1.00" d=" M 2.12 150.37 C 3.39 150.67 4.66 150.95 5.97 150.98 C 96.33 151.06 186.69 150.93 277.05 151.04 L 276.94 152.00 L 1.65 152.00 C 1.77 151.59 2.00 150.78 2.12 150.37 Z" />
</g>
<g id="#1b1812ff">
<path fill="#1b1812" opacity="1.00" d=" M 83.35 34.85 C 84.51 37.61 84.50 40.81 84.49 43.77 C 82.80 47.54 80.91 51.55 81.17 55.74 C 84.50 60.39 91.33 57.02 96.01 58.05 C 100.84 60.84 101.49 56.39 102.90 53.82 C 103.02 68.28 103.18 82.75 102.76 97.22 C 101.90 90.19 101.83 83.09 100.90 76.07 C 97.87 75.98 94.87 75.98 91.86 76.07 L 91.12 76.07 C 89.32 76.01 87.52 75.94 85.72 75.89 C 90.77 75.15 95.86 74.81 100.98 74.89 C 100.98 74.18 100.98 72.76 100.98 72.04 C 95.98 71.93 90.98 71.97 85.98 72.01 C 89.62 71.13 93.31 70.79 97.06 70.99 C 98.37 71.01 99.67 70.98 100.98 70.92 C 100.82 66.97 100.29 63.03 99.83 59.11 C 98.53 59.00 97.23 58.94 95.93 58.96 C 90.30 59.34 83.48 57.84 78.74 61.80 C 78.95 59.93 79.07 58.05 79.30 56.18 C 80.17 54.92 79.66 53.47 79.16 52.19 C 79.54 52.04 80.31 51.74 80.69 51.59 C 81.35 47.80 82.40 44.07 82.84 40.25 C 80.90 39.44 78.86 38.86 76.93 38.02 C 79.53 37.19 82.60 38.42 83.35 34.85 Z" />
</g>
<g id="#21231fff">
<path fill="#21231f" opacity="1.00" d=" M 160.01 42.97 C 168.97 41.49 178.13 44.05 187.21 42.81 C 192.84 43.04 198.47 42.97 204.11 43.00 C 202.90 43.73 201.96 44.60 202.90 46.01 C 196.34 46.45 189.80 46.47 183.25 46.19 C 175.54 46.13 167.79 45.56 160.11 46.28 C 155.79 47.27 151.36 46.53 147.04 45.89 C 149.27 41.34 156.08 43.80 160.01 42.97 Z" />
</g>
<g id="#3e3d33ff">
<path fill="#3e3d33" opacity="1.00" d=" M 237.89 41.86 C 238.38 41.88 239.36 41.91 239.84 41.93 L 239.69 42.87 C 239.02 45.60 238.53 48.48 239.90 51.04 C 239.40 51.07 238.41 51.11 237.91 51.13 C 237.93 48.04 237.88 44.94 237.89 41.86 Z" />
</g>
<g id="#5c5d4fff">
<path fill="#5c5d4f" opacity="1.00" d=" M 239.84 41.93 C 242.64 41.95 245.45 41.96 248.26 41.97 L 247.76 43.06 C 245.06 42.99 242.37 42.92 239.69 42.87 L 239.84 41.93 Z" />
</g>
<g id="#5c5b4cff">
<path fill="#5c5b4c" opacity="1.00" d=" M 239.90 51.04 C 238.53 48.48 239.02 45.60 239.69 42.87 C 239.23 46.71 243.63 47.03 245.37 49.67 C 247.38 50.08 249.59 49.18 251.40 50.48 C 253.58 52.25 258.34 48.97 255.74 46.68 C 252.83 46.10 250.17 44.76 247.76 43.06 C 251.89 43.01 256.03 42.94 260.18 42.82 C 260.10 45.87 260.03 48.93 259.97 51.98 C 256.65 52.01 253.30 52.03 250.00 51.99 C 247.09 49.95 243.15 51.44 239.90 51.04 Z" />
</g>
<g id="#737363ff">
<path fill="#737363" opacity="1.00" d=" M 239.69 42.87 C 242.37 42.92 245.06 42.99 247.76 43.06 C 250.17 44.76 252.83 46.10 255.74 46.68 C 258.34 48.97 253.58 52.25 251.40 50.48 C 249.59 49.18 247.38 50.08 245.37 49.67 C 243.63 47.03 239.23 46.71 239.69 42.87 Z" />
</g>
<g id="#413626ff">
<path fill="#413626" opacity="1.00" d=" M 67.09 43.97 C 69.95 44.34 65.71 51.33 70.00 50.02 C 72.85 50.88 71.71 47.55 72.13 45.89 C 73.90 46.90 72.26 50.94 75.02 50.98 C 77.88 51.97 76.71 48.41 77.23 46.78 C 78.08 48.51 78.43 50.41 79.16 52.19 C 79.66 53.47 80.17 54.92 79.30 56.18 C 75.80 55.31 74.66 56.99 75.87 61.20 L 75.23 60.68 C 78.60 55.02 66.80 51.42 70.94 60.06 L 70.12 59.83 C 72.41 55.63 68.83 54.58 66.31 54.02 C 65.94 55.33 65.62 56.66 65.22 57.97 C 65.14 56.69 65.00 55.41 64.81 54.15 C 61.64 53.37 58.43 52.75 55.25 51.99 C 54.77 54.81 54.27 57.64 53.33 60.35 C 52.66 57.41 55.67 52.40 51.63 50.77 C 51.42 46.90 55.16 47.74 58.21 47.85 C 60.61 48.55 61.32 47.10 61.28 44.89 C 61.90 46.24 62.41 47.64 63.18 48.93 C 65.80 48.99 70.38 50.10 67.09 43.97 Z" />
</g>
<g id="#1d1810ff">
<path fill="#1d1810" opacity="1.00" d=" M 50.18 54.23 C 49.89 51.06 50.80 48.01 51.92 45.08 C 51.69 48.30 55.93 47.13 58.21 47.85 C 55.16 47.74 51.42 46.90 51.63 50.77 C 51.15 51.93 50.68 53.08 50.18 54.23 Z" />
<path fill="#1d1810" opacity="1.00" d=" M 81.53 74.06 C 82.73 75.09 84.07 75.94 85.72 75.89 L 85.95 76.86 C 83.47 76.47 82.49 77.82 82.68 80.20 C 82.40 78.67 81.82 75.59 81.53 74.06 Z" />
</g>
<g id="#2e3029ff">
<path fill="#2e3029" opacity="1.00" d=" M 183.25 46.19 C 189.80 46.47 196.34 46.45 202.90 46.01 C 206.57 46.01 210.22 45.98 213.90 45.94 C 219.87 47.47 228.23 44.38 232.84 49.22 C 231.39 52.72 234.59 54.78 235.06 58.00 C 228.16 56.53 221.20 59.48 214.27 58.67 C 201.92 58.27 189.59 58.77 177.23 58.80 C 173.76 58.90 170.85 57.19 169.12 54.35 C 173.76 51.44 177.68 47.23 183.25 46.19 Z" />
</g>
<g id="#2a2a24ff">
<path fill="#2a2a24" opacity="1.00" d=" M 261.10 49.12 C 263.53 46.95 265.99 44.03 269.96 45.98 C 273.75 43.78 274.66 46.97 276.29 48.78 C 278.33 49.69 278.07 47.09 278.66 45.86 C 278.96 46.99 279.44 48.03 280.09 49.00 C 280.04 51.97 279.99 54.96 279.94 57.94 C 276.75 55.20 274.43 59.78 271.14 58.50 C 268.07 59.93 270.42 63.92 267.92 65.89 C 266.21 67.27 264.87 68.72 265.80 71.05 C 262.82 71.39 262.96 67.65 262.34 65.67 C 261.59 64.00 263.22 62.74 263.45 61.21 C 262.58 58.16 261.73 55.12 260.92 52.06 C 260.96 51.33 261.05 49.86 261.10 49.12 Z" />
</g>
<g id="#222723ff">
<path fill="#222723" opacity="1.00" d=" M 42.13 53.08 C 42.70 51.98 43.23 50.86 43.86 49.80 C 44.29 58.14 44.03 66.50 43.64 74.84 C 41.77 81.80 42.03 89.17 39.89 96.06 C 38.36 95.76 35.29 96.84 36.07 94.20 C 37.29 93.00 39.04 92.02 39.17 90.12 C 40.96 80.94 40.66 71.52 41.67 62.25 C 40.81 60.26 39.28 58.70 37.92 57.06 C 40.26 57.10 41.55 55.07 42.13 53.08 Z" />
<path fill="#222723" opacity="1.00" d=" M 287.23 81.22 C 287.66 81.14 288.54 80.99 288.97 80.91 C 288.97 82.45 288.97 85.52 288.97 87.06 C 285.54 87.24 283.58 82.77 287.23 81.22 Z" />
</g>
<g id="#6d593cff">
<path fill="#6d593c" opacity="1.00" d=" M 50.18 54.23 C 50.68 53.08 51.15 51.93 51.63 50.77 C 55.67 52.40 52.66 57.41 53.33 60.35 C 54.27 57.64 54.77 54.81 55.25 51.99 C 58.43 52.75 61.64 53.37 64.81 54.15 C 65.00 55.41 65.14 56.69 65.22 57.97 C 62.86 60.38 63.68 64.42 63.19 67.35 C 64.62 64.45 64.84 61.14 65.22 57.97 C 65.62 56.66 65.94 55.33 66.31 54.02 C 68.83 54.58 72.41 55.63 70.12 59.83 L 70.94 60.06 C 66.80 51.42 78.60 55.02 75.23 60.68 L 75.87 61.20 C 74.66 56.99 75.80 55.31 79.30 56.18 C 79.07 58.05 78.95 59.93 78.74 61.80 C 77.56 68.91 75.23 75.88 75.00 83.11 C 72.55 84.69 70.81 81.96 70.24 79.86 C 70.13 80.66 69.89 82.26 69.77 83.06 C 67.34 82.90 65.82 81.09 65.26 78.87 C 64.96 80.38 65.34 82.81 63.01 81.98 C 60.28 81.93 61.88 77.92 60.12 76.88 C 60.03 78.27 59.93 79.66 59.82 81.05 C 58.21 81.09 56.69 80.56 55.31 79.77 C 54.76 78.57 55.58 76.44 54.10 75.91 C 54.02 77.26 53.93 78.62 53.84 79.97 C 51.20 79.31 48.60 78.16 45.82 78.70 C 45.64 78.36 45.27 77.70 45.08 77.37 C 47.69 69.90 48.73 61.97 50.18 54.23 Z" />
</g>
<g id="#403e34ff">
<path fill="#403e34" opacity="1.00" d=" M 240.05 52.09 C 243.37 51.85 246.66 51.97 250.00 51.99 C 252.46 54.06 256.17 52.20 258.90 53.14 C 259.30 64.78 258.83 76.44 258.98 88.09 C 257.96 86.88 255.20 83.58 254.66 86.73 C 250.27 86.55 251.07 79.52 253.16 77.49 C 257.83 79.30 257.27 71.83 254.88 70.15 C 250.81 69.08 250.92 63.98 249.22 60.89 C 249.09 59.30 251.14 55.99 248.10 57.08 C 247.22 64.91 246.32 72.81 246.29 80.68 C 246.03 86.73 248.76 92.11 249.86 97.89 C 247.94 100.18 248.13 102.94 249.51 105.48 C 251.64 107.46 254.94 109.01 253.06 113.02 C 252.97 115.40 255.00 117.00 256.29 118.76 C 257.20 117.81 258.03 116.79 258.92 115.82 C 259.00 120.60 259.03 125.37 259.04 130.15 C 256.76 130.37 254.33 130.02 252.31 131.34 C 248.59 133.52 244.10 132.37 240.01 133.02 C 240.01 132.29 240.00 130.82 240.00 130.08 C 245.32 129.45 251.53 129.95 254.91 124.87 C 251.02 120.09 251.85 113.56 248.38 108.63 C 246.39 101.21 247.56 93.42 246.01 85.92 C 243.98 86.47 245.77 90.98 243.19 90.84 C 242.02 89.25 241.12 87.48 240.09 85.81 C 239.88 74.57 239.96 63.33 240.05 52.09 Z" />
</g>
<g id="#292f29ff">
<path fill="#292f29" opacity="1.00" d=" M 36.09 57.29 C 36.55 57.23 37.46 57.12 37.92 57.06 C 39.28 58.70 40.81 60.26 41.67 62.25 C 40.66 71.52 40.96 80.94 39.17 90.12 C 39.04 92.02 37.29 93.00 36.07 94.20 C 35.96 81.90 35.88 69.59 36.09 57.29 Z" />
</g>
<g id="#1d1d1dff">
<path fill="#1d1d1d" opacity="1.00" d=" M 350.27 56.74 C 352.21 62.30 353.69 68.06 354.20 73.94 C 351.67 68.92 350.88 62.51 350.27 56.74 Z" />
</g>
<g id="#4a3d2aff">
<path fill="#4a3d2a" opacity="1.00" d=" M 63.19 67.35 C 63.68 64.42 62.86 60.38 65.22 57.97 C 64.84 61.14 64.62 64.45 63.19 67.35 Z" />
</g>
<g id="#3c3a30ff">
<path fill="#3c3a30" opacity="1.00" d=" M 104.09 61.15 C 105.78 59.85 107.27 57.30 109.76 58.10 C 113.18 60.60 109.40 66.01 110.47 69.31 C 111.36 77.31 113.50 86.28 108.42 93.38 C 107.79 96.02 104.59 95.01 104.10 92.84 C 103.90 82.28 103.91 71.71 104.09 61.15 Z" />
</g>
<g id="#35352dff">
<path fill="#35352d" opacity="1.00" d=" M 307.00 58.01 C 313.31 57.91 319.62 57.95 325.95 58.05 C 326.08 70.00 326.06 81.96 325.95 93.91 C 319.64 94.24 313.31 93.96 307.00 94.00 C 302.06 93.09 297.07 92.71 292.03 92.86 C 292.04 91.43 292.05 88.57 292.06 87.14 C 292.49 86.81 293.37 86.16 293.81 85.84 C 294.27 88.51 292.86 93.36 299.04 90.11 C 307.27 90.17 315.74 92.35 323.75 89.73 C 325.24 87.58 324.67 84.92 324.15 82.56 C 324.08 80.19 324.02 77.82 323.99 75.45 C 324.37 71.14 325.62 65.77 324.30 61.68 C 319.87 60.59 314.74 61.99 309.99 61.32 C 304.71 62.12 299.35 60.56 294.18 62.21 C 294.00 63.52 293.87 64.83 293.80 66.15 C 293.36 65.82 292.49 65.18 292.06 64.86 C 292.05 63.43 292.04 60.57 292.03 59.14 C 297.07 59.28 302.05 58.90 307.00 58.01 Z" />
</g>
<g id="#645136ff">
<path fill="#645136" opacity="1.00" d=" M 78.74 61.80 C 83.48 57.84 90.30 59.34 95.93 58.96 C 96.14 62.98 96.73 66.97 97.06 70.99 C 93.31 70.79 89.62 71.13 85.98 72.01 C 84.73 72.05 83.47 72.01 82.23 71.89 C 81.64 70.68 82.70 68.11 80.90 67.90 C 81.06 69.44 81.37 72.52 81.53 74.06 C 81.82 75.59 82.40 78.67 82.68 80.20 C 83.89 88.26 84.72 96.41 86.77 104.31 C 86.79 104.89 86.82 106.06 86.84 106.65 C 85.73 107.12 84.62 107.58 83.51 108.05 C 76.69 108.58 69.20 108.48 62.89 111.12 C 61.68 111.07 60.47 110.98 59.27 110.83 C 58.55 106.94 57.43 103.13 56.97 99.20 L 61.89 98.89 L 62.03 98.01 C 60.57 97.94 57.66 97.81 56.21 97.75 C 54.67 97.54 51.60 97.12 50.06 96.91 C 48.49 96.27 46.80 96.06 45.16 95.73 C 44.11 92.69 42.86 87.99 47.00 86.74 C 48.44 86.50 47.48 83.76 49.18 84.08 C 55.98 84.67 62.58 86.86 69.25 88.29 C 71.88 88.52 76.28 86.48 73.17 93.16 C 75.40 90.86 74.53 86.29 75.00 83.11 C 75.23 75.88 77.56 68.91 78.74 61.80 Z" />
</g>
<g id="#725d3eff">
<path fill="#725d3e" opacity="1.00" d=" M 95.93 58.96 C 97.23 58.94 98.53 59.00 99.83 59.11 C 100.29 63.03 100.82 66.97 100.98 70.92 C 99.67 70.98 98.37 71.01 97.06 70.99 C 96.73 66.97 96.14 62.98 95.93 58.96 Z" />
</g>
<g id="#030302ff">
<path fill="#030302" opacity="1.00" d=" M 281.24 58.88 C 282.51 61.80 282.00 65.02 282.09 68.13 C 282.01 73.37 281.89 78.63 282.09 83.87 C 282.13 86.95 281.62 89.98 281.02 92.99 C 281.09 81.62 280.78 70.24 281.24 58.88 Z" />
</g>
<g id="#48483cff">
<path fill="#48483c" opacity="1.00" d=" M 294.18 62.21 C 299.35 60.56 304.71 62.12 309.99 61.32 C 314.74 61.99 319.87 60.59 324.30 61.68 C 325.62 65.77 324.37 71.14 323.99 75.45 C 323.44 71.71 323.05 67.95 322.80 64.18 C 319.17 63.17 315.32 62.79 311.59 63.38 C 306.59 65.43 300.92 61.38 296.32 64.62 C 294.63 64.98 295.05 66.91 294.69 68.19 C 294.47 67.68 294.02 66.66 293.80 66.15 C 293.87 64.83 294.00 63.52 294.18 62.21 Z" />
</g>
<g id="#14130fff">
<path fill="#14130f" opacity="1.00" d=" M 282.09 68.13 C 283.82 65.14 287.39 61.48 291.00 63.94 C 291.03 71.98 291.00 80.02 291.00 88.06 C 287.39 90.52 283.82 86.86 282.09 83.87 C 281.89 78.63 282.01 73.37 282.09 68.13 M 287.23 65.22 C 283.58 66.77 285.54 71.24 288.97 71.06 C 288.97 69.52 288.97 66.45 288.97 64.91 C 288.54 64.99 287.66 65.14 287.23 65.22 M 283.03 70.92 C 283.04 73.49 283.08 78.62 283.10 81.19 C 284.68 79.38 288.18 77.99 287.87 75.20 C 286.66 74.13 284.24 71.99 283.03 70.92 M 287.23 81.22 C 283.58 82.77 285.54 87.24 288.97 87.06 C 288.97 85.52 288.97 82.45 288.97 80.91 C 288.54 80.99 287.66 81.14 287.23 81.22 Z" />
<path fill="#14130f" opacity="1.00" d=" M 292.06 64.86 C 292.49 65.18 293.36 65.82 293.80 66.15 C 294.02 66.66 294.47 67.68 294.69 68.19 C 296.29 73.29 296.40 78.84 294.60 83.91 C 294.41 84.39 294.01 85.36 293.81 85.84 C 293.37 86.16 292.49 86.81 292.06 87.14 C 292.08 86.41 292.14 84.97 292.16 84.25 C 292.81 82.26 295.95 77.76 292.02 77.83 C 292.00 76.61 292.00 75.39 292.02 74.17 C 295.95 74.24 292.81 69.74 292.16 67.75 C 292.14 67.03 292.08 65.59 292.06 64.86 Z" />
</g>
<g id="#5b5c4eff">
<path fill="#5b5c4e" opacity="1.00" d=" M 296.32 64.62 C 300.92 61.38 306.59 65.43 311.59 63.38 C 315.32 62.79 319.17 63.17 322.80 64.18 C 323.05 67.95 323.44 71.71 323.99 75.45 C 324.02 77.82 324.08 80.19 324.15 82.56 C 323.80 83.86 323.10 86.46 322.75 87.76 C 316.25 88.49 309.70 88.31 303.20 88.73 C 301.46 87.67 299.27 87.72 297.65 86.42 C 298.54 86.23 300.31 85.85 301.20 85.65 C 301.61 85.57 302.42 85.40 302.82 85.31 C 303.15 85.44 303.80 85.70 304.13 85.83 C 309.71 86.21 315.33 86.09 320.94 85.96 C 321.00 84.57 321.02 83.17 320.98 81.78 C 320.95 79.26 320.88 76.74 320.77 74.23 C 321.18 71.53 321.82 68.77 320.85 66.11 C 314.88 66.12 308.81 65.37 302.91 66.48 C 298.68 64.45 296.50 69.21 296.97 72.83 C 297.06 77.35 296.71 81.96 297.65 86.42 C 296.51 85.75 295.53 84.85 294.60 83.91 C 296.40 78.84 296.29 73.29 294.69 68.19 C 295.05 66.91 294.63 64.98 296.32 64.62 Z" />
</g>
<g id="#232824ff">
<path fill="#232824" opacity="1.00" d=" M 287.23 65.22 C 287.66 65.14 288.54 64.99 288.97 64.91 C 288.97 66.45 288.97 69.52 288.97 71.06 C 285.54 71.24 283.58 66.77 287.23 65.22 Z" />
</g>
<g id="#7c7d6dff">
<path fill="#7c7d6d" opacity="1.00" d=" M 296.97 72.83 C 296.50 69.21 298.68 64.45 302.91 66.48 C 303.03 72.75 303.06 79.04 302.82 85.31 C 302.42 85.40 301.61 85.57 301.20 85.65 C 296.67 82.85 298.98 77.56 298.93 73.23 C 298.44 73.13 297.46 72.93 296.97 72.83 Z" />
</g>
<g id="#7c7e6eff">
<path fill="#7c7e6e" opacity="1.00" d=" M 302.91 66.48 C 308.81 65.37 314.88 66.12 320.85 66.11 C 321.82 68.77 321.18 71.53 320.77 74.23 C 319.57 72.18 319.75 68.82 316.85 68.38 C 315.04 69.45 313.13 70.07 311.05 69.38 C 309.99 70.66 310.34 73.45 308.06 73.01 C 305.96 71.18 304.11 69.02 302.91 66.48 Z" />
</g>
<g id="#878979ff">
<path fill="#878979" opacity="1.00" d=" M 302.91 66.48 C 304.11 69.02 305.96 71.18 308.06 73.01 C 310.34 73.45 309.99 70.66 311.05 69.38 C 313.13 70.07 315.04 69.45 316.85 68.38 C 319.75 68.82 319.57 72.18 320.77 74.23 C 320.88 76.74 320.95 79.26 320.98 81.78 C 319.45 82.11 318.15 82.96 316.83 83.74 C 314.33 83.27 311.82 83.16 309.32 83.70 C 308.54 81.22 307.20 79.16 304.26 80.03 C 304.30 81.96 304.25 83.90 304.13 85.83 C 303.80 85.70 303.15 85.44 302.82 85.31 C 303.06 79.04 303.03 72.75 302.91 66.48 Z" />
</g>
<g id="#1c1710ff">
<path fill="#1c1710" opacity="1.00" d=" M 80.90 67.90 C 82.70 68.11 81.64 70.68 82.23 71.89 C 83.47 72.01 84.73 72.05 85.98 72.01 C 84.52 72.74 83.00 73.34 81.53 74.06 C 81.37 72.52 81.06 69.44 80.90 67.90 Z" />
</g>
<g id="#242620ff">
<path fill="#242620" opacity="1.00" d=" M 292.16 67.75 C 292.81 69.74 295.95 74.24 292.02 74.17 C 292.01 72.03 292.08 69.89 292.16 67.75 Z" />
</g>
<g id="#272c26ff">
<path fill="#272c26" opacity="1.00" d=" M 283.03 70.92 C 284.24 71.99 286.66 74.13 287.87 75.20 C 288.18 77.99 284.68 79.38 283.10 81.19 C 283.08 78.62 283.04 73.49 283.03 70.92 Z" />
</g>
<g id="#4f422fff">
<path fill="#4f422f" opacity="1.00" d=" M 85.98 72.01 C 90.98 71.97 95.98 71.93 100.98 72.04 C 100.98 72.76 100.98 74.18 100.98 74.89 C 95.86 74.81 90.77 75.15 85.72 75.89 C 84.07 75.94 82.73 75.09 81.53 74.06 C 83.00 73.34 84.52 72.74 85.98 72.01 Z" />
</g>
<g id="#6f7061ff">
<path fill="#6f7061" opacity="1.00" d=" M 296.97 72.83 C 297.46 72.93 298.44 73.13 298.93 73.23 C 298.98 77.56 296.67 82.85 301.20 85.65 C 300.31 85.85 298.54 86.23 297.65 86.42 C 296.71 81.96 297.06 77.35 296.97 72.83 Z" />
</g>
<g id="#4e4f4bff">
<path fill="#4e4f4b" opacity="1.00" d=" M 348.04 73.01 C 351.53 72.12 349.54 76.98 349.96 78.99 C 346.47 79.88 348.45 75.01 348.04 73.01 Z" />
</g>
<g id="#1f1e18ff">
<path fill="#1f1e18" opacity="1.00" d=" M 39.89 96.06 C 42.03 89.17 41.77 81.80 43.64 74.84 C 44.00 75.47 44.72 76.74 45.08 77.37 C 45.27 77.70 45.64 78.36 45.82 78.70 C 44.75 79.94 45.29 81.48 45.86 82.81 C 42.38 84.31 42.96 89.62 42.05 93.00 C 41.20 95.26 43.63 95.31 45.16 95.73 C 46.80 96.06 48.49 96.27 50.06 96.91 C 48.41 97.28 46.73 97.35 45.06 97.19 L 44.12 97.16 C 45.01 107.95 42.61 97.80 39.89 96.06 Z" />
</g>
<g id="#3b3122ff">
<path fill="#3b3122" opacity="1.00" d=" M 54.10 75.91 C 55.58 76.44 54.76 78.57 55.31 79.77 C 56.69 80.56 58.21 81.09 59.82 81.05 C 59.93 79.66 60.03 78.27 60.12 76.88 C 61.88 77.92 60.28 81.93 63.01 81.98 C 65.34 82.81 64.96 80.38 65.26 78.87 C 65.82 81.09 67.34 82.90 69.77 83.06 C 69.89 82.26 70.13 80.66 70.24 79.86 C 70.81 81.96 72.55 84.69 75.00 83.11 C 74.53 86.29 75.40 90.86 73.17 93.16 C 76.28 86.48 71.88 88.52 69.25 88.29 C 62.58 86.86 55.98 84.67 49.18 84.08 C 47.48 83.76 48.44 86.50 47.00 86.74 C 46.81 85.38 46.41 84.06 45.86 82.81 C 45.29 81.48 44.75 79.94 45.82 78.70 C 48.60 78.16 51.20 79.31 53.84 79.97 C 53.93 78.62 54.02 77.26 54.10 75.91 Z" />
</g>
<g id="#50432fff">
<path fill="#50432f" opacity="1.00" d=" M 91.12 76.07 L 91.86 76.07 C 91.93 77.76 92.06 81.14 92.13 82.82 C 90.06 81.38 89.72 79.13 91.12 76.07 Z" />
</g>
<g id="#433725ff">
<path fill="#433725" opacity="1.00" d=" M 82.68 80.20 C 82.49 77.82 83.47 76.47 85.95 76.86 C 87.70 85.75 87.70 95.02 87.89 104.09 L 86.77 104.31 C 84.72 96.41 83.89 88.26 82.68 80.20 Z" />
</g>
<g id="#252520ff">
<path fill="#252520" opacity="1.00" d=" M 292.02 77.83 C 295.95 77.76 292.81 82.26 292.16 84.25 C 292.08 82.11 292.01 79.97 292.02 77.83 Z" />
</g>
<g id="#7e8070ff">
<path fill="#7e8070" opacity="1.00" d=" M 304.26 80.03 C 307.20 79.16 308.54 81.22 309.32 83.70 C 311.82 83.16 314.33 83.27 316.83 83.74 C 318.15 82.96 319.45 82.11 320.98 81.78 C 321.02 83.17 321.00 84.57 320.94 85.96 C 315.33 86.09 309.71 86.21 304.13 85.83 C 304.25 83.90 304.30 81.96 304.26 80.03 Z" />
</g>
<g id="#4e412eff">
<path fill="#4e412e" opacity="1.00" d=" M 97.00 81.01 L 97.98 81.00 C 98.05 86.39 98.01 91.78 97.86 97.18 C 96.01 92.08 97.36 86.31 97.00 81.01 Z" />
</g>
<g id="#705b3dff">
<path fill="#705b3d" opacity="1.00" d=" M 42.05 93.00 C 42.96 89.62 42.38 84.31 45.86 82.81 C 46.41 84.06 46.81 85.38 47.00 86.74 C 42.86 87.99 44.11 92.69 45.16 95.73 C 43.63 95.31 41.20 95.26 42.05 93.00 Z" />
</g>
<g id="#514431ff">
<path fill="#514431" opacity="1.00" d=" M 92.13 82.82 C 93.99 87.92 92.63 93.69 93.00 98.99 L 92.02 99.00 C 91.95 93.61 91.98 88.21 92.13 82.82 Z" />
</g>
<g id="#2c2d26ff">
<path fill="#2c2d26" opacity="1.00" d=" M 140.27 83.29 C 141.79 82.70 144.18 82.60 144.37 84.72 C 148.04 86.49 153.67 84.11 155.26 88.75 C 157.79 93.00 146.87 88.85 148.62 92.26 C 149.70 94.11 145.04 91.79 146.00 94.07 C 151.12 93.55 159.01 92.00 161.29 97.88 C 163.40 95.01 166.22 96.58 168.77 97.59 C 170.95 95.94 172.28 96.22 173.20 98.80 C 176.34 97.11 177.66 100.24 179.99 100.78 C 181.56 100.43 183.13 100.08 184.70 99.72 C 185.36 97.91 185.53 95.66 187.16 94.40 C 191.47 94.22 195.72 94.88 199.93 94.04 C 204.53 97.65 210.05 92.24 215.09 94.76 C 219.06 94.07 222.84 96.06 226.79 96.06 C 225.02 98.63 229.76 98.35 229.56 100.76 C 229.15 102.77 232.32 105.11 229.25 106.02 C 228.96 105.54 228.37 104.57 228.08 104.09 C 227.06 107.28 227.70 110.54 228.05 113.76 C 224.75 113.15 221.49 116.22 219.78 118.87 C 218.14 119.30 216.55 118.61 214.98 118.28 C 210.02 118.94 205.16 120.85 200.18 118.88 C 203.85 112.42 198.19 115.37 196.94 113.00 C 196.15 111.75 195.37 110.49 194.63 109.21 C 192.88 110.49 186.90 106.87 186.66 110.86 C 179.10 111.15 171.71 108.19 164.21 108.94 C 164.42 105.58 160.99 103.93 158.90 102.06 C 155.82 100.58 158.12 105.18 156.10 104.95 C 156.04 104.21 155.91 102.72 155.85 101.97 C 153.85 101.65 152.64 103.37 153.83 105.03 C 147.92 108.29 141.33 105.83 135.33 106.59 C 133.60 105.21 131.57 104.60 129.25 104.75 C 126.70 103.07 128.29 99.43 127.20 96.90 C 126.19 94.08 129.51 91.95 131.96 91.79 C 131.39 90.65 128.98 89.12 131.13 88.33 C 132.92 88.60 135.78 90.11 136.64 87.71 C 136.81 85.54 138.16 83.87 140.27 83.29 Z" />
</g>
<g id="#48473cff">
<path fill="#48473c" opacity="1.00" d=" M 322.75 87.76 C 323.10 86.46 323.80 83.86 324.15 82.56 C 324.67 84.92 325.24 87.58 323.75 89.73 C 315.74 92.35 307.27 90.17 299.04 90.11 C 292.86 93.36 294.27 88.51 293.81 85.84 C 294.01 85.36 294.41 84.39 294.60 83.91 C 295.53 84.85 296.51 85.75 297.65 86.42 C 299.27 87.72 301.46 87.67 303.20 88.73 C 309.70 88.31 316.25 88.49 322.75 87.76 Z" />
</g>
<g id="#464439ff">
<path fill="#464439" opacity="1.00" d=" M 240.09 85.81 C 241.12 87.48 242.02 89.25 243.19 90.84 C 245.77 90.98 243.98 86.47 246.01 85.92 C 247.56 93.42 246.39 101.21 248.38 108.63 C 251.85 113.56 251.02 120.09 254.91 124.87 C 251.53 129.95 245.32 129.45 240.00 130.08 C 239.99 128.71 240.00 127.34 240.02 125.97 C 242.91 127.29 246.02 126.91 248.91 125.78 C 248.89 120.23 247.49 114.78 246.72 109.31 C 245.99 108.74 245.24 108.17 244.49 107.63 C 245.88 104.59 245.31 101.26 245.75 98.04 C 245.83 96.55 244.75 95.21 243.20 95.37 C 241.74 94.21 241.14 92.32 240.12 90.81 C 240.07 89.14 240.08 87.47 240.09 85.81 Z" />
</g>
<g id="#4b4a3dff">
<path fill="#4b4a3d" opacity="1.00" d=" M 240.12 90.81 C 241.14 92.32 241.74 94.21 243.20 95.37 C 244.75 95.21 245.83 96.55 245.75 98.04 C 245.31 101.26 245.88 104.59 244.49 107.63 C 245.24 108.17 245.99 108.74 246.72 109.31 C 247.49 114.78 248.89 120.23 248.91 125.78 C 246.02 126.91 242.91 127.29 240.02 125.97 C 239.96 114.25 239.96 102.53 240.12 90.81 Z" />
</g>
<g id="#282923ff">
<path fill="#282923" opacity="1.00" d=" M 263.20 94.07 C 265.37 95.42 270.13 92.26 271.76 95.25 C 271.01 98.71 271.39 101.41 274.76 101.26 C 275.94 104.20 276.47 108.82 274.24 110.94 C 273.03 106.89 272.76 110.89 273.67 112.88 C 271.04 115.06 269.02 118.36 266.03 119.93 C 263.65 119.03 264.20 114.38 261.19 113.64 C 260.54 111.05 266.45 108.17 262.15 106.64 C 261.72 102.42 262.09 98.15 263.20 94.07 Z" />
</g>
<g id="#343a32ff">
<path fill="#343a32" opacity="1.00" d=" M 45.06 97.19 C 46.73 97.35 48.41 97.28 50.06 96.91 C 51.27 97.24 53.68 97.92 54.89 98.26 C 55.22 108.14 54.82 118.03 55.05 127.92 C 70.99 128.25 86.95 127.79 102.90 128.02 C 102.92 128.48 102.97 129.38 102.99 129.83 C 98.67 130.58 94.68 134.21 90.32 131.70 C 79.61 130.81 68.77 130.22 58.01 130.94 C 55.37 130.91 53.04 129.44 51.65 127.25 C 49.75 126.26 48.82 128.83 47.12 129.07 C 46.07 127.12 45.41 125.04 45.12 122.81 C 44.80 114.27 45.05 105.72 45.06 97.19 Z" />
</g>
<g id="#4e402eff">
<path fill="#4e402e" opacity="1.00" d=" M 97.86 97.18 C 99.94 98.59 100.28 100.84 98.89 103.91 L 98.15 103.90 C 98.08 102.22 97.94 98.86 97.86 97.18 Z" />
</g>
<g id="#191914ff">
<path fill="#191914" opacity="1.00" d=" M 56.21 97.75 C 57.66 97.81 60.57 97.94 62.03 98.01 L 61.89 98.89 L 56.97 99.20 C 57.43 103.13 58.55 106.94 59.27 110.83 C 60.47 110.98 61.68 111.07 62.89 111.12 C 61.56 112.76 59.02 113.63 58.90 116.00 C 57.54 119.34 60.04 122.57 62.26 124.86 C 65.05 124.87 67.94 125.32 70.74 124.81 C 73.20 121.36 72.78 117.17 71.83 113.21 C 69.53 110.16 65.85 112.41 62.89 111.12 C 69.20 108.48 76.69 108.58 83.51 108.05 C 84.89 108.72 86.40 109.00 87.92 109.14 C 83.06 109.88 78.15 110.15 73.33 111.15 C 73.58 114.73 73.85 118.31 74.12 121.89 C 75.41 121.99 76.70 122.03 77.99 122.02 L 79.01 122.03 C 80.34 122.05 81.67 122.05 83.00 122.04 L 84.02 122.02 C 85.45 122.01 86.89 121.90 88.21 121.31 L 89.07 121.02 C 92.40 120.98 95.74 121.01 99.06 120.98 C 100.38 120.99 101.70 121.00 103.01 121.01 C 103.00 122.49 102.96 125.45 102.95 126.93 C 87.33 127.10 71.70 127.03 56.09 126.95 C 55.75 117.22 56.02 107.48 56.21 97.75 Z" />
</g>
<g id="#525144ff">
<path fill="#525144" opacity="1.00" d=" M 119.09 97.89 C 124.69 101.45 117.80 110.83 123.85 114.23 C 124.19 117.43 124.09 120.70 123.94 123.91 C 118.43 129.42 109.88 122.33 104.12 127.19 C 103.86 123.18 103.88 119.19 104.18 115.22 C 107.23 110.35 109.57 105.12 112.15 100.02 C 114.71 99.95 114.98 103.33 116.38 104.92 C 118.83 103.52 117.85 100.13 119.09 97.89 Z" />
</g>
<g id="#1d1f1aff">
<path fill="#1d1f1a" opacity="1.00" d=" M 12.37 100.35 C 17.95 99.33 23.40 101.64 29.01 101.00 C 32.29 100.00 35.43 101.26 37.93 103.17 C 37.11 107.38 37.83 111.67 38.89 115.79 C 37.05 116.95 35.29 118.21 33.69 119.70 C 26.87 120.04 19.86 117.29 12.98 118.97 C 11.10 119.17 9.81 117.35 8.22 116.63 C 5.12 111.78 13.11 111.01 9.81 106.09 C 8.14 103.37 9.74 101.37 12.37 100.35 Z" />
</g>
<g id="#1b1711ff">
<path fill="#1b1711" opacity="1.00" d=" M 86.77 104.31 L 87.89 104.09 C 91.31 103.96 94.72 103.96 98.15 103.90 L 98.89 103.91 C 100.25 103.95 101.62 103.98 102.98 104.01 L 103.00 105.00 C 97.75 105.78 91.39 103.11 86.84 106.65 C 86.82 106.06 86.79 104.89 86.77 104.31 Z" />
</g>
<g id="#1b1d19ff">
<path fill="#1b1d19" opacity="1.00" d=" M 125.04 103.88 C 126.41 105.60 128.00 107.13 129.37 108.86 L 128.78 109.69 C 126.52 111.19 127.11 113.04 128.79 114.71 C 128.78 115.09 128.75 115.84 128.74 116.22 C 127.93 117.65 126.53 119.01 127.07 120.80 C 132.06 125.18 139.16 122.02 144.89 124.29 C 150.47 124.82 157.76 125.62 161.96 121.41 C 160.44 120.48 158.25 120.14 157.75 118.16 C 158.30 118.11 159.40 118.00 159.95 117.95 C 163.56 118.85 167.24 119.20 171.00 119.00 C 174.62 119.79 178.29 120.12 182.01 120.00 C 185.25 120.72 188.58 121.22 191.92 121.07 C 193.57 120.88 196.27 121.64 196.13 119.12 C 197.10 116.08 196.97 120.75 197.27 121.78 C 203.49 123.68 210.25 122.55 216.62 122.50 C 222.85 120.09 229.43 122.77 235.72 120.79 C 237.89 119.49 238.22 117.05 238.44 114.75 C 239.71 118.66 238.72 122.89 238.99 126.91 C 201.01 127.12 163.02 126.99 125.04 126.95 C 124.78 119.25 126.36 111.57 125.04 103.88 Z" />
</g>
<g id="#483c2bff">
<path fill="#483c2b" opacity="1.00" d=" M 86.84 106.65 C 91.39 103.11 97.75 105.78 103.00 105.00 C 103.00 105.75 103.00 107.24 103.00 107.99 C 98.18 108.86 92.18 106.21 87.92 109.14 C 86.40 109.00 84.89 108.72 83.51 108.05 C 84.62 107.58 85.73 107.12 86.84 106.65 Z" />
</g>
<g id="#18140eff">
<path fill="#18140e" opacity="1.00" d=" M 87.92 109.14 C 92.18 106.21 98.18 108.86 103.00 107.99 L 103.00 108.99 C 101.33 108.99 99.65 109.00 97.97 109.03 C 96.59 109.03 95.20 109.05 93.82 109.08 L 93.11 109.08 C 91.38 109.04 89.65 109.05 87.92 109.14 Z" />
</g>
<g id="#6e593cff">
<path fill="#6e593c" opacity="1.00" d=" M 87.92 109.14 C 89.65 109.05 91.38 109.04 93.11 109.08 C 93.06 110.60 92.94 113.65 92.88 115.17 C 94.90 118.03 94.40 110.84 93.82 109.08 C 95.20 109.05 96.59 109.03 97.97 109.03 C 98.54 112.99 99.00 116.98 99.06 120.98 C 95.74 121.01 92.40 120.98 89.07 121.02 C 88.17 118.49 90.46 113.25 87.98 111.91 C 87.94 115.03 87.99 118.19 88.21 121.31 C 86.89 121.90 85.45 122.01 84.02 122.02 C 82.94 119.32 85.53 113.59 83.02 111.91 C 82.96 115.27 82.97 118.66 83.00 122.04 C 81.67 122.05 80.34 122.05 79.01 122.03 C 79.00 119.04 79.14 116.07 78.94 113.09 C 75.78 112.61 78.84 119.75 77.99 122.02 C 76.70 122.03 75.41 121.99 74.12 121.89 C 73.85 118.31 73.58 114.73 73.33 111.15 C 78.15 110.15 83.06 109.88 87.92 109.14 Z" />
</g>
<g id="#4d402dff">
<path fill="#4d402d" opacity="1.00" d=" M 93.11 109.08 L 93.82 109.08 C 94.40 110.84 94.90 118.03 92.88 115.17 C 92.94 113.65 93.06 110.60 93.11 109.08 Z" />
<path fill="#4d402d" opacity="1.00" d=" M 83.02 111.91 C 85.53 113.59 82.94 119.32 84.02 122.02 L 83.00 122.04 C 82.97 118.66 82.96 115.27 83.02 111.91 Z" />
</g>
<g id="#594831ff">
<path fill="#594831" opacity="1.00" d=" M 97.97 109.03 C 99.65 109.00 101.33 108.99 103.00 108.99 C 103.03 112.99 103.04 117.00 103.01 121.01 C 101.70 121.00 100.38 120.99 99.06 120.98 C 99.00 116.98 98.54 112.99 97.97 109.03 Z" />
</g>
<g id="#2c2d27ff">
<path fill="#2c2d27" opacity="1.00" d=" M 128.79 114.71 C 127.11 113.04 126.52 111.19 128.78 109.69 C 132.18 110.04 135.58 109.93 139.00 109.98 C 142.61 110.81 146.28 111.15 150.00 110.99 C 153.27 111.83 156.64 112.07 160.00 112.01 C 163.62 112.80 167.28 113.13 171.00 113.00 C 174.61 113.78 178.27 114.13 181.98 114.04 C 182.86 114.55 183.78 114.98 184.74 115.33 C 188.01 116.53 191.66 115.91 194.94 117.15 C 195.69 119.15 193.55 119.55 192.20 120.21 C 188.79 120.11 185.41 120.08 182.01 120.00 C 178.38 119.20 174.71 118.86 171.00 119.00 C 167.36 118.22 163.67 117.87 159.95 117.95 C 156.68 117.15 153.35 116.95 150.01 116.99 C 146.37 116.21 142.69 115.85 138.97 115.93 C 135.60 115.29 132.20 114.94 128.79 114.71 Z" />
</g>
<g id="#1f201cff">
<path fill="#1f201c" opacity="1.00" d=" M 62.89 111.12 C 65.85 112.41 69.53 110.16 71.83 113.21 C 72.78 117.17 73.20 121.36 70.74 124.81 C 67.94 125.32 65.05 124.87 62.26 124.86 C 60.04 122.57 57.54 119.34 58.90 116.00 C 59.02 113.63 61.56 112.76 62.89 111.12 Z" />
</g>
<g id="#504230ff">
<path fill="#504230" opacity="1.00" d=" M 87.98 111.91 C 90.46 113.25 88.17 118.49 89.07 121.02 L 88.21 121.31 C 87.99 118.19 87.94 115.03 87.98 111.91 Z" />
</g>
<g id="#514430ff">
<path fill="#514430" opacity="1.00" d=" M 77.99 122.02 C 78.84 119.75 75.78 112.61 78.94 113.09 C 79.14 116.07 79.00 119.04 79.01 122.03 L 77.99 122.02 Z" />
</g>
<g id="#21221dff">
<path fill="#21221d" opacity="1.00" d=" M 128.74 116.22 C 132.14 115.97 135.55 115.90 138.97 115.93 C 142.58 116.84 146.26 117.20 150.01 116.99 C 152.56 117.43 155.15 117.90 157.75 118.16 C 158.25 120.14 160.44 120.48 161.96 121.41 C 157.76 125.62 150.47 124.82 144.89 124.29 C 139.16 122.02 132.06 125.18 127.07 120.80 C 126.53 119.01 127.93 117.65 128.74 116.22 Z" />
</g>
<g id="#070705ff">
<path fill="#070705" opacity="1.00" d=" M 4.90 117.05 C 6.08 118.91 6.77 121.09 8.28 122.73 C 10.44 123.51 12.69 124.01 14.99 124.12 C 9.86 127.77 3.55 122.67 4.90 117.05 Z" />
</g>
<g id="#282d29ff">
<path fill="#282d29" opacity="1.00" d=" M 39.71 122.76 C 41.78 121.31 42.83 119.00 43.91 116.82 C 44.13 123.28 43.97 129.74 44.20 136.20 C 32.00 137.80 19.60 136.20 7.36 136.48 C 5.47 137.58 3.64 138.80 1.72 139.85 C 5.71 133.93 13.48 131.69 17.86 125.90 C 19.09 128.36 18.93 125.27 19.29 124.14 C 23.45 123.39 28.22 125.25 32.08 123.08 C 34.62 122.96 37.17 122.85 39.71 122.76 Z" />
</g>
<g id="#2d332cff">
<path fill="#2d332c" opacity="1.00" d=" M 45.12 122.81 C 45.41 125.04 46.07 127.12 47.12 129.07 C 48.82 128.83 49.75 126.26 51.65 127.25 C 53.04 129.44 55.37 130.91 58.01 130.94 C 68.77 130.22 79.61 130.81 90.32 131.70 C 94.68 134.21 98.67 130.58 102.99 129.83 C 103.04 131.53 103.06 133.23 102.93 134.93 C 83.64 135.11 64.34 135.00 45.04 134.96 C 45.00 130.90 45.03 126.85 45.12 122.81 Z" />
</g>
<g id="#47463aff">
<path fill="#47463a" opacity="1.00" d=" M 104.12 127.19 C 109.88 122.33 118.43 129.42 123.94 123.91 C 123.97 125.65 124.02 129.12 124.04 130.86 C 117.53 130.15 109.85 128.10 104.00 132.03 C 103.96 130.42 103.93 128.79 104.12 127.19 Z" />
</g>
<g id="#3b3930ff">
<path fill="#3b3930" opacity="1.00" d=" M 104.00 132.03 C 109.85 128.10 117.53 130.15 124.04 130.86 C 124.08 132.23 124.05 133.60 123.96 134.97 C 117.31 135.06 110.66 135.06 104.01 134.96 C 104.01 134.23 104.00 132.76 104.00 132.03 Z" />
</g>
<g id="#39382eff">
<path fill="#39382e" opacity="1.00" d=" M 252.31 131.34 C 254.33 130.02 256.76 130.37 259.04 130.15 C 259.04 131.74 259.04 133.33 258.91 134.91 C 252.65 135.27 246.35 134.99 240.09 134.96 C 240.07 134.47 240.03 133.51 240.01 133.02 C 244.10 132.37 248.59 133.52 252.31 131.34 Z" />
</g>
</svg>
