<?xml version="1.0" encoding="UTF-8" ?>
<!DOCTYPE svg PUBLIC "-//W3C//DTD SVG 1.1//EN" "http://www.w3.org/Graphics/SVG/1.1/DTD/svg11.dtd">
<svg width="66pt" height="72pt" viewBox="0 0 66 72" version="1.1" xmlns="http://www.w3.org/2000/svg">
<g id="#ffffffff">
<path fill="#ffffff" opacity="1.00" d=" M 38.26 13.27 C 39.66 12.82 40.13 13.29 39.69 14.69 C 38.28 15.13 37.81 14.66 38.26 13.27 Z" />
<path fill="#ffffff" opacity="1.00" d=" M 39.11 35.94 C 39.95 37.30 40.80 38.65 41.74 39.95 C 40.98 40.29 40.22 40.63 39.46 40.97 C 39.38 39.29 39.26 37.61 39.11 35.94 Z" />
<path fill="#ffffff" opacity="1.00" d=" M 35.59 38.34 L 36.20 38.00 C 35.82 39.49 35.60 41.01 35.40 42.53 C 33.96 42.69 32.52 42.88 31.09 43.06 C 33.34 42.29 34.74 40.50 35.59 38.34 Z" />
</g>
<g id="#000100ff">
<path fill="#000100" opacity="1.00" d=" M 31.81 0.00 L 40.73 0.00 C 41.62 1.07 42.47 2.17 43.20 3.36 C 42.84 3.32 42.12 3.25 41.76 3.21 C 39.42 0.15 35.61 0.80 32.28 1.26 C 32.12 2.87 31.98 4.48 31.92 6.09 C 31.98 7.50 32.09 8.90 32.25 10.30 C 32.45 10.71 32.85 11.53 33.05 11.95 C 35.98 12.08 38.91 12.03 41.84 12.01 C 42.44 10.19 43.03 8.37 43.61 6.54 C 44.08 8.63 43.30 10.67 42.88 12.70 C 45.08 14.06 47.27 15.46 49.31 17.06 C 47.80 16.62 46.33 16.09 44.85 15.56 C 43.97 16.48 43.06 17.38 42.27 18.37 C 41.56 22.88 42.09 27.48 42.05 32.02 C 42.57 32.01 43.60 31.98 44.11 31.96 C 43.44 28.07 42.90 24.15 42.92 20.19 C 43.80 20.42 44.68 20.65 45.56 20.88 C 45.62 22.15 45.68 23.42 45.75 24.69 C 46.31 24.59 47.45 24.40 48.01 24.30 C 48.00 25.89 48.00 27.48 48.00 29.06 C 48.49 29.07 49.46 29.10 49.94 29.11 C 49.99 27.02 50.00 24.93 50.17 22.85 C 50.60 23.96 51.03 25.08 51.45 26.20 C 54.10 25.05 56.35 23.22 58.24 21.05 C 57.55 19.99 56.87 18.92 56.18 17.85 C 54.50 19.02 52.81 20.17 51.10 21.29 C 52.71 18.35 55.23 16.08 57.95 14.19 C 61.00 15.95 62.68 19.12 64.94 21.70 C 64.22 22.40 63.50 23.10 62.80 23.81 C 61.62 23.06 60.50 22.12 59.11 21.80 C 56.56 23.76 54.34 26.22 51.24 27.36 C 51.11 28.02 50.84 29.35 50.71 30.01 C 49.59 30.00 48.48 30.00 47.37 30.00 C 47.34 27.33 45.81 25.35 43.88 23.69 C 45.30 29.64 44.03 36.22 47.36 41.64 C 46.28 41.05 45.20 40.49 44.11 39.94 C 42.48 40.74 40.84 41.53 39.20 42.30 C 39.43 43.59 39.66 44.88 39.88 46.18 C 39.41 45.64 38.47 44.57 38.00 44.04 C 39.39 50.61 34.18 55.72 33.94 62.04 C 33.42 65.25 37.29 66.76 37.33 69.91 C 33.89 70.03 30.46 70.01 27.02 69.99 C 25.91 58.92 29.70 48.15 28.95 37.11 C 29.43 37.44 30.39 38.10 30.87 38.43 C 30.96 39.00 31.13 40.15 31.22 40.73 C 32.64 39.87 34.10 39.08 35.59 38.34 C 34.74 40.50 33.34 42.29 31.09 43.06 C 32.52 42.88 33.96 42.69 35.40 42.53 C 35.60 41.01 35.82 39.49 36.20 38.00 L 36.99 37.55 C 36.95 39.56 36.85 41.58 36.72 43.59 C 34.52 43.82 32.33 44.01 30.13 44.20 C 29.49 47.45 28.99 50.73 28.84 54.04 C 31.14 54.00 33.45 53.93 35.75 53.83 C 36.54 48.16 39.74 41.75 36.48 36.38 C 36.73 36.05 37.24 35.39 37.49 35.06 C 39.43 33.78 36.36 31.59 36.02 33.98 C 34.16 32.54 32.12 31.34 30.01 30.32 C 30.02 27.26 30.00 24.21 30.00 21.15 C 24.94 23.04 19.48 22.86 14.31 24.23 C 12.32 25.07 10.78 27.78 8.36 26.88 C 5.59 24.86 4.31 21.33 5.96 18.19 C 3.56 15.98 1.43 13.52 0.00 10.56 L 0.00 9.91 C 1.59 9.19 3.17 8.45 4.77 7.75 C 5.90 9.83 6.98 11.95 8.10 14.04 C 7.55 14.87 6.99 15.71 6.44 16.55 C 7.37 17.21 8.28 17.89 9.17 18.59 C 16.59 17.59 23.88 15.82 31.06 13.73 C 31.72 9.17 30.06 4.43 31.81 0.00 M 32.00 13.38 C 32.66 15.16 34.23 16.43 34.89 18.19 C 35.20 22.78 34.88 27.40 35.02 32.00 C 35.51 32.00 36.49 32.00 36.98 32.00 C 37.01 27.10 37.07 22.20 36.92 17.30 C 35.77 16.20 34.64 15.10 33.55 13.95 C 34.71 14.43 35.86 14.92 37.00 15.43 C 37.00 14.81 36.99 13.57 36.98 12.95 C 35.32 13.05 33.66 13.18 32.00 13.38 M 38.26 13.27 C 37.81 14.66 38.28 15.13 39.69 14.69 C 40.13 13.29 39.66 12.82 38.26 13.27 M 38.20 17.33 C 37.71 22.20 38.11 27.12 38.01 32.01 C 38.51 32.01 39.50 32.00 39.99 32.00 C 40.12 27.40 39.78 22.78 40.11 18.18 C 40.69 16.46 42.20 15.26 43.15 13.75 C 41.01 14.07 39.42 15.66 38.20 17.33 M 10.92 19.13 C 12.22 20.43 12.72 23.38 15.01 23.00 C 20.35 22.23 25.75 21.63 30.91 19.95 C 31.46 23.37 29.46 28.09 32.88 30.33 C 33.00 26.35 33.31 22.32 32.76 18.37 C 31.84 17.19 30.78 16.13 29.76 15.04 C 23.60 16.85 17.32 18.51 10.92 19.13 M 56.79 15.78 C 56.93 18.35 59.30 19.73 61.01 21.29 C 61.01 20.52 61.01 18.99 61.01 18.22 C 59.75 17.15 58.54 15.89 56.79 15.78 M 5.94 20.09 C 5.96 22.91 7.43 26.51 10.80 26.31 C 10.60 25.30 10.18 23.28 9.98 22.28 C 10.56 22.77 11.74 23.75 12.33 24.24 C 11.89 23.07 11.43 21.91 10.93 20.77 C 10.57 21.13 9.87 21.85 9.52 22.21 C 9.31 21.65 8.90 20.54 8.69 19.99 C 8.00 20.01 6.62 20.06 5.94 20.09 M 39.11 35.94 C 39.26 37.61 39.38 39.29 39.46 40.97 C 40.22 40.63 40.98 40.29 41.74 39.95 C 40.80 38.65 39.95 37.30 39.11 35.94 M 41.52 37.30 C 41.04 38.87 44.52 39.73 44.84 38.06 C 44.38 36.84 42.51 36.68 41.52 37.30 Z" />
<path fill="#000100" opacity="1.00" d=" M 61.10 1.95 C 62.73 2.27 64.37 2.56 66.00 2.86 L 66.00 3.54 C 63.90 5.84 61.00 7.62 59.85 10.64 C 59.17 9.99 58.48 9.35 57.78 8.71 C 59.71 6.85 62.61 5.00 61.10 1.95 Z" />
<path fill="#000100" opacity="1.00" d=" M 39.14 5.47 C 39.27 5.40 39.54 5.27 39.67 5.20 L 39.44 5.43 L 39.14 5.47 Z" />
<path fill="#000100" opacity="1.00" d=" M 40.21 7.22 C 40.83 7.84 40.83 7.84 40.21 7.22 Z" />
<path fill="#000100" opacity="1.00" d=" M 48.13 42.79 C 52.14 48.64 51.46 56.06 53.28 62.64 C 55.13 64.94 58.38 65.89 59.47 68.85 C 55.03 69.11 50.59 68.98 46.15 69.00 C 46.07 61.82 43.72 55.04 41.69 48.25 C 43.18 49.79 43.77 51.89 44.44 53.87 C 46.62 53.97 48.81 54.04 50.99 54.09 C 50.00 50.34 49.02 46.57 48.13 42.79 Z" />
</g>
<g id="#959b8dff">
<path fill="#959b8d" opacity="1.00" d=" M 32.28 1.26 C 35.61 0.80 39.42 0.15 41.76 3.21 C 41.23 3.71 40.19 4.70 39.67 5.20 C 39.54 5.27 39.27 5.40 39.14 5.47 C 38.42 5.57 36.97 5.77 36.24 5.87 C 34.80 5.96 33.36 6.04 31.92 6.09 C 31.98 4.48 32.12 2.87 32.28 1.26 Z" />
<path fill="#959b8d" opacity="1.00" d=" M 32.00 13.38 C 33.66 13.18 35.32 13.05 36.98 12.95 C 36.99 13.57 37.00 14.81 37.00 15.43 C 35.86 14.92 34.71 14.43 33.55 13.95 C 34.64 15.10 35.77 16.20 36.92 17.30 C 37.07 22.20 37.01 27.10 36.98 32.00 C 36.49 32.00 35.51 32.00 35.02 32.00 C 34.88 27.40 35.20 22.78 34.89 18.19 C 34.23 16.43 32.66 15.16 32.00 13.38 Z" />
<path fill="#959b8d" opacity="1.00" d=" M 38.20 17.33 C 39.42 15.66 41.01 14.07 43.15 13.75 C 42.20 15.26 40.69 16.46 40.11 18.18 C 39.78 22.78 40.12 27.40 39.99 32.00 C 39.50 32.00 38.51 32.01 38.01 32.01 C 38.11 27.12 37.71 22.20 38.20 17.33 Z" />
<path fill="#959b8d" opacity="1.00" d=" M 10.92 19.13 C 17.32 18.51 23.60 16.85 29.76 15.04 C 30.78 16.13 31.84 17.19 32.76 18.37 C 33.31 22.32 33.00 26.35 32.88 30.33 C 29.46 28.09 31.46 23.37 30.91 19.95 C 25.75 21.63 20.35 22.23 15.01 23.00 C 12.72 23.38 12.22 20.43 10.92 19.13 Z" />
<path fill="#959b8d" opacity="1.00" d=" M 42.27 18.37 C 43.06 17.38 43.97 16.48 44.85 15.56 C 46.33 16.09 47.80 16.62 49.31 17.06 C 48.05 18.32 46.79 19.59 45.56 20.88 C 44.68 20.65 43.80 20.42 42.92 20.19 C 42.90 24.15 43.44 28.07 44.11 31.96 C 43.60 31.98 42.57 32.01 42.05 32.02 C 42.09 27.48 41.56 22.88 42.27 18.37 Z" />
<path fill="#959b8d" opacity="1.00" d=" M 51.10 21.29 C 52.81 20.17 54.50 19.02 56.18 17.85 C 56.87 18.92 57.55 19.99 58.24 21.05 C 56.35 23.22 54.10 25.05 51.45 26.20 C 51.03 25.08 50.60 23.96 50.17 22.85 C 50.40 22.46 50.87 21.68 51.10 21.29 Z" />
<path fill="#959b8d" opacity="1.00" d=" M 41.52 37.30 C 42.51 36.68 44.38 36.84 44.84 38.06 C 44.52 39.73 41.04 38.87 41.52 37.30 Z" />
</g>
<g id="#f0d09bff">
<path fill="#f0d09b" opacity="1.00" d=" M 41.76 3.21 C 42.12 3.25 42.84 3.32 43.20 3.36 C 43.36 4.41 43.50 5.47 43.61 6.54 C 43.03 8.37 42.44 10.19 41.84 12.01 C 38.91 12.03 35.98 12.08 33.05 11.95 C 32.85 11.53 32.45 10.71 32.25 10.30 C 33.15 10.19 34.95 9.97 35.86 9.86 C 35.98 8.53 36.11 7.20 36.24 5.87 C 36.97 5.77 38.42 5.57 39.14 5.47 L 39.44 5.43 L 39.67 5.20 C 40.19 4.70 41.23 3.71 41.76 3.21 M 40.21 7.22 C 40.83 7.84 40.83 7.84 40.21 7.22 Z" />
<path fill="#f0d09b" opacity="1.00" d=" M 56.79 15.78 C 58.54 15.89 59.75 17.15 61.01 18.22 C 61.01 18.99 61.01 20.52 61.01 21.29 C 59.30 19.73 56.93 18.35 56.79 15.78 Z" />
<path fill="#f0d09b" opacity="1.00" d=" M 5.94 20.09 C 6.62 20.06 8.00 20.01 8.69 19.99 C 8.90 20.54 9.31 21.65 9.52 22.21 C 9.87 21.85 10.57 21.13 10.93 20.77 C 11.43 21.91 11.89 23.07 12.33 24.24 C 11.74 23.75 10.56 22.77 9.98 22.28 C 10.18 23.28 10.60 25.30 10.80 26.31 C 7.43 26.51 5.96 22.91 5.94 20.09 Z" />
<path fill="#f0d09b" opacity="1.00" d=" M 36.02 33.98 C 36.36 31.59 39.43 33.78 37.49 35.06 C 37.12 34.79 36.39 34.25 36.02 33.98 Z" />
</g>
<g id="#5c5750ff">
<path fill="#5c5750" opacity="1.00" d=" M 31.92 6.09 C 33.36 6.04 34.80 5.96 36.24 5.87 C 36.11 7.20 35.98 8.53 35.86 9.86 C 34.95 9.97 33.15 10.19 32.25 10.30 C 32.09 8.90 31.98 7.50 31.92 6.09 Z" />
<path fill="#5c5750" opacity="1.00" d=" M 49.31 17.06 C 52.09 14.24 54.85 11.39 57.78 8.71 C 58.48 9.35 59.17 9.99 59.85 10.64 C 60.16 10.93 60.78 11.53 61.08 11.82 C 60.04 12.62 59.00 13.42 57.95 14.19 C 55.23 16.08 52.71 18.35 51.10 21.29 C 50.87 21.68 50.40 22.46 50.17 22.85 C 50.00 24.93 49.99 27.02 49.94 29.11 C 49.46 29.10 48.49 29.07 48.00 29.06 C 48.00 27.48 48.00 25.89 48.01 24.30 C 47.45 24.40 46.31 24.59 45.75 24.69 C 45.68 23.42 45.62 22.15 45.56 20.88 C 46.79 19.59 48.05 18.32 49.31 17.06 Z" />
</g>
<g id="#808443ff">
<path fill="#808443" opacity="1.00" d=" M 25.71 34.71 C 27.13 33.23 28.56 31.76 30.01 30.32 C 32.12 31.34 34.16 32.54 36.02 33.98 C 36.39 34.25 37.12 34.79 37.49 35.06 C 37.24 35.39 36.73 36.05 36.48 36.38 C 39.74 41.75 36.54 48.16 35.75 53.83 C 33.45 53.93 31.14 54.00 28.84 54.04 C 28.99 50.73 29.49 47.45 30.13 44.20 C 32.33 44.01 34.52 43.82 36.72 43.59 C 36.85 41.58 36.95 39.56 36.99 37.55 L 36.20 38.00 L 35.59 38.34 C 34.10 39.08 32.64 39.87 31.22 40.73 C 31.13 40.15 30.96 39.00 30.87 38.43 C 30.39 38.10 29.43 37.44 28.95 37.11 C 27.85 36.34 26.78 35.52 25.71 34.71 Z" />
<path fill="#808443" opacity="1.00" d=" M 39.20 42.30 C 40.84 41.53 42.48 40.74 44.11 39.94 C 45.20 40.49 46.28 41.05 47.36 41.64 C 47.55 41.92 47.94 42.50 48.13 42.79 C 49.02 46.57 50.00 50.34 50.99 54.09 C 48.81 54.04 46.62 53.97 44.44 53.87 C 43.77 51.89 43.18 49.79 41.69 48.25 C 41.10 47.55 40.49 46.86 39.88 46.18 C 39.66 44.88 39.43 43.59 39.20 42.30 Z" />
</g>
</svg>
