<?xml version="1.0" encoding="UTF-8" ?>
<!DOCTYPE svg PUBLIC "-//W3C//DTD SVG 1.1//EN" "http://www.w3.org/Graphics/SVG/1.1/DTD/svg11.dtd">
<svg width="362pt" height="97pt" viewBox="0 0 362 97" version="1.1" xmlns="http://www.w3.org/2000/svg">
<g id="#ffffffff">
<path fill="#ffffff" opacity="1.00" d=" M 200.27 56.96 C 201.64 57.81 203.04 58.66 204.33 59.65 C 204.98 60.97 205.49 62.35 206.03 63.72 C 203.65 61.89 201.68 59.60 200.27 56.96 Z" />
</g>
<g id="#000000ff">
<path fill="#000000" opacity="1.00" d=" M 233.98 4.47 C 239.15 10.06 242.99 16.70 247.28 22.96 C 278.86 20.27 310.41 17.36 342.01 14.95 C 341.97 17.58 341.94 20.21 341.91 22.84 C 326.71 25.21 311.52 28.13 296.12 28.80 C 296.97 30.72 299.11 32.75 298.00 34.95 C 296.23 38.30 293.53 41.64 289.67 42.57 C 282.98 44.12 276.10 44.61 269.27 45.18 C 275.29 51.87 279.57 60.01 281.50 68.80 C 277.81 63.45 275.82 57.14 272.13 51.78 C 269.33 48.40 265.15 46.58 261.22 44.89 C 265.29 52.24 272.58 58.87 271.70 67.99 C 272.19 75.53 267.97 81.99 264.08 88.03 C 290.38 88.28 316.69 87.45 342.99 88.16 C 349.50 86.38 351.86 92.77 354.42 97.00 L 15.55 97.00 C 17.85 93.73 19.29 88.49 24.00 88.11 C 40.15 87.34 56.35 88.39 72.52 87.70 C 70.93 81.80 64.57 80.52 59.75 78.30 C 67.13 76.83 74.56 75.68 81.99 74.56 C 72.36 68.71 61.25 66.27 50.76 62.50 C 40.82 59.10 30.95 55.49 21.08 51.87 C 21.18 51.18 21.37 49.80 21.47 49.10 C 41.35 54.46 60.29 62.70 79.82 69.15 C 85.94 71.00 91.18 76.03 97.99 75.11 C 121.78 74.44 145.81 74.34 169.19 69.36 C 181.20 68.37 193.33 69.59 205.21 66.83 C 201.47 63.27 198.62 58.36 193.83 56.17 C 188.35 53.24 187.12 60.55 184.43 62.84 C 178.50 58.03 172.94 52.81 167.68 47.29 C 182.11 44.75 196.67 43.07 211.23 41.47 C 207.42 37.54 205.53 32.26 205.04 26.85 C 206.83 27.88 208.61 28.94 210.39 30.00 C 210.91 28.63 211.44 27.26 211.98 25.89 C 222.98 24.98 233.98 24.04 244.97 23.02 C 241.22 16.89 237.22 10.89 233.98 4.47 M 248.07 24.13 C 250.25 27.42 252.30 30.78 254.40 34.14 C 255.71 34.01 258.33 33.75 259.64 33.63 C 260.46 34.38 261.27 35.14 262.10 35.89 C 260.76 36.15 258.10 36.65 256.77 36.91 C 270.37 35.50 284.01 34.11 297.43 31.42 C 294.13 30.91 290.82 30.39 287.54 29.90 C 304.98 26.03 322.97 25.23 340.41 21.54 C 340.74 20.16 341.39 17.39 341.72 16.01 C 310.53 19.02 279.29 21.46 248.07 24.13 M 238.18 25.08 C 237.86 29.01 237.57 32.94 237.23 36.87 C 242.11 34.13 247.65 34.84 252.97 35.17 C 250.50 31.49 248.20 27.70 245.88 23.93 C 243.33 24.32 240.70 24.70 238.18 25.08 M 221.98 26.29 C 222.38 30.86 222.85 35.41 223.19 39.98 C 226.76 39.26 230.40 38.84 233.90 37.82 C 234.78 35.44 234.63 32.83 234.94 30.34 C 235.05 28.55 235.12 26.76 235.19 24.97 C 230.80 25.52 226.39 25.99 221.98 26.29 M 211.54 27.45 C 212.92 30.00 214.91 32.28 215.69 35.11 C 215.41 37.31 213.81 39.06 212.82 40.98 C 215.84 40.59 218.90 40.23 221.94 39.89 C 221.51 35.33 221.08 30.76 220.79 26.19 C 217.73 26.67 214.59 27.05 211.54 27.45 M 234.94 30.34 C 232.83 33.89 238.90 31.01 234.94 30.34 M 209.46 30.38 C 209.22 33.26 208.99 36.15 208.77 39.04 C 209.68 39.00 211.50 38.92 212.41 38.88 C 211.43 36.04 210.47 33.20 209.46 30.38 M 211.95 31.28 C 212.55 33.60 213.49 35.83 214.96 37.74 C 214.25 35.46 213.27 33.27 211.95 31.28 M 258.81 38.15 C 259.61 39.09 260.41 40.02 261.23 40.95 C 272.82 39.82 284.37 38.33 295.92 36.86 C 295.97 35.68 296.03 34.50 296.09 33.32 C 283.71 35.28 271.27 36.78 258.81 38.15 M 244.63 39.97 C 247.85 40.92 251.10 41.88 254.34 42.79 C 252.35 40.95 250.35 39.12 248.42 37.21 C 247.16 38.13 245.89 39.05 244.63 39.97 M 251.00 37.22 C 250.65 39.03 254.34 39.03 254.00 37.22 C 253.42 36.15 251.57 36.15 251.00 37.22 M 242.35 38.20 C 241.14 39.60 243.55 41.38 244.63 39.97 C 245.85 38.56 243.43 36.75 242.35 38.20 M 234.40 39.15 C 233.97 40.55 234.45 41.03 235.85 40.60 C 236.29 39.19 235.80 38.71 234.40 39.15 M 239.34 39.25 C 238.09 39.37 236.75 41.51 238.37 42.12 C 240.43 43.03 242.03 38.97 239.34 39.25 M 251.82 38.60 C 253.69 39.94 255.59 41.24 257.55 42.46 C 257.01 43.17 256.48 43.88 255.96 44.60 C 258.44 44.96 260.94 45.08 263.45 45.06 C 259.85 42.45 256.12 39.92 251.82 38.60 M 263.34 42.70 C 265.44 43.49 267.62 44.46 269.93 44.08 C 277.95 43.08 286.32 42.68 293.85 39.48 C 283.59 39.33 273.38 40.77 263.34 42.70 M 227.05 40.32 C 227.52 41.91 231.47 41.91 231.95 40.32 C 230.64 39.28 228.35 39.28 227.05 40.32 M 220.08 41.27 C 220.08 42.99 223.92 42.99 223.92 41.27 C 223.03 40.20 220.96 40.20 220.08 41.27 M 212.05 42.32 C 212.52 43.91 216.47 43.91 216.95 42.32 C 215.64 41.28 213.35 41.28 212.05 42.32 M 172.00 49.29 C 172.79 50.43 173.58 51.58 174.36 52.73 C 192.75 50.14 211.14 46.83 229.72 46.01 C 228.68 47.88 227.53 49.69 226.17 51.35 C 226.66 49.84 227.20 48.35 227.77 46.87 C 214.20 48.61 200.66 50.52 187.08 52.13 C 187.02 53.37 186.97 54.62 186.91 55.87 C 192.00 54.23 197.05 51.94 202.55 52.50 C 210.10 52.36 217.57 51.31 225.10 50.87 C 222.86 56.48 219.92 61.96 219.03 67.98 C 219.47 81.33 231.17 94.32 245.00 93.82 C 258.15 94.29 269.33 82.55 270.82 69.95 C 271.53 57.53 261.81 46.01 250.13 42.75 C 243.04 40.79 236.27 44.43 229.76 46.83 C 231.37 45.26 232.99 43.70 234.53 42.05 C 213.59 43.48 192.96 47.92 172.00 49.29 M 205.08 43.27 C 205.08 44.99 208.92 44.99 208.92 43.27 C 208.03 42.20 205.96 42.20 205.08 43.27 M 197.05 44.32 C 197.52 45.91 201.47 45.91 201.95 44.32 C 200.64 43.28 198.35 43.28 197.05 44.32 M 189.05 45.32 C 189.52 46.91 193.47 46.91 193.95 45.32 C 192.64 44.28 190.35 44.28 189.05 45.32 M 182.08 46.27 C 182.08 47.99 185.92 47.99 185.92 46.27 C 185.03 45.20 182.96 45.20 182.08 46.27 M 174.05 47.32 C 174.52 48.91 178.47 48.91 178.95 47.32 C 177.64 46.28 175.35 46.28 174.05 47.32 M 23.63 50.97 C 26.15 52.17 28.78 53.11 31.47 53.83 C 28.98 52.56 26.34 51.63 23.63 50.97 M 182.00 52.00 C 182.00 53.33 182.00 54.67 182.00 56.00 C 183.33 56.00 184.66 56.00 186.00 56.00 C 186.00 54.67 186.00 53.33 186.00 52.00 C 184.66 52.00 183.33 52.00 182.00 52.00 M 204.71 54.33 C 206.38 57.98 208.14 61.59 210.02 65.13 C 212.77 64.68 215.58 64.24 218.34 63.79 C 219.62 59.59 221.52 55.61 223.80 51.87 C 217.44 52.72 211.08 53.57 204.71 54.33 M 175.62 54.38 C 177.25 55.58 178.99 56.63 180.80 57.55 C 180.87 55.94 180.93 54.33 180.99 52.72 C 179.19 53.24 177.40 53.80 175.62 54.38 M 195.59 52.45 C 196.74 54.84 197.97 57.20 199.28 59.51 C 199.26 58.30 199.24 57.08 199.22 55.87 C 200.18 56.04 201.14 56.21 202.11 56.38 C 202.82 57.49 203.51 58.61 204.33 59.65 C 204.72 60.03 205.50 60.80 205.89 61.19 C 204.91 56.30 201.45 51.56 195.59 52.45 M 32.57 54.22 C 37.55 56.84 43.03 58.30 48.43 59.78 C 43.45 57.16 37.97 55.70 32.57 54.22 M 182.99 57.00 C 182.99 58.67 182.99 60.33 182.99 62.00 C 183.75 62.00 185.25 62.00 186.01 62.00 C 186.00 60.33 186.00 58.67 186.01 57.00 C 185.25 57.00 183.75 57.00 182.99 57.00 M 200.27 56.96 C 201.68 59.60 203.65 61.89 206.03 63.72 C 205.49 62.35 204.98 60.97 204.33 59.65 C 203.04 58.66 201.64 57.81 200.27 56.96 M 52.52 61.15 C 55.60 62.95 58.99 64.13 62.48 64.85 C 59.40 63.05 56.01 61.87 52.52 61.15 M 207.12 63.27 C 205.62 62.79 204.56 65.26 206.22 65.73 C 207.71 66.26 208.77 63.70 207.12 63.27 M 205.79 67.20 C 206.91 67.71 208.03 68.22 209.15 68.74 C 181.24 74.95 152.50 75.93 124.05 77.42 C 105.89 78.71 87.72 76.28 69.55 77.49 C 83.02 78.26 96.50 79.14 110.00 79.00 C 146.27 78.90 182.68 79.98 218.80 75.96 C 218.26 72.37 217.86 68.77 217.50 65.16 C 213.60 65.88 209.69 66.52 205.79 67.20 M 72.61 68.10 C 74.80 69.20 77.07 70.11 79.39 70.90 C 77.20 69.80 74.93 68.88 72.61 68.10 M 202.53 68.12 C 202.68 68.44 202.96 69.09 203.10 69.41 C 205.69 70.02 203.95 65.94 202.53 68.12 M 169.03 70.03 L 169.08 71.37 C 172.18 70.78 175.28 70.24 178.37 69.58 C 175.26 69.68 172.12 69.87 169.03 70.03 M 196.08 69.27 C 196.08 70.99 199.92 70.99 199.92 69.27 C 199.03 68.20 196.96 68.20 196.08 69.27 M 188.05 70.32 C 188.52 71.90 192.47 71.90 192.95 70.32 C 191.64 69.28 189.35 69.28 188.05 70.32 M 158.54 71.60 C 161.79 71.71 165.02 71.53 168.28 71.44 C 165.04 71.43 161.76 71.44 158.54 71.60 M 178.01 70.96 L 178.01 72.04 C 180.67 72.00 183.33 72.00 185.99 72.04 L 185.99 70.96 C 183.33 70.99 180.67 70.99 178.01 70.96 M 82.20 72.23 C 82.13 73.22 81.99 75.21 81.93 76.21 C 84.87 75.83 87.81 75.44 90.75 75.05 C 87.96 73.94 85.12 72.95 82.20 72.23 M 168.28 71.44 L 168.27 73.28 C 171.34 73.01 174.34 72.70 177.44 72.45 C 174.40 72.01 171.32 71.74 168.28 71.44 M 156.53 73.67 C 160.44 73.52 164.35 73.48 168.27 73.28 C 165.34 73.38 159.46 73.57 156.53 73.67 M 141.00 73.97 L 141.00 75.03 C 144.75 75.03 152.25 75.03 156.00 75.03 L 156.00 73.97 C 152.25 73.97 144.75 73.97 141.00 73.97 M 118.50 75.57 C 125.83 75.86 133.17 75.76 140.50 75.43 C 133.17 75.14 125.83 75.24 118.50 75.57 M 93.55 76.65 C 101.84 77.20 110.16 76.82 118.45 76.35 C 110.16 75.80 101.83 76.18 93.55 76.65 M 63.74 78.06 C 68.69 80.82 74.34 82.39 79.78 79.97 C 74.47 79.11 69.17 77.55 63.74 78.06 M 216.80 77.17 C 216.35 78.59 218.74 79.10 219.20 77.83 C 219.65 76.41 217.25 75.90 216.80 77.17 M 204.56 78.72 C 207.87 78.67 211.12 78.47 214.44 78.28 C 211.15 78.34 207.82 78.51 204.56 78.72 M 73.54 84.65 C 71.15 87.84 70.34 91.88 69.26 95.64 C 74.27 90.67 77.94 84.58 82.07 78.91 C 79.22 80.82 76.30 82.62 73.54 84.65 M 82.71 79.21 C 84.09 79.59 86.86 80.35 88.25 80.74 C 86.59 80.97 83.28 81.43 81.62 81.66 C 85.51 82.12 89.41 82.52 93.31 82.89 C 91.76 82.32 90.21 81.75 88.68 81.15 C 120.45 80.80 152.22 81.09 183.99 81.01 L 183.99 79.99 C 150.23 79.68 116.45 80.79 82.71 79.21 M 185.54 79.66 C 191.51 79.70 197.49 79.58 203.46 79.34 C 197.48 79.30 191.50 79.42 185.54 79.66 M 95.91 81.99 C 96.63 82.65 97.35 83.32 98.08 83.99 C 92.12 84.04 86.16 84.07 80.21 84.12 C 79.08 85.40 77.94 86.67 76.80 87.94 C 126.60 88.02 176.39 88.09 226.19 87.90 C 224.37 84.96 222.54 82.04 220.80 79.06 C 179.34 83.87 137.53 81.42 95.91 81.99 M 23.39 89.47 C 20.26 90.13 19.14 93.54 17.53 95.89 C 33.70 96.12 49.87 96.16 66.04 95.72 C 67.38 93.47 68.85 91.30 70.22 89.08 C 54.61 89.13 38.97 88.31 23.39 89.47 M 76.41 89.19 C 74.87 91.44 73.32 93.67 71.79 95.92 C 165.37 95.98 258.95 96.19 352.52 95.82 C 351.30 93.95 350.26 91.90 348.60 90.38 C 345.30 88.04 340.69 89.75 337.03 88.96 C 313.69 89.17 290.32 88.50 267.00 89.28 C 258.96 89.61 252.38 96.27 244.04 94.96 C 235.69 95.48 229.41 88.01 221.05 89.01 C 172.84 89.04 124.62 88.80 76.41 89.19 Z" />
<path fill="#000000" opacity="1.00" d=" M 280.44 31.00 C 282.80 30.65 285.17 30.28 287.54 29.90 C 289.03 30.29 292.00 31.06 293.49 31.45 C 289.13 31.44 284.79 31.27 280.44 31.00 Z" />
<path fill="#000000" opacity="1.00" d=" M 273.60 31.82 C 275.87 31.53 278.15 31.26 280.44 31.00 C 282.10 31.49 283.75 32.04 285.39 32.60 C 281.45 32.38 277.53 32.13 273.60 31.82 Z" />
<path fill="#000000" opacity="1.00" d=" M 266.63 32.76 C 268.94 32.44 271.27 32.13 273.60 31.82 C 275.14 32.56 276.68 33.28 278.23 34.01 C 274.35 33.61 270.49 33.19 266.63 32.76 Z" />
<path fill="#000000" opacity="1.00" d=" M 259.64 33.63 C 261.96 33.35 264.29 33.06 266.63 32.76 C 267.81 33.54 268.99 34.32 270.18 35.11 C 266.65 34.62 263.15 34.14 259.64 33.63 Z" />
<path fill="#000000" opacity="1.00" d=" M 235.32 47.02 C 240.61 44.58 246.65 42.66 251.90 46.61 C 250.95 44.86 247.74 44.57 247.40 46.90 C 248.53 46.83 250.77 46.68 251.90 46.61 C 253.19 46.51 254.50 46.49 255.80 46.46 C 255.99 47.29 256.18 48.12 256.37 48.95 C 256.89 51.32 257.44 53.69 258.01 56.05 C 259.41 55.30 260.81 54.55 262.21 53.79 C 260.19 51.81 258.17 49.82 256.15 47.85 C 272.21 54.34 273.21 80.11 258.00 87.99 C 248.40 94.02 234.57 92.55 227.01 83.95 C 229.50 85.26 231.95 86.65 234.39 88.06 C 235.73 84.46 237.10 80.87 238.28 77.21 C 234.56 78.90 231.07 81.05 227.76 83.43 C 226.17 81.91 224.65 80.31 223.19 78.66 C 227.26 77.59 231.34 76.52 235.40 75.39 C 237.09 76.84 238.81 78.28 240.48 79.77 C 239.67 83.13 238.66 86.44 237.76 89.78 C 244.42 89.17 243.65 82.67 244.85 78.00 C 243.45 78.31 242.05 78.63 240.65 78.95 C 240.94 77.43 241.16 75.90 241.36 74.36 C 239.37 74.70 237.39 75.06 235.40 75.39 C 236.81 73.89 238.22 72.41 239.66 70.94 C 242.08 72.27 244.52 73.55 247.00 74.76 C 248.55 73.30 250.13 71.89 251.82 70.59 C 250.97 72.01 250.12 73.43 249.24 74.83 C 249.61 75.48 249.97 76.13 250.33 76.78 C 252.07 74.66 253.76 72.13 256.65 71.57 C 258.90 71.92 258.92 68.11 256.79 69.93 C 256.76 70.34 256.69 71.16 256.65 71.57 C 255.73 71.43 253.87 71.14 252.94 70.99 C 253.63 70.31 254.33 69.63 255.03 68.95 C 253.79 69.15 252.57 69.34 251.34 69.54 C 250.52 67.78 249.66 66.04 248.80 64.30 C 250.81 65.07 252.84 65.77 254.89 66.41 C 253.47 64.98 252.05 63.56 250.65 62.11 C 252.67 60.86 254.72 59.67 256.83 58.54 C 255.63 60.44 254.39 62.30 253.13 64.15 C 254.63 63.70 256.13 63.23 257.64 62.77 C 257.36 61.36 257.07 59.96 256.83 58.54 C 256.41 56.02 256.14 53.47 255.83 50.94 C 253.69 55.27 251.64 59.69 248.70 63.56 C 248.13 57.82 251.61 52.90 253.93 47.92 C 252.16 47.95 248.63 48.00 246.86 48.02 C 247.03 53.00 247.14 57.98 247.49 62.95 C 244.73 63.90 242.07 65.15 239.58 66.67 C 239.01 65.66 237.15 64.80 236.48 66.18 C 236.48 67.81 238.74 67.41 239.58 66.67 C 239.73 67.44 240.04 68.96 240.19 69.73 C 234.44 67.80 228.62 66.10 222.72 64.69 C 222.58 67.41 222.59 70.14 222.73 72.86 C 227.13 71.45 231.53 70.02 235.97 68.74 C 235.32 69.44 234.67 70.14 234.03 70.84 C 234.84 71.04 236.46 71.44 237.27 71.64 C 232.15 72.94 226.99 74.04 221.81 75.02 C 221.33 67.17 221.38 58.36 227.43 52.51 C 226.20 55.62 224.93 58.70 223.72 61.82 C 229.58 62.49 237.42 67.27 242.47 62.11 C 244.28 58.10 243.73 53.26 244.38 48.89 C 242.29 49.27 240.22 49.66 238.14 50.06 C 239.82 53.62 241.49 57.18 243.15 60.74 C 242.12 60.68 241.09 60.62 240.07 60.56 C 238.03 56.74 236.02 52.92 233.98 49.10 C 232.25 50.71 230.62 52.42 229.01 54.15 C 228.67 55.20 228.33 56.25 227.99 57.30 C 227.79 55.70 227.58 54.11 227.43 52.51 C 229.09 50.14 231.80 48.84 234.07 47.15 C 234.80 48.24 235.53 49.33 236.27 50.43 C 238.99 49.10 241.78 47.91 244.53 46.63 C 241.43 46.74 238.40 46.91 235.32 47.02 M 245.66 62.46 C 245.69 56.49 245.57 50.51 245.34 44.54 C 245.30 50.51 245.42 56.49 245.66 62.46 M 258.05 59.04 C 258.44 60.03 258.84 61.03 259.23 62.03 C 261.55 61.58 263.87 61.13 266.20 60.75 C 265.42 59.07 264.64 57.39 263.85 55.71 C 261.92 56.82 259.99 57.94 258.05 59.04 M 223.53 63.12 C 223.68 63.44 223.96 64.09 224.10 64.41 C 226.69 65.02 224.95 60.94 223.53 63.12 M 257.74 63.37 C 255.95 64.02 257.55 65.89 258.89 65.26 C 259.07 66.68 259.24 68.11 259.41 69.53 C 262.27 70.05 265.18 70.58 268.05 71.12 C 267.71 68.45 267.40 65.78 267.08 63.12 C 264.61 63.78 262.12 64.40 259.64 65.06 C 261.71 63.93 258.99 62.20 257.74 63.37 M 227.80 64.17 C 227.34 65.59 229.74 66.10 230.20 64.83 C 230.65 63.41 228.25 62.90 227.80 64.17 M 232.53 65.12 C 232.68 65.44 232.96 66.09 233.10 66.41 C 235.69 67.02 233.95 62.94 232.53 65.12 M 252.11 67.19 L 252.11 67.81 C 254.07 68.18 256.02 68.56 257.98 68.95 C 257.98 68.23 257.98 66.77 257.98 66.05 C 256.02 66.44 254.07 66.82 252.11 67.19 M 261.53 71.12 C 261.68 71.44 261.96 72.09 262.10 72.41 C 264.69 73.02 262.95 68.94 261.53 71.12 M 227.53 72.12 C 227.68 72.44 227.96 73.09 228.10 73.41 C 230.69 74.02 228.95 69.94 227.53 72.12 M 255.12 72.64 C 257.87 75.69 261.14 78.20 264.59 80.42 C 265.45 78.22 266.35 76.04 267.25 73.86 C 263.23 73.24 259.21 72.46 255.12 72.64 M 245.58 91.48 C 245.62 85.83 245.56 80.17 245.42 74.52 C 245.37 80.17 245.43 85.83 245.58 91.48 M 246.53 88.00 C 248.48 87.96 252.38 87.90 254.33 87.86 C 252.45 83.73 250.46 79.64 248.26 75.68 C 246.79 79.60 247.16 83.92 246.53 88.00 M 252.31 75.83 C 253.39 79.88 255.35 83.62 256.96 87.48 C 259.14 85.84 261.27 84.11 263.33 82.30 C 259.67 80.11 255.99 77.95 252.31 75.83 M 224.89 79.09 C 225.26 79.64 226.01 80.73 226.38 81.28 C 228.00 80.21 229.61 79.12 231.23 78.04 C 229.11 78.38 227.00 78.75 224.89 79.09 M 240.00 89.22 C 239.65 91.02 243.34 91.02 243.00 89.22 C 242.42 88.15 240.57 88.15 240.00 89.22 M 247.80 89.17 C 247.34 90.59 249.74 91.10 250.20 89.83 C 250.65 88.41 248.25 87.90 247.80 89.17 Z" />
<path fill="#000000" opacity="1.00" d=" M 229.01 54.15 C 230.70 55.28 232.38 56.44 234.08 57.57 C 233.68 58.17 232.88 59.37 232.48 59.98 C 231.32 58.03 230.17 56.09 229.01 54.15 Z" />
<path fill="#000000" opacity="1.00" d=" M 184.12 58.53 C 188.05 59.31 181.82 61.96 184.12 58.53 Z" />
<path fill="#000000" opacity="1.00" d=" M 234.08 57.57 C 235.35 58.42 236.63 59.25 237.91 60.09 C 237.41 61.15 236.92 62.21 236.43 63.27 C 235.62 61.38 234.84 59.48 234.08 57.57 Z" />
<path fill="#000000" opacity="1.00" d=" M 243.82 65.93 C 244.66 65.93 246.34 65.93 247.18 65.93 C 247.54 67.60 247.92 69.26 248.31 70.93 L 242.69 70.93 C 243.07 69.26 243.46 67.60 243.82 65.93 M 245.11 67.20 C 243.18 67.62 244.01 70.75 245.90 70.14 C 247.83 69.73 246.97 66.60 245.11 67.20 Z" />
<path fill="#000000" opacity="1.00" d=" M 211.08 67.27 C 211.96 66.20 214.03 66.20 214.92 67.27 C 214.92 68.99 211.08 68.99 211.08 67.27 Z" />
</g>
<g id="#59693cff">
<path fill="#59693c" opacity="1.00" d=" M 248.07 24.13 C 279.29 21.46 310.53 19.02 341.72 16.01 C 341.39 17.39 340.74 20.16 340.41 21.54 C 322.97 25.23 304.98 26.03 287.54 29.90 C 285.17 30.28 282.80 30.65 280.44 31.00 C 278.15 31.26 275.87 31.53 273.60 31.82 C 271.27 32.13 268.94 32.44 266.63 32.76 C 264.29 33.06 261.96 33.35 259.64 33.63 C 258.33 33.75 255.71 34.01 254.40 34.14 C 252.30 30.78 250.25 27.42 248.07 24.13 Z" />
<path fill="#59693c" opacity="1.00" d=" M 238.18 25.08 C 240.70 24.70 243.33 24.32 245.88 23.93 C 248.20 27.70 250.50 31.49 252.97 35.17 C 247.65 34.84 242.11 34.13 237.23 36.87 C 237.57 32.94 237.86 29.01 238.18 25.08 Z" />
<path fill="#59693c" opacity="1.00" d=" M 221.98 26.29 C 226.39 25.99 230.80 25.52 235.19 24.97 C 235.12 26.76 235.05 28.55 234.94 30.34 C 234.63 32.83 234.78 35.44 233.90 37.82 C 230.40 38.84 226.76 39.26 223.19 39.98 C 222.85 35.41 222.38 30.86 221.98 26.29 Z" />
<path fill="#59693c" opacity="1.00" d=" M 211.54 27.45 C 214.59 27.05 217.73 26.67 220.79 26.19 C 221.08 30.76 221.51 35.33 221.94 39.89 C 218.90 40.23 215.84 40.59 212.82 40.98 C 213.81 39.06 215.41 37.31 215.69 35.11 C 214.91 32.28 212.92 30.00 211.54 27.45 Z" />
<path fill="#59693c" opacity="1.00" d=" M 234.94 30.34 C 238.90 31.01 232.83 33.89 234.94 30.34 Z" />
<path fill="#59693c" opacity="1.00" d=" M 287.54 29.90 C 290.82 30.39 294.13 30.91 297.43 31.42 C 284.01 34.11 270.37 35.50 256.77 36.91 C 258.10 36.65 260.76 36.15 262.10 35.89 C 261.27 35.14 260.46 34.38 259.64 33.63 C 263.15 34.14 266.65 34.62 270.18 35.11 C 268.99 34.32 267.81 33.54 266.63 32.76 C 270.49 33.19 274.35 33.61 278.23 34.01 C 276.68 33.28 275.14 32.56 273.60 31.82 C 277.53 32.13 281.45 32.38 285.39 32.60 C 283.75 32.04 282.10 31.49 280.44 31.00 C 284.79 31.27 289.13 31.44 293.49 31.45 C 292.00 31.06 289.03 30.29 287.54 29.90 Z" />
<path fill="#59693c" opacity="1.00" d=" M 209.46 30.38 C 210.47 33.20 211.43 36.04 212.41 38.88 C 211.50 38.92 209.68 39.00 208.77 39.04 C 208.99 36.15 209.22 33.26 209.46 30.38 Z" />
<path fill="#59693c" opacity="1.00" d=" M 211.95 31.28 C 213.27 33.27 214.25 35.46 214.96 37.74 C 213.49 35.83 212.55 33.60 211.95 31.28 Z" />
<path fill="#59693c" opacity="1.00" d=" M 258.81 38.15 C 271.27 36.78 283.71 35.28 296.09 33.32 C 296.03 34.50 295.97 35.68 295.92 36.86 C 284.37 38.33 272.82 39.82 261.23 40.95 C 260.41 40.02 259.61 39.09 258.81 38.15 Z" />
<path fill="#59693c" opacity="1.00" d=" M 244.63 39.97 C 245.89 39.05 247.16 38.13 248.42 37.21 C 250.35 39.12 252.35 40.95 254.34 42.79 C 251.10 41.88 247.85 40.92 244.63 39.97 Z" />
<path fill="#59693c" opacity="1.00" d=" M 251.00 37.22 C 251.57 36.15 253.42 36.15 254.00 37.22 C 254.34 39.03 250.65 39.03 251.00 37.22 Z" />
<path fill="#59693c" opacity="1.00" d=" M 242.35 38.20 C 243.43 36.75 245.85 38.56 244.63 39.97 C 243.55 41.38 241.14 39.60 242.35 38.20 Z" />
<path fill="#59693c" opacity="1.00" d=" M 234.40 39.15 C 235.80 38.71 236.29 39.19 235.85 40.60 C 234.45 41.03 233.97 40.55 234.40 39.15 Z" />
<path fill="#59693c" opacity="1.00" d=" M 239.34 39.25 C 242.03 38.97 240.43 43.03 238.37 42.12 C 236.75 41.51 238.09 39.37 239.34 39.25 Z" />
<path fill="#59693c" opacity="1.00" d=" M 251.82 38.60 C 256.12 39.92 259.85 42.45 263.45 45.06 C 260.94 45.08 258.44 44.96 255.96 44.60 C 256.48 43.88 257.01 43.17 257.55 42.46 C 255.59 41.24 253.69 39.94 251.82 38.60 Z" />
<path fill="#59693c" opacity="1.00" d=" M 263.34 42.70 C 273.38 40.77 283.59 39.33 293.85 39.48 C 286.32 42.68 277.95 43.08 269.93 44.08 C 267.62 44.46 265.44 43.49 263.34 42.70 Z" />
<path fill="#59693c" opacity="1.00" d=" M 227.05 40.32 C 228.35 39.28 230.64 39.28 231.95 40.32 C 231.47 41.91 227.52 41.91 227.05 40.32 Z" />
<path fill="#59693c" opacity="1.00" d=" M 220.08 41.27 C 220.96 40.20 223.03 40.20 223.92 41.27 C 223.92 42.99 220.08 42.99 220.08 41.27 Z" />
<path fill="#59693c" opacity="1.00" d=" M 212.05 42.32 C 213.35 41.28 215.64 41.28 216.95 42.32 C 216.47 43.91 212.52 43.91 212.05 42.32 Z" />
<path fill="#59693c" opacity="1.00" d=" M 172.00 49.29 C 192.96 47.92 213.59 43.48 234.53 42.05 C 232.99 43.70 231.37 45.26 229.76 46.83 C 236.27 44.43 243.04 40.79 250.13 42.75 C 261.81 46.01 271.53 57.53 270.82 69.95 C 269.33 82.55 258.15 94.29 245.00 93.82 C 231.17 94.32 219.47 81.33 219.03 67.98 C 219.92 61.96 222.86 56.48 225.10 50.87 C 217.57 51.31 210.10 52.36 202.55 52.50 C 197.05 51.94 192.00 54.23 186.91 55.87 C 186.97 54.62 187.02 53.37 187.08 52.13 C 200.66 50.52 214.20 48.61 227.77 46.87 C 227.20 48.35 226.66 49.84 226.17 51.35 C 227.53 49.69 228.68 47.88 229.72 46.01 C 211.14 46.83 192.75 50.14 174.36 52.73 C 173.58 51.58 172.79 50.43 172.00 49.29 M 235.32 47.02 C 238.40 46.91 241.43 46.74 244.53 46.63 C 241.78 47.91 238.99 49.10 236.27 50.43 C 235.53 49.33 234.80 48.24 234.07 47.15 C 231.80 48.84 229.09 50.14 227.43 52.51 C 221.38 58.36 221.33 67.17 221.81 75.02 C 226.99 74.04 232.15 72.94 237.27 71.64 C 236.46 71.44 234.84 71.04 234.03 70.84 C 234.67 70.14 235.32 69.44 235.97 68.74 C 231.53 70.02 227.13 71.45 222.73 72.86 C 222.59 70.14 222.58 67.41 222.72 64.69 C 228.62 66.10 234.44 67.80 240.19 69.73 C 240.04 68.96 239.73 67.44 239.58 66.67 C 242.07 65.15 244.73 63.90 247.49 62.95 C 247.14 57.98 247.03 53.00 246.86 48.02 C 248.63 48.00 252.16 47.95 253.93 47.92 C 251.61 52.90 248.13 57.82 248.70 63.56 C 251.64 59.69 253.69 55.27 255.83 50.94 C 256.14 53.47 256.41 56.02 256.83 58.54 C 254.72 59.67 252.67 60.86 250.65 62.11 C 252.05 63.56 253.47 64.98 254.89 66.41 C 252.84 65.77 250.81 65.07 248.80 64.30 C 249.66 66.04 250.52 67.78 251.34 69.54 C 252.57 69.34 253.79 69.15 255.03 68.95 C 254.33 69.63 253.63 70.31 252.94 70.99 C 253.87 71.14 255.73 71.43 256.65 71.57 C 253.76 72.13 252.07 74.66 250.33 76.78 C 249.97 76.13 249.61 75.48 249.24 74.83 C 250.12 73.43 250.97 72.01 251.82 70.59 C 250.13 71.89 248.55 73.30 247.00 74.76 C 244.52 73.55 242.08 72.27 239.66 70.94 C 238.22 72.41 236.81 73.89 235.40 75.39 C 231.34 76.52 227.26 77.59 223.19 78.66 C 224.65 80.31 226.17 81.91 227.76 83.43 L 227.01 83.95 C 234.57 92.55 248.40 94.02 258.00 87.99 C 273.21 80.11 272.21 54.34 256.15 47.85 L 256.37 48.95 C 256.18 48.12 255.99 47.29 255.80 46.46 C 254.50 46.49 253.19 46.51 251.90 46.61 C 246.65 42.66 240.61 44.58 235.32 47.02 M 243.82 65.93 C 243.46 67.60 243.07 69.26 242.69 70.93 L 248.31 70.93 C 247.92 69.26 247.54 67.60 247.18 65.93 C 246.34 65.93 244.66 65.93 243.82 65.93 Z" />
<path fill="#59693c" opacity="1.00" d=" M 205.08 43.27 C 205.96 42.20 208.03 42.20 208.92 43.27 C 208.92 44.99 205.08 44.99 205.08 43.27 Z" />
<path fill="#59693c" opacity="1.00" d=" M 197.05 44.32 C 198.35 43.28 200.64 43.28 201.95 44.32 C 201.47 45.91 197.52 45.91 197.05 44.32 Z" />
<path fill="#59693c" opacity="1.00" d=" M 189.05 45.32 C 190.35 44.28 192.64 44.28 193.95 45.32 C 193.47 46.91 189.52 46.91 189.05 45.32 Z" />
<path fill="#59693c" opacity="1.00" d=" M 245.66 62.46 C 245.42 56.49 245.30 50.51 245.34 44.54 C 245.57 50.51 245.69 56.49 245.66 62.46 Z" />
<path fill="#59693c" opacity="1.00" d=" M 182.08 46.27 C 182.96 45.20 185.03 45.20 185.92 46.27 C 185.92 47.99 182.08 47.99 182.08 46.27 Z" />
<path fill="#59693c" opacity="1.00" d=" M 247.40 46.90 C 247.74 44.57 250.95 44.86 251.90 46.61 C 250.77 46.68 248.53 46.83 247.40 46.90 Z" />
<path fill="#59693c" opacity="1.00" d=" M 174.05 47.32 C 175.35 46.28 177.64 46.28 178.95 47.32 C 178.47 48.91 174.52 48.91 174.05 47.32 Z" />
<path fill="#59693c" opacity="1.00" d=" M 238.14 50.06 C 240.22 49.66 242.29 49.27 244.38 48.89 C 243.73 53.26 244.28 58.10 242.47 62.11 C 237.42 67.27 229.58 62.49 223.72 61.82 C 224.93 58.70 226.20 55.62 227.43 52.51 C 227.58 54.11 227.79 55.70 227.99 57.30 C 228.33 56.25 228.67 55.20 229.01 54.15 C 230.17 56.09 231.32 58.03 232.48 59.98 C 232.88 59.37 233.68 58.17 234.08 57.57 C 234.84 59.48 235.62 61.38 236.43 63.27 C 236.92 62.21 237.41 61.15 237.91 60.09 C 236.63 59.25 235.35 58.42 234.08 57.57 C 232.38 56.44 230.70 55.28 229.01 54.15 C 230.62 52.42 232.25 50.71 233.98 49.10 C 236.02 52.92 238.03 56.74 240.07 60.56 C 241.09 60.62 242.12 60.68 243.15 60.74 C 241.49 57.18 239.82 53.62 238.14 50.06 Z" />
<path fill="#59693c" opacity="1.00" d=" M 23.63 50.97 C 26.34 51.63 28.98 52.56 31.47 53.83 C 28.78 53.11 26.15 52.17 23.63 50.97 Z" />
<path fill="#59693c" opacity="1.00" d=" M 182.00 52.00 C 183.33 52.00 184.66 52.00 186.00 52.00 C 186.00 53.33 186.00 54.67 186.00 56.00 C 184.66 56.00 183.33 56.00 182.00 56.00 C 182.00 54.67 182.00 53.33 182.00 52.00 Z" />
<path fill="#59693c" opacity="1.00" d=" M 175.62 54.38 C 177.40 53.80 179.19 53.24 180.99 52.72 C 180.93 54.33 180.87 55.94 180.80 57.55 C 178.99 56.63 177.25 55.58 175.62 54.38 Z" />
<path fill="#59693c" opacity="1.00" d=" M 195.59 52.45 C 201.45 51.56 204.91 56.30 205.89 61.19 C 205.50 60.80 204.72 60.03 204.33 59.65 C 203.51 58.61 202.82 57.49 202.11 56.38 C 201.14 56.21 200.18 56.04 199.22 55.87 C 199.24 57.08 199.26 58.30 199.28 59.51 C 197.97 57.20 196.74 54.84 195.59 52.45 Z" />
<path fill="#59693c" opacity="1.00" d=" M 32.57 54.22 C 37.97 55.70 43.45 57.16 48.43 59.78 C 43.03 58.30 37.55 56.84 32.57 54.22 Z" />
<path fill="#59693c" opacity="1.00" d=" M 182.99 57.00 C 183.75 57.00 185.25 57.00 186.01 57.00 C 186.00 58.67 186.00 60.33 186.01 62.00 C 185.25 62.00 183.75 62.00 182.99 62.00 C 182.99 60.33 182.99 58.67 182.99 57.00 M 184.12 58.53 C 181.82 61.96 188.05 59.31 184.12 58.53 Z" />
<path fill="#59693c" opacity="1.00" d=" M 256.83 58.54 C 257.07 59.96 257.36 61.36 257.64 62.77 C 256.13 63.23 254.63 63.70 253.13 64.15 C 254.39 62.30 255.63 60.44 256.83 58.54 Z" />
<path fill="#59693c" opacity="1.00" d=" M 52.52 61.15 C 56.01 61.87 59.40 63.05 62.48 64.85 C 58.99 64.13 55.60 62.95 52.52 61.15 Z" />
<path fill="#59693c" opacity="1.00" d=" M 207.12 63.27 C 208.77 63.70 207.71 66.26 206.22 65.73 C 204.56 65.26 205.62 62.79 207.12 63.27 Z" />
<path fill="#59693c" opacity="1.00" d=" M 223.53 63.12 C 224.95 60.94 226.69 65.02 224.10 64.41 C 223.96 64.09 223.68 63.44 223.53 63.12 Z" />
<path fill="#59693c" opacity="1.00" d=" M 257.74 63.37 C 258.99 62.20 261.71 63.93 259.64 65.06 L 258.89 65.26 C 257.55 65.89 255.95 64.02 257.74 63.37 Z" />
<path fill="#59693c" opacity="1.00" d=" M 227.80 64.17 C 228.25 62.90 230.65 63.41 230.20 64.83 C 229.74 66.10 227.34 65.59 227.80 64.17 Z" />
<path fill="#59693c" opacity="1.00" d=" M 205.79 67.20 C 209.69 66.52 213.60 65.88 217.50 65.16 C 217.86 68.77 218.26 72.37 218.80 75.96 C 182.68 79.98 146.27 78.90 110.00 79.00 C 96.50 79.14 83.02 78.26 69.55 77.49 C 87.72 76.28 105.89 78.71 124.05 77.42 C 152.50 75.93 181.24 74.95 209.15 68.74 C 208.03 68.22 206.91 67.71 205.79 67.20 M 211.08 67.27 C 211.08 68.99 214.92 68.99 214.92 67.27 C 214.03 66.20 211.96 66.20 211.08 67.27 Z" />
<path fill="#59693c" opacity="1.00" d=" M 232.53 65.12 C 233.95 62.94 235.69 67.02 233.10 66.41 C 232.96 66.09 232.68 65.44 232.53 65.12 Z" />
<path fill="#59693c" opacity="1.00" d=" M 236.48 66.18 C 237.15 64.80 239.01 65.66 239.58 66.67 C 238.74 67.41 236.48 67.81 236.48 66.18 Z" />
<path fill="#59693c" opacity="1.00" d=" M 252.11 67.19 C 254.07 66.82 256.02 66.44 257.98 66.05 C 257.98 66.77 257.98 68.23 257.98 68.95 C 256.02 68.56 254.07 68.18 252.11 67.81 L 252.11 67.19 Z" />
<path fill="#59693c" opacity="1.00" d=" M 245.11 67.20 C 246.97 66.60 247.83 69.73 245.90 70.14 C 244.01 70.75 243.18 67.62 245.11 67.20 Z" />
<path fill="#59693c" opacity="1.00" d=" M 72.61 68.10 C 74.93 68.88 77.20 69.80 79.39 70.90 C 77.07 70.11 74.80 69.20 72.61 68.10 Z" />
<path fill="#59693c" opacity="1.00" d=" M 202.53 68.12 C 203.95 65.94 205.69 70.02 203.10 69.41 C 202.96 69.09 202.68 68.44 202.53 68.12 Z" />
<path fill="#59693c" opacity="1.00" d=" M 169.03 70.03 C 172.12 69.87 175.26 69.68 178.37 69.58 C 175.28 70.24 172.18 70.78 169.08 71.37 L 169.03 70.03 Z" />
<path fill="#59693c" opacity="1.00" d=" M 196.08 69.27 C 196.96 68.20 199.03 68.20 199.92 69.27 C 199.92 70.99 196.08 70.99 196.08 69.27 Z" />
<path fill="#59693c" opacity="1.00" d=" M 188.05 70.32 C 189.35 69.28 191.64 69.28 192.95 70.32 C 192.47 71.90 188.52 71.90 188.05 70.32 Z" />
<path fill="#59693c" opacity="1.00" d=" M 256.65 71.57 C 256.69 71.16 256.76 70.34 256.79 69.93 C 258.92 68.11 258.90 71.92 256.65 71.57 Z" />
<path fill="#59693c" opacity="1.00" d=" M 158.54 71.60 C 161.76 71.44 165.04 71.43 168.28 71.44 C 165.02 71.53 161.79 71.71 158.54 71.60 Z" />
<path fill="#59693c" opacity="1.00" d=" M 178.01 70.96 C 180.67 70.99 183.33 70.99 185.99 70.96 L 185.99 72.04 C 183.33 72.00 180.67 72.00 178.01 72.04 L 178.01 70.96 Z" />
<path fill="#59693c" opacity="1.00" d=" M 261.53 71.12 C 262.95 68.94 264.69 73.02 262.10 72.41 C 261.96 72.09 261.68 71.44 261.53 71.12 Z" />
<path fill="#59693c" opacity="1.00" d=" M 82.20 72.23 C 85.12 72.95 87.96 73.94 90.75 75.05 C 87.81 75.44 84.87 75.83 81.93 76.21 C 81.99 75.21 82.13 73.22 82.20 72.23 Z" />
<path fill="#59693c" opacity="1.00" d=" M 168.28 71.44 C 171.32 71.74 174.40 72.01 177.44 72.45 C 174.34 72.70 171.34 73.01 168.27 73.28 L 168.28 71.44 Z" />
<path fill="#59693c" opacity="1.00" d=" M 227.53 72.12 C 228.95 69.94 230.69 74.02 228.10 73.41 C 227.96 73.09 227.68 72.44 227.53 72.12 Z" />
<path fill="#59693c" opacity="1.00" d=" M 156.53 73.67 C 159.46 73.57 165.34 73.38 168.27 73.28 C 164.35 73.48 160.44 73.52 156.53 73.67 Z" />
<path fill="#59693c" opacity="1.00" d=" M 141.00 73.97 C 144.75 73.97 152.25 73.97 156.00 73.97 L 156.00 75.03 C 152.25 75.03 144.75 75.03 141.00 75.03 L 141.00 73.97 Z" />
<path fill="#59693c" opacity="1.00" d=" M 235.40 75.39 C 237.39 75.06 239.37 74.70 241.36 74.36 C 241.16 75.90 240.94 77.43 240.65 78.95 L 240.48 79.77 C 238.81 78.28 237.09 76.84 235.40 75.39 Z" />
<path fill="#59693c" opacity="1.00" d=" M 118.50 75.57 C 125.83 75.24 133.17 75.14 140.50 75.43 C 133.17 75.76 125.83 75.86 118.50 75.57 Z" />
<path fill="#59693c" opacity="1.00" d=" M 245.58 91.48 C 245.43 85.83 245.37 80.17 245.42 74.52 C 245.56 80.17 245.62 85.83 245.58 91.48 Z" />
<path fill="#59693c" opacity="1.00" d=" M 93.55 76.65 C 101.83 76.18 110.16 75.80 118.45 76.35 C 110.16 76.82 101.84 77.20 93.55 76.65 Z" />
<path fill="#59693c" opacity="1.00" d=" M 63.74 78.06 C 69.17 77.55 74.47 79.11 79.78 79.97 C 74.34 82.39 68.69 80.82 63.74 78.06 Z" />
<path fill="#59693c" opacity="1.00" d=" M 216.80 77.17 C 217.25 75.90 219.65 76.41 219.20 77.83 C 218.74 79.10 216.35 78.59 216.80 77.17 Z" />
<path fill="#59693c" opacity="1.00" d=" M 204.56 78.72 C 207.82 78.51 211.15 78.34 214.44 78.28 C 211.12 78.47 207.87 78.67 204.56 78.72 Z" />
<path fill="#59693c" opacity="1.00" d=" M 73.54 84.65 C 76.30 82.62 79.22 80.82 82.07 78.91 C 77.94 84.58 74.27 90.67 69.26 95.64 C 70.34 91.88 71.15 87.84 73.54 84.65 Z" />
<path fill="#59693c" opacity="1.00" d=" M 82.71 79.21 C 116.45 80.79 150.23 79.68 183.99 79.99 L 183.99 81.01 C 152.22 81.09 120.45 80.80 88.68 81.15 C 90.21 81.75 91.76 82.32 93.31 82.89 C 89.41 82.52 85.51 82.12 81.62 81.66 C 83.28 81.43 86.59 80.97 88.25 80.74 C 86.86 80.35 84.09 79.59 82.71 79.21 Z" />
<path fill="#59693c" opacity="1.00" d=" M 185.54 79.66 C 191.50 79.42 197.48 79.30 203.46 79.34 C 197.49 79.58 191.51 79.70 185.54 79.66 Z" />
</g>
<g id="#407138ff">
<path fill="#407138" opacity="1.00" d=" M 23.39 89.47 C 38.97 88.31 54.61 89.13 70.22 89.08 C 68.85 91.30 67.38 93.47 66.04 95.72 C 49.87 96.16 33.70 96.12 17.53 95.89 C 19.14 93.54 20.26 90.13 23.39 89.47 Z" />
<path fill="#407138" opacity="1.00" d=" M 76.41 89.19 C 124.62 88.80 172.84 89.04 221.05 89.01 C 229.41 88.01 235.69 95.48 244.04 94.96 C 252.38 96.27 258.96 89.61 267.00 89.28 C 290.32 88.50 313.69 89.17 337.03 88.96 C 340.69 89.75 345.30 88.04 348.60 90.38 C 350.26 91.90 351.30 93.95 352.52 95.82 C 258.95 96.19 165.37 95.98 71.79 95.92 C 73.32 93.67 74.87 91.44 76.41 89.19 Z" />
<path fill="#407138" opacity="1.00" d=" M 240.00 89.22 C 240.57 88.15 242.42 88.15 243.00 89.22 C 243.34 91.02 239.65 91.02 240.00 89.22 Z" />
<path fill="#407138" opacity="1.00" d=" M 247.80 89.17 C 248.25 87.90 250.65 88.41 250.20 89.83 C 249.74 91.10 247.34 90.59 247.80 89.17 Z" />
</g>
</svg>
