<?xml version="1.0" encoding="UTF-8" ?>
<!DOCTYPE svg PUBLIC "-//W3C//DTD SVG 1.1//EN" "http://www.w3.org/Graphics/SVG/1.1/DTD/svg11.dtd">
<svg width="324pt" height="80pt" viewBox="0 0 324 80" version="1.1" xmlns="http://www.w3.org/2000/svg">
<g id="#ffffffff">
<path fill="#ffffff" opacity="1.00" d=" M 0.00 0.00 L 324.00 0.00 L 324.00 80.00 L 323.19 80.00 C 323.65 75.83 320.03 72.89 316.63 71.27 C 312.14 70.62 307.56 71.18 303.03 70.99 C 303.01 68.05 302.99 65.12 302.98 62.19 C 301.09 61.43 299.11 60.89 297.06 60.86 C 296.99 64.23 296.99 67.61 296.97 70.99 C 290.81 71.46 284.76 70.20 278.71 69.27 C 244.39 63.88 210.05 58.62 175.73 53.26 C 173.85 53.17 172.49 52.01 171.30 50.69 C 172.39 47.91 172.95 44.98 173.20 42.02 C 188.80 41.97 204.41 42.01 220.01 42.01 C 223.03 42.17 225.51 40.19 228.01 38.81 C 228.01 37.56 228.01 36.31 228.01 35.05 C 215.35 34.91 202.68 35.07 190.02 34.98 C 189.52 30.65 191.61 25.18 187.52 22.12 C 185.12 22.02 182.72 21.97 180.32 21.94 C 180.16 21.20 179.84 19.73 179.68 18.99 C 179.04 18.99 177.76 18.99 177.13 18.99 C 177.04 20.59 176.97 22.19 176.90 23.79 C 173.09 24.78 168.61 26.15 164.98 23.95 C 165.41 22.32 165.82 20.69 166.13 19.03 C 164.76 19.01 163.38 18.99 162.01 18.98 C 162.51 20.94 162.93 22.93 163.16 24.95 C 160.93 24.93 158.65 25.28 156.47 24.74 C 154.91 23.57 153.45 22.29 151.88 21.13 C 153.83 20.12 153.97 17.76 155.02 16.06 C 157.41 11.84 160.43 7.96 162.17 3.39 C 160.25 2.56 158.36 1.68 156.45 0.85 C 155.07 5.61 152.52 9.91 150.29 14.30 C 148.18 17.72 146.98 21.60 144.84 25.01 C 139.52 24.89 134.20 24.85 128.98 25.95 C 103.31 26.08 77.64 25.95 51.97 26.00 C 49.29 26.00 46.72 27.00 44.03 27.00 C 31.35 27.05 18.68 26.93 6.00 27.03 C 5.99 29.34 5.99 31.66 6.00 33.97 C 18.68 34.05 31.37 33.99 44.05 33.98 C 47.40 33.85 50.60 35.15 53.96 35.02 C 70.98 34.96 88.00 35.05 105.02 34.96 C 106.43 35.17 108.40 34.47 109.36 35.90 C 103.22 36.61 96.71 34.75 90.86 37.26 C 90.42 39.94 92.33 41.69 94.09 43.36 C 97.37 39.82 102.45 40.96 106.74 41.26 C 112.08 42.55 117.60 41.83 123.03 42.00 C 120.16 45.90 120.15 50.71 118.80 55.16 C 118.28 54.55 117.24 53.32 116.72 52.70 C 116.97 53.85 117.49 54.85 118.26 55.72 C 121.57 59.49 121.76 65.11 125.78 68.42 C 126.12 68.98 126.79 70.09 127.13 70.64 C 125.11 70.92 123.07 71.02 121.03 71.02 C 88.00 70.95 54.98 71.05 21.95 70.97 C 16.92 70.47 11.61 74.86 11.68 80.00 L 0.00 80.00 L 0.00 0.00 M 173.06 50.19 C 173.74 50.87 173.74 50.87 173.06 50.19 Z" />
<path fill="#ffffff" opacity="1.00" d=" M 150.18 24.18 C 150.86 24.86 150.86 24.86 150.18 24.18 Z" />
<path fill="#ffffff" opacity="1.00" d=" M 138.51 35.34 C 139.74 35.22 140.97 35.12 142.20 35.04 C 141.06 35.72 139.11 35.43 138.56 36.83 C 139.05 37.02 140.04 37.40 140.53 37.58 C 139.94 38.36 139.35 39.14 138.79 39.95 C 138.71 38.66 138.60 37.38 138.46 36.10 C 137.68 36.62 136.11 37.68 135.32 38.20 C 135.89 39.67 136.42 41.15 136.86 42.66 C 135.85 43.16 134.83 43.65 133.81 44.13 C 134.03 44.59 134.46 45.51 134.68 45.97 C 133.57 45.63 132.45 45.30 131.34 44.99 C 132.46 46.11 133.67 47.14 134.89 48.17 C 132.58 47.60 130.31 46.91 128.03 46.24 C 127.91 47.91 127.73 49.56 127.49 51.22 C 127.06 49.69 127.21 48.11 127.32 46.55 C 129.92 41.78 133.74 37.95 138.51 35.34 M 129.99 43.37 C 130.75 43.64 132.28 44.18 133.04 44.45 C 133.50 42.35 134.51 40.44 135.32 38.46 C 133.21 39.70 131.56 41.53 129.99 43.37 M 130.43 43.94 C 130.11 44.22 129.47 44.78 129.15 45.06 C 129.18 47.44 132.94 44.18 130.43 43.94 Z" />
<path fill="#ffffff" opacity="1.00" d=" M 153.22 39.23 C 153.82 39.82 153.82 39.82 153.22 39.23 Z" />
<path fill="#ffffff" opacity="1.00" d=" M 152.23 41.23 C 152.83 41.83 152.83 41.83 152.23 41.23 Z" />
<path fill="#ffffff" opacity="1.00" d=" M 140.23 44.22 C 140.83 44.82 140.83 44.82 140.23 44.22 Z" />
<path fill="#ffffff" opacity="1.00" d=" M 150.23 44.23 C 150.83 44.83 150.83 44.83 150.23 44.23 Z" />
<path fill="#ffffff" opacity="1.00" d=" M 136.22 47.24 C 136.84 47.82 136.84 47.82 136.22 47.24 Z" />
<path fill="#ffffff" opacity="1.00" d=" M 151.29 48.10 C 154.24 46.56 151.43 51.41 151.29 48.10 Z" />
<path fill="#ffffff" opacity="1.00" d=" M 128.14 54.99 C 131.78 55.01 135.41 54.97 139.05 55.05 C 139.00 55.47 138.90 56.32 138.85 56.74 C 136.25 58.68 133.39 60.24 130.86 62.28 C 128.17 60.74 129.42 57.38 128.14 54.99 Z" />
<path fill="#ffffff" opacity="1.00" d=" M 163.21 57.39 C 164.87 57.22 164.26 59.83 163.76 60.70 L 163.20 60.69 C 162.59 59.55 162.60 58.46 163.21 57.39 Z" />
<path fill="#ffffff" opacity="1.00" d=" M 151.22 58.23 C 151.82 58.83 151.82 58.83 151.22 58.23 Z" />
<path fill="#ffffff" opacity="1.00" d=" M 153.22 59.23 C 153.83 59.82 153.83 59.82 153.22 59.23 Z" />
<path fill="#ffffff" opacity="1.00" d=" M 131.93 64.28 C 134.68 62.65 137.15 60.39 140.34 59.66 C 139.58 62.88 137.32 65.38 135.67 68.16 C 134.39 66.90 133.14 65.61 131.93 64.28 Z" />
<path fill="#ffffff" opacity="1.00" d=" M 149.23 60.22 C 149.83 60.82 149.83 60.82 149.23 60.22 Z" />
<path fill="#ffffff" opacity="1.00" d=" M 137.92 70.00 C 139.83 66.69 141.43 62.83 144.01 60.15 C 144.02 63.74 143.98 67.32 144.01 70.90 C 142.13 69.85 139.99 69.94 137.92 70.00 Z" />
<path fill="#ffffff" opacity="1.00" d=" M 147.01 60.10 C 149.54 62.91 151.19 66.66 153.08 70.00 C 151.01 69.94 148.87 69.85 146.99 70.90 C 147.02 67.30 146.98 63.70 147.01 60.10 Z" />
<path fill="#ffffff" opacity="1.00" d=" M 156.23 61.22 C 156.82 61.82 156.82 61.82 156.23 61.22 Z" />
<path fill="#ffffff" opacity="1.00" d=" M 156.23 68.72 C 158.62 66.43 160.65 63.80 162.74 61.24 C 161.37 64.23 159.58 67.65 156.23 68.72 Z" />
<path fill="#ffffff" opacity="1.00" d=" M 151.87 63.01 C 154.33 63.12 157.07 62.35 159.11 64.17 C 157.92 65.56 156.64 66.88 155.33 68.16 C 154.23 66.40 153.12 64.66 151.87 63.01 Z" />
<path fill="#ffffff" opacity="1.00" d=" M 168.34 65.15 C 169.63 64.62 170.91 65.67 172.19 65.83 C 175.57 66.37 179.11 65.43 182.41 66.61 C 185.40 67.50 188.61 66.50 191.61 67.39 C 195.42 68.77 199.60 67.23 203.40 68.61 C 206.73 69.57 210.28 68.44 213.61 69.39 C 216.97 70.49 220.56 69.85 224.03 70.00 L 223.98 70.99 C 203.94 71.01 183.91 71.00 163.88 71.00 C 164.95 68.76 166.38 66.71 168.34 65.15 Z" />
<path fill="#ffffff" opacity="1.00" d=" M 138.13 71.23 C 139.33 70.61 140.48 70.61 141.60 71.22 C 141.71 72.93 139.06 72.11 138.13 71.73 L 138.13 71.23 Z" />
<path fill="#ffffff" opacity="1.00" d=" M 149.40 71.22 C 150.51 70.61 151.67 70.61 152.87 71.23 L 152.87 71.73 C 151.94 72.11 149.29 72.93 149.40 71.22 Z" />
</g>
<g id="#000000ff">
<path fill="#000000" opacity="1.00" d=" M 156.45 0.85 C 158.36 1.68 160.25 2.56 162.17 3.39 C 160.43 7.96 157.41 11.84 155.02 16.06 C 153.97 17.76 153.83 20.12 151.88 21.13 C 153.45 22.29 154.91 23.57 156.47 24.74 C 158.65 25.28 160.93 24.93 163.16 24.95 C 162.93 22.93 162.51 20.94 162.01 18.98 C 163.38 18.99 164.76 19.01 166.13 19.03 C 165.82 20.69 165.41 22.32 164.98 23.95 C 168.61 26.15 173.09 24.78 176.90 23.79 C 176.97 22.19 177.04 20.59 177.13 18.99 C 177.76 18.99 179.04 18.99 179.68 18.99 C 179.84 19.73 180.16 21.20 180.32 21.94 C 182.72 21.97 185.12 22.02 187.52 22.12 C 191.61 25.18 189.52 30.65 190.02 34.98 C 202.68 35.07 215.35 34.91 228.01 35.05 C 228.01 36.31 228.01 37.56 228.01 38.81 C 225.51 40.19 223.03 42.17 220.01 42.01 C 204.41 42.01 188.80 41.97 173.20 42.02 C 172.95 44.98 172.39 47.91 171.30 50.69 C 172.49 52.01 173.85 53.17 175.73 53.26 C 210.05 58.62 244.39 63.88 278.71 69.27 C 284.76 70.20 290.81 71.46 296.97 70.99 C 296.99 67.61 296.99 64.23 297.06 60.86 C 299.11 60.89 301.09 61.43 302.98 62.19 C 302.99 65.12 303.01 68.05 303.03 70.99 C 307.56 71.18 312.14 70.62 316.63 71.27 C 320.03 72.89 323.65 75.83 323.19 80.00 L 11.68 80.00 C 11.61 74.86 16.92 70.47 21.95 70.97 C 54.98 71.05 88.00 70.95 121.03 71.02 C 123.07 71.02 125.11 70.92 127.13 70.64 C 130.56 71.49 133.66 73.26 136.45 75.39 C 136.79 75.16 137.49 74.68 137.83 74.45 C 138.23 75.43 138.64 76.41 139.04 77.39 C 139.99 76.69 140.93 75.98 141.88 75.28 C 142.03 75.90 142.32 77.15 142.47 77.78 C 142.97 77.78 143.95 77.78 144.45 77.78 C 144.67 77.09 145.12 75.72 145.34 75.03 C 145.76 75.94 146.18 76.86 146.60 77.77 C 151.47 76.90 155.74 74.32 160.36 72.69 C 157.98 75.82 154.25 77.15 150.75 78.58 C 154.09 79.47 157.59 78.93 161.00 79.02 C 209.66 78.99 258.33 79.02 307.00 79.00 C 312.09 78.98 317.19 79.18 322.27 78.86 C 320.88 75.43 317.87 72.24 313.99 72.01 C 310.50 71.55 307.01 72.13 303.57 72.70 C 301.49 72.43 299.41 71.76 297.31 72.08 C 295.93 73.36 295.51 75.26 294.84 76.94 C 298.16 77.07 301.50 77.13 304.82 76.84 C 304.88 76.39 305.00 75.49 305.06 75.04 C 305.72 76.02 306.40 77.00 307.08 77.98 C 300.78 78.44 294.52 77.64 288.33 76.61 C 276.54 75.25 264.70 74.42 252.89 73.24 C 247.60 72.76 242.34 71.88 237.01 71.95 C 211.96 72.09 186.90 71.89 161.85 72.07 C 163.75 69.17 164.28 65.08 167.59 63.35 C 167.19 62.60 166.79 61.85 166.40 61.11 C 167.04 60.95 168.31 60.62 168.95 60.45 C 168.48 59.32 167.97 58.19 167.47 57.07 C 168.04 56.93 169.18 56.65 169.75 56.51 C 169.76 56.02 169.77 55.06 169.77 54.57 C 169.09 54.34 167.73 53.88 167.05 53.65 C 167.92 53.23 168.79 52.81 169.66 52.40 C 169.17 46.81 165.85 42.03 163.17 37.27 C 161.61 33.94 156.56 35.03 155.36 31.38 C 154.61 31.79 153.86 32.19 153.12 32.60 C 152.95 31.97 152.61 30.70 152.44 30.06 C 151.31 30.53 150.20 31.02 149.08 31.50 C 148.94 30.94 148.65 29.82 148.51 29.26 C 148.02 29.25 147.04 29.22 146.55 29.21 C 146.33 29.90 145.89 31.28 145.67 31.97 C 145.22 31.06 144.78 30.14 144.34 29.22 C 139.20 30.61 134.11 32.58 129.84 35.84 C 126.92 37.90 126.10 41.65 123.72 44.20 C 123.89 44.67 124.07 45.15 124.26 45.63 C 123.11 46.53 122.00 47.47 120.94 48.47 C 121.69 48.68 123.19 49.11 123.94 49.33 C 123.09 49.75 122.24 50.18 121.39 50.61 C 122.10 53.36 121.24 56.32 122.51 58.94 C 123.83 62.02 124.99 65.16 125.78 68.42 C 121.76 65.11 121.57 59.49 118.26 55.72 C 117.49 54.85 116.97 53.85 116.72 52.70 C 117.24 53.32 118.28 54.55 118.80 55.16 C 120.15 50.71 120.16 45.90 123.03 42.00 C 117.60 41.83 112.08 42.55 106.74 41.26 C 102.45 40.96 97.37 39.82 94.09 43.36 C 92.33 41.69 90.42 39.94 90.86 37.26 C 96.71 34.75 103.22 36.61 109.36 35.90 C 108.40 34.47 106.43 35.17 105.02 34.96 C 88.00 35.05 70.98 34.96 53.96 35.02 C 50.60 35.15 47.40 33.85 44.05 33.98 C 31.37 33.99 18.68 34.05 6.00 33.97 C 5.99 31.66 5.99 29.34 6.00 27.03 C 18.68 26.93 31.35 27.05 44.03 27.00 C 46.72 27.00 49.29 26.00 51.97 26.00 C 77.64 25.95 103.31 26.08 128.98 25.95 C 134.20 24.85 139.52 24.89 144.84 25.01 C 146.98 21.60 148.18 17.72 150.29 14.30 C 152.52 9.91 155.07 5.61 156.45 0.85 M 157.38 4.33 C 154.90 8.94 152.66 13.68 150.45 18.43 C 149.08 21.00 147.47 23.49 146.74 26.34 C 150.15 24.56 150.58 20.46 152.82 17.69 C 155.59 13.21 158.70 8.88 160.74 4.01 C 159.65 2.97 157.86 2.43 157.38 4.33 M 177.97 19.81 C 178.04 21.28 177.71 23.04 179.28 23.86 C 181.83 24.18 184.42 24.01 186.99 23.99 L 187.01 23.04 C 184.78 23.02 182.55 22.99 180.33 22.91 C 179.55 21.87 178.78 20.83 177.97 19.81 M 150.18 24.18 C 150.86 24.86 150.86 24.86 150.18 24.18 M 148.94 27.80 C 149.94 28.22 150.96 28.62 152.00 29.00 C 153.24 28.60 154.06 27.48 155.10 26.75 C 155.02 26.12 154.87 24.85 154.79 24.22 C 152.21 23.25 150.62 26.35 148.94 27.80 M 175.04 25.03 C 174.96 28.67 174.95 32.32 175.04 35.96 C 179.68 36.05 184.32 36.05 188.95 35.96 C 189.05 32.32 189.06 28.68 188.96 25.04 C 184.32 24.99 179.68 24.96 175.04 25.03 M 122.01 27.04 C 121.99 29.01 121.99 30.97 122.01 32.94 C 125.85 32.65 130.27 34.08 133.61 31.59 C 136.63 29.40 140.46 28.63 143.26 26.07 C 136.11 25.22 129.16 27.58 122.01 27.04 M 154.61 28.00 C 155.57 29.73 157.21 30.25 159.11 30.06 C 158.62 29.04 158.11 28.03 157.58 27.03 C 158.95 27.50 160.35 27.94 161.80 28.10 C 162.14 27.56 162.82 26.50 163.16 25.97 C 160.16 25.85 156.93 25.75 154.61 28.00 M 164.92 25.98 C 166.60 27.05 166.88 28.95 167.05 30.78 C 166.53 30.65 165.47 30.38 164.94 30.25 C 164.57 31.14 164.21 32.04 163.85 32.93 C 167.22 33.06 170.60 33.03 173.97 32.96 C 174.02 30.65 174.02 28.35 173.98 26.05 C 170.96 26.00 167.94 25.99 164.92 25.98 M 44.06 28.01 C 34.04 28.05 24.02 27.91 14.00 28.04 C 14.00 29.68 14.00 31.32 14.00 32.96 C 26.98 33.49 40.08 31.98 52.95 33.99 C 75.62 33.99 98.30 34.04 120.98 33.96 C 121.03 31.66 121.02 29.35 120.97 27.04 C 98.30 26.94 75.62 27.05 52.94 26.98 C 49.93 26.88 47.06 27.97 44.06 28.01 M 7.00 28.02 C 7.00 29.67 7.00 31.33 7.00 32.99 C 9.00 33.02 11.00 33.02 12.99 32.99 C 13.00 31.33 13.00 29.67 12.99 28.01 C 10.99 27.98 9.00 27.98 7.00 28.02 M 160.14 29.08 C 160.87 30.49 161.64 31.88 162.39 33.27 C 163.39 31.65 164.15 29.90 164.12 27.96 C 162.79 28.31 161.47 28.71 160.14 29.08 M 157.52 31.17 C 157.69 32.34 159.81 33.63 161.05 33.49 C 161.85 31.56 159.00 30.31 157.52 31.17 M 122.32 34.32 C 123.47 35.82 126.91 35.20 128.70 34.70 C 127.55 33.21 124.10 33.77 122.32 34.32 M 164.01 34.02 L 164.01 34.98 C 167.34 35.02 170.67 35.03 174.00 34.98 L 173.98 34.02 C 170.66 33.97 167.33 33.97 164.01 34.02 M 109.10 36.12 C 109.04 37.73 108.99 39.33 108.96 40.93 C 113.89 41.08 118.83 41.03 123.77 40.94 C 125.16 39.50 126.24 37.82 127.11 36.02 C 121.11 36.05 115.10 35.84 109.10 36.12 M 164.81 36.07 C 165.11 39.74 169.38 39.94 172.04 40.96 C 188.34 41.00 204.65 41.07 220.95 40.94 C 223.42 40.36 227.59 39.40 227.11 36.08 C 215.74 35.92 204.37 35.99 193.00 36.04 C 187.16 37.20 181.15 37.36 175.23 36.74 C 171.83 35.84 168.30 35.86 164.81 36.07 M 94.00 37.05 C 94.01 37.77 94.01 39.23 94.01 39.96 C 98.67 40.02 103.33 40.02 108.00 39.96 C 108.00 39.23 108.00 37.78 108.00 37.05 C 103.34 36.96 98.67 36.94 94.00 37.05 M 92.10 38.26 C 90.56 41.30 95.38 38.45 92.10 38.26 M 94.23 41.23 C 94.81 41.81 94.81 41.81 94.23 41.23 M 169.18 42.38 C 168.40 43.48 169.00 45.35 170.28 45.79 C 172.12 45.43 170.89 41.59 169.18 42.38 M 171.21 53.95 C 171.17 57.39 169.92 60.60 169.00 63.86 C 170.91 64.53 172.88 65.11 174.94 64.98 C 180.01 64.75 184.94 66.25 190.01 66.16 C 194.99 67.34 200.15 66.63 205.12 67.83 C 214.44 68.07 223.60 69.91 232.92 70.13 C 237.89 71.45 243.09 70.54 248.07 71.86 C 253.74 71.82 259.24 73.33 264.92 73.12 C 268.80 74.20 272.82 73.80 276.78 74.26 C 281.15 75.40 285.74 74.61 290.09 75.93 C 291.96 76.38 295.79 76.06 294.92 73.28 C 292.84 72.13 290.44 72.01 288.14 71.69 C 262.73 67.92 237.39 63.74 211.99 59.96 C 198.40 57.99 184.88 55.22 171.21 53.95 M 298.08 61.85 C 297.93 64.90 297.94 67.95 298.05 70.99 C 299.35 71.00 300.65 71.00 301.96 71.00 C 302.06 68.36 302.03 65.72 301.96 63.07 C 300.80 62.30 299.43 62.05 298.08 61.85 M 168.34 65.15 C 166.38 66.71 164.95 68.76 163.88 71.00 C 183.91 71.00 203.94 71.01 223.98 70.99 L 224.03 70.00 C 220.56 69.85 216.97 70.49 213.61 69.39 C 210.28 68.44 206.73 69.57 203.40 68.61 C 199.60 67.23 195.42 68.77 191.61 67.39 C 188.61 66.50 185.40 67.50 182.41 66.61 C 179.11 65.43 175.57 66.37 172.19 65.83 C 170.91 65.67 169.63 64.62 168.34 65.15 M 18.55 72.47 C 16.11 74.01 13.51 75.92 12.81 78.89 C 53.87 79.19 94.94 78.88 136.00 79.05 C 137.40 78.90 139.08 79.37 140.26 78.39 C 135.74 77.69 132.64 74.17 128.71 72.25 C 125.84 71.68 122.90 72.05 120.00 71.99 C 89.00 71.98 58.01 72.03 27.01 71.97 C 24.20 72.06 21.27 71.64 18.55 72.47 Z" />
<path fill="#000000" opacity="1.00" d=" M 178.02 27.04 C 180.67 26.95 183.33 26.95 185.98 27.04 C 186.04 29.34 186.04 31.66 185.98 33.96 C 183.33 34.05 180.67 34.05 178.02 33.97 C 177.96 31.66 177.96 29.34 178.02 27.04 M 179.00 28.02 C 178.99 29.67 178.99 31.33 179.00 32.99 C 181.00 33.02 183.00 33.02 185.00 32.99 C 185.00 31.33 185.00 29.67 185.00 28.01 C 183.00 27.98 181.00 27.98 179.00 28.02 Z" />
<path fill="#000000" opacity="1.00" d=" M 137.85 34.59 C 142.74 32.43 148.14 32.64 153.13 34.35 L 152.58 35.11 C 151.14 35.04 149.71 35.00 148.28 34.98 C 149.49 35.97 150.97 36.43 152.73 36.37 C 150.87 37.90 148.60 37.83 146.99 36.01 C 147.74 39.71 147.14 43.45 146.97 47.16 C 146.22 47.16 144.73 47.16 143.98 47.16 C 144.03 43.34 144.06 39.51 143.86 35.69 C 142.19 37.14 140.69 38.88 140.13 41.07 C 141.17 43.24 142.60 45.19 143.98 47.16 C 141.82 48.65 139.71 50.45 138.93 53.06 C 139.31 56.36 141.89 59.19 145.10 59.99 C 148.47 59.87 151.08 56.95 152.04 53.89 C 152.01 50.82 149.26 48.77 146.97 47.16 C 149.31 43.91 151.34 40.44 153.18 36.88 C 153.77 37.25 154.95 37.99 155.55 38.35 C 153.85 41.22 152.03 44.02 150.68 47.07 C 152.18 46.69 153.68 46.28 155.18 45.90 C 154.67 48.10 153.20 49.80 151.72 51.43 C 155.17 52.25 158.74 52.09 162.26 52.01 C 162.36 50.09 161.30 47.67 162.84 46.12 C 162.96 47.81 163.06 49.50 163.13 51.20 L 164.14 51.13 C 164.04 49.56 163.96 47.98 163.88 46.41 L 164.61 45.83 C 166.03 50.79 166.56 56.02 164.67 60.95 L 163.76 60.70 C 164.26 59.83 164.87 57.22 163.21 57.39 C 162.60 58.46 162.59 59.55 163.20 60.69 L 162.74 61.24 C 160.65 63.80 158.62 66.43 156.23 68.72 L 155.59 68.92 C 154.55 69.07 153.79 69.61 153.32 70.55 L 152.87 71.23 C 151.67 70.61 150.51 70.61 149.40 71.22 C 149.29 72.93 151.94 72.11 152.87 71.73 L 152.74 72.61 C 148.09 74.49 142.89 74.45 138.23 72.61 L 138.13 71.73 C 139.06 72.11 141.71 72.93 141.60 71.22 C 140.48 70.61 139.33 70.61 138.13 71.23 L 137.69 70.56 C 137.23 69.62 136.48 69.08 135.44 68.95 L 134.83 68.77 C 131.83 65.20 127.64 61.77 127.77 56.66 L 126.86 56.77 C 126.93 58.15 127.02 59.53 127.13 60.91 L 126.26 60.71 C 124.44 55.90 124.80 50.64 126.55 45.87 L 127.32 46.55 C 127.21 48.11 127.06 49.69 127.49 51.22 C 127.73 49.56 127.91 47.91 128.03 46.24 C 130.31 46.91 132.58 47.60 134.89 48.17 C 133.67 47.14 132.46 46.11 131.34 44.99 C 132.45 45.30 133.57 45.63 134.68 45.97 C 134.46 45.51 134.03 44.59 133.81 44.13 C 134.83 43.65 135.85 43.16 136.86 42.66 C 136.42 41.15 135.89 39.67 135.32 38.20 C 136.11 37.68 137.68 36.62 138.46 36.10 C 138.60 37.38 138.71 38.66 138.79 39.95 L 138.06 39.80 C 137.94 39.73 137.70 39.60 137.58 39.53 C 137.70 39.60 137.94 39.73 138.06 39.80 C 136.62 41.70 140.18 42.15 138.79 39.95 C 139.35 39.14 139.94 38.36 140.53 37.58 C 140.04 37.40 139.05 37.02 138.56 36.83 C 139.11 35.43 141.06 35.72 142.20 35.04 C 140.97 35.12 139.74 35.22 138.51 35.34 L 137.85 34.59 M 143.26 34.31 C 143.75 35.75 146.57 35.30 147.75 34.73 C 147.28 33.27 144.43 33.70 143.26 34.31 M 145.02 36.02 C 144.96 39.34 144.96 42.67 145.02 45.99 L 145.98 45.98 C 146.05 42.66 146.05 39.33 145.98 36.00 L 145.02 36.02 M 153.22 39.23 C 153.82 39.82 153.82 39.82 153.22 39.23 M 152.23 41.23 C 152.83 41.83 152.83 41.83 152.23 41.23 M 135.78 45.62 C 136.95 46.10 138.12 46.59 139.29 47.07 C 138.96 47.63 138.29 48.75 137.96 49.31 C 139.75 48.95 140.94 47.56 142.13 46.30 C 139.78 46.93 139.39 44.46 138.58 42.90 C 137.15 43.21 136.31 44.33 135.78 45.62 M 140.23 44.22 C 140.83 44.82 140.83 44.82 140.23 44.22 M 150.23 44.23 C 150.83 44.83 150.83 44.83 150.23 44.23 M 149.25 46.11 C 149.84 46.70 149.84 46.70 149.25 46.11 M 136.22 47.24 C 136.84 47.82 136.84 47.82 136.22 47.24 M 129.05 48.05 C 128.90 49.37 128.72 50.69 128.54 52.00 C 131.92 51.96 135.32 52.26 138.68 51.77 C 138.73 51.41 138.83 50.67 138.88 50.31 C 135.61 49.55 132.31 48.88 129.05 48.05 M 151.29 48.10 C 151.43 51.41 154.24 46.56 151.29 48.10 M 126.26 52.27 C 125.59 53.11 125.34 55.66 126.76 55.69 C 127.42 54.85 127.68 52.31 126.26 52.27 M 164.26 52.24 C 163.60 53.08 163.30 55.64 164.72 55.69 C 165.38 54.85 165.68 52.29 164.26 52.24 M 128.01 53.02 L 128.00 53.97 C 131.33 54.03 134.66 54.04 137.99 53.98 L 137.99 53.02 C 134.67 52.98 131.34 52.98 128.01 53.02 M 153.03 53.02 L 153.00 53.98 C 156.32 54.03 159.65 54.02 162.98 53.98 L 163.00 53.02 C 159.68 52.99 156.35 52.99 153.03 53.02 M 128.14 54.99 C 129.42 57.38 128.17 60.74 130.86 62.28 C 133.39 60.24 136.25 58.68 138.85 56.74 C 138.90 56.32 139.00 55.47 139.05 55.05 C 135.41 54.97 131.78 55.01 128.14 54.99 M 151.57 55.90 C 153.93 58.42 157.02 60.12 159.91 61.97 C 160.38 61.72 161.31 61.21 161.78 60.96 C 161.93 58.93 162.24 56.92 162.80 54.97 C 159.09 55.34 154.99 54.10 151.57 55.90 M 151.22 58.23 C 151.82 58.83 151.82 58.83 151.22 58.23 M 153.22 59.23 C 153.83 59.82 153.83 59.82 153.22 59.23 M 131.93 64.28 C 133.14 65.61 134.39 66.90 135.67 68.16 C 137.32 65.38 139.58 62.88 140.34 59.66 C 137.15 60.39 134.68 62.65 131.93 64.28 M 149.23 60.22 C 149.83 60.82 149.83 60.82 149.23 60.22 M 151.08 61.88 C 150.44 62.55 150.44 62.55 151.08 61.88 C 152.24 62.27 153.37 62.21 154.48 61.71 C 154.57 60.05 149.97 59.61 151.08 61.88 M 137.92 70.00 C 139.99 69.94 142.13 69.85 144.01 70.90 C 143.98 67.32 144.02 63.74 144.01 60.15 C 141.43 62.83 139.83 66.69 137.92 70.00 M 145.02 61.00 C 144.96 64.33 144.96 67.66 145.02 70.99 L 145.98 71.00 C 146.04 67.67 146.04 64.34 145.98 61.01 L 145.02 61.00 M 147.01 60.10 C 146.98 63.70 147.02 67.30 146.99 70.90 C 148.87 69.85 151.01 69.94 153.08 70.00 C 151.19 66.66 149.54 62.91 147.01 60.10 M 156.23 61.22 C 156.82 61.82 156.82 61.82 156.23 61.22 M 151.87 63.01 C 153.12 64.66 154.23 66.40 155.33 68.16 C 156.64 66.88 157.92 65.56 159.11 64.17 C 157.07 62.35 154.33 63.12 151.87 63.01 M 143.26 72.28 C 143.60 73.65 147.40 73.64 147.74 72.28 C 146.42 71.58 144.58 71.58 143.26 72.28 Z" />
<path fill="#000000" opacity="1.00" d=" M 129.99 43.37 C 131.56 41.53 133.21 39.70 135.32 38.46 C 134.51 40.44 133.50 42.35 133.04 44.45 C 132.28 44.18 130.75 43.64 129.99 43.37 Z" />
<path fill="#000000" opacity="1.00" d=" M 155.79 38.67 C 157.46 39.95 158.94 41.45 160.35 43.01 C 159.75 43.30 158.56 43.87 157.97 44.15 C 158.15 42.03 156.83 40.36 155.79 38.67 Z" />
<path fill="#000000" opacity="1.00" d=" M 130.43 43.94 C 132.94 44.18 129.18 47.44 129.15 45.06 C 129.47 44.78 130.11 44.22 130.43 43.94 Z" />
<path fill="#000000" opacity="1.00" d=" M 157.97 44.15 C 157.41 47.34 154.96 42.49 157.97 44.15 Z" />
<path fill="#000000" opacity="1.00" d=" M 160.14 44.15 C 160.73 44.73 160.73 44.73 160.14 44.15 Z" />
<path fill="#000000" opacity="1.00" d=" M 156.22 46.10 C 159.24 44.53 156.47 49.37 156.22 46.10 Z" />
<path fill="#000000" opacity="1.00" d=" M 145.23 48.23 C 145.81 48.82 145.81 48.82 145.23 48.23 Z" />
<path fill="#000000" opacity="1.00" d=" M 143.24 49.27 C 144.73 50.01 146.37 49.99 147.85 49.24 C 147.85 49.72 147.85 50.68 147.84 51.16 C 148.33 51.16 149.29 51.15 149.77 51.14 C 148.98 52.63 148.94 54.28 149.75 55.77 C 148.20 55.53 147.54 56.18 147.76 57.72 C 146.28 57.03 144.68 57.01 143.23 57.74 C 143.47 56.19 142.82 55.53 141.27 55.77 C 141.99 54.31 141.96 52.71 141.28 51.24 C 142.81 51.45 143.46 50.79 143.24 49.27 M 142.93 53.07 C 142.20 55.64 145.83 57.20 147.43 55.33 C 148.88 54.18 147.41 52.20 146.95 50.90 C 145.37 50.82 142.93 50.95 142.93 53.07 Z" />
<path fill="#000000" opacity="1.00" d=" M 173.06 50.19 C 173.74 50.87 173.74 50.87 173.06 50.19 Z" />
<path fill="#000000" opacity="1.00" d=" M 140.24 53.23 C 140.82 53.82 140.82 53.82 140.24 53.23 Z" />
<path fill="#000000" opacity="1.00" d=" M 150.23 53.23 C 150.82 53.82 150.82 53.82 150.23 53.23 Z" />
<path fill="#000000" opacity="1.00" d=" M 145.24 58.23 C 145.82 58.82 145.82 58.82 145.24 58.23 Z" />
</g>
<g id="#a0bc83ff">
<path fill="#a0bc83" opacity="1.00" d=" M 157.38 4.33 C 157.86 2.43 159.65 2.97 160.74 4.01 C 158.70 8.88 155.59 13.21 152.82 17.69 C 150.58 20.46 150.15 24.56 146.74 26.34 C 147.47 23.49 149.08 21.00 150.45 18.43 C 152.66 13.68 154.90 8.94 157.38 4.33 Z" />
<path fill="#a0bc83" opacity="1.00" d=" M 177.97 19.81 C 178.78 20.83 179.55 21.87 180.33 22.91 C 182.55 22.99 184.78 23.02 187.01 23.04 L 186.99 23.99 C 184.42 24.01 181.83 24.18 179.28 23.86 C 177.71 23.04 178.04 21.28 177.97 19.81 Z" />
<path fill="#a0bc83" opacity="1.00" d=" M 148.94 27.80 C 150.62 26.35 152.21 23.25 154.79 24.22 C 154.87 24.85 155.02 26.12 155.10 26.75 C 154.06 27.48 153.24 28.60 152.00 29.00 C 150.96 28.62 149.94 28.22 148.94 27.80 Z" />
<path fill="#a0bc83" opacity="1.00" d=" M 175.04 25.03 C 179.68 24.96 184.32 24.99 188.96 25.04 C 189.06 28.68 189.05 32.32 188.95 35.96 C 184.32 36.05 179.68 36.05 175.04 35.96 C 174.95 32.32 174.96 28.67 175.04 25.03 M 178.02 27.04 C 177.96 29.34 177.96 31.66 178.02 33.97 C 180.67 34.05 183.33 34.05 185.98 33.96 C 186.04 31.66 186.04 29.34 185.98 27.04 C 183.33 26.95 180.67 26.95 178.02 27.04 Z" />
<path fill="#a0bc83" opacity="1.00" d=" M 122.01 27.04 C 129.16 27.58 136.11 25.22 143.26 26.07 C 140.46 28.63 136.63 29.40 133.61 31.59 C 130.27 34.08 125.85 32.65 122.01 32.94 C 121.99 30.97 121.99 29.01 122.01 27.04 Z" />
<path fill="#a0bc83" opacity="1.00" d=" M 154.61 28.00 C 156.93 25.75 160.16 25.85 163.16 25.97 C 162.82 26.50 162.14 27.56 161.80 28.10 C 160.35 27.94 158.95 27.50 157.58 27.03 C 158.11 28.03 158.62 29.04 159.11 30.06 C 157.21 30.25 155.57 29.73 154.61 28.00 Z" />
<path fill="#a0bc83" opacity="1.00" d=" M 164.92 25.98 C 167.94 25.99 170.96 26.00 173.98 26.05 C 174.02 28.35 174.02 30.65 173.97 32.96 C 170.60 33.03 167.22 33.06 163.85 32.93 C 164.21 32.04 164.57 31.14 164.94 30.25 C 165.47 30.38 166.53 30.65 167.05 30.78 C 166.88 28.95 166.60 27.05 164.92 25.98 Z" />
<path fill="#a0bc83" opacity="1.00" d=" M 44.06 28.01 C 47.06 27.97 49.93 26.88 52.94 26.98 C 75.62 27.05 98.30 26.94 120.97 27.04 C 121.02 29.35 121.03 31.66 120.98 33.96 C 98.30 34.04 75.62 33.99 52.95 33.99 C 40.08 31.98 26.98 33.49 14.00 32.96 C 14.00 31.32 14.00 29.68 14.00 28.04 C 24.02 27.91 34.04 28.05 44.06 28.01 Z" />
<path fill="#a0bc83" opacity="1.00" d=" M 7.00 28.02 C 9.00 27.98 10.99 27.98 12.99 28.01 C 13.00 29.67 13.00 31.33 12.99 32.99 C 11.00 33.02 9.00 33.02 7.00 32.99 C 7.00 31.33 7.00 29.67 7.00 28.02 Z" />
<path fill="#a0bc83" opacity="1.00" d=" M 160.14 29.08 C 161.47 28.71 162.79 28.31 164.12 27.96 C 164.15 29.90 163.39 31.65 162.39 33.27 C 161.64 31.88 160.87 30.49 160.14 29.08 Z" />
<path fill="#a0bc83" opacity="1.00" d=" M 179.00 28.02 C 181.00 27.98 183.00 27.98 185.00 28.01 C 185.00 29.67 185.00 31.33 185.00 32.99 C 183.00 33.02 181.00 33.02 179.00 32.99 C 178.99 31.33 178.99 29.67 179.00 28.02 Z" />
<path fill="#a0bc83" opacity="1.00" d=" M 157.52 31.17 C 159.00 30.31 161.85 31.56 161.05 33.49 C 159.81 33.63 157.69 32.34 157.52 31.17 Z" />
<path fill="#a0bc83" opacity="1.00" d=" M 122.32 34.32 C 124.10 33.77 127.55 33.21 128.70 34.70 C 126.91 35.20 123.47 35.82 122.32 34.32 Z" />
<path fill="#a0bc83" opacity="1.00" d=" M 143.26 34.31 C 144.43 33.70 147.28 33.27 147.75 34.73 C 146.57 35.30 143.75 35.75 143.26 34.31 Z" />
<path fill="#a0bc83" opacity="1.00" d=" M 164.01 34.02 C 167.33 33.97 170.66 33.97 173.98 34.02 L 174.00 34.98 C 170.67 35.03 167.34 35.02 164.01 34.98 L 164.01 34.02 Z" />
<path fill="#a0bc83" opacity="1.00" d=" M 148.28 34.98 C 149.71 35.00 151.14 35.04 152.58 35.11 C 157.41 37.66 161.34 41.56 163.88 46.41 C 163.96 47.98 164.04 49.56 164.14 51.13 L 163.13 51.20 C 163.06 49.50 162.96 47.81 162.84 46.12 C 161.30 47.67 162.36 50.09 162.26 52.01 C 158.74 52.09 155.17 52.25 151.72 51.43 C 153.20 49.80 154.67 48.10 155.18 45.90 C 153.68 46.28 152.18 46.69 150.68 47.07 C 152.03 44.02 153.85 41.22 155.55 38.35 C 154.95 37.99 153.77 37.25 153.18 36.88 C 151.34 40.44 149.31 43.91 146.97 47.16 C 147.14 43.45 147.74 39.71 146.99 36.01 C 148.60 37.83 150.87 37.90 152.73 36.37 C 150.97 36.43 149.49 35.97 148.28 34.98 M 155.79 38.67 C 156.83 40.36 158.15 42.03 157.97 44.15 C 158.56 43.87 159.75 43.30 160.35 43.01 C 158.94 41.45 157.46 39.95 155.79 38.67 M 157.97 44.15 C 154.96 42.49 157.41 47.34 157.97 44.15 M 160.14 44.15 C 160.73 44.73 160.73 44.73 160.14 44.15 M 156.22 46.10 C 156.47 49.37 159.24 44.53 156.22 46.10 Z" />
<path fill="#a0bc83" opacity="1.00" d=" M 109.10 36.12 C 115.10 35.84 121.11 36.05 127.11 36.02 C 126.24 37.82 125.16 39.50 123.77 40.94 C 118.83 41.03 113.89 41.08 108.96 40.93 C 108.99 39.33 109.04 37.73 109.10 36.12 Z" />
<path fill="#a0bc83" opacity="1.00" d=" M 140.13 41.07 C 140.69 38.88 142.19 37.14 143.86 35.69 C 144.06 39.51 144.03 43.34 143.98 47.16 C 142.60 45.19 141.17 43.24 140.13 41.07 Z" />
<path fill="#a0bc83" opacity="1.00" d=" M 145.02 36.02 L 145.98 36.00 C 146.05 39.33 146.05 42.66 145.98 45.98 L 145.02 45.99 C 144.96 42.67 144.96 39.34 145.02 36.02 Z" />
<path fill="#a0bc83" opacity="1.00" d=" M 164.81 36.07 C 168.30 35.86 171.83 35.84 175.23 36.74 C 181.15 37.36 187.16 37.20 193.00 36.04 C 204.37 35.99 215.74 35.92 227.11 36.08 C 227.59 39.40 223.42 40.36 220.95 40.94 C 204.65 41.07 188.34 41.00 172.04 40.96 C 169.38 39.94 165.11 39.74 164.81 36.07 Z" />
<path fill="#a0bc83" opacity="1.00" d=" M 94.00 37.05 C 98.67 36.94 103.34 36.96 108.00 37.05 C 108.00 37.78 108.00 39.23 108.00 39.96 C 103.33 40.02 98.67 40.02 94.01 39.96 C 94.01 39.23 94.01 37.77 94.00 37.05 Z" />
<path fill="#a0bc83" opacity="1.00" d=" M 92.10 38.26 C 95.38 38.45 90.56 41.30 92.10 38.26 Z" />
<path fill="#a0bc83" opacity="1.00" d=" M 137.58 39.53 C 137.70 39.60 137.94 39.73 138.06 39.80 C 137.94 39.73 137.70 39.60 137.58 39.53 Z" />
<path fill="#a0bc83" opacity="1.00" d=" M 138.06 39.80 L 138.79 39.95 C 140.18 42.15 136.62 41.70 138.06 39.80 Z" />
<path fill="#a0bc83" opacity="1.00" d=" M 94.23 41.23 C 94.81 41.81 94.81 41.81 94.23 41.23 Z" />
<path fill="#a0bc83" opacity="1.00" d=" M 169.18 42.38 C 170.89 41.59 172.12 45.43 170.28 45.79 C 169.00 45.35 168.40 43.48 169.18 42.38 Z" />
<path fill="#a0bc83" opacity="1.00" d=" M 135.78 45.62 C 136.31 44.33 137.15 43.21 138.58 42.90 C 139.39 44.46 139.78 46.93 142.13 46.30 C 140.94 47.56 139.75 48.95 137.96 49.31 C 138.29 48.75 138.96 47.63 139.29 47.07 C 138.12 46.59 136.95 46.10 135.78 45.62 Z" />
<path fill="#a0bc83" opacity="1.00" d=" M 149.25 46.11 C 149.84 46.70 149.84 46.70 149.25 46.11 Z" />
<path fill="#a0bc83" opacity="1.00" d=" M 143.98 47.16 C 144.73 47.16 146.22 47.16 146.97 47.16 C 149.26 48.77 152.01 50.82 152.04 53.89 C 151.08 56.95 148.47 59.87 145.10 59.99 C 141.89 59.19 139.31 56.36 138.93 53.06 C 139.71 50.45 141.82 48.65 143.98 47.16 M 145.23 48.23 C 145.81 48.82 145.81 48.82 145.23 48.23 M 143.24 49.27 C 143.46 50.79 142.81 51.45 141.28 51.24 C 141.96 52.71 141.99 54.31 141.27 55.77 C 142.82 55.53 143.47 56.19 143.23 57.74 C 144.68 57.01 146.28 57.03 147.76 57.72 C 147.54 56.18 148.20 55.53 149.75 55.77 C 148.94 54.28 148.98 52.63 149.77 51.14 C 149.29 51.15 148.33 51.16 147.84 51.16 C 147.85 50.68 147.85 49.72 147.85 49.24 C 146.37 49.99 144.73 50.01 143.24 49.27 M 140.24 53.23 C 140.82 53.82 140.82 53.82 140.24 53.23 M 150.23 53.23 C 150.82 53.82 150.82 53.82 150.23 53.23 M 145.24 58.23 C 145.82 58.82 145.82 58.82 145.24 58.23 Z" />
<path fill="#a0bc83" opacity="1.00" d=" M 129.05 48.05 C 132.31 48.88 135.61 49.55 138.88 50.31 C 138.83 50.67 138.73 51.41 138.68 51.77 C 135.32 52.26 131.92 51.96 128.54 52.00 C 128.72 50.69 128.90 49.37 129.05 48.05 Z" />
<path fill="#a0bc83" opacity="1.00" d=" M 142.93 53.07 C 142.93 50.95 145.37 50.82 146.95 50.90 C 147.41 52.20 148.88 54.18 147.43 55.33 C 145.83 57.20 142.20 55.64 142.93 53.07 Z" />
<path fill="#a0bc83" opacity="1.00" d=" M 126.26 52.27 C 127.68 52.31 127.42 54.85 126.76 55.69 C 125.34 55.66 125.59 53.11 126.26 52.27 Z" />
<path fill="#a0bc83" opacity="1.00" d=" M 164.26 52.24 C 165.68 52.29 165.38 54.85 164.72 55.69 C 163.30 55.64 163.60 53.08 164.26 52.24 Z" />
<path fill="#a0bc83" opacity="1.00" d=" M 128.01 53.02 C 131.34 52.98 134.67 52.98 137.99 53.02 L 137.99 53.98 C 134.66 54.04 131.33 54.03 128.00 53.97 L 128.01 53.02 Z" />
<path fill="#a0bc83" opacity="1.00" d=" M 153.03 53.02 C 156.35 52.99 159.68 52.99 163.00 53.02 L 162.98 53.98 C 159.65 54.02 156.32 54.03 153.00 53.98 L 153.03 53.02 Z" />
<path fill="#a0bc83" opacity="1.00" d=" M 171.21 53.95 C 184.88 55.22 198.40 57.99 211.99 59.96 C 237.39 63.74 262.73 67.92 288.14 71.69 C 290.44 72.01 292.84 72.13 294.92 73.28 C 295.79 76.06 291.96 76.38 290.09 75.93 C 285.74 74.61 281.15 75.40 276.78 74.26 C 272.82 73.80 268.80 74.20 264.92 73.12 C 259.24 73.33 253.74 71.82 248.07 71.86 C 243.09 70.54 237.89 71.45 232.92 70.13 C 223.60 69.91 214.44 68.07 205.12 67.83 C 200.15 66.63 194.99 67.34 190.01 66.16 C 184.94 66.25 180.01 64.75 174.94 64.98 C 172.88 65.11 170.91 64.53 169.00 63.86 C 169.92 60.60 171.17 57.39 171.21 53.95 Z" />
<path fill="#a0bc83" opacity="1.00" d=" M 151.57 55.90 C 154.99 54.10 159.09 55.34 162.80 54.97 C 162.24 56.92 161.93 58.93 161.78 60.96 C 161.31 61.21 160.38 61.72 159.91 61.97 C 157.02 60.12 153.93 58.42 151.57 55.90 Z" />
<path fill="#a0bc83" opacity="1.00" d=" M 126.86 56.77 L 127.77 56.66 C 127.64 61.77 131.83 65.20 134.83 68.77 C 130.94 68.00 129.26 63.82 127.13 60.91 C 127.02 59.53 126.93 58.15 126.86 56.77 Z" />
<path fill="#a0bc83" opacity="1.00" d=" M 151.08 61.88 C 149.97 59.61 154.57 60.05 154.48 61.71 C 153.37 62.21 152.24 62.27 151.08 61.88 Z" />
<path fill="#a0bc83" opacity="1.00" d=" M 145.02 61.00 L 145.98 61.01 C 146.04 64.34 146.04 67.67 145.98 71.00 L 145.02 70.99 C 144.96 67.66 144.96 64.33 145.02 61.00 Z" />
<path fill="#a0bc83" opacity="1.00" d=" M 151.08 61.88 C 150.44 62.55 150.44 62.55 151.08 61.88 Z" />
<path fill="#a0bc83" opacity="1.00" d=" M 298.08 61.85 C 299.43 62.05 300.80 62.30 301.96 63.07 C 302.03 65.72 302.06 68.36 301.96 71.00 C 300.65 71.00 299.35 71.00 298.05 70.99 C 297.94 67.95 297.93 64.90 298.08 61.85 Z" />
<path fill="#a0bc83" opacity="1.00" d=" M 135.44 68.95 C 136.48 69.08 137.23 69.62 137.69 70.56 C 135.98 71.19 135.23 70.65 135.44 68.95 Z" />
<path fill="#a0bc83" opacity="1.00" d=" M 153.32 70.55 C 153.79 69.61 154.55 69.07 155.59 68.92 C 155.78 70.63 155.02 71.17 153.32 70.55 Z" />
<path fill="#a0bc83" opacity="1.00" d=" M 143.26 72.28 C 144.58 71.58 146.42 71.58 147.74 72.28 C 147.40 73.64 143.60 73.65 143.26 72.28 Z" />
<path fill="#a0bc83" opacity="1.00" d=" M 297.31 72.08 C 299.41 71.76 301.49 72.43 303.57 72.70 C 303.94 73.28 304.69 74.45 305.06 75.04 C 305.00 75.49 304.88 76.39 304.82 76.84 C 301.50 77.13 298.16 77.07 294.84 76.94 C 295.51 75.26 295.93 73.36 297.31 72.08 Z" />
</g>
<g id="#346434ff">
<path fill="#346434" opacity="1.00" d=" M 129.84 35.84 C 134.11 32.58 139.20 30.61 144.34 29.22 C 144.78 30.14 145.22 31.06 145.67 31.97 C 145.89 31.28 146.33 29.90 146.55 29.21 C 147.04 29.22 148.02 29.25 148.51 29.26 C 148.65 29.82 148.94 30.94 149.08 31.50 C 150.20 31.02 151.31 30.53 152.44 30.06 C 152.61 30.70 152.95 31.97 153.12 32.60 C 153.86 32.19 154.61 31.79 155.36 31.38 C 156.56 35.03 161.61 33.94 163.17 37.27 C 165.85 42.03 169.17 46.81 169.66 52.40 C 168.79 52.81 167.92 53.23 167.05 53.65 C 167.73 53.88 169.09 54.34 169.77 54.57 C 169.77 55.06 169.76 56.02 169.75 56.51 C 169.18 56.65 168.04 56.93 167.47 57.07 C 167.97 58.19 168.48 59.32 168.95 60.45 C 168.31 60.62 167.04 60.95 166.40 61.11 C 166.79 61.85 167.19 62.60 167.59 63.35 C 164.28 65.08 163.75 69.17 161.85 72.07 C 186.90 71.89 211.96 72.09 237.01 71.95 C 242.34 71.88 247.60 72.76 252.89 73.24 C 264.70 74.42 276.54 75.25 288.33 76.61 C 294.52 77.64 300.78 78.44 307.08 77.98 C 306.40 77.00 305.72 76.02 305.06 75.04 C 304.69 74.45 303.94 73.28 303.57 72.70 C 307.01 72.13 310.50 71.55 313.99 72.01 C 317.87 72.24 320.88 75.43 322.27 78.86 C 317.19 79.18 312.09 78.98 307.00 79.00 C 258.33 79.02 209.66 78.99 161.00 79.02 C 157.59 78.93 154.09 79.47 150.75 78.58 C 154.25 77.15 157.98 75.82 160.36 72.69 C 155.74 74.32 151.47 76.90 146.60 77.77 C 146.18 76.86 145.76 75.94 145.34 75.03 C 145.12 75.72 144.67 77.09 144.45 77.78 C 143.95 77.78 142.97 77.78 142.47 77.78 C 142.32 77.15 142.03 75.90 141.88 75.28 C 140.93 75.98 139.99 76.69 139.04 77.39 C 138.64 76.41 138.23 75.43 137.83 74.45 C 137.49 74.68 136.79 75.16 136.45 75.39 C 133.66 73.26 130.56 71.49 127.13 70.64 C 126.79 70.09 126.12 68.98 125.78 68.42 C 124.99 65.16 123.83 62.02 122.51 58.94 C 121.24 56.32 122.10 53.36 121.39 50.61 C 122.24 50.18 123.09 49.75 123.94 49.33 C 123.19 49.11 121.69 48.68 120.94 48.47 C 122.00 47.47 123.11 46.53 124.26 45.63 C 124.07 45.15 123.89 44.67 123.72 44.20 C 126.10 41.65 126.92 37.90 129.84 35.84 M 137.85 34.59 L 138.51 35.34 C 133.74 37.95 129.92 41.78 127.32 46.55 L 126.55 45.87 C 124.80 50.64 124.44 55.90 126.26 60.71 L 127.13 60.91 C 129.26 63.82 130.94 68.00 134.83 68.77 L 135.44 68.95 C 135.23 70.65 135.98 71.19 137.69 70.56 L 138.13 71.23 L 138.13 71.73 L 138.23 72.61 C 142.89 74.45 148.09 74.49 152.74 72.61 L 152.87 71.73 L 152.87 71.23 L 153.32 70.55 C 155.02 71.17 155.78 70.63 155.59 68.92 L 156.23 68.72 C 159.58 67.65 161.37 64.23 162.74 61.24 L 163.20 60.69 L 163.76 60.70 L 164.67 60.95 C 166.56 56.02 166.03 50.79 164.61 45.83 L 163.88 46.41 C 161.34 41.56 157.41 37.66 152.58 35.11 L 153.13 34.35 C 148.14 32.64 142.74 32.43 137.85 34.59 Z" />
<path fill="#346434" opacity="1.00" d=" M 18.55 72.47 C 21.27 71.64 24.20 72.06 27.01 71.97 C 58.01 72.03 89.00 71.98 120.00 71.99 C 122.90 72.05 125.84 71.68 128.71 72.25 C 132.64 74.17 135.74 77.69 140.26 78.39 C 139.08 79.37 137.40 78.90 136.00 79.05 C 94.94 78.88 53.87 79.19 12.81 78.89 C 13.51 75.92 16.11 74.01 18.55 72.47 Z" />
</g>
</svg>
