<?xml version="1.0" encoding="UTF-8" standalone="no"?>
<!-- Creator: CorelDRAW -->

<svg
   xmlns:dc="http://purl.org/dc/elements/1.1/"
   xmlns:cc="http://creativecommons.org/ns#"
   xmlns:rdf="http://www.w3.org/1999/02/22-rdf-syntax-ns#"
   xmlns:svg="http://www.w3.org/2000/svg"
   xmlns="http://www.w3.org/2000/svg"
   xmlns:sodipodi="http://sodipodi.sourceforge.net/DTD/sodipodi-0.dtd"
   xmlns:inkscape="http://www.inkscape.org/namespaces/inkscape"
   xml:space="preserve"
   width="279.4mm"
   height="215.9mm"
   style="shape-rendering:geometricPrecision; text-rendering:geometricPrecision; image-rendering:optimizeQuality; fill-rule:evenodd; clip-rule:evenodd"
   viewBox="0 0 279.4 215.9"
   id="svg2"
   version="1.1"
   inkscape:version="0.91 r13725"
   sodipodi:docname="V2.svg"><metadata
   id="metadata471"><rdf:RDF><cc:Work
       rdf:about=""><dc:format>image/svg+xml</dc:format><dc:type
         rdf:resource="http://purl.org/dc/dcmitype/StillImage" /><dc:title></dc:title></cc:Work></rdf:RDF></metadata><sodipodi:namedview
   pagecolor="#ffffff"
   bordercolor="#666666"
   borderopacity="1"
   objecttolerance="10"
   gridtolerance="10"
   guidetolerance="10"
   inkscape:pageopacity="0"
   inkscape:pageshadow="2"
   inkscape:window-width="1280"
   inkscape:window-height="744"
   id="namedview469"
   showgrid="false"
   inkscape:zoom="0.80146344"
   inkscape:cx="495.02966"
   inkscape:cy="382.52396"
   inkscape:window-x="-4"
   inkscape:window-y="-4"
   inkscape:window-maximized="1"
   inkscape:current-layer="svg2" />
 <defs
   id="defs4">
  <style
   type="text/css"
   id="style6">
   <![CDATA[
    .str3 {stroke:black;stroke-width:0.0762}
    .str5 {stroke:#4D4D4D;stroke-width:0.0762}
    .str4 {stroke:#666666;stroke-width:0.0762}
    .str0 {stroke:black;stroke-width:0.0318}
    .str1 {stroke:#4D4D4D;stroke-width:0.0318}
    .str2 {stroke:#666666;stroke-width:0.0318}
    .fil5 {fill:none}
    .fil8 {fill:none;fill-rule:nonzero}
    .fil2 {fill:black}
    .fil0 {fill:#663300}
    .fil3 {fill:#990000}
    .fil1 {fill:#A7923F}
    .fil4 {fill:white}
    .fil6 {fill:black;fill-rule:nonzero}
    .fil7 {fill:#4D4D4D;fill-rule:nonzero}
    .fil9 {fill:#666666;fill-rule:nonzero}
   ]]>
  </style>
 
  
  
 
   
   
   
   
   
   
   
   
   
   
   
   
   
   
   
   
   
   
   
   
   
   
   
   
   
   
   
   
   
   
   
   
   
   
   
   
   
   
   
   
   
   
   
   
   
   
   
   
   
   
   
   
   
   
   
   
   
   
   
   
   
   
   
   
   
   
   
   
   
   
   
   
   
   
   
   
   
   
   
   
   
   
   
   
   
   
   
   
   
   
   
   
   
   
   
   
   
   
   
   
   
   
   
   
   
   
   
   
   
   
   
   
   
   
   
   
   
   
   
   
   
   
   
   
   
   
   
   
   
   
   
   
   
   
   
   
   
   
   
   
   
   
   
   
   
   
   
   
   
   
   
   
   
   
   
   
   
   
   
   
   
   
   
   
   
   
   
   
   
   
   
   
   
   
   
   
   
   
   
   
   
   
   
   
   
   
   
   
   
   
   
   
   
   
   
   
   
   
   
   
   
   
   
   
   
   
   
   
   
   
   
   
   
   
   
   
   
   
   
   
   
   
   
   
  </defs>
 <rect
   id="_112719584"
   class="fil0 str0"
   x="236.31"
   y="194.995"
   width="0.17929301"
   height="1.54486"
   style="fill:#663300;stroke:#000000;stroke-width:0.0318" /><rect
   id="_111248656"
   class="fil1 str0"
   x="18.8036"
   y="194.995"
   width="0.17929301"
   height="1.54486"
   style="fill:#a7923f;stroke:#000000;stroke-width:0.0318" /><rect
   id="_111915264"
   class="fil2 str0"
   x="165.494"
   y="194.995"
   width="0.17929301"
   height="1.54486"
   style="fill:#000000;stroke:#000000;stroke-width:0.0318" /><rect
   id="_107836232"
   class="fil2 str0"
   x="91.766296"
   y="194.995"
   width="0.17929301"
   height="1.54486"
   style="fill:#000000;stroke:#000000;stroke-width:0.0318" /><rect
   id="_112717328"
   class="fil0 str0"
   x="260.46899"
   y="194.995"
   width="0.17929301"
   height="1.54486"
   style="fill:#663300;stroke:#000000;stroke-width:0.0318" /><rect
   id="_111253384"
   class="fil1 str0"
   x="42.962601"
   y="194.995"
   width="0.17929301"
   height="1.54486"
   style="fill:#a7923f;stroke:#000000;stroke-width:0.0318" /><rect
   id="_111915384"
   class="fil2 str1"
   x="189.653"
   y="194.995"
   width="0.17929301"
   height="1.54486"
   style="fill:#000000;stroke:#4d4d4d;stroke-width:0.0318" /><rect
   id="_107836016"
   class="fil2 str1"
   x="115.925"
   y="194.995"
   width="0.17929301"
   height="1.54486"
   style="fill:#000000;stroke:#4d4d4d;stroke-width:0.0318" /><polygon
   id="_111247744"
   class="fil3 str0"
   points="240.418,197.174 241.798,196.361 241.266,195.974 "
   style="fill:#990000;stroke:#000000;stroke-width:0.0318" /><polygon
   id="_111253264"
   class="fil3 str0"
   points="22.9122,197.174 24.2915,196.361 23.7602,195.974 "
   style="fill:#990000;stroke:#000000;stroke-width:0.0318" /><polygon
   id="_111912480"
   class="fil3 str0"
   points="169.602,197.174 170.981,196.361 170.45,195.974 "
   style="fill:#990000;stroke:#000000;stroke-width:0.0318" /><polygon
   id="_107835944"
   class="fil3 str0"
   points="95.8749,197.174 97.2542,196.361 96.7229,195.974 "
   style="fill:#990000;stroke:#000000;stroke-width:0.0318" /><polygon
   id="_112720592"
   class="fil3 str0"
   points="256.528,197.174 255.148,196.361 255.68,195.974 "
   style="fill:#990000;stroke:#000000;stroke-width:0.0318" /><polygon
   id="_111243256"
   class="fil3 str0"
   points="39.0215,197.174 37.6422,196.361 38.1736,195.974 "
   style="fill:#990000;stroke:#000000;stroke-width:0.0318" /><polygon
   id="_111922920"
   class="fil3 str0"
   points="185.711,197.174 184.332,196.361 184.863,195.974 "
   style="fill:#990000;stroke:#000000;stroke-width:0.0318" /><polygon
   id="_107838272"
   class="fil3 str0"
   points="111.984,197.174 110.605,196.361 111.136,195.974 "
   style="fill:#990000;stroke:#000000;stroke-width:0.0318" /><rect
   id="_112717112"
   class="fil3 str0"
   x="239.50101"
   y="192.642"
   width="1.9421099"
   height="1.0152"
   style="fill:#990000;stroke:#000000;stroke-width:0.0318" /><rect
   id="_111243328"
   class="fil3 str0"
   x="21.9946"
   y="192.642"
   width="1.9421099"
   height="1.0152"
   style="fill:#990000;stroke:#000000;stroke-width:0.0318" /><rect
   id="_111917256"
   class="fil3 str0"
   x="168.685"
   y="192.642"
   width="1.9421099"
   height="1.0152"
   style="fill:#990000;stroke:#000000;stroke-width:0.0318" /><rect
   id="_107845952"
   class="fil3 str0"
   x="94.957298"
   y="192.642"
   width="1.9421099"
   height="1.0152"
   style="fill:#990000;stroke:#000000;stroke-width:0.0318" /><rect
   id="_112714592"
   class="fil3 str0"
   x="255.50301"
   y="192.642"
   width="1.9421099"
   height="1.0152"
   style="fill:#990000;stroke:#000000;stroke-width:0.0318" /><rect
   id="_111250240"
   class="fil3 str0"
   x="37.997002"
   y="192.642"
   width="1.9421099"
   height="1.0152"
   style="fill:#990000;stroke:#000000;stroke-width:0.0318" /><rect
   id="_111926184"
   class="fil3 str0"
   x="184.687"
   y="192.642"
   width="1.9421099"
   height="1.0152"
   style="fill:#990000;stroke:#000000;stroke-width:0.0318" /><rect
   id="_107836400"
   class="fil3 str0"
   x="110.96"
   y="192.642"
   width="1.9421099"
   height="1.0152"
   style="fill:#990000;stroke:#000000;stroke-width:0.0318" /><path
   id="_111248728"
   class="fil3 str0"
   d="m 255.68,191.141 c -1.1219,-0.0809 -1.4464,0.0312 -2.2621,0.6179 -0.6756,0.4182 -0.7094,1.0783 -0.6001,2.3561 l -8.4132,0 c 0.0128,-1.3192 0.0756,-1.9379 -0.6,-2.3561 -0.8571,-0.6556 -1.4161,-0.6988 -2.538,-0.6179 0,1.7802 0,3.5605 0,5.3407 4.8045,0 9.6089,0 14.4134,0 0,-1.7802 0,-3.5605 0,-5.3407 z"
   inkscape:connector-curvature="0"
   style="fill:#990000;stroke:#000000;stroke-width:0.0318" /><path
   id="_111250672"
   class="fil3 str0"
   d="m 38.1736,191.141 c -1.1219,-0.0809 -1.4464,0.0312 -2.2621,0.6179 -0.6757,0.4182 -0.7094,1.0783 -0.6001,2.3561 l -8.4132,0 c 0.0128,-1.3192 0.0756,-1.9379 -0.6,-2.3561 -0.8571,-0.6556 -1.4162,-0.6988 -2.538,-0.6179 0,1.7802 0,3.5605 0,5.3407 4.8044,0 9.6089,0 14.4134,0 0,-1.7802 0,-3.5605 0,-5.3407 z"
   inkscape:connector-curvature="0"
   style="fill:#990000;stroke:#000000;stroke-width:0.0318" /><path
   id="_111915936"
   class="fil3 str0"
   d="m 184.863,191.141 c -1.1218,-0.0809 -1.4464,0.0312 -2.2621,0.6179 -0.6756,0.4182 -0.7093,1.0783 -0.6,2.3561 l -8.4132,0 c 0.0127,-1.3192 0.0755,-1.9379 -0.6001,-2.3561 -0.857,-0.6556 -1.4161,-0.6988 -2.538,-0.6179 0,1.7802 0,3.5605 0,5.3407 4.8045,0 9.609,0 14.4134,0 0,-1.7802 0,-3.5605 0,-5.3407 z"
   inkscape:connector-curvature="0"
   style="fill:#990000;stroke:#000000;stroke-width:0.0318" /><path
   id="_107838896"
   class="fil3 str0"
   d="m 111.136,191.141 c -1.1219,-0.0809 -1.4464,0.0312 -2.2621,0.6179 -0.6757,0.4182 -0.7094,1.0783 -0.6001,2.3561 l -8.4132,0 c 0.0128,-1.3192 0.0756,-1.9379 -0.6,-2.3561 -0.8571,-0.6556 -1.4162,-0.6988 -2.538,-0.6179 0,1.7802 0,3.5605 0,5.3407 4.8045,0 9.6089,0 14.4134,0 0,-1.7802 0,-3.5605 0,-5.3407 z"
   inkscape:connector-curvature="0"
   style="fill:#990000;stroke:#000000;stroke-width:0.0318" /><path
   id="_112712648"
   class="fil0 str0"
   d="m 260.117,147.022 c 3.399,5.7969 6.7981,11.5938 10.1971,17.3906 0.4709,0.961 0.5666,1.944 0.5519,2.9491 l 1.655,32.45 -7.4153,0 c -1.5816,-1.5596 -3.1633,-3.1191 -4.7449,-4.6787 -0.3259,-0.199 -0.6298,-0.2685 -1.1019,-0.2745 l -2.5617,-0.0344 -0.0685,-4.2228 1.6172,-34.1658 1.8711,-9.4135 z"
   inkscape:connector-curvature="0"
   style="fill:#663300;stroke:#000000;stroke-width:0.0318" /><path
   id="_107846288"
   class="fil1 str0"
   d="m 42.6109,147.022 c 3.399,5.7969 6.7981,11.5938 10.1971,17.3906 0.4709,0.961 0.5665,1.944 0.5519,2.9491 l 1.655,32.45 -7.4154,0 c -1.5816,-1.5596 -3.1632,-3.1191 -4.7448,-4.6787 -0.3259,-0.199 -0.6298,-0.2685 -1.1019,-0.2745 l -2.5617,-0.0344 -0.0685,-4.2228 1.6171,-34.1658 1.8712,-9.4135 z"
   inkscape:connector-curvature="0"
   style="fill:#a7923f;stroke:#000000;stroke-width:0.0318" /><path
   id="_111912072"
   class="fil0"
   d="m 39.1344,194.824 2.5617,0.0344 c 0.4721,0.006 0.776,0.0755 1.1019,0.2745 1.5816,1.5596 3.1632,3.1191 4.7448,4.6787 l 7.4154,0 -1.655,-32.45 c 0.0074,-0.5081 -0.0134,-1.0106 -0.0966,-1.5073 l -5.9833,21.4835 -8.0889,7.4862 z"
   inkscape:connector-curvature="0"
   style="fill:#663300" /><path
   id="_111926328"
   class="fil2 str1"
   d="m 189.301,147.022 c 3.399,5.7969 6.798,11.5938 10.197,17.3906 0.4709,0.961 0.5666,1.944 0.5519,2.9491 l 1.655,32.45 -7.4153,0 c -1.5816,-1.5596 -3.1633,-3.1191 -4.7449,-4.6787 -0.3259,-0.199 -0.6297,-0.2685 -1.1019,-0.2745 l -2.5617,-0.0344 -0.0684,-4.2228 1.6171,-34.1658 1.8712,-9.4135 z"
   inkscape:connector-curvature="0"
   style="fill:#000000;stroke:#4d4d4d;stroke-width:0.0318" /><path
   id="_107848544"
   class="fil2 str1"
   d="m 115.574,147.022 c 3.399,5.7969 6.7981,11.5938 10.1971,17.3906 0.4709,0.961 0.5666,1.944 0.5519,2.9491 l 1.655,32.45 -7.4154,0 c -1.5816,-1.5596 -3.1632,-3.1191 -4.7448,-4.6787 -0.3259,-0.199 -0.6298,-0.2685 -1.1019,-0.2745 l -2.5617,-0.0344 -0.0685,-4.2228 1.6171,-34.1658 1.8712,-9.4135 z"
   inkscape:connector-curvature="0"
   style="fill:#000000;stroke:#4d4d4d;stroke-width:0.0318" /><polygon
   id="_112711352"
   class="fil0 str0"
   points="272.521,199.812 268.596,199.812 268.596,193.977 272.223,193.977 "
   style="fill:#663300;stroke:#000000;stroke-width:0.0318" /><polygon
   id="_107835128"
   class="fil4 str0"
   points="55.0149,199.812 51.0899,199.812 51.0899,193.977 54.7173,193.977 "
   style="fill:#ffffff;stroke:#000000;stroke-width:0.0318" /><polygon
   id="_111919272"
   class="fil2 str1"
   points="201.705,199.812 197.78,199.812 197.78,193.977 201.407,193.977 "
   style="fill:#000000;stroke:#4d4d4d;stroke-width:0.0318" /><polygon
   id="_107847488"
   class="fil2 str1"
   points="127.978,199.812 124.053,199.812 124.053,193.977 127.68,193.977 "
   style="fill:#000000;stroke:#4d4d4d;stroke-width:0.0318" /><polygon
   id="_112710896"
   class="fil0 str0"
   points="265.106,199.812 260.95,195.714 261.881,191.053 267.73,198.799 267.73,199.812 "
   style="fill:#663300;stroke:#000000;stroke-width:0.0318" /><polygon
   id="_107841944"
   class="fil0 str0"
   points="47.5995,199.812 43.4436,195.714 44.3752,191.053 50.2235,198.799 50.2235,199.812 "
   style="fill:#663300;stroke:#000000;stroke-width:0.0318" /><polygon
   id="_111917952"
   class="fil2 str1"
   points="194.289,199.812 190.134,195.714 191.065,191.053 196.913,198.799 196.913,199.812 "
   style="fill:#000000;stroke:#4d4d4d;stroke-width:0.0318" /><polygon
   id="_111913176"
   class="fil0"
   points="42.6072,147.029 40.4153,194.841 39.1911,194.824 39.1226,190.601 "
   style="fill:#663300" /><polygon
   id="_107834000"
   class="fil2 str1"
   points="120.562,199.812 116.406,195.714 117.338,191.053 123.186,198.799 123.186,199.812 "
   style="fill:#000000;stroke:#4d4d4d;stroke-width:0.0318" /><path
   id="_112710272"
   class="fil0 str0"
   d="m 236.829,147.022 c -3.399,5.7969 -6.7981,11.5938 -10.1971,17.3906 -0.4709,0.961 -0.5666,1.944 -0.5519,2.9491 l -1.655,32.45 7.4154,0 c 1.5816,-1.5596 3.1632,-3.1191 4.7448,-4.6787 0.3259,-0.199 0.6298,-0.2685 1.1019,-0.2745 l 2.5617,-0.0344 0.0685,-4.2228 -1.6172,-34.1658 -1.8711,-9.4135 z"
   inkscape:connector-curvature="0"
   style="fill:#663300;stroke:#000000;stroke-width:0.0318" /><path
   id="_107839448"
   class="fil1 str0"
   d="m 19.3228,147.022 c -3.399,5.7969 -6.798,11.5938 -10.197,17.3906 -0.4709,0.961 -0.5666,1.944 -0.5519,2.9491 l -1.655,32.45 7.4153,0 c 1.5816,-1.5596 3.1633,-3.1191 4.7449,-4.6787 0.3259,-0.199 0.6297,-0.2685 1.1019,-0.2745 l 2.5617,-0.0344 0.0684,-4.2228 -1.6171,-34.1658 -1.8712,-9.4135 z"
   inkscape:connector-curvature="0"
   style="fill:#a7923f;stroke:#000000;stroke-width:0.0318" /><path
   id="_111911880"
   class="fil0"
   d="m 19.5742,194.914 c -0.1916,0.0424 -0.3601,0.1119 -0.535,0.2187 -1.5816,1.5596 -3.1632,3.1191 -4.7449,4.6787 l -7.4153,0 1.655,-32.45 11.0402,27.5526 z"
   inkscape:connector-curvature="0"
   style="fill:#663300" /><path
   id="_111912312"
   class="fil2 str0"
   d="m 166.013,147.022 c -3.399,5.7969 -6.7981,11.5938 -10.1971,17.3906 -0.4709,0.961 -0.5665,1.944 -0.5519,2.9491 l -1.655,32.45 7.4154,0 c 1.5816,-1.5596 3.1632,-3.1191 4.7448,-4.6787 0.3259,-0.199 0.6298,-0.2685 1.1019,-0.2745 l 2.5617,-0.0344 0.0685,-4.2228 -1.6171,-34.1658 -1.8712,-9.4135 z"
   inkscape:connector-curvature="0"
   style="fill:#000000;stroke:#000000;stroke-width:0.0318" /><path
   id="_107833592"
   class="fil2 str0"
   d="m 92.2855,147.022 c -3.399,5.7969 -6.798,11.5938 -10.197,17.3906 -0.4709,0.961 -0.5666,1.944 -0.5519,2.9491 l -1.655,32.45 7.4153,0 c 1.5816,-1.5596 3.1633,-3.1191 4.7449,-4.6787 0.3259,-0.199 0.6297,-0.2685 1.1019,-0.2745 l 2.5617,-0.0344 0.0684,-4.2228 -1.6171,-34.1658 -1.8712,-9.4135 z"
   inkscape:connector-curvature="0"
   style="fill:#000000;stroke:#000000;stroke-width:0.0318" /><polygon
   id="_112710872"
   class="fil0 str0"
   points="231.84,199.812 235.996,195.714 235.065,191.053 229.216,198.799 229.216,199.812 "
   style="fill:#663300;stroke:#000000;stroke-width:0.0318" /><polygon
   id="_107847152"
   class="fil0 str0"
   points="14.3342,199.812 18.4901,195.714 17.5586,191.053 11.7102,198.799 11.7102,199.812 "
   style="fill:#663300;stroke:#000000;stroke-width:0.0318" /><polygon
   id="_111923352"
   class="fil2 str2"
   points="161.024,199.812 165.18,195.714 164.248,191.053 158.4,198.799 158.4,199.812 "
   style="fill:#000000;stroke:#666666;stroke-width:0.0318" /><polygon
   id="_107834096"
   class="fil2 str2"
   points="87.2969,199.812 91.4528,195.714 90.5213,191.053 84.6729,198.799 84.6729,199.812 "
   style="fill:#000000;stroke:#666666;stroke-width:0.0318" /><polygon
   id="_112706312"
   class="fil0 str0"
   points="224.425,199.812 228.35,199.812 228.35,193.977 224.722,193.977 "
   style="fill:#663300;stroke:#000000;stroke-width:0.0318" /><polyline
   id="_111912024"
   class="fil5 str0"
   points="228.35,185.859 236.758,185.859 237.58,156.962 "
   style="fill:none;stroke:#000000;stroke-width:0.0318" /><polyline
   id="_111916200"
   class="fil5 str0"
   points="237.144,151.744 236.081,151.744 228.35,164.791 228.35,193.977 "
   style="fill:none;stroke:#000000;stroke-width:0.0318" /><line
   id="_111924960"
   class="fil5 str0"
   x1="228.35001"
   y1="177.451"
   x2="225.565"
   y2="177.451"
   style="fill:none;stroke:#000000;stroke-width:0.0318" /><line
   id="_111917088"
   class="fil5 str0"
   x1="228.35001"
   y1="167.207"
   x2="226.07899"
   y2="167.032"
   style="fill:none;stroke:#000000;stroke-width:0.0318" /><line
   id="_111927144"
   class="fil5 str0"
   x1="228.35001"
   y1="164.791"
   x2="226.552"
   y2="164.58299"
   style="fill:none;stroke:#000000;stroke-width:0.0318" /><polygon
   id="_107837240"
   class="fil0 str0"
   points="6.9189,199.812 10.8439,199.812 10.8439,193.977 7.2165,193.977 "
   style="fill:#663300;stroke:#000000;stroke-width:0.0318" /><polyline
   id="_107838536"
   class="fil5 str0"
   points="10.8439,185.859 19.2521,185.859 20.0735,156.962 "
   style="fill:none;stroke:#000000;stroke-width:0.0318" /><polyline
   id="_107836376"
   class="fil5 str0"
   points="19.6384,151.744 18.5754,151.744 10.8439,164.791 10.8439,193.977 "
   style="fill:none;stroke:#000000;stroke-width:0.0318" /><line
   id="_107845688"
   class="fil5 str0"
   x1="10.8439"
   y1="177.451"
   x2="8.0593004"
   y2="177.451"
   style="fill:none;stroke:#000000;stroke-width:0.0318" /><line
   id="_107848232"
   class="fil5 str0"
   x1="10.8439"
   y1="167.207"
   x2="8.5733995"
   y2="167.032"
   style="fill:none;stroke:#000000;stroke-width:0.0318" /><line
   id="_107844344"
   class="fil5 str0"
   x1="10.8439"
   y1="164.791"
   x2="9.0465002"
   y2="164.58299"
   style="fill:none;stroke:#000000;stroke-width:0.0318" /><polygon
   id="_111923664"
   class="fil2 str2"
   points="153.609,199.812 157.534,199.812 157.534,193.977 153.906,193.977 "
   style="fill:#000000;stroke:#666666;stroke-width:0.0318" /><polygon
   id="_107841800"
   class="fil2 str2"
   points="79.8816,199.812 83.8066,199.812 83.8066,193.977 80.1792,193.977 "
   style="fill:#000000;stroke:#666666;stroke-width:0.0318" /><polyline
   id="_111920544"
   class="fil5 str1"
   points="157.534,185.859 165.942,185.859 166.763,156.962 "
   style="fill:none;stroke:#4d4d4d;stroke-width:0.0318" /><polyline
   id="_107835728"
   class="fil5 str1"
   points="83.8066,185.859 92.2148,185.859 93.0362,156.962 "
   style="fill:none;stroke:#4d4d4d;stroke-width:0.0318" /><polyline
   id="_111923856"
   class="fil5 str1"
   points="166.328,151.744 165.265,151.744 157.534,164.791 157.534,193.977 "
   style="fill:none;stroke:#4d4d4d;stroke-width:0.0318" /><polyline
   id="_107843336"
   class="fil5 str1"
   points="92.6011,151.744 91.5381,151.744 83.8066,164.791 83.8066,193.977 "
   style="fill:none;stroke:#4d4d4d;stroke-width:0.0318" /><line
   id="_111913752"
   class="fil5 str1"
   x1="157.534"
   y1="177.451"
   x2="154.74899"
   y2="177.451"
   style="fill:none;stroke:#4d4d4d;stroke-width:0.0318" /><line
   id="_107838152"
   class="fil5 str1"
   x1="83.806602"
   y1="177.451"
   x2="81.022003"
   y2="177.451"
   style="fill:none;stroke:#4d4d4d;stroke-width:0.0318" /><line
   id="_111923976"
   class="fil5 str1"
   x1="157.534"
   y1="167.207"
   x2="155.263"
   y2="167.032"
   style="fill:none;stroke:#4d4d4d;stroke-width:0.0318" /><line
   id="_107834792"
   class="fil5 str1"
   x1="83.806602"
   y1="167.207"
   x2="81.536102"
   y2="167.032"
   style="fill:none;stroke:#4d4d4d;stroke-width:0.0318" /><line
   id="_111920832"
   class="fil5 str1"
   x1="157.534"
   y1="164.791"
   x2="155.73599"
   y2="164.58299"
   style="fill:none;stroke:#4d4d4d;stroke-width:0.0318" /><line
   id="_107834192"
   class="fil5 str1"
   x1="83.806602"
   y1="164.791"
   x2="82.009201"
   y2="164.58299"
   style="fill:none;stroke:#4d4d4d;stroke-width:0.0318" /><polygon
   id="_111925488"
   class="fil0 str0"
   points="272.514,199.812 268.589,199.812 268.589,193.977 272.217,193.977 "
   style="fill:#663300;stroke:#000000;stroke-width:0.0318" /><polyline
   id="_111917280"
   class="fil5 str0"
   points="268.589,185.859 260.181,185.859 259.36,156.962 "
   style="fill:none;stroke:#000000;stroke-width:0.0318" /><polyline
   id="_111917016"
   class="fil5 str0"
   points="259.795,151.744 260.858,151.744 268.589,164.791 268.589,193.977 "
   style="fill:none;stroke:#000000;stroke-width:0.0318" /><line
   id="_111915408"
   class="fil5 str0"
   x1="268.58899"
   y1="177.451"
   x2="271.37399"
   y2="177.451"
   style="fill:none;stroke:#000000;stroke-width:0.0318" /><line
   id="_111915744"
   class="fil5 str0"
   x1="268.58899"
   y1="167.207"
   x2="270.85999"
   y2="167.032"
   style="fill:none;stroke:#000000;stroke-width:0.0318" /><line
   id="_111915312"
   class="fil5 str0"
   x1="268.58899"
   y1="164.791"
   x2="270.38699"
   y2="164.58299"
   style="fill:none;stroke:#000000;stroke-width:0.0318" /><polygon
   id="_107842496"
   class="fil0 str0"
   points="55.0085,199.812 51.0835,199.812 51.0835,193.977 54.7109,193.977 "
   style="fill:#663300;stroke:#000000;stroke-width:0.0318" /><polyline
   id="_107847032"
   class="fil5 str0"
   points="51.0835,185.859 42.6753,185.859 41.8538,156.962 "
   style="fill:none;stroke:#000000;stroke-width:0.0318" /><polyline
   id="_107845880"
   class="fil5 str0"
   points="42.2889,151.744 43.352,151.744 51.0835,164.791 51.0835,193.977 "
   style="fill:none;stroke:#000000;stroke-width:0.0318" /><line
   id="_107847416"
   class="fil5 str0"
   x1="51.0835"
   y1="177.451"
   x2="53.868099"
   y2="177.451"
   style="fill:none;stroke:#000000;stroke-width:0.0318" /><line
   id="_107840216"
   class="fil5 str0"
   x1="51.0835"
   y1="167.207"
   x2="53.354"
   y2="167.032"
   style="fill:none;stroke:#000000;stroke-width:0.0318" /><line
   id="_107847560"
   class="fil5 str0"
   x1="51.0835"
   y1="164.791"
   x2="52.880901"
   y2="164.58299"
   style="fill:none;stroke:#000000;stroke-width:0.0318" /><polyline
   id="_111911760"
   class="fil5 str1"
   points="197.773,185.859 189.365,185.859 188.544,156.962 "
   style="fill:none;stroke:#4d4d4d;stroke-width:0.0318" /><polyline
   id="_107834048"
   class="fil5 str1"
   points="124.046,185.859 115.638,185.859 114.816,156.962 "
   style="fill:none;stroke:#4d4d4d;stroke-width:0.0318" /><polyline
   id="_111920688"
   class="fil5 str1"
   points="188.979,151.744 190.042,151.744 197.773,164.791 197.773,193.977 "
   style="fill:none;stroke:#4d4d4d;stroke-width:0.0318" /><polyline
   id="_107836472"
   class="fil5 str1"
   points="115.252,151.744 116.315,151.744 124.046,164.791 124.046,193.977 "
   style="fill:none;stroke:#4d4d4d;stroke-width:0.0318" /><line
   id="_111922896"
   class="fil5 str1"
   x1="197.77299"
   y1="177.451"
   x2="200.558"
   y2="177.451"
   style="fill:none;stroke:#4d4d4d;stroke-width:0.0318" /><line
   id="_107843816"
   class="fil5 str1"
   x1="124.046"
   y1="177.451"
   x2="126.831"
   y2="177.451"
   style="fill:none;stroke:#4d4d4d;stroke-width:0.0318" /><line
   id="_111919800"
   class="fil5 str1"
   x1="197.77299"
   y1="167.207"
   x2="200.04401"
   y2="167.032"
   style="fill:none;stroke:#4d4d4d;stroke-width:0.0318" /><line
   id="_107845544"
   class="fil5 str1"
   x1="124.046"
   y1="167.207"
   x2="126.317"
   y2="167.032"
   style="fill:none;stroke:#4d4d4d;stroke-width:0.0318" /><line
   id="_111921672"
   class="fil5 str1"
   x1="197.77299"
   y1="164.791"
   x2="199.571"
   y2="164.58299"
   style="fill:none;stroke:#4d4d4d;stroke-width:0.0318" /><line
   id="_107848520"
   class="fil5 str1"
   x1="124.046"
   y1="164.791"
   x2="125.844"
   y2="164.58299"
   style="fill:none;stroke:#4d4d4d;stroke-width:0.0318" /><path
   id="_112718600"
   class="fil0 str0"
   d="m 248.466,16.0883 c 6.9146,21.5054 10.9178,49.7107 11.1458,79.9691 0.1155,15.3346 0.3116,30.8467 0.4964,45.4185 0.2426,19.138 -1.7539,35.0229 -3.4793,49.1254 l -7.1466,0 -2.0325,0 -7.1467,0 c -1.7253,-14.1025 -3.7219,-29.9874 -3.4793,-49.1254 0.1848,-14.5718 0.381,-30.0839 0.4965,-45.4185 0.2278,-30.2583 4.2312,-58.4637 11.1457,-79.9691 z"
   inkscape:connector-curvature="0"
   style="fill:#663300;stroke:#000000;stroke-width:0.0318" /><path
   id="_107846264"
   class="fil1 str0"
   d="m 30.9597,16.0883 c 6.9145,21.5054 10.9178,49.7107 11.1457,79.9691 0.1156,15.3346 0.3117,30.8467 0.4965,45.4185 0.2426,19.138 -1.754,35.0229 -3.4793,49.1254 l -7.1467,0 -2.0325,0 -7.1466,0 c -1.7254,-14.1025 -3.7219,-29.9874 -3.4793,-49.1254 0.1848,-14.5718 0.3809,-30.0839 0.4964,-45.4185 0.2279,-30.2583 4.2312,-58.4637 11.1458,-79.9691 z"
   inkscape:connector-curvature="0"
   style="fill:#a7923f;stroke:#000000;stroke-width:0.0318" /><path
   id="_112720520"
   class="fil0"
   d="m 42.786,147.023 c -0.156,16.6945 -1.9325,30.8613 -3.4883,43.5785 l -7.1467,0 -1.0358,0 11.6708,-43.5785 z"
   inkscape:connector-curvature="0"
   style="fill:#663300" /><polygon
   id="_111920520"
   class="fil0"
   points="30.9561,147.022 20.7008,172.151 29.5683,190.601 30.9597,190.601 "
   style="fill:#663300" /><path
   id="_112719032"
   class="fil4"
   d="m 19.305,147.036 c -0.0171,-1.8226 -0.015,-3.6754 0.0089,-5.5597 0.0235,-1.8541 0.0473,-3.7234 0.0709,-5.6056 l 23.2314,7.738 c 0.0048,1.152 0.0016,2.2921 -0.009,3.4206 l -7.8415,0.8834 -0.662,5.6277 -3.1476,-6.518 -11.6511,0.0136 z"
   inkscape:connector-curvature="0"
   style="fill:#ffffff" /><path
   id="_112710608"
   class="fil0"
   d="m 19.5857,123.713 c 0.108,-9.12 0.2068,-18.42 0.2764,-27.6554 0.0214,-2.8565 0.0767,-5.6946 0.1647,-8.5106 l 16.2861,-4.3165 5.6759,4.3165 c 0.0881,2.8159 0.1433,5.6541 0.1648,8.5106 0.0808,10.7352 0.2013,21.5575 0.3296,32.0833 l -14.6664,-9.3736 -8.2311,4.9457 z"
   inkscape:connector-curvature="0"
   style="fill:#663300" /><path
   id="_112715720"
   class="fil0"
   d="m 20.4142,77.8895 c 0.2386,-4.037 0.5459,-8.0168 0.9196,-11.9272 l 13.5252,-6.6169 5.0108,-0.107 c 0.3678,3.1291 0.6922,6.3093 0.9718,9.534 l -20.4274,9.1171 z"
   inkscape:connector-curvature="0"
   style="fill:#663300" /><path
   id="_112715600"
   class="fil4"
   d="m 22.0479,59.3316 c -0.3749,3.1978 -0.7045,6.4489 -0.9872,9.7461 l 17.3252,-9.0649 1.7418,1.4082 c -0.385,-3.4912 -0.8238,-6.9215 -1.3146,-10.2818 l -7.3471,3.0012 -9.4181,5.1912 z"
   inkscape:connector-curvature="0"
   style="fill:#ffffff" /><path
   id="_111921024"
   class="fil0"
   d="m 23.8093,46.7071 c 1.0611,-6.5179 2.3227,-12.7465 3.7718,-18.6155 l 1.6683,-1.4272 7.3947,11.7685 c 0.8081,4.1035 1.5324,8.3446 2.169,12.7034 l -7.3564,3.0041 -7.6474,-7.4333 z"
   inkscape:connector-curvature="0"
   style="fill:#663300" /><path
   id="_111912144"
   class="fil4 str2"
   d="m 177.65,16.0883 c 6.9146,21.5054 10.9179,49.7107 11.1458,79.9691 0.1155,15.3346 0.3117,30.8467 0.4964,45.4185 0.2427,19.138 -1.7539,35.0229 -3.4792,49.1254 l -7.1467,0 -2.0325,0 -7.1467,0 c -1.7253,-14.1025 -3.7219,-29.9874 -3.4792,-49.1254 0.1847,-14.5718 0.3809,-30.0839 0.4964,-45.4185 0.2279,-30.2583 4.2312,-58.4637 11.1457,-79.9691 z"
   inkscape:connector-curvature="0"
   style="fill:#ffffff;stroke:#666666;stroke-width:0.0318" /><path
   id="_107837864"
   class="fil4 str2"
   d="m 103.922,16.0883 c 6.9145,21.5054 10.9178,49.7107 11.1457,79.9691 0.1156,15.3346 0.3117,30.8467 0.4965,45.4185 0.2426,19.138 -1.754,35.0229 -3.4793,49.1254 l -7.1467,0 -2.0325,0 -7.1466,0 c -1.7254,-14.1025 -3.7219,-29.9874 -3.4793,-49.1254 0.1848,-14.5718 0.3809,-30.0839 0.4964,-45.4185 0.2279,-30.2583 4.2312,-58.4637 11.1458,-79.9691 z"
   inkscape:connector-curvature="0"
   style="fill:#ffffff;stroke:#666666;stroke-width:0.0318" /><path
   id="_111911976"
   class="fil0"
   d="m 115.584,144.267 c -0.001,-0.9228 -0.008,-1.8533 -0.0198,-2.7915 -0.1848,-14.5718 -0.3809,-30.0839 -0.4965,-45.4185 C 114.8398,65.7986 110.8365,37.5933 103.922,16.0879 97.0074,37.5933 93.0041,65.7987 92.7762,96.057 c -0.1155,15.3346 -0.3116,30.8467 -0.4964,45.4185 -0.012,0.9497 -0.0186,1.8915 -0.0199,2.8253 l 23.3241,-0.0338 z"
   inkscape:connector-curvature="0"
   style="fill:#663300" /><path
   id="_111916752"
   class="fil2"
   d="m 177.697,190.601 1.0163,0 7.1467,0 c 1.7253,-14.1025 3.7219,-29.9874 3.4792,-49.1254 -0.1847,-14.5718 -0.3809,-30.0839 -0.4964,-45.4185 -0.0214,-2.8507 -0.0765,-5.6831 -0.1642,-8.4934 l -10.9816,-0.0056 0,103.043 z"
   inkscape:connector-curvature="0"
   style="fill:#000000" /><path
   id="_107842784"
   class="fil2"
   d="m 103.97,190.601 1.0162,0 7.1467,0 c 1.6399,-13.4041 3.4779,-28.4185 3.4523,-46.3059 l -11.6152,0.004 0,46.3024 z"
   inkscape:connector-curvature="0"
   style="fill:#000000" /><path
   id="_112705760"
   class="fil2"
   d="m 177.641,87.5584 0,-71.4701 c -6.2626,19.4777 -10.1371,44.4514 -10.9813,71.4686 l 10.9813,0.0015 z"
   inkscape:connector-curvature="0"
   style="fill:#000000" /><circle
   id="_112714640"
   class="fil3 str0"
   cx="248.47301"
   cy="195.20399"
   r="2.3889401"
   style="fill:#990000;stroke:#000000;stroke-width:0.0318" /><circle
   id="_107843264"
   class="fil3 str0"
   cx="30.9669"
   cy="195.20399"
   r="2.3889401"
   style="fill:#990000;stroke:#000000;stroke-width:0.0318" /><circle
   id="_111914664"
   class="fil3 str0"
   cx="177.657"
   cy="195.20399"
   r="2.3889401"
   style="fill:#990000;stroke:#000000;stroke-width:0.0318" /><circle
   id="_107844392"
   class="fil3 str0"
   cx="103.93"
   cy="195.20399"
   r="2.3889401"
   style="fill:#990000;stroke:#000000;stroke-width:0.0318" /><circle
   id="_111240784"
   class="fil3 str0"
   cx="248.47301"
   cy="195.20399"
   r="1.77282"
   style="fill:#990000;stroke:#000000;stroke-width:0.0318" /><circle
   id="_107837288"
   class="fil3 str0"
   cx="30.9669"
   cy="195.20399"
   r="1.77282"
   style="fill:#990000;stroke:#000000;stroke-width:0.0318" /><circle
   id="_111911688"
   class="fil3 str0"
   cx="177.657"
   cy="195.20399"
   r="1.77282"
   style="fill:#990000;stroke:#000000;stroke-width:0.0318" /><circle
   id="_107842376"
   class="fil3 str0"
   cx="103.93"
   cy="195.20399"
   r="1.77282"
   style="fill:#990000;stroke:#000000;stroke-width:0.0318" /><rect
   id="_112715504"
   class="fil5 str0"
   x="236.804"
   y="144.30499"
   width="23.324301"
   height="0.60702598"
   style="fill:#ffffff;stroke:#000000;stroke-width:0.0318" /><rect
   id="_107838752"
   class="fil4 str0"
   x="19.2976"
   y="144.30499"
   width="23.324301"
   height="0.60702598"
   style="fill:#ffffff;stroke:#000000;stroke-width:0.0318" /><rect
   id="_111919488"
   class="fil4 str0"
   x="165.98801"
   y="144.30499"
   width="23.324301"
   height="0.60702598"
   style="fill:#ffffff;stroke:#000000;stroke-width:0.0318" /><polygon
   id="_107844920"
   class="fil4 str1"
   points="92.2603,144.305 115.585,144.292 115.585,144.912 92.2603,144.912 "
   style="fill:#ffffff;stroke:none;stroke-width:0.0318" /><rect
   id="_112715240"
   class="fil2"
   x="236.804"
   y="144.30499"
   width="1.83926"
   height="0.60702598"
   style="fill:#000000" /><rect
   id="_107835776"
   class="fil2"
   x="19.2976"
   y="144.30499"
   width="1.83926"
   height="0.60702598"
   style="fill:#000000" /><rect
   id="_111920976"
   class="fil2"
   x="165.98801"
   y="144.30499"
   width="1.83926"
   height="0.60702598"
   style="fill:#000000" /><rect
   id="_107843072"
   class="fil2"
   x="92.2603"
   y="144.30499"
   width="1.83926"
   height="0.60702598"
   style="fill:#000000" /><rect
   id="_112717352"
   class="fil2"
   x="240.487"
   y="144.30499"
   width="1.83926"
   height="0.60702598"
   style="fill:#000000" /><rect
   id="_107844896"
   class="fil2"
   x="22.9809"
   y="144.30499"
   width="1.83926"
   height="0.60702598"
   style="fill:#000000" /><rect
   id="_111926592"
   class="fil2"
   x="169.67101"
   y="144.30499"
   width="1.83926"
   height="0.60702598"
   style="fill:#000000" /><rect
   id="_107838920"
   class="fil2"
   x="95.943604"
   y="144.30499"
   width="1.83926"
   height="0.60702598"
   style="fill:#000000" /><rect
   id="_112718960"
   class="fil2"
   x="244.17"
   y="144.30499"
   width="1.83926"
   height="0.60702598"
   style="fill:#000000" /><rect
   id="_107848136"
   class="fil2"
   x="26.6642"
   y="144.30499"
   width="1.83926"
   height="0.60702598"
   style="fill:#000000" /><rect
   id="_111917664"
   class="fil2"
   x="173.354"
   y="144.30499"
   width="1.83926"
   height="0.60702598"
   style="fill:#000000" /><rect
   id="_107837648"
   class="fil2"
   x="99.6269"
   y="144.30499"
   width="1.83926"
   height="0.60702598"
   style="fill:#000000" /><rect
   id="_112718432"
   class="fil2"
   x="247.853"
   y="144.30499"
   width="1.83926"
   height="0.60702598"
   style="fill:#000000" /><rect
   id="_107839520"
   class="fil2"
   x="30.347401"
   y="144.30499"
   width="1.83926"
   height="0.60702598"
   style="fill:#000000" /><rect
   id="_111921624"
   class="fil2"
   x="177.037"
   y="144.30499"
   width="1.83926"
   height="0.60702598"
   style="fill:#000000" /><rect
   id="_107846552"
   class="fil2"
   x="103.31"
   y="144.30499"
   width="1.83926"
   height="0.60702598"
   style="fill:#000000" /><rect
   id="_112720016"
   class="fil2"
   x="251.537"
   y="144.30499"
   width="1.83926"
   height="0.60702598"
   style="fill:#000000" /><rect
   id="_107836544"
   class="fil2"
   x="34.030701"
   y="144.30499"
   width="1.83926"
   height="0.60702598"
   style="fill:#000000" /><rect
   id="_111919512"
   class="fil2"
   x="180.72099"
   y="144.30499"
   width="1.83926"
   height="0.60702598"
   style="fill:#000000" /><rect
   id="_107842088"
   class="fil2"
   x="106.993"
   y="144.30499"
   width="1.83926"
   height="0.60702598"
   style="fill:#000000" /><rect
   id="_112716944"
   class="fil2"
   x="255.22"
   y="144.30499"
   width="1.83926"
   height="0.60702598"
   style="fill:#000000" /><rect
   id="_107846600"
   class="fil2"
   x="37.714001"
   y="144.30499"
   width="1.83926"
   height="0.60702598"
   style="fill:#000000" /><rect
   id="_111914304"
   class="fil2"
   x="184.40401"
   y="144.30499"
   width="1.83926"
   height="0.60702598"
   style="fill:#000000" /><rect
   id="_107838368"
   class="fil2"
   x="110.677"
   y="144.30499"
   width="1.83926"
   height="0.60702598"
   style="fill:#000000" /><rect
   id="_112710536"
   class="fil2"
   x="258.90302"
   y="144.30499"
   width="1.2246"
   height="0.60702598"
   style="fill:#000000" /><rect
   id="_107840192"
   class="fil2"
   x="41.397301"
   y="144.30499"
   width="1.2246"
   height="0.60702598"
   style="fill:#000000" /><rect
   id="_111918288"
   class="fil2"
   x="188.08701"
   y="144.30499"
   width="1.2246"
   height="0.60702598"
   style="fill:#000000" /><polygon
   id="_107835656"
   class="fil2"
   points="114.36,144.305 115.585,144.305 115.585,144.912 114.36,144.912 "
   style="fill:#000000" /><line
   id="_112718192"
   class="fil5 str0"
   x1="237.101"
   y1="118.767"
   x2="259.828"
   y2="118.767"
   style="fill:none;stroke:#000000;stroke-width:0.0318" /><line
   id="_107845712"
   class="fil5 str0"
   x1="19.5949"
   y1="118.767"
   x2="42.321499"
   y2="118.767"
   style="fill:none;stroke:#000000;stroke-width:0.0318" /><line
   id="_111920064"
   class="fil5 str1"
   x1="166.285"
   y1="118.767"
   x2="189.011"
   y2="118.767"
   style="fill:none;stroke:#4d4d4d;stroke-width:0.0318" /><line
   id="_107834432"
   class="fil5 str0"
   x1="92.557602"
   y1="118.767"
   x2="115.284"
   y2="118.767"
   style="fill:none;stroke:#000000;stroke-width:0.0318" /><g
   id="g167">
    <polygon
   id="_111924384"
   class="fil6"
   points="259.448,87.5742 237.484,87.5742 237.484,87.5424 259.448,87.5424 "
   style="fill:#000000;fill-rule:nonzero" />
   </g><g
   id="g170">
    <polygon
   class="fil6"
   points="41.9419,87.5742 19.9784,87.5742 19.9784,87.5424 41.9419,87.5424 "
   id="polygon172"
   style="fill:#000000;fill-rule:nonzero" />
   </g><g
   id="g174">
    <polygon
   class="fil7"
   points="188.632,87.5742 166.668,87.5742 166.668,87.5424 188.632,87.5424 "
   id="polygon176"
   style="fill:#4d4d4d;fill-rule:nonzero" />
   </g><g
   id="g178">
    <polygon
   class="fil6"
   points="114.905,87.5742 92.9411,87.5742 92.9411,87.5424 114.905,87.5424 "
   id="polygon180"
   style="fill:#000000;fill-rule:nonzero" />
   </g><g
   id="g182">
    <g
   id="g184">
     <path
   class="fil8 str3"
   d="m 238.018,145.718 2.3658,0 c 0.1516,0 0.2756,0.124 0.2756,0.2756 l 0,3.1437 c 0,0.1516 -0.124,0.2756 -0.2756,0.2756 l -2.3658,0 c -0.1516,0 -0.2756,-0.124 -0.2756,-0.2756 l 0,-3.1437 c 0,-0.1516 0.124,-0.2756 0.2756,-0.2756 z"
   id="path186"
   inkscape:connector-curvature="0"
   style="fill:none;fill-rule:nonzero;stroke:#000000;stroke-width:0.0762" />
    </g>
    <g
   id="g188">
     <path
   class="fil8 str3"
   d="m 243.853,150.191 2.3658,0 c 0.1516,0 0.2756,0.124 0.2756,0.2756 l 0,2.731 c 0,0.1516 -0.124,0.2756 -0.2756,0.2756 l -2.3658,0 c -0.1515,0 -0.2756,-0.124 -0.2756,-0.2756 l 0,-2.731 c 0,-0.1516 0.1241,-0.2756 0.2756,-0.2756 z"
   id="path190"
   inkscape:connector-curvature="0"
   style="fill:none;fill-rule:nonzero;stroke:#000000;stroke-width:0.0762" />
    </g>
    <g
   id="g192">
     <path
   class="fil8 str3"
   d="m 238.393,150.369 2.3948,0 c 0.1437,0 0.2611,0.1174 0.2611,0.2611 l 0,2.2413 c 0,0.1437 -0.1174,0.2611 -0.2611,0.2611 l -2.3948,0 c -0.1437,0 -0.2611,-0.1174 -0.2611,-0.2611 l 0,-2.2413 c 0,-0.1437 0.1174,-0.2611 0.2611,-0.2611 z"
   id="path194"
   inkscape:connector-curvature="0"
   style="fill:none;fill-rule:nonzero;stroke:#000000;stroke-width:0.0762" />
    </g>
    <g
   id="g196">
     <path
   class="fil8 str3"
   d="m 254.889,160.06 2.3657,0 c 0.1516,0 0.2757,0.124 0.2757,0.2756 l 0,3.7519 c 0,0.1516 -0.1241,0.2757 -0.2757,0.2757 l -2.3657,0 c -0.1516,0 -0.2756,-0.1241 -0.2756,-0.2757 l 0,-3.7519 c 0,-0.1516 0.124,-0.2756 0.2756,-0.2756 z"
   id="path198"
   inkscape:connector-curvature="0"
   style="fill:none;fill-rule:nonzero;stroke:#000000;stroke-width:0.0762" />
    </g>
    <g
   id="g200">
     <path
   class="fil6"
   d="m 258.815,152.038 -1.5967,0 0,-0.0318 1.5967,0 0,0 0,0.0318 z m 0.1899,0.1581 -0.0318,0 0,0 -2e-4,-0.008 -6e-4,-0.008 -0.001,-0.008 -10e-4,-0.008 -0.002,-0.008 -0.002,-0.007 -0.002,-0.007 -0.003,-0.007 -0.003,-0.007 -0.004,-0.007 -0.004,-0.007 -0.004,-0.006 -0.004,-0.006 -0.005,-0.006 -0.005,-0.006 -0.005,-0.006 -0.005,-0.005 -0.006,-0.005 -0.006,-0.005 -0.006,-0.005 -0.007,-0.004 -0.007,-0.004 -0.007,-0.004 -0.007,-0.003 -0.007,-0.003 -0.007,-0.002 -0.007,-0.002 -0.008,-0.002 -0.008,-0.001 -0.008,-0.001 -0.008,-6e-4 -0.008,-2e-4 0,-0.0318 0.01,2e-4 0.01,8e-4 0.01,0.001 0.009,0.002 0.009,0.002 0.009,0.003 0.009,0.003 0.009,0.003 0.009,0.004 0.008,0.004 0.008,0.005 0.008,0.005 0.007,0.005 0.007,0.006 0.007,0.006 0.007,0.006 0.006,0.007 0.006,0.007 0.006,0.007 0.005,0.007 0.005,0.008 0.005,0.008 0.004,0.008 0.004,0.008 0.003,0.009 0.003,0.009 0.003,0.009 0.002,0.009 0.002,0.009 0.001,0.009 8e-4,0.01 2e-4,0.01 0,0 z m -0.0318,1.4943 0,-1.4943 0.0318,0 0,1.4943 0,0 -0.0318,0 z m -0.1581,0.1899 0,-0.0318 0,0 0.008,-2e-4 0.008,-6e-4 0.008,-0.001 0.008,-0.001 0.008,-0.002 0.007,-0.002 0.007,-0.002 0.007,-0.003 0.007,-0.003 0.007,-0.004 0.007,-0.004 0.007,-0.004 0.006,-0.004 0.006,-0.005 0.006,-0.005 0.005,-0.005 0.005,-0.005 0.005,-0.006 0.005,-0.006 0.004,-0.006 0.004,-0.006 0.004,-0.007 0.004,-0.007 0.003,-0.007 0.003,-0.007 0.002,-0.007 0.002,-0.007 0.002,-0.008 10e-4,-0.008 10e-4,-0.008 6e-4,-0.008 2e-4,-0.008 0.0318,0 -2e-4,0.01 -8e-4,0.01 -0.001,0.01 -0.002,0.009 -0.002,0.009 -0.003,0.009 -0.003,0.009 -0.003,0.009 -0.004,0.008 -0.004,0.008 -0.005,0.008 -0.005,0.008 -0.005,0.007 -0.006,0.007 -0.006,0.007 -0.006,0.007 -0.007,0.006 -0.007,0.006 -0.007,0.006 -0.007,0.005 -0.008,0.005 -0.008,0.005 -0.008,0.004 -0.009,0.004 -0.009,0.003 -0.009,0.003 -0.009,0.003 -0.009,0.002 -0.009,0.002 -0.01,0.001 -0.01,8e-4 -0.01,2e-4 0,0 z m -1.5967,-0.0318 1.5967,0 0,0.0318 -1.5967,0 0,0 0,-0.0318 z m -0.1899,-0.1581 0.0318,0 0,0 2e-4,0.008 6e-4,0.008 0.001,0.008 10e-4,0.008 0.002,0.008 0.002,0.007 0.003,0.007 0.003,0.007 0.003,0.007 0.004,0.007 0.004,0.007 0.004,0.006 0.004,0.006 0.005,0.006 0.005,0.006 0.005,0.006 0.005,0.005 0.006,0.005 0.006,0.005 0.006,0.004 0.007,0.004 0.007,0.004 0.007,0.004 0.007,0.003 0.007,0.003 0.007,0.002 0.007,0.002 0.008,0.002 0.008,10e-4 0.008,0.001 0.008,6e-4 0.008,2e-4 0,0.0318 -0.01,-2e-4 -0.01,-8e-4 -0.01,-0.001 -0.009,-0.002 -0.009,-0.002 -0.009,-0.003 -0.009,-0.003 -0.009,-0.003 -0.008,-0.004 -0.008,-0.004 -0.008,-0.005 -0.008,-0.005 -0.007,-0.005 -0.007,-0.006 -0.007,-0.006 -0.007,-0.006 -0.006,-0.007 -0.006,-0.007 -0.006,-0.007 -0.005,-0.007 -0.005,-0.008 -0.005,-0.008 -0.004,-0.008 -0.004,-0.008 -0.003,-0.009 -0.003,-0.009 -0.002,-0.009 -0.002,-0.009 -0.002,-0.009 -0.001,-0.01 -8e-4,-0.01 -2e-4,-0.01 0,0 z m 0.0318,-1.4943 0,1.4943 -0.0318,0 0,-1.4943 0,0 0.0318,0 z m 0.1581,-0.1899 0,0.0318 0,0 -0.008,2e-4 -0.008,6e-4 -0.008,0.001 -0.008,10e-4 -0.008,0.002 -0.007,0.002 -0.007,0.002 -0.007,0.003 -0.007,0.003 -0.007,0.004 -0.007,0.004 -0.007,0.004 -0.006,0.005 -0.006,0.005 -0.006,0.005 -0.005,0.005 -0.005,0.006 -0.005,0.006 -0.005,0.006 -0.004,0.006 -0.004,0.006 -0.004,0.007 -0.004,0.007 -0.003,0.007 -0.003,0.007 -0.003,0.007 -0.002,0.007 -0.002,0.008 -10e-4,0.008 -0.001,0.008 -6e-4,0.008 -2e-4,0.008 -0.0318,0 2e-4,-0.01 8e-4,-0.01 10e-4,-0.009 0.002,-0.009 0.002,-0.009 0.002,-0.009 0.003,-0.009 0.003,-0.009 0.004,-0.008 0.004,-0.008 0.005,-0.008 0.005,-0.008 0.005,-0.007 0.006,-0.007 0.006,-0.007 0.006,-0.007 0.007,-0.006 0.007,-0.006 0.007,-0.006 0.007,-0.005 0.008,-0.005 0.008,-0.005 0.008,-0.004 0.008,-0.004 0.009,-0.003 0.009,-0.003 0.009,-0.003 0.009,-0.002 0.009,-0.002 0.01,-0.001 0.01,-8e-4 0.01,-2e-4 0,0 z"
   id="path202"
   inkscape:connector-curvature="0"
   style="fill:#000000;fill-rule:nonzero" />
    </g>
    <circle
   class="fil2 str0"
   cx="245.084"
   cy="159.356"
   r="0.680682"
   id="circle204"
   style="fill:#000000;stroke:#000000;stroke-width:0.0318" />
   </g><g
   id="g206">
    <g
   id="g208">
     <path
   class="fil8 str3"
   d="m 20.5125,145.718 2.3657,0 c 0.1516,0 0.2757,0.124 0.2757,0.2756 l 0,3.1437 c 0,0.1516 -0.1241,0.2756 -0.2757,0.2756 l -2.3657,0 c -0.1516,0 -0.2756,-0.124 -0.2756,-0.2756 l 0,-3.1437 c 0,-0.1516 0.124,-0.2756 0.2756,-0.2756 z"
   id="path210"
   inkscape:connector-curvature="0"
   style="fill:none;fill-rule:nonzero;stroke:#000000;stroke-width:0.0762" />
    </g>
    <g
   id="g212">
     <path
   class="fil8 str3"
   d="m 26.3466,150.191 2.3658,0 c 0.1516,0 0.2756,0.124 0.2756,0.2756 l 0,2.731 c 0,0.1516 -0.124,0.2756 -0.2756,0.2756 l -2.3658,0 c -0.1516,0 -0.2756,-0.124 -0.2756,-0.2756 l 0,-2.731 c 0,-0.1516 0.124,-0.2756 0.2756,-0.2756 z"
   id="path214"
   inkscape:connector-curvature="0"
   style="fill:none;fill-rule:nonzero;stroke:#000000;stroke-width:0.0762" />
    </g>
    <g
   id="g216">
     <path
   class="fil8 str3"
   d="m 20.8869,150.369 2.3947,0 c 0.1437,0 0.2611,0.1174 0.2611,0.2611 l 0,2.2413 c 0,0.1437 -0.1174,0.2611 -0.2611,0.2611 l -2.3947,0 c -0.1437,0 -0.2611,-0.1174 -0.2611,-0.2611 l 0,-2.2413 c 0,-0.1437 0.1174,-0.2611 0.2611,-0.2611 z"
   id="path218"
   inkscape:connector-curvature="0"
   style="fill:none;fill-rule:nonzero;stroke:#000000;stroke-width:0.0762" />
    </g>
    <g
   id="g220">
     <path
   class="fil8 str3"
   d="m 37.3828,160.06 2.3657,0 c 0.1516,0 0.2756,0.124 0.2756,0.2756 l 0,3.7519 c 0,0.1516 -0.124,0.2757 -0.2756,0.2757 l -2.3657,0 c -0.1516,0 -0.2757,-0.1241 -0.2757,-0.2757 l 0,-3.7519 c 0,-0.1516 0.1241,-0.2756 0.2757,-0.2756 z"
   id="path222"
   inkscape:connector-curvature="0"
   style="fill:none;fill-rule:nonzero;stroke:#000000;stroke-width:0.0762" />
    </g>
    <g
   id="g224">
     <path
   class="fil6"
   d="m 41.3086,152.038 -1.5967,0 0,-0.0318 1.5967,0 0,0 0,0.0318 z m 0.19,0.1581 -0.0318,0 0,0 -2e-4,-0.008 -6e-4,-0.008 -10e-4,-0.008 -0.0015,-0.008 -0.0017,-0.008 -0.0022,-0.007 -0.0025,-0.007 -0.0028,-0.007 -0.0031,-0.007 -0.0036,-0.007 -0.0038,-0.007 -0.0042,-0.006 -0.0044,-0.006 -0.0047,-0.006 -0.005,-0.006 -0.0053,-0.006 -0.0054,-0.005 -0.0057,-0.005 -0.0061,-0.005 -0.0062,-0.005 -0.0064,-0.004 -0.0067,-0.004 -0.0068,-0.004 -0.0069,-0.003 -0.0071,-0.003 -0.0075,-0.002 -0.0074,-0.002 -0.0076,-0.002 -0.0079,-0.001 -0.0078,-0.001 -0.008,-6e-4 -0.0081,-2e-4 0,-0.0318 0.0097,2e-4 0.0096,8e-4 0.0096,0.001 0.0093,0.002 0.0092,0.002 0.009,0.003 0.0087,0.003 0.0087,0.003 0.0085,0.004 0.0082,0.004 0.0079,0.005 0.0076,0.005 0.0076,0.005 0.0071,0.006 0.0069,0.006 0.0066,0.006 0.0063,0.007 0.006,0.007 0.0057,0.007 0.0052,0.007 0.005,0.008 0.0046,0.008 0.0042,0.008 0.0039,0.008 0.0034,0.009 0.0029,0.009 0.0026,0.009 0.0021,0.009 0.0017,0.009 0.0012,0.009 8e-4,0.01 2e-4,0.01 0,0 z m -0.0318,1.4943 0,-1.4943 0.0318,0 0,1.4943 0,0 -0.0318,0 z m -0.1582,0.1899 0,-0.0318 0,0 0.0081,-2e-4 0.008,-6e-4 0.0078,-0.001 0.0079,-0.001 0.0076,-0.002 0.0074,-0.002 0.0075,-0.002 0.0071,-0.003 0.0069,-0.003 0.0068,-0.004 0.0067,-0.004 0.0064,-0.004 0.0062,-0.004 0.0061,-0.005 0.0057,-0.005 0.0054,-0.005 0.0053,-0.006 0.005,-0.006 0.0047,-0.006 0.0044,-0.006 0.0042,-0.007 0.0038,-0.007 0.0036,-0.007 0.0031,-0.007 0.0028,-0.007 0.0025,-0.007 0.0022,-0.007 0.0017,-0.008 0.0015,-0.008 10e-4,-0.008 6e-4,-0.008 2e-4,-0.008 0.0318,0 -2e-4,0.01 -8e-4,0.01 -0.0012,0.01 -0.0017,0.009 -0.0021,0.009 -0.0026,0.009 -0.0029,0.009 -0.0034,0.009 -0.0039,0.008 -0.0042,0.008 -0.0046,0.008 -0.005,0.008 -0.0052,0.007 -0.0057,0.007 -0.006,0.007 -0.0063,0.007 -0.0066,0.006 -0.0069,0.006 -0.0071,0.006 -0.0076,0.005 -0.0076,0.005 -0.0079,0.005 -0.0082,0.004 -0.0085,0.004 -0.0087,0.003 -0.0087,0.003 -0.009,0.003 -0.0092,0.002 -0.0093,0.002 -0.0096,0.001 -0.0096,8e-4 -0.0097,2e-4 0,0 z m -1.5967,-0.0318 1.5967,0 0,0.0318 -1.5967,0 0,0 0,-0.0318 z m -0.1899,-0.1581 0.0318,0 0,0 2e-4,0.008 6e-4,0.008 10e-4,0.008 0.0015,0.008 0.0017,0.008 0.0022,0.007 0.0025,0.007 0.0028,0.007 0.0031,0.007 0.0036,0.007 0.0038,0.007 0.0041,0.006 0.0044,0.006 0.0048,0.006 0.0049,0.006 0.0053,0.005 0.0055,0.005 0.0057,0.005 0.0061,0.005 0.0061,0.004 0.0065,0.004 0.0066,0.004 0.0068,0.004 0.0069,0.003 0.0071,0.003 0.0075,0.002 0.0074,0.002 0.0076,0.002 0.0079,0.001 0.0078,10e-4 0.008,6e-4 0.0081,2e-4 0,0.0318 -0.0097,-2e-4 -0.0096,-8e-4 -0.0096,-10e-4 -0.0093,-0.002 -0.0092,-0.002 -0.009,-0.003 -0.0087,-0.003 -0.0087,-0.003 -0.0085,-0.004 -0.0082,-0.004 -0.0078,-0.005 -0.0077,-0.005 -0.0075,-0.005 -0.0071,-0.006 -0.0069,-0.006 -0.0067,-0.006 -0.0063,-0.007 -0.0059,-0.007 -0.0056,-0.007 -0.0054,-0.007 -0.0049,-0.008 -0.0046,-0.008 -0.0042,-0.008 -0.0039,-0.008 -0.0034,-0.009 -0.0029,-0.009 -0.0026,-0.009 -0.0021,-0.009 -0.0017,-0.009 -0.0012,-0.01 -8e-4,-0.01 -2e-4,-0.01 0,0 z m 0.0318,-1.4943 0,1.4943 -0.0318,0 0,-1.4943 0,0 0.0318,0 z m 0.1581,-0.1899 0,0.0318 0,0 -0.0081,2e-4 -0.008,6e-4 -0.0078,0.001 -0.0079,10e-4 -0.0076,0.002 -0.0074,0.002 -0.0075,0.002 -0.0071,0.003 -0.0069,0.003 -0.0068,0.004 -0.0066,0.004 -0.0065,0.004 -0.0061,0.005 -0.0061,0.005 -0.0057,0.005 -0.0055,0.005 -0.0053,0.006 -0.0049,0.006 -0.0048,0.006 -0.0044,0.006 -0.0041,0.006 -0.0038,0.007 -0.0036,0.007 -0.0031,0.007 -0.0028,0.007 -0.0025,0.007 -0.0022,0.007 -0.0017,0.008 -0.0015,0.008 -10e-4,0.008 -6e-4,0.008 -2e-4,0.008 -0.0318,0 2e-4,-0.01 8e-4,-0.01 0.0012,-0.009 0.0017,-0.009 0.0021,-0.009 0.0026,-0.009 0.0029,-0.009 0.0034,-0.009 0.0039,-0.008 0.0042,-0.008 0.0046,-0.008 0.0049,-0.008 0.0054,-0.007 0.0056,-0.007 0.0059,-0.007 0.0063,-0.007 0.0067,-0.006 0.0069,-0.006 0.0071,-0.006 0.0075,-0.005 0.0077,-0.005 0.0078,-0.005 0.0082,-0.004 0.0085,-0.004 0.0087,-0.003 0.0087,-0.003 0.009,-0.003 0.0092,-0.002 0.0093,-0.002 0.0096,-0.001 0.0096,-8e-4 0.0097,-2e-4 0,0 z"
   id="path226"
   inkscape:connector-curvature="0"
   style="fill:#000000;fill-rule:nonzero" />
    </g>
    <circle
   class="fil2 str0"
   cx="27.5783"
   cy="159.356"
   r="0.680682"
   id="circle228"
   style="fill:#000000;stroke:#000000;stroke-width:0.0318" />
   </g><g
   id="g230">
    <g
   id="g232">
     <path
   class="fil8 str4"
   d="m 167.202,145.718 2.3658,0 c 0.1516,0 0.2756,0.124 0.2756,0.2756 l 0,3.1437 c 0,0.1516 -0.124,0.2756 -0.2756,0.2756 l -2.3658,0 c -0.1515,0 -0.2756,-0.124 -0.2756,-0.2756 l 0,-3.1437 c 0,-0.1516 0.1241,-0.2756 0.2756,-0.2756 z"
   id="path234"
   inkscape:connector-curvature="0"
   style="fill:none;fill-rule:nonzero;stroke:#666666;stroke-width:0.0762" />
    </g>
    <g
   id="g236">
     <path
   class="fil8 str4"
   d="m 173.037,150.191 2.3657,0 c 0.1516,0 0.2756,0.124 0.2756,0.2756 l 0,2.731 c 0,0.1516 -0.124,0.2756 -0.2756,0.2756 l -2.3657,0 c -0.1516,0 -0.2756,-0.124 -0.2756,-0.2756 l 0,-2.731 c 0,-0.1516 0.124,-0.2756 0.2756,-0.2756 z"
   id="path238"
   inkscape:connector-curvature="0"
   style="fill:none;fill-rule:nonzero;stroke:#666666;stroke-width:0.0762" />
    </g>
    <g
   id="g240">
     <path
   class="fil8 str4"
   d="m 167.577,150.369 2.3948,0 c 0.1437,0 0.2611,0.1174 0.2611,0.2611 l 0,2.2413 c 0,0.1437 -0.1174,0.2611 -0.2611,0.2611 l -2.3948,0 c -0.1437,0 -0.2611,-0.1174 -0.2611,-0.2611 l 0,-2.2413 c 0,-0.1437 0.1174,-0.2611 0.2611,-0.2611 z"
   id="path242"
   inkscape:connector-curvature="0"
   style="fill:none;fill-rule:nonzero;stroke:#666666;stroke-width:0.0762" />
    </g>
    <g
   id="g244">
     <path
   class="fil8 str4"
   d="m 184.073,160.06 2.3658,0 c 0.1516,0 0.2756,0.124 0.2756,0.2756 l 0,3.7519 c 0,0.1516 -0.124,0.2757 -0.2756,0.2757 l -2.3658,0 c -0.1516,0 -0.2756,-0.1241 -0.2756,-0.2757 l 0,-3.7519 c 0,-0.1516 0.124,-0.2756 0.2756,-0.2756 z"
   id="path246"
   inkscape:connector-curvature="0"
   style="fill:none;fill-rule:nonzero;stroke:#666666;stroke-width:0.0762" />
    </g>
    <g
   id="g248">
     <path
   class="fil9"
   d="m 187.999,152.038 -1.5967,0 0,-0.0318 1.5967,0 0,0 0,0.0318 z m 0.1899,0.1581 -0.0318,0 0,0 -2e-4,-0.008 -6e-4,-0.008 -10e-4,-0.008 -0.002,-0.008 -0.002,-0.008 -0.002,-0.007 -0.002,-0.007 -0.003,-0.007 -0.003,-0.007 -0.004,-0.007 -0.004,-0.007 -0.004,-0.006 -0.004,-0.006 -0.005,-0.006 -0.005,-0.006 -0.005,-0.006 -0.006,-0.005 -0.006,-0.005 -0.006,-0.005 -0.006,-0.005 -0.006,-0.004 -0.007,-0.004 -0.007,-0.004 -0.007,-0.003 -0.007,-0.003 -0.007,-0.002 -0.007,-0.002 -0.008,-0.002 -0.008,-0.001 -0.008,-0.001 -0.008,-6e-4 -0.008,-2e-4 0,-0.0318 0.01,2e-4 0.01,8e-4 0.01,0.001 0.009,0.002 0.009,0.002 0.009,0.003 0.009,0.003 0.009,0.003 0.008,0.004 0.008,0.004 0.008,0.005 0.008,0.005 0.008,0.005 0.007,0.006 0.007,0.006 0.007,0.006 0.006,0.007 0.006,0.007 0.006,0.007 0.005,0.007 0.005,0.008 0.005,0.008 0.004,0.008 0.004,0.008 0.003,0.009 0.003,0.009 0.003,0.009 0.002,0.009 0.002,0.009 0.001,0.009 8e-4,0.01 2e-4,0.01 0,0 z m -0.0318,1.4943 0,-1.4943 0.0318,0 0,1.4943 0,0 -0.0318,0 z m -0.1581,0.1899 0,-0.0318 0,0 0.008,-2e-4 0.008,-6e-4 0.008,-0.001 0.008,-0.001 0.008,-0.002 0.007,-0.002 0.007,-0.002 0.007,-0.003 0.007,-0.003 0.007,-0.004 0.007,-0.004 0.006,-0.004 0.006,-0.004 0.006,-0.005 0.006,-0.005 0.006,-0.005 0.005,-0.005 0.005,-0.006 0.005,-0.006 0.004,-0.006 0.004,-0.006 0.004,-0.007 0.004,-0.007 0.003,-0.007 0.003,-0.007 0.002,-0.007 0.002,-0.007 0.002,-0.008 0.002,-0.008 0.001,-0.008 6e-4,-0.008 2e-4,-0.008 0.0318,0 -2e-4,0.01 -8e-4,0.01 -0.001,0.01 -0.002,0.009 -0.002,0.009 -0.003,0.009 -0.003,0.009 -0.003,0.009 -0.004,0.008 -0.004,0.008 -0.005,0.008 -0.005,0.008 -0.005,0.007 -0.006,0.007 -0.006,0.007 -0.006,0.007 -0.007,0.006 -0.007,0.006 -0.007,0.006 -0.008,0.005 -0.008,0.005 -0.008,0.005 -0.008,0.004 -0.008,0.004 -0.009,0.003 -0.009,0.003 -0.009,0.003 -0.009,0.002 -0.009,0.002 -0.01,0.001 -0.01,8e-4 -0.01,2e-4 0,0 z m -1.5967,-0.0318 1.5967,0 0,0.0318 -1.5967,0 0,0 0,-0.0318 z m -0.1899,-0.1581 0.0318,0 0,0 2e-4,0.008 6e-4,0.008 0.001,0.008 0.001,0.008 0.002,0.008 0.002,0.007 0.002,0.007 0.003,0.007 0.003,0.007 0.004,0.007 0.004,0.007 0.004,0.006 0.004,0.006 0.005,0.006 0.005,0.006 0.005,0.005 0.006,0.005 0.006,0.005 0.006,0.005 0.006,0.004 0.007,0.004 0.007,0.004 0.007,0.004 0.007,0.003 0.007,0.003 0.007,0.002 0.007,0.002 0.008,0.002 0.008,0.001 0.008,10e-4 0.008,6e-4 0.008,2e-4 0,0.0318 -0.01,-2e-4 -0.01,-8e-4 -0.01,-10e-4 -0.009,-0.002 -0.009,-0.002 -0.009,-0.003 -0.009,-0.003 -0.009,-0.003 -0.008,-0.004 -0.008,-0.004 -0.008,-0.005 -0.008,-0.005 -0.007,-0.005 -0.007,-0.006 -0.007,-0.006 -0.007,-0.006 -0.006,-0.007 -0.006,-0.007 -0.006,-0.007 -0.005,-0.007 -0.005,-0.008 -0.005,-0.008 -0.004,-0.008 -0.004,-0.008 -0.003,-0.009 -0.003,-0.009 -0.003,-0.009 -0.002,-0.009 -0.002,-0.009 -0.001,-0.01 -8e-4,-0.01 -2e-4,-0.01 0,0 z m 0.0318,-1.4943 0,1.4943 -0.0318,0 0,-1.4943 0,0 0.0318,0 z m 0.1581,-0.1899 0,0.0318 0,0 -0.008,2e-4 -0.008,6e-4 -0.008,0.001 -0.008,10e-4 -0.008,0.002 -0.007,0.002 -0.007,0.002 -0.007,0.003 -0.007,0.003 -0.007,0.004 -0.007,0.004 -0.007,0.004 -0.006,0.005 -0.006,0.005 -0.006,0.005 -0.006,0.005 -0.005,0.006 -0.005,0.006 -0.005,0.006 -0.004,0.006 -0.004,0.006 -0.004,0.007 -0.004,0.007 -0.003,0.007 -0.003,0.007 -0.002,0.007 -0.002,0.007 -0.002,0.008 -0.001,0.008 -10e-4,0.008 -6e-4,0.008 -2e-4,0.008 -0.0318,0 2e-4,-0.01 8e-4,-0.01 10e-4,-0.009 0.002,-0.009 0.002,-0.009 0.003,-0.009 0.003,-0.009 0.003,-0.009 0.004,-0.008 0.004,-0.008 0.005,-0.008 0.005,-0.008 0.005,-0.007 0.006,-0.007 0.006,-0.007 0.006,-0.007 0.007,-0.006 0.007,-0.006 0.007,-0.006 0.007,-0.005 0.008,-0.005 0.008,-0.005 0.008,-0.004 0.008,-0.004 0.009,-0.003 0.009,-0.003 0.009,-0.003 0.009,-0.002 0.009,-0.002 0.01,-0.001 0.01,-8e-4 0.01,-2e-4 0,0 z"
   id="path250"
   inkscape:connector-curvature="0"
   style="fill:#666666;fill-rule:nonzero" />
    </g>
    <circle
   class="fil2 str2"
   cx="174.26801"
   cy="159.356"
   r="0.680682"
   id="circle252"
   style="fill:#000000;stroke:#666666;stroke-width:0.0318" />
   </g><g
   id="g254">
    <g
   id="g256">
     <path
   class="fil8 str4"
   d="m 93.4752,145.718 2.3657,0 c 0.1516,0 0.2757,0.124 0.2757,0.2756 l 0,3.1437 c 0,0.1516 -0.1241,0.2756 -0.2757,0.2756 l -2.3657,0 c -0.1516,0 -0.2756,-0.124 -0.2756,-0.2756 l 0,-3.1437 c 0,-0.1516 0.124,-0.2756 0.2756,-0.2756 z"
   id="path258"
   inkscape:connector-curvature="0"
   style="fill:none;fill-rule:nonzero;stroke:#666666;stroke-width:0.0762" />
    </g>
    <g
   id="g260">
     <path
   class="fil8 str4"
   d="m 99.3093,150.191 2.3658,0 c 0.1516,0 0.2756,0.124 0.2756,0.2756 l 0,2.731 c 0,0.1516 -0.124,0.2756 -0.2756,0.2756 l -2.3658,0 c -0.1516,0 -0.2756,-0.124 -0.2756,-0.2756 l 0,-2.731 c 0,-0.1516 0.124,-0.2756 0.2756,-0.2756 z"
   id="path262"
   inkscape:connector-curvature="0"
   style="fill:none;fill-rule:nonzero;stroke:#666666;stroke-width:0.0762" />
    </g>
    <g
   id="g264">
     <path
   class="fil8 str4"
   d="m 93.8496,150.369 2.3947,0 c 0.1437,0 0.2612,0.1174 0.2612,0.2611 l 0,2.2413 c 0,0.1437 -0.1175,0.2611 -0.2612,0.2611 l -2.3947,0 c -0.1437,0 -0.2611,-0.1174 -0.2611,-0.2611 l 0,-2.2413 c 0,-0.1437 0.1174,-0.2611 0.2611,-0.2611 z"
   id="path266"
   inkscape:connector-curvature="0"
   style="fill:none;fill-rule:nonzero;stroke:#666666;stroke-width:0.0762" />
    </g>
    <g
   id="g268">
     <path
   class="fil8 str4"
   d="m 110.345,160.06 2.3657,0 c 0.1516,0 0.2756,0.124 0.2756,0.2756 l 0,3.7519 c 0,0.1516 -0.124,0.2757 -0.2756,0.2757 l -2.3657,0 c -0.1516,0 -0.2757,-0.1241 -0.2757,-0.2757 l 0,-3.7519 c 0,-0.1516 0.1241,-0.2756 0.2757,-0.2756 z"
   id="path270"
   inkscape:connector-curvature="0"
   style="fill:none;fill-rule:nonzero;stroke:#666666;stroke-width:0.0762" />
    </g>
    <g
   id="g272">
     <path
   class="fil9"
   d="m 114.271,152.038 -1.5967,0 0,-0.0318 1.5967,0 0,0 0,0.0318 z m 0.19,0.1581 -0.0318,0 0,0 -2e-4,-0.008 -6e-4,-0.008 -10e-4,-0.008 -0.002,-0.008 -0.002,-0.008 -0.002,-0.007 -0.002,-0.007 -0.003,-0.007 -0.003,-0.007 -0.004,-0.007 -0.004,-0.007 -0.004,-0.006 -0.004,-0.006 -0.005,-0.006 -0.005,-0.006 -0.005,-0.006 -0.005,-0.005 -0.006,-0.005 -0.006,-0.005 -0.006,-0.005 -0.006,-0.004 -0.007,-0.004 -0.007,-0.004 -0.007,-0.003 -0.007,-0.003 -0.007,-0.002 -0.007,-0.002 -0.008,-0.002 -0.008,-0.001 -0.008,-0.001 -0.008,-6e-4 -0.008,-2e-4 0,-0.0318 0.01,2e-4 0.01,8e-4 0.01,0.001 0.009,0.002 0.009,0.002 0.009,0.003 0.009,0.003 0.009,0.003 0.008,0.004 0.008,0.004 0.008,0.005 0.008,0.005 0.008,0.005 0.007,0.006 0.007,0.006 0.007,0.006 0.006,0.007 0.006,0.007 0.006,0.007 0.005,0.007 0.005,0.008 0.005,0.008 0.004,0.008 0.004,0.008 0.003,0.009 0.003,0.009 0.003,0.009 0.002,0.009 0.002,0.009 0.001,0.009 8e-4,0.01 2e-4,0.01 0,0 z m -0.0318,1.4943 0,-1.4943 0.0318,0 0,1.4943 0,0 -0.0318,0 z m -0.1582,0.1899 0,-0.0318 0,0 0.008,-2e-4 0.008,-6e-4 0.008,-0.001 0.008,-0.001 0.008,-0.002 0.007,-0.002 0.007,-0.002 0.007,-0.003 0.007,-0.003 0.007,-0.004 0.007,-0.004 0.006,-0.004 0.006,-0.004 0.006,-0.005 0.006,-0.005 0.005,-0.005 0.005,-0.006 0.005,-0.006 0.005,-0.006 0.004,-0.006 0.004,-0.007 0.004,-0.007 0.004,-0.007 0.003,-0.007 0.003,-0.007 0.002,-0.007 0.002,-0.007 0.002,-0.008 0.002,-0.008 10e-4,-0.008 6e-4,-0.008 2e-4,-0.008 0.0318,0 -2e-4,0.01 -8e-4,0.01 -10e-4,0.01 -0.002,0.009 -0.002,0.009 -0.003,0.009 -0.003,0.009 -0.003,0.009 -0.004,0.008 -0.004,0.008 -0.005,0.008 -0.005,0.008 -0.005,0.007 -0.006,0.007 -0.006,0.007 -0.006,0.007 -0.007,0.006 -0.007,0.006 -0.007,0.006 -0.008,0.005 -0.008,0.005 -0.008,0.005 -0.008,0.004 -0.008,0.004 -0.009,0.003 -0.009,0.003 -0.009,0.003 -0.009,0.002 -0.009,0.002 -0.01,0.001 -0.01,8e-4 -0.01,2e-4 0,0 z m -1.5967,-0.0318 1.5967,0 0,0.0318 -1.5967,0 0,0 0,-0.0318 z m -0.1899,-0.1581 0.0318,0 0,0 2e-4,0.008 6e-4,0.008 0.001,0.008 0.001,0.008 0.002,0.008 0.002,0.007 0.002,0.007 0.003,0.007 0.003,0.007 0.004,0.007 0.004,0.007 0.004,0.006 0.004,0.006 0.005,0.006 0.005,0.006 0.005,0.005 0.005,0.005 0.006,0.005 0.006,0.005 0.006,0.004 0.007,0.004 0.007,0.004 0.007,0.004 0.007,0.003 0.007,0.003 0.007,0.002 0.007,0.002 0.008,0.002 0.008,0.001 0.008,10e-4 0.008,6e-4 0.008,2e-4 0,0.0318 -0.01,-2e-4 -0.01,-8e-4 -0.01,-10e-4 -0.009,-0.002 -0.009,-0.002 -0.009,-0.003 -0.009,-0.003 -0.009,-0.003 -0.008,-0.004 -0.008,-0.004 -0.008,-0.005 -0.008,-0.005 -0.007,-0.005 -0.007,-0.006 -0.007,-0.006 -0.007,-0.006 -0.006,-0.007 -0.006,-0.007 -0.006,-0.007 -0.005,-0.007 -0.005,-0.008 -0.005,-0.008 -0.004,-0.008 -0.004,-0.008 -0.003,-0.009 -0.003,-0.009 -0.003,-0.009 -0.002,-0.009 -0.002,-0.009 -0.001,-0.01 -8e-4,-0.01 -2e-4,-0.01 0,0 z m 0.0318,-1.4943 0,1.4943 -0.0318,0 0,-1.4943 0,0 0.0318,0 z m 0.1581,-0.1899 0,0.0318 0,0 -0.008,2e-4 -0.008,6e-4 -0.008,0.001 -0.008,10e-4 -0.008,0.002 -0.007,0.002 -0.007,0.002 -0.007,0.003 -0.007,0.003 -0.007,0.004 -0.007,0.004 -0.007,0.004 -0.006,0.005 -0.006,0.005 -0.006,0.005 -0.005,0.005 -0.005,0.006 -0.005,0.006 -0.005,0.006 -0.004,0.006 -0.004,0.006 -0.004,0.007 -0.004,0.007 -0.003,0.007 -0.003,0.007 -0.002,0.007 -0.002,0.007 -0.002,0.008 -0.001,0.008 -10e-4,0.008 -6e-4,0.008 -2e-4,0.008 -0.0318,0 2e-4,-0.01 8e-4,-0.01 0.001,-0.009 0.002,-0.009 0.002,-0.009 0.003,-0.009 0.003,-0.009 0.003,-0.009 0.004,-0.008 0.004,-0.008 0.005,-0.008 0.005,-0.008 0.005,-0.007 0.006,-0.007 0.006,-0.007 0.006,-0.007 0.007,-0.006 0.007,-0.006 0.007,-0.006 0.007,-0.005 0.008,-0.005 0.008,-0.005 0.008,-0.004 0.008,-0.004 0.009,-0.003 0.009,-0.003 0.009,-0.003 0.009,-0.002 0.009,-0.002 0.01,-0.001 0.01,-8e-4 0.01,-2e-4 0,0 z"
   id="path274"
   inkscape:connector-curvature="0"
   style="fill:#666666;fill-rule:nonzero" />
    </g>
    <circle
   class="fil2 str2"
   cx="100.541"
   cy="159.356"
   r="0.680682"
   id="circle276"
   style="fill:#000000;stroke:#666666;stroke-width:0.0318" />
   </g><g
   id="g278">
    <line
   class="fil8 str3"
   x1="238.897"
   y1="178.77699"
   x2="258.034"
   y2="178.77699"
   id="line280"
   style="fill:none;fill-rule:nonzero;stroke:#000000;stroke-width:0.0762" />
   </g><g
   id="g282">
    <line
   class="fil8 str3"
   x1="21.391199"
   y1="178.77699"
   x2="40.528099"
   y2="178.77699"
   id="line284"
   style="fill:none;fill-rule:nonzero;stroke:#000000;stroke-width:0.0762" />
   </g><g
   id="g286">
    <line
   class="fil8 str5"
   x1="168.08099"
   y1="178.77699"
   x2="187.218"
   y2="178.77699"
   id="line288"
   style="fill:none;fill-rule:nonzero;stroke:#4d4d4d;stroke-width:0.0762" />
   </g><g
   id="g290">
    <line
   class="fil8 str5"
   x1="94.353897"
   y1="178.77699"
   x2="113.491"
   y2="178.77699"
   id="line292"
   style="fill:none;fill-rule:nonzero;stroke:#4d4d4d;stroke-width:0.0762" />
   </g><g
   id="g294">
    <line
   class="fil8 str3"
   x1="239.62"
   y1="184.98801"
   x2="257.31699"
   y2="184.98801"
   id="line296"
   style="fill:none;fill-rule:nonzero;stroke:#000000;stroke-width:0.0762" />
   </g><g
   id="g298">
    <line
   class="fil8 str3"
   x1="22.1145"
   y1="184.98801"
   x2="39.8116"
   y2="184.98801"
   id="line300"
   style="fill:none;fill-rule:nonzero;stroke:#000000;stroke-width:0.0762" />
   </g><g
   id="g302">
    <line
   class="fil8 str5"
   x1="168.804"
   y1="184.98801"
   x2="186.50101"
   y2="184.98801"
   id="line304"
   style="fill:none;fill-rule:nonzero;stroke:#4d4d4d;stroke-width:0.0762" />
   </g><g
   id="g306">
    <line
   class="fil8 str5"
   x1="95.077103"
   y1="184.98801"
   x2="112.774"
   y2="184.98801"
   id="line308"
   style="fill:none;fill-rule:nonzero;stroke:#4d4d4d;stroke-width:0.0762" />
   </g><rect
   class="fil5 str0"
   x="241.464"
   y="188.444"
   width="2.1538999"
   height="1.85334"
   rx="0.3786"
   ry="0.3786"
   id="rect310"
   style="fill:none;stroke:#000000;stroke-width:0.0318" /><rect
   class="fil5 str0"
   x="23.958"
   y="188.444"
   width="2.1538999"
   height="1.85334"
   rx="0.3786"
   ry="0.3786"
   id="rect312"
   style="fill:none;stroke:#000000;stroke-width:0.0318" /><rect
   class="fil5 str0"
   x="170.64799"
   y="188.444"
   width="2.1538999"
   height="1.85334"
   rx="0.3786"
   ry="0.3786"
   id="rect314"
   style="fill:none;stroke:#000000;stroke-width:0.0318" /><rect
   class="fil5 str0"
   x="96.9207"
   y="188.444"
   width="2.1538999"
   height="1.85334"
   rx="0.3786"
   ry="0.3786"
   id="rect316"
   style="fill:none;stroke:#000000;stroke-width:0.0318" /><g
   id="g318">
    <path
   class="fil0"
   d="m 247.209,199.812 2.5137,0 c 0.3315,-17.5966 0.1332,-35.1397 -1.2568,-52.7897 -1.5665,17.5967 -1.5883,35.0862 -1.2569,52.7897 z"
   id="path320"
   inkscape:connector-curvature="0"
   style="fill:#663300" />
    <path
   id="1"
   class="fil8 str3"
   d="m 247.209,199.812 2.5137,0 c 0.3315,-17.5966 0.1332,-35.1397 -1.2568,-52.7897 -1.5665,17.5967 -1.5883,35.0862 -1.2569,52.7897 z"
   inkscape:connector-curvature="0"
   style="fill:none;fill-rule:nonzero;stroke:#000000;stroke-width:0.0762" />
   </g><g
   id="g323">
    <path
   class="fil1"
   d="m 29.7027,199.812 2.5139,0 c 0.3314,-17.5966 0.1331,-35.1397 -1.2569,-52.7897 -1.5666,17.5967 -1.5883,35.0862 -1.257,52.7897 z"
   id="path325"
   inkscape:connector-curvature="0"
   style="fill:#a7923f" />
    <path
   id="path327"
   class="fil8 str3"
   d="m 29.7027,199.812 2.5139,0 c 0.3314,-17.5966 0.1331,-35.1397 -1.2569,-52.7897 -1.5666,17.5967 -1.5883,35.0862 -1.257,52.7897 z"
   inkscape:connector-curvature="0"
   style="fill:none;fill-rule:nonzero;stroke:#000000;stroke-width:0.0762" />
   </g><path
   class="fil0"
   d="m 32.324,179.336 c 0.0697,6.8234 0.0209,13.6454 -0.1077,20.4754 l -2.5139,0 c -0.133,-7.1056 -0.2091,-14.1767 -0.1513,-21.2341 l 1.3926,-5.1607 1.3803,5.9194 z"
   id="path329"
   inkscape:connector-curvature="0"
   style="fill:#663300" /><g
   id="g331">
    <path
   class="fil4"
   d="m 176.393,199.812 2.5139,0 c 0.3314,-17.5966 0.1331,-35.1397 -1.257,-52.7897 -1.5666,17.5967 -1.5883,35.0862 -1.2569,52.7897 z"
   id="path333"
   inkscape:connector-curvature="0"
   style="fill:#ffffff" />
    <path
   id="path335"
   class="fil8 str5"
   d="m 176.393,199.812 2.5139,0 c 0.3314,-17.5966 0.1331,-35.1397 -1.257,-52.7897 -1.5666,17.5967 -1.5883,35.0862 -1.2569,52.7897 z"
   inkscape:connector-curvature="0"
   style="fill:none;fill-rule:nonzero;stroke:#4d4d4d;stroke-width:0.0762" />
   </g><g
   id="g337">
    <path
   class="fil4"
   d="m 102.665,199.812 2.5138,0 c 0.3314,-17.5966 0.1332,-35.1397 -1.2569,-52.7897 -1.5667,17.5967 -1.5882,35.0862 -1.2569,52.7897 z"
   id="path339"
   inkscape:connector-curvature="0"
   style="fill:#ffffff" />
    <path
   id="path341"
   class="fil8 str5"
   d="m 102.665,199.812 2.5138,0 c 0.3314,-17.5966 0.1332,-35.1397 -1.2569,-52.7897 -1.5667,17.5967 -1.5882,35.0862 -1.2569,52.7897 z"
   inkscape:connector-curvature="0"
   style="fill:none;fill-rule:nonzero;stroke:#4d4d4d;stroke-width:0.0762" />
   </g><path
   class="fil2"
   d="m 177.646,199.812 1.2569,0 c 0.3314,-17.5966 0.1332,-35.1397 -1.2569,-52.7897 l 0,52.7897 z"
   id="path343"
   inkscape:connector-curvature="0"
   style="fill:#000000" /><path
   class="fil2"
   d="m 103.919,199.812 1.2569,0 c 0.3314,-17.5966 0.1331,-35.1397 -1.2569,-52.7897 l 0,52.7897 z"
   id="path345"
   inkscape:connector-curvature="0"
   style="fill:#000000" /><line
   class="fil5 str0"
   x1="247.071"
   y1="177.132"
   x2="249.80299"
   y2="177.132"
   id="line347"
   style="fill:none;stroke:#000000;stroke-width:0.0318" /><line
   class="fil5 str0"
   x1="29.565201"
   y1="177.132"
   x2="32.2971"
   y2="177.132"
   id="line349"
   style="fill:none;stroke:#000000;stroke-width:0.0318" /><line
   class="fil5 str1"
   x1="176.255"
   y1="177.132"
   x2="178.987"
   y2="177.132"
   id="line351"
   style="fill:none;stroke:#4d4d4d;stroke-width:0.0318" /><line
   class="fil5 str1"
   x1="102.528"
   y1="177.132"
   x2="105.26"
   y2="177.132"
   id="line353"
   style="fill:none;stroke:#4d4d4d;stroke-width:0.0318" /><path
   class="fil5 str0"
   d="m 247.226,168.992 c 0.7496,-0.4328 1.6397,-0.4396 2.4013,0"
   id="path355"
   inkscape:connector-curvature="0"
   style="fill:none;stroke:#000000;stroke-width:0.0318" /><path
   class="fil5 str0"
   d="m 29.7197,168.992 c 0.7496,-0.4328 1.6397,-0.4396 2.4012,0"
   id="path357"
   inkscape:connector-curvature="0"
   style="fill:none;stroke:#000000;stroke-width:0.0318" /><path
   class="fil5 str1"
   d="m 176.41,168.992 c 0.7497,-0.4328 1.6397,-0.4396 2.4013,0"
   id="path359"
   inkscape:connector-curvature="0"
   style="fill:none;stroke:#4d4d4d;stroke-width:0.0318" /><path
   class="fil5 str1"
   d="m 102.682,168.992 c 0.7496,-0.4328 1.6397,-0.4396 2.4012,0"
   id="path361"
   inkscape:connector-curvature="0"
   style="fill:none;stroke:#4d4d4d;stroke-width:0.0318" /><path
   class="fil5 str0"
   d="m 247.226,168.353 c 0.7496,-0.4328 1.6397,-0.4396 2.4013,0"
   id="path363"
   inkscape:connector-curvature="0"
   style="fill:none;stroke:#000000;stroke-width:0.0318" /><path
   class="fil5 str0"
   d="m 29.7197,168.353 c 0.7496,-0.4328 1.6397,-0.4396 2.4012,0"
   id="path365"
   inkscape:connector-curvature="0"
   style="fill:none;stroke:#000000;stroke-width:0.0318" /><path
   class="fil5 str1"
   d="m 176.41,168.353 c 0.7497,-0.4328 1.6397,-0.4396 2.4013,0"
   id="path367"
   inkscape:connector-curvature="0"
   style="fill:none;stroke:#4d4d4d;stroke-width:0.0318" /><path
   class="fil5 str1"
   d="m 102.682,168.353 c 0.7496,-0.4328 1.6397,-0.4396 2.4012,0"
   id="path369"
   inkscape:connector-curvature="0"
   style="fill:none;stroke:#4d4d4d;stroke-width:0.0318" /><polyline
   class="fil5 str0"
   points="240.237,190.063 236.758,190.111 236.758,185.859 "
   id="polyline371"
   style="fill:none;stroke:#000000;stroke-width:0.0318" /><polyline
   class="fil5 str0"
   points="22.7314,190.063 19.2521,190.111 19.2521,185.859 "
   id="polyline373"
   style="fill:none;stroke:#000000;stroke-width:0.0318" /><polyline
   class="fil5 str0"
   points="169.421,190.063 165.942,190.111 165.942,185.859 "
   id="polyline375"
   style="fill:none;stroke:#000000;stroke-width:0.0318" /><polyline
   class="fil5 str0"
   points="95.6941,190.063 92.2148,190.111 92.2148,185.859 "
   id="polyline377"
   style="fill:none;stroke:#000000;stroke-width:0.0318" /><line
   class="fil5 str0"
   x1="236.758"
   y1="190.11099"
   x2="235.065"
   y2="191.05299"
   id="line379"
   style="fill:none;stroke:#000000;stroke-width:0.0318" /><line
   class="fil5 str0"
   x1="19.2521"
   y1="190.11099"
   x2="17.5585"
   y2="191.05299"
   id="line381"
   style="fill:none;stroke:#000000;stroke-width:0.0318" /><line
   class="fil5 str0"
   x1="165.942"
   y1="190.11099"
   x2="164.248"
   y2="191.05299"
   id="line383"
   style="fill:none;stroke:#000000;stroke-width:0.0318" /><line
   class="fil5 str0"
   x1="92.214798"
   y1="190.11099"
   x2="90.521202"
   y2="191.05299"
   id="line385"
   style="fill:none;stroke:#000000;stroke-width:0.0318" /><g
   id="g387">
    <line
   class="fil5 str0"
   x1="228.35001"
   y1="196.272"
   x2="231.071"
   y2="196.272"
   id="line389"
   style="fill:none;stroke:#000000;stroke-width:0.0318" />
    <rect
   class="fil0 str0"
   x="228.75301"
   y="190.231"
   width="0.44141299"
   height="4.2207799"
   rx="0.91750002"
   ry="0.91750002"
   id="rect391"
   style="fill:#663300;stroke:#000000;stroke-width:0.0318" />
   </g><g
   id="g393">
    <line
   class="fil5 str0"
   x1="10.8439"
   y1="196.272"
   x2="13.5653"
   y2="196.272"
   id="line395"
   style="fill:none;stroke:#000000;stroke-width:0.0318" />
    <rect
   class="fil5 str0"
   x="11.2469"
   y="190.231"
   width="0.44141299"
   height="4.2207799"
   rx="0.91750002"
   ry="0.91750002"
   id="rect397"
   style="fill:none;stroke:#000000;stroke-width:0.0318" />
   </g><g
   id="g399">
    <line
   class="fil5 str0"
   x1="157.534"
   y1="196.272"
   x2="160.255"
   y2="196.272"
   id="line401"
   style="fill:none;stroke:#000000;stroke-width:0.0318" />
    <rect
   class="fil5 str0"
   x="157.937"
   y="190.231"
   width="0.44141299"
   height="4.2207799"
   rx="0.91750002"
   ry="0.91750002"
   id="rect403"
   style="fill:none;stroke:#000000;stroke-width:0.0318" />
   </g><g
   id="g405">
    <line
   class="fil5 str0"
   x1="83.806602"
   y1="196.272"
   x2="86.528"
   y2="196.272"
   id="line407"
   style="fill:none;stroke:#000000;stroke-width:0.0318" />
    <rect
   class="fil5 str0"
   x="84.209602"
   y="190.231"
   width="0.44141299"
   height="4.2207799"
   rx="0.91750002"
   ry="0.91750002"
   id="rect409"
   style="fill:none;stroke:#000000;stroke-width:0.0318" />
   </g><g
   id="g411">
    <line
   class="fil5 str0"
   x1="268.59601"
   y1="196.272"
   x2="265.87399"
   y2="196.272"
   id="line413"
   style="fill:none;stroke:#000000;stroke-width:0.0318" />
    <rect
   class="fil0 str0"
   x="267.75101"
   y="190.231"
   width="0.44141299"
   height="4.2207799"
   rx="0.91750002"
   ry="0.91750002"
   id="rect415"
   style="fill:#663300;stroke:#000000;stroke-width:0.0318" />
   </g><g
   id="g417">
    <line
   class="fil5 str0"
   x1="51.089901"
   y1="196.272"
   x2="48.3685"
   y2="196.272"
   id="line419"
   style="fill:none;stroke:#000000;stroke-width:0.0318" />
    <rect
   class="fil5 str0"
   x="50.245399"
   y="190.231"
   width="0.44141299"
   height="4.2207799"
   rx="0.91750002"
   ry="0.91750002"
   id="rect421"
   style="fill:none;stroke:#000000;stroke-width:0.0318" />
   </g><g
   id="g423">
    <line
   class="fil5 str1"
   x1="197.78"
   y1="196.272"
   x2="195.058"
   y2="196.272"
   id="line425"
   style="fill:none;stroke:#4d4d4d;stroke-width:0.0318" />
    <rect
   class="fil2 str1"
   x="196.935"
   y="190.231"
   width="0.44141299"
   height="4.2207799"
   rx="0.91750002"
   ry="0.91750002"
   id="rect427"
   style="fill:#000000;stroke:#4d4d4d;stroke-width:0.0318" />
   </g><g
   id="g429">
    <line
   class="fil5 str1"
   x1="124.053"
   y1="196.272"
   x2="121.331"
   y2="196.272"
   id="line431"
   style="fill:none;stroke:#4d4d4d;stroke-width:0.0318" />
    <rect
   class="fil2 str1"
   x="123.208"
   y="190.231"
   width="0.44141299"
   height="4.2207799"
   rx="0.91750002"
   ry="0.91750002"
   id="rect433"
   style="fill:#000000;stroke:#4d4d4d;stroke-width:0.0318" />
   </g><path
   class="fil5 str0"
   d="m 239.73,57.7711 2.9536,0 c 0.3626,-5.0258 1.1206,-10.5953 2.4223,-15.8189 l -2.9794,0 0.1857,-1.0331 12.3051,0 0.1892,1.0331 -2.5326,0 c 0.9301,5.1018 1.7466,10.4402 1.928,15.8189 l 2.9976,0 0.1255,1.0117 -17.7138,0 0.1188,-1.0117 z"
   id="path435"
   inkscape:connector-curvature="0"
   style="fill:none;stroke:#000000;stroke-width:0.0318" /><path
   class="fil5 str0"
   d="m 22.2239,57.7711 2.9536,0 c 0.3626,-5.0258 1.1206,-10.5953 2.4223,-15.8189 l -2.9794,0 0.1857,-1.0331 12.305,0 0.1893,1.0331 -2.5326,0 c 0.9301,5.1018 1.7466,10.4402 1.928,15.8189 l 2.9976,0 0.1255,1.0117 -17.7139,0 0.1189,-1.0117 z"
   id="path437"
   inkscape:connector-curvature="0"
   style="fill:none;stroke:#000000;stroke-width:0.0318" /><path
   class="fil5 str1"
   d="m 168.914,57.7711 2.9537,0 c 0.3625,-5.0258 1.1206,-10.5953 2.4223,-15.8189 l -2.9795,0 0.1857,-1.0331 12.3051,0 0.1892,1.0331 -2.5325,0 c 0.93,5.1018 1.7465,10.4402 1.9279,15.8189 l 2.9976,0 0.1256,1.0117 -17.7139,0 0.1188,-1.0117 z"
   id="path439"
   inkscape:connector-curvature="0"
   style="fill:none;stroke:#4d4d4d;stroke-width:0.0318" /><path
   class="fil5 str0"
   d="m 95.1866,57.7711 2.9536,0 c 0.3626,-5.0258 1.1206,-10.5953 2.4223,-15.8189 l -2.9794,0 0.1857,-1.0331 12.3051,0 0.1892,1.0331 -2.5326,0 c 0.9301,5.1018 1.7466,10.4402 1.928,15.8189 l 2.9976,0 0.1255,1.0117 -17.7139,0 0.1189,-1.0117 z"
   id="path441"
   inkscape:connector-curvature="0"
   style="fill:none;stroke:#000000;stroke-width:0.0318" /><g
   id="g443">
    <path
   class="fil8 str3"
   d="m 245.419,42.5041 6.4959,0 c 0.8428,4.7458 1.5827,9.7119 1.7471,14.7151 l -10.4382,0 c 0.3285,-4.6751 1.0153,-9.8561 2.1952,-14.7151 z"
   id="path445"
   inkscape:connector-curvature="0"
   style="fill:none;fill-rule:nonzero;stroke:#000000;stroke-width:0.0762" />
   </g><g
   id="g447">
    <path
   class="fil8 str3"
   d="m 27.9127,42.5041 6.4959,0 c 0.8428,4.7458 1.5828,9.7119 1.7472,14.7151 l -10.4382,0 c 0.3286,-4.6751 1.0155,-9.8561 2.1951,-14.7151 z"
   id="path449"
   inkscape:connector-curvature="0"
   style="fill:none;fill-rule:nonzero;stroke:#000000;stroke-width:0.0762" />
   </g><g
   id="g451">
    <path
   class="fil8 str5"
   d="m 174.603,42.5041 6.4959,0 c 0.8428,4.7458 1.5828,9.7119 1.747,14.7151 l -10.438,0 c 0.3285,-4.6751 1.0154,-9.8561 2.1951,-14.7151 z"
   id="path453"
   inkscape:connector-curvature="0"
   style="fill:none;fill-rule:nonzero;stroke:#4d4d4d;stroke-width:0.0762" />
   </g><g
   id="g455">
    <path
   class="fil8 str3"
   d="m 100.875,42.5041 6.4958,0 c 0.8429,4.7458 1.5827,9.7119 1.7472,14.7151 l -10.4384,0 c 0.3288,-4.6751 1.0156,-9.8561 2.1954,-14.7151 z"
   id="path457"
   inkscape:connector-curvature="0"
   style="fill:none;fill-rule:nonzero;stroke:#000000;stroke-width:0.0762" />
   </g><line
   class="fil5 str0"
   x1="247.355"
   y1="19.684299"
   x2="249.57401"
   y2="19.684299"
   id="line459"
   style="fill:none;stroke:#000000;stroke-width:0.0318" /><line
   class="fil5 str0"
   x1="29.849001"
   y1="19.684299"
   x2="32.068001"
   y2="19.684299"
   id="line461"
   style="fill:none;stroke:#000000;stroke-width:0.0318" /><line
   class="fil5 str0"
   x1="176.539"
   y1="19.684299"
   x2="178.758"
   y2="19.684299"
   id="line463"
   style="fill:none;stroke:#000000;stroke-width:0.0318" /><line
   class="fil5 str0"
   x1="102.812"
   y1="19.684299"
   x2="105.031"
   y2="19.684299"
   id="line465"
   style="fill:none;stroke:#000000;stroke-width:0.0318" /><path
   class="fil5 str0"
   d="m 30.9597,16.0883 c 6.9145,21.5054 10.9178,49.7107 11.1457,79.9691 0.1156,15.3346 0.3117,30.8467 0.4965,45.4185 0.2426,19.138 -1.754,35.0229 -3.4793,49.1254 l -7.1467,0 -2.0325,0 -7.1466,0 c -1.7254,-14.1025 -3.7219,-29.9874 -3.4793,-49.1254 0.1848,-14.5718 0.3809,-30.0839 0.4964,-45.4185 0.2279,-30.2583 4.2312,-58.4637 11.1458,-79.9691 z"
   id="path467"
   inkscape:connector-curvature="0"
   style="fill:none;stroke:#000000;stroke-width:0.0318" />
</svg>