<?xml version="1.0" encoding="UTF-8" ?>
<!DOCTYPE svg PUBLIC "-//W3C//DTD SVG 1.1//EN" "http://www.w3.org/Graphics/SVG/1.1/DTD/svg11.dtd">
<svg width="155pt" height="200pt" viewBox="0 0 155 200" version="1.1" xmlns="http://www.w3.org/2000/svg">
<g id="#ffffffff">
</g>
<g id="#4f5a2aff">
<path fill="#4f5a2a" opacity="1.00" d=" M 101.22 3.76 C 105.93 -1.27 113.86 -0.41 118.78 3.83 C 119.05 4.29 119.58 5.21 119.84 5.67 L 118.84 6.15 C 120.97 13.98 120.16 22.22 121.55 30.16 C 121.85 30.53 122.45 31.27 122.75 31.63 C 122.93 31.85 123.27 32.27 123.45 32.49 C 123.35 37.16 123.93 41.81 124.68 46.42 C 130.27 46.69 135.89 46.38 141.47 46.97 C 136.13 48.02 130.66 47.68 125.26 47.55 C 124.34 51.12 124.62 54.82 125.14 58.44 C 125.08 60.27 124.89 62.09 124.73 63.91 C 123.57 64.21 122.41 64.51 121.26 64.82 C 121.16 66.38 121.06 67.95 120.96 69.52 C 122.62 69.52 124.29 69.52 125.95 69.52 C 126.67 76.47 126.93 83.46 127.68 90.40 C 129.31 90.43 130.94 90.44 132.57 90.48 C 134.62 90.71 136.65 91.06 138.64 91.60 C 139.78 92.13 140.92 92.70 142.04 93.30 C 141.56 97.82 141.82 102.38 142.42 106.88 C 141.20 107.42 139.97 107.95 138.71 108.42 C 136.63 109.08 134.47 109.54 132.28 109.54 C 130.80 109.58 129.31 109.60 127.83 109.63 C 127.03 114.85 126.94 120.13 126.46 125.38 C 123.86 125.81 121.29 126.63 119.48 128.63 C 118.63 129.49 117.80 130.38 117.01 131.29 C 115.64 131.09 114.26 130.89 112.89 130.70 L 112.24 130.60 C 110.85 130.36 109.46 130.08 108.06 129.86 C 106.47 129.76 104.87 129.70 103.28 129.69 C 103.68 132.35 104.28 134.99 105.15 137.55 C 105.05 138.10 104.84 139.22 104.73 139.77 C 104.44 141.19 104.11 142.61 103.79 144.03 C 104.04 144.63 104.54 145.84 104.79 146.44 C 105.02 146.99 105.47 148.07 105.70 148.61 C 108.19 148.35 110.68 148.07 113.17 147.76 C 114.45 148.65 115.72 149.55 116.99 150.47 C 118.62 150.02 120.26 149.58 121.88 149.06 C 122.24 148.91 122.95 148.63 123.31 148.48 C 123.95 146.96 124.52 145.42 125.02 143.85 C 124.57 146.66 124.59 149.51 124.57 152.35 C 129.63 152.34 134.70 152.61 139.77 152.41 C 139.76 152.68 139.75 153.24 139.74 153.52 C 134.72 153.49 129.70 153.67 124.69 153.59 C 123.90 158.38 123.31 163.22 123.42 168.08 C 122.69 169.16 122.09 170.29 121.63 171.50 C 120.99 175.18 120.64 178.94 119.07 182.39 C 117.58 179.30 116.79 175.90 115.05 172.94 C 113.26 171.17 110.44 171.56 108.15 171.11 C 105.75 167.59 104.13 163.36 100.51 160.84 C 100.40 166.93 101.35 172.96 101.83 179.01 C 101.70 183.55 107.05 185.32 107.66 189.67 C 107.62 190.23 107.55 191.34 107.52 191.90 C 109.69 192.37 111.87 192.84 114.06 193.30 C 113.90 195.34 113.72 197.38 113.49 199.42 C 109.58 200.24 104.88 200.28 102.08 196.96 C 96.33 190.97 97.53 182.02 95.25 174.60 C 95.41 172.92 95.59 171.24 95.80 169.56 C 96.72 175.03 97.88 180.63 101.38 185.11 C 102.18 178.21 100.24 171.41 100.14 164.52 C 99.88 162.80 100.29 160.53 98.55 159.49 C 96.84 159.34 95.15 159.86 93.47 160.11 C 92.92 156.25 92.32 152.40 91.47 148.60 C 90.80 144.93 90.25 141.23 89.61 137.55 C 91.75 133.42 93.62 129.04 97.11 125.82 C 98.11 123.41 98.36 120.78 98.66 118.21 C 101.61 117.78 104.59 117.53 107.58 117.43 C 108.37 116.64 109.15 115.85 109.95 115.08 C 112.84 110.44 118.79 114.68 122.21 111.10 C 120.83 110.43 119.45 109.77 118.08 109.11 C 121.01 108.78 123.95 108.46 126.89 108.15 C 127.24 107.24 127.59 106.33 127.93 105.42 L 128.35 104.25 C 128.52 103.78 128.87 102.83 129.05 102.36 C 130.62 102.23 132.20 102.10 133.78 101.96 C 134.11 101.57 134.78 100.79 135.12 100.40 C 135.73 99.70 136.35 99.00 136.99 98.32 C 137.73 98.05 139.21 97.51 139.95 97.23 C 140.07 95.93 140.19 94.63 140.32 93.33 C 136.08 92.14 131.56 91.68 127.30 93.08 C 125.83 93.43 124.35 93.78 122.86 94.06 C 121.38 94.12 119.87 94.09 118.41 94.37 C 116.96 96.00 115.77 97.86 114.11 99.31 C 107.50 103.64 100.16 108.23 91.87 107.01 C 90.45 108.71 89.06 110.43 87.57 112.08 C 87.18 112.11 86.41 112.18 86.02 112.22 C 85.51 111.33 84.97 110.47 84.39 109.63 C 83.86 109.33 82.79 108.72 82.26 108.42 C 80.69 108.18 79.11 108.05 77.53 107.94 C 79.09 107.28 80.61 106.54 82.14 105.81 C 80.47 103.93 77.73 102.45 77.33 99.81 C 78.14 96.35 82.00 95.42 84.99 94.78 C 87.38 94.38 89.24 92.77 91.09 91.32 C 89.36 90.55 87.62 89.79 85.91 88.97 C 85.95 88.63 86.03 87.94 86.06 87.60 C 89.60 88.41 93.24 88.63 96.85 88.17 C 99.74 87.81 102.03 85.97 103.29 83.39 C 103.76 81.39 104.13 79.36 104.52 77.34 C 105.87 76.89 107.23 76.44 108.59 76.00 C 108.64 71.95 108.60 67.90 108.47 63.86 C 105.34 63.86 101.87 63.95 99.94 66.86 C 98.18 68.95 95.33 69.13 92.84 69.73 C 91.21 72.09 89.52 74.42 87.68 76.62 C 88.00 74.25 88.21 71.86 88.46 69.48 C 89.55 63.56 90.39 57.60 91.43 51.67 L 91.36 52.89 C 92.62 47.04 93.81 39.74 100.09 37.16 C 105.22 36.77 106.48 43.00 109.68 45.84 C 110.62 45.78 112.51 45.67 113.45 45.61 C 113.36 43.50 113.54 41.33 113.04 39.26 C 111.71 36.49 108.91 34.34 108.78 31.07 C 108.47 28.24 108.06 25.41 107.29 22.66 C 106.36 19.91 107.47 17.09 107.62 14.31 C 104.79 12.09 101.02 10.96 99.30 7.49 C 99.90 6.23 100.54 4.99 101.22 3.76 M 113.65 39.82 C 114.86 47.77 112.48 55.84 114.45 63.69 C 117.61 63.54 120.77 63.29 123.91 62.92 C 123.85 57.93 122.37 53.06 122.69 48.05 C 122.56 44.37 123.33 40.48 122.11 36.95 C 119.25 36.53 116.61 39.37 113.65 39.82 M 107.94 53.76 C 108.09 56.72 107.44 59.82 108.34 62.68 C 109.81 63.74 111.84 63.30 113.53 63.68 C 113.21 59.33 113.13 54.96 113.08 50.59 C 111.35 51.63 109.64 52.68 107.94 53.76 M 102.92 56.21 C 101.90 58.46 102.41 61.03 102.29 63.42 C 104.04 63.46 105.78 63.50 107.52 63.54 C 107.45 60.22 107.44 56.91 107.43 53.59 C 105.86 54.27 103.67 54.39 102.92 56.21 M 109.38 63.76 C 109.25 68.00 109.32 72.23 109.16 76.47 C 114.40 77.03 116.28 70.87 120.60 69.07 C 120.52 67.42 120.44 65.77 120.35 64.12 C 118.31 64.12 116.26 64.10 114.22 64.07 C 114.60 65.08 114.98 66.09 115.37 67.10 C 114.44 67.31 113.51 67.51 112.59 67.73 C 112.55 66.44 112.51 65.16 112.47 63.89 C 111.70 63.85 110.16 63.79 109.38 63.76 M 82.64 96.61 C 80.39 97.95 80.85 100.79 80.60 103.01 C 83.80 103.87 87.04 104.56 90.28 105.23 C 90.25 101.74 90.25 98.25 90.29 94.76 C 87.76 95.43 85.05 95.55 82.64 96.61 M 101.22 95.00 C 101.09 98.39 101.09 101.78 101.14 105.17 C 102.61 103.87 104.17 102.65 105.81 101.57 C 105.87 100.95 105.98 99.71 106.04 99.09 C 104.40 97.76 102.80 96.40 101.22 95.00 M 91.43 96.47 C 91.50 99.09 91.55 101.71 91.63 104.34 C 94.25 104.35 96.88 104.35 99.51 104.37 C 99.60 101.64 99.66 98.91 99.73 96.18 C 96.96 95.78 94.18 96.09 91.43 96.47 Z" />
<path fill="#4f5a2a" opacity="1.00" d=" M 14.51 73.10 C 15.38 68.69 20.40 65.38 24.75 67.17 C 28.21 67.96 30.06 71.18 31.08 74.29 C 31.24 77.35 31.55 80.40 31.79 83.45 C 30.47 85.19 29.15 86.92 27.84 88.66 C 25.61 86.62 23.26 84.72 20.81 82.97 C 20.32 84.75 19.82 86.52 19.41 88.32 C 19.06 87.88 18.35 86.99 17.99 86.54 C 16.86 86.47 15.73 86.42 14.60 86.38 C 14.26 88.95 13.83 91.69 11.70 93.44 C 12.60 89.83 12.62 86.10 12.77 82.40 C 13.39 79.31 13.83 76.18 14.51 73.10 Z" />
<path fill="#4f5a2a" opacity="1.00" d=" M 27.76 98.55 C 29.57 97.51 31.39 96.51 33.28 95.63 C 34.64 95.67 36.01 95.75 37.37 95.88 C 36.89 95.98 35.93 96.19 35.45 96.30 C 35.23 96.97 34.81 98.32 34.59 99.00 L 34.36 99.99 C 34.50 100.29 34.79 100.89 34.94 101.19 C 35.46 102.23 35.98 103.26 36.50 104.30 C 36.10 104.28 35.30 104.24 34.89 104.22 C 34.40 104.37 33.43 104.68 32.94 104.83 C 32.68 108.01 32.34 111.19 32.06 114.38 C 28.43 116.15 27.05 119.84 26.94 123.67 C 28.32 123.88 29.71 124.09 31.09 124.31 C 31.02 124.88 30.87 126.03 30.80 126.60 C 29.27 131.76 23.47 135.01 18.41 132.51 C 13.80 129.31 13.86 123.32 13.09 118.33 C 12.63 114.89 11.97 111.49 11.48 108.06 C 13.11 109.16 14.75 110.26 16.40 111.36 C 17.24 109.24 18.08 107.12 18.95 105.02 C 21.57 104.85 24.23 104.43 26.40 102.85 C 23.48 102.41 20.54 102.09 17.60 101.76 C 20.43 101.27 23.24 100.72 26.02 100.03 C 23.25 99.34 20.46 98.76 17.67 98.16 C 21.03 97.62 24.45 97.73 27.76 98.55 M 19.75 124.07 C 22.01 124.18 24.27 124.25 26.54 124.32 C 26.44 122.49 26.34 120.67 26.20 118.85 C 23.08 119.08 20.77 121.19 19.75 124.07 M 18.52 124.60 C 18.69 127.06 17.31 130.54 20.18 131.91 C 23.53 134.30 27.17 131.79 29.38 129.16 C 28.91 128.72 27.97 127.83 27.51 127.39 C 28.11 127.61 29.31 128.05 29.91 128.27 C 29.92 127.32 29.93 125.44 29.94 124.50 C 26.14 124.70 22.33 124.72 18.52 124.60 Z" />
</g>
<g id="#cdcdc0ff">
<path fill="#cdcdc0" opacity="1.00" d=" M 96.12 21.36 C 96.55 15.42 95.71 7.68 101.22 3.76 C 100.54 4.99 99.90 6.23 99.30 7.49 C 97.75 12.00 97.61 16.84 96.12 21.36 Z" />
</g>
<g id="#dcdac6ff">
<path fill="#dcdac6" opacity="1.00" d=" M 118.78 3.83 C 120.66 5.06 122.53 6.73 122.55 9.16 C 123.18 16.92 124.49 24.70 123.45 32.49 C 123.27 32.27 122.93 31.85 122.75 31.63 C 121.75 23.00 122.80 13.99 119.84 5.67 C 119.58 5.21 119.05 4.29 118.78 3.83 Z" />
</g>
<g id="#aca35cff">
<path fill="#aca35c" opacity="1.00" d=" M 118.84 6.15 L 119.84 5.67 C 122.80 13.99 121.75 23.00 122.75 31.63 C 122.45 31.27 121.85 30.53 121.55 30.16 C 120.16 22.22 120.97 13.98 118.84 6.15 Z" />
</g>
<g id="#8d8740ff">
<path fill="#8d8740" opacity="1.00" d=" M 96.12 21.36 C 97.61 16.84 97.75 12.00 99.30 7.49 C 101.02 10.96 104.79 12.09 107.62 14.31 C 107.47 17.09 106.36 19.91 107.29 22.66 C 108.06 25.41 108.47 28.24 108.78 31.07 C 108.91 34.34 111.71 36.49 113.04 39.26 C 113.54 41.33 113.36 43.50 113.45 45.61 C 112.51 45.67 110.62 45.78 109.68 45.84 C 106.48 43.00 105.22 36.77 100.09 37.16 C 93.81 39.74 92.62 47.04 91.36 52.89 L 91.43 51.67 C 92.15 44.08 94.06 36.64 94.53 29.02 C 94.67 26.39 95.39 23.87 96.12 21.36 Z" />
<path fill="#8d8740" opacity="1.00" d=" M 113.65 39.82 C 116.61 39.37 119.25 36.53 122.11 36.95 C 123.33 40.48 122.56 44.37 122.69 48.05 C 122.37 53.06 123.85 57.93 123.91 62.92 C 120.77 63.29 117.61 63.54 114.45 63.69 C 112.48 55.84 114.86 47.77 113.65 39.82 Z" />
<path fill="#8d8740" opacity="1.00" d=" M 99.94 66.86 C 101.87 63.95 105.34 63.86 108.47 63.86 C 108.60 67.90 108.64 71.95 108.59 76.00 C 107.23 76.44 105.87 76.89 104.52 77.34 C 104.13 79.36 103.76 81.39 103.29 83.39 C 101.90 83.19 100.51 83.00 99.12 82.80 C 100.10 77.54 100.35 72.18 99.94 66.86 Z" />
<path fill="#8d8740" opacity="1.00" d=" M 87.68 76.62 C 89.52 74.42 91.21 72.09 92.84 69.73 C 94.86 69.81 96.87 69.91 98.89 70.03 C 99.17 76.17 97.14 82.07 96.85 88.17 C 93.24 88.63 89.60 88.41 86.06 87.60 C 86.45 83.92 87.12 80.28 87.68 76.62 Z" />
<path fill="#8d8740" opacity="1.00" d=" M 20.81 82.97 C 23.26 84.72 25.61 86.62 27.84 88.66 C 29.15 86.92 30.47 85.19 31.79 83.45 C 32.00 87.45 32.46 91.44 33.26 95.36 L 33.28 95.63 C 31.39 96.51 29.57 97.51 27.76 98.55 C 24.45 97.73 21.03 97.62 17.67 98.16 C 20.46 98.76 23.25 99.34 26.02 100.03 C 23.24 100.72 20.43 101.27 17.60 101.76 C 20.54 102.09 23.48 102.41 26.40 102.85 C 24.23 104.43 21.57 104.85 18.95 105.02 C 18.08 107.12 17.24 109.24 16.40 111.36 C 14.75 110.26 13.11 109.16 11.48 108.06 C 11.31 105.98 11.45 103.90 11.38 101.83 C 10.62 101.74 9.10 101.57 8.34 101.49 C 5.79 101.20 3.27 100.79 0.74 100.36 C 0.91 100.21 1.24 99.92 1.40 99.77 C 5.19 99.57 10.51 99.82 11.20 94.92 C 13.62 94.82 16.03 94.73 18.44 94.64 C 18.76 92.53 19.08 90.43 19.41 88.32 C 19.82 86.52 20.32 84.75 20.81 82.97 Z" />
<path fill="#8d8740" opacity="1.00" d=" M 118.41 94.37 C 119.87 94.09 121.38 94.12 122.86 94.06 C 124.61 94.47 126.34 94.94 128.08 95.39 C 128.25 98.34 128.42 101.29 128.35 104.25 L 127.93 105.42 C 123.45 106.01 118.93 106.02 114.44 105.58 C 114.32 103.49 114.21 101.40 114.11 99.31 C 115.77 97.86 116.96 96.00 118.41 94.37 Z" />
<path fill="#8d8740" opacity="1.00" d=" M 98.84 111.73 C 106.52 110.18 114.43 111.07 122.21 111.10 C 118.79 114.68 112.84 110.44 109.95 115.08 C 106.38 115.54 102.79 115.77 99.19 115.87 C 99.07 114.49 98.95 113.11 98.84 111.73 Z" />
<path fill="#8d8740" opacity="1.00" d=" M 86.02 112.22 C 86.41 112.18 87.18 112.11 87.57 112.08 C 90.68 112.02 93.78 112.16 96.89 112.26 C 97.15 116.78 97.22 121.30 97.11 125.82 C 93.62 129.04 91.75 133.42 89.61 137.55 C 89.04 134.17 88.50 130.79 88.14 127.38 C 87.47 122.32 86.83 117.26 86.02 112.22 Z" />
<path fill="#8d8740" opacity="1.00" d=" M 19.75 124.07 C 20.77 121.19 23.08 119.08 26.20 118.85 C 26.34 120.67 26.44 122.49 26.54 124.32 C 24.27 124.25 22.01 124.18 19.75 124.07 Z" />
<path fill="#8d8740" opacity="1.00" d=" M 18.52 124.60 C 22.33 124.72 26.14 124.70 29.94 124.50 C 29.93 125.44 29.92 127.32 29.91 128.27 C 29.31 128.05 28.11 127.61 27.51 127.39 C 27.97 127.83 28.91 128.72 29.38 129.16 C 27.17 131.79 23.53 134.30 20.18 131.91 C 17.31 130.54 18.69 127.06 18.52 124.60 Z" />
<path fill="#8d8740" opacity="1.00" d=" M 108.21 138.15 C 109.74 138.17 111.27 138.19 112.80 138.21 C 112.82 141.15 112.80 144.09 112.72 147.04 C 111.24 147.04 109.76 147.04 108.29 147.05 C 108.20 144.08 108.18 141.12 108.21 138.15 Z" />
<path fill="#8d8740" opacity="1.00" d=" M 114.17 138.21 C 117.14 138.14 120.12 138.07 123.09 138.03 C 122.86 141.72 122.47 145.40 121.88 149.06 C 120.26 149.58 118.62 150.02 116.99 150.47 C 113.99 147.06 113.84 142.51 114.17 138.21 Z" />
<path fill="#8d8740" opacity="1.00" d=" M 100.51 160.84 C 104.13 163.36 105.75 167.59 108.15 171.11 C 109.14 177.18 110.07 183.83 107.66 189.67 C 107.05 185.32 101.70 183.55 101.83 179.01 C 101.35 172.96 100.40 166.93 100.51 160.84 Z" />
<path fill="#8d8740" opacity="1.00" d=" M 111.14 172.02 C 115.26 173.42 116.43 177.92 117.23 181.73 C 117.35 184.05 116.60 186.33 116.20 188.60 C 114.49 188.71 112.79 188.84 111.08 188.98 C 110.98 183.33 110.92 177.67 111.14 172.02 Z" />
</g>
<g id="#8f8b49ff">
<path fill="#8f8b49" opacity="1.00" d=" M 107.94 53.76 C 109.64 52.68 111.35 51.63 113.08 50.59 C 113.13 54.96 113.21 59.33 113.53 63.68 C 111.84 63.30 109.81 63.74 108.34 62.68 C 107.44 59.82 108.09 56.72 107.94 53.76 Z" />
<path fill="#8f8b49" opacity="1.00" d=" M 102.92 56.21 C 103.67 54.39 105.86 54.27 107.43 53.59 C 107.44 56.91 107.45 60.22 107.52 63.54 C 105.78 63.50 104.04 63.46 102.29 63.42 C 102.41 61.03 101.90 58.46 102.92 56.21 Z" />
<path fill="#8f8b49" opacity="1.00" d=" M 109.38 63.76 C 110.16 63.79 111.70 63.85 112.47 63.89 C 112.51 65.16 112.55 66.44 112.59 67.73 C 113.51 67.51 114.44 67.31 115.37 67.10 C 114.98 66.09 114.60 65.08 114.22 64.07 C 116.26 64.10 118.31 64.12 120.35 64.12 C 120.44 65.77 120.52 67.42 120.60 69.07 C 116.28 70.87 114.40 77.03 109.16 76.47 C 109.32 72.23 109.25 68.00 109.38 63.76 Z" />
<path fill="#8f8b49" opacity="1.00" d=" M 14.60 86.38 C 15.73 86.42 16.86 86.47 17.99 86.54 C 18.35 86.99 19.06 87.88 19.41 88.32 C 19.08 90.43 18.76 92.53 18.44 94.64 C 16.03 94.73 13.62 94.82 11.20 94.92 C 11.33 94.55 11.57 93.81 11.70 93.44 C 13.83 91.69 14.26 88.95 14.60 86.38 Z" />
<path fill="#8f8b49" opacity="1.00" d=" M 130.54 95.75 C 133.45 94.92 136.50 95.37 139.46 95.54 C 138.64 96.47 137.82 97.40 136.99 98.32 C 136.35 99.00 135.73 99.70 135.12 100.40 C 133.27 100.66 131.41 100.91 129.56 101.16 C 129.82 99.35 129.97 97.50 130.54 95.75 Z" />
<path fill="#8f8b49" opacity="1.00" d=" M 58.02 98.95 C 58.19 98.68 58.52 98.13 58.69 97.86 C 64.55 98.09 70.42 98.26 76.29 98.14 C 74.16 98.73 72.04 99.35 69.94 100.03 C 72.33 100.78 74.77 101.38 77.22 101.88 C 70.52 101.93 63.81 102.03 57.11 101.94 C 57.40 100.94 57.70 99.94 58.02 98.95 Z" />
<path fill="#8f8b49" opacity="1.00" d=" M 26.94 123.67 C 27.05 119.84 28.43 116.15 32.06 114.38 C 31.79 117.69 31.50 121.01 31.09 124.31 C 29.71 124.09 28.32 123.88 26.94 123.67 Z" />
<path fill="#8f8b49" opacity="1.00" d=" M 119.48 128.63 C 119.64 130.97 119.86 133.33 119.52 135.66 C 116.46 136.92 113.07 136.59 109.84 136.76 C 109.81 134.94 109.83 133.11 110.01 131.29 C 110.57 131.12 111.68 130.77 112.24 130.60 L 112.89 130.70 C 112.51 132.74 111.36 135.15 113.50 136.64 C 114.65 134.84 115.72 132.99 117.01 131.29 C 117.80 130.38 118.63 129.49 119.48 128.63 Z" />
<path fill="#8f8b49" opacity="1.00" d=" M 103.28 129.69 C 104.87 129.70 106.47 129.76 108.06 129.86 C 107.92 131.78 107.78 133.70 107.64 135.63 C 106.81 136.27 105.98 136.91 105.15 137.55 C 104.28 134.99 103.68 132.35 103.28 129.69 Z" />
<path fill="#8f8b49" opacity="1.00" d=" M 104.73 139.77 C 105.24 139.68 106.24 139.49 106.75 139.39 C 106.76 141.80 106.77 144.22 106.78 146.64 C 106.28 146.59 105.29 146.49 104.79 146.44 C 104.54 145.84 104.04 144.63 103.79 144.03 C 104.11 142.61 104.44 141.19 104.73 139.77 Z" />
<path fill="#8f8b49" opacity="1.00" d=" M 93.47 160.11 C 95.15 159.86 96.84 159.34 98.55 159.49 C 100.29 160.53 99.88 162.80 100.14 164.52 C 100.24 171.41 102.18 178.21 101.38 185.11 C 97.88 180.63 96.72 175.03 95.80 169.56 C 95.59 171.24 95.41 172.92 95.25 174.60 C 94.85 172.94 94.54 171.26 94.26 169.58 C 94.17 166.41 93.98 163.24 93.47 160.11 Z" />
</g>
<g id="#828157ff">
<path fill="#828157" opacity="1.00" d=" M 125.14 58.44 C 129.92 58.66 134.70 58.78 139.49 58.73 C 139.60 59.17 139.82 60.07 139.93 60.51 C 135.37 60.59 130.81 60.64 126.25 60.61 C 126.22 61.13 126.16 62.16 126.13 62.67 C 125.96 64.95 125.84 67.24 125.95 69.52 C 124.29 69.52 122.62 69.52 120.96 69.52 C 121.06 67.95 121.16 66.38 121.26 64.82 C 122.41 64.51 123.57 64.21 124.73 63.91 C 124.89 62.09 125.08 60.27 125.14 58.44 Z" />
</g>
<g id="#c6c7b7ff">
<path fill="#c6c7b7" opacity="1.00" d=" M 126.13 62.67 C 128.45 71.31 126.91 80.34 128.82 89.05 C 130.06 89.54 131.31 90.02 132.57 90.48 C 130.94 90.44 129.31 90.43 127.68 90.40 C 126.93 83.46 126.67 76.47 125.95 69.52 C 125.84 67.24 125.96 64.95 126.13 62.67 Z" />
</g>
<g id="#7e7a3cff">
<path fill="#7e7a3c" opacity="1.00" d=" M 92.84 69.73 C 95.33 69.13 98.18 68.95 99.94 66.86 C 100.35 72.18 100.10 77.54 99.12 82.80 C 100.51 83.00 101.90 83.19 103.29 83.39 C 102.03 85.97 99.74 87.81 96.85 88.17 C 97.14 82.07 99.17 76.17 98.89 70.03 C 96.87 69.91 94.86 69.81 92.84 69.73 Z" />
<path fill="#7e7a3c" opacity="1.00" d=" M 72.10 92.71 C 76.70 91.69 82.97 93.66 85.91 88.97 C 87.62 89.79 89.36 90.55 91.09 91.32 C 89.24 92.77 87.38 94.38 84.99 94.78 C 82.00 95.42 78.14 96.35 77.33 99.81 C 77.73 102.45 80.47 103.93 82.14 105.81 C 80.61 106.54 79.09 107.28 77.53 107.94 C 68.66 107.60 59.85 106.38 50.98 106.30 C 48.80 106.06 46.63 105.69 44.45 105.52 C 46.49 101.83 50.68 102.32 54.25 102.47 C 55.53 101.32 56.81 100.17 58.02 98.95 C 57.70 99.94 57.40 100.94 57.11 101.94 C 63.81 102.03 70.52 101.93 77.22 101.88 C 74.77 101.38 72.33 100.78 69.94 100.03 C 72.04 99.35 74.16 98.73 76.29 98.14 C 70.42 98.26 64.55 98.09 58.69 97.86 C 59.23 96.98 59.77 96.11 60.31 95.24 C 64.29 94.81 68.86 95.60 72.10 92.71 Z" />
<path fill="#7e7a3c" opacity="1.00" d=" M 91.87 107.01 C 100.16 108.23 107.50 103.64 114.11 99.31 C 114.21 101.40 114.32 103.49 114.44 105.58 C 118.93 106.02 123.45 106.01 127.93 105.42 C 127.59 106.33 127.24 107.24 126.89 108.15 C 123.95 108.46 121.01 108.78 118.08 109.11 C 119.45 109.77 120.83 110.43 122.21 111.10 C 114.43 111.07 106.52 110.18 98.84 111.73 C 98.95 113.11 99.07 114.49 99.19 115.87 C 102.79 115.77 106.38 115.54 109.95 115.08 C 109.15 115.85 108.37 116.64 107.58 117.43 C 104.59 117.53 101.61 117.78 98.66 118.21 C 98.36 120.78 98.11 123.41 97.11 125.82 C 97.22 121.30 97.15 116.78 96.89 112.26 C 93.78 112.16 90.68 112.02 87.57 112.08 C 89.06 110.43 90.45 108.71 91.87 107.01 Z" />
<path fill="#7e7a3c" opacity="1.00" d=" M 119.48 128.63 C 121.29 126.63 123.86 125.81 126.46 125.38 C 126.29 127.26 126.14 129.14 126.04 131.02 C 124.48 131.14 122.92 131.27 121.36 131.39 C 121.74 132.90 121.01 135.35 123.01 135.79 C 124.00 135.42 124.96 134.95 125.92 134.50 C 125.88 135.91 125.83 137.33 125.79 138.75 L 125.69 139.38 C 130.79 139.54 135.92 139.39 140.99 140.12 C 136.02 141.59 130.82 141.47 125.69 141.53 C 125.53 142.11 125.19 143.27 125.02 143.85 C 124.52 145.42 123.95 146.96 123.31 148.48 C 122.95 148.63 122.24 148.91 121.88 149.06 C 122.47 145.40 122.86 141.72 123.09 138.03 C 120.12 138.07 117.14 138.14 114.17 138.21 C 113.84 142.51 113.99 147.06 116.99 150.47 C 115.72 149.55 114.45 148.65 113.17 147.76 C 110.68 148.07 108.19 148.35 105.70 148.61 C 105.47 148.07 105.02 146.99 104.79 146.44 C 105.29 146.49 106.28 146.59 106.78 146.64 C 106.77 144.22 106.76 141.80 106.75 139.39 C 106.24 139.49 105.24 139.68 104.73 139.77 C 104.84 139.22 105.05 138.10 105.15 137.55 C 105.98 136.91 106.81 136.27 107.64 135.63 C 107.78 133.70 107.92 131.78 108.06 129.86 C 109.46 130.08 110.85 130.36 112.24 130.60 C 111.68 130.77 110.57 131.12 110.01 131.29 C 109.83 133.11 109.81 134.94 109.84 136.76 C 113.07 136.59 116.46 136.92 119.52 135.66 C 119.86 133.33 119.64 130.97 119.48 128.63 M 108.21 138.15 C 108.18 141.12 108.20 144.08 108.29 147.05 C 109.76 147.04 111.24 147.04 112.72 147.04 C 112.80 144.09 112.82 141.15 112.80 138.21 C 111.27 138.19 109.74 138.17 108.21 138.15 Z" />
</g>
<g id="#cdcebfff">
<path fill="#cdcebf" opacity="1.00" d=" M 84.28 90.23 C 86.09 83.38 85.42 76.01 88.46 69.48 C 88.21 71.86 88.00 74.25 87.68 76.62 C 87.12 80.28 86.45 83.92 86.06 87.60 C 86.03 87.94 85.95 88.63 85.91 88.97 C 82.97 93.66 76.70 91.69 72.10 92.71 C 64.13 92.72 56.25 94.04 48.29 94.31 C 47.91 94.15 47.14 93.82 46.75 93.66 C 53.55 92.55 60.45 92.47 67.28 91.64 C 72.93 90.93 78.76 92.06 84.28 90.23 Z" />
</g>
<g id="#c5c6b6ff">
<path fill="#c5c6b6" opacity="1.00" d=" M 31.08 74.29 C 31.38 74.76 31.97 75.70 32.26 76.17 C 32.70 82.56 34.07 88.94 33.26 95.36 C 32.46 91.44 32.00 87.45 31.79 83.45 C 31.55 80.40 31.24 77.35 31.08 74.29 Z" />
</g>
<g id="#cbcbbdff">
<path fill="#cbcbbd" opacity="1.00" d=" M 9.95 95.78 C 10.63 91.27 10.71 86.58 12.77 82.40 C 12.62 86.10 12.60 89.83 11.70 93.44 C 11.57 93.81 11.33 94.55 11.20 94.92 C 10.51 99.82 5.19 99.57 1.40 99.77 L 2.47 98.84 C 5.03 98.11 8.66 98.70 9.95 95.78 Z" />
</g>
<g id="#dbca72ff">
<path fill="#dbca72" opacity="1.00" d=" M 138.64 91.60 C 144.48 92.85 150.48 94.51 155.00 98.66 L 155.00 102.65 C 152.17 103.82 149.37 105.08 146.54 106.24 C 146.47 106.91 146.34 108.26 146.27 108.93 C 145.99 108.46 145.43 107.52 145.15 107.05 C 142.99 107.42 140.83 107.81 138.71 108.42 C 139.97 107.95 141.20 107.42 142.42 106.88 C 142.74 106.72 143.39 106.41 143.71 106.25 C 143.74 105.81 143.81 104.94 143.84 104.50 C 146.53 104.03 149.31 103.79 151.83 102.68 C 153.65 102.04 154.13 98.81 152.32 97.93 C 150.40 96.80 148.21 96.25 146.11 95.54 C 145.40 96.39 144.69 97.25 143.99 98.10 C 143.99 96.86 143.97 95.62 143.93 94.38 C 143.46 94.11 142.51 93.57 142.04 93.30 C 140.92 92.70 139.78 92.13 138.64 91.60 Z" />
</g>
<g id="#8b874bff">
<path fill="#8b874b" opacity="1.00" d=" M 127.30 93.08 C 131.56 91.68 136.08 92.14 140.32 93.33 C 136.01 94.21 131.56 94.24 127.30 93.08 Z" />
</g>
<g id="#475021ff">
<path fill="#475021" opacity="1.00" d=" M 48.29 94.31 C 56.25 94.04 64.13 92.72 72.10 92.71 C 68.86 95.60 64.29 94.81 60.31 95.24 C 59.77 96.11 59.23 96.98 58.69 97.86 C 58.52 98.13 58.19 98.68 58.02 98.95 C 56.81 100.17 55.53 101.32 54.25 102.47 C 50.68 102.32 46.49 101.83 44.45 105.52 C 43.71 105.54 42.24 105.59 41.51 105.61 C 41.55 102.23 41.61 98.84 41.95 95.47 L 41.72 95.65 C 39.72 95.16 37.68 94.85 35.66 94.49 C 39.87 94.93 44.09 94.65 48.29 94.31 Z" />
</g>
<g id="#787437ff">
<path fill="#787437" opacity="1.00" d=" M 122.86 94.06 C 124.35 93.78 125.83 93.43 127.30 93.08 C 131.56 94.24 136.01 94.21 140.32 93.33 C 140.19 94.63 140.07 95.93 139.95 97.23 C 139.21 97.51 137.73 98.05 136.99 98.32 C 137.82 97.40 138.64 96.47 139.46 95.54 C 136.50 95.37 133.45 94.92 130.54 95.75 C 129.97 97.50 129.82 99.35 129.56 101.16 C 131.41 100.91 133.27 100.66 135.12 100.40 C 134.78 100.79 134.11 101.57 133.78 101.96 C 132.20 102.10 130.62 102.23 129.05 102.36 C 128.87 102.83 128.52 103.78 128.35 104.25 C 128.42 101.29 128.25 98.34 128.08 95.39 C 126.34 94.94 124.61 94.47 122.86 94.06 Z" />
</g>
<g id="#968c3eff">
<path fill="#968c3e" opacity="1.00" d=" M 142.04 93.30 C 142.51 93.57 143.46 94.11 143.93 94.38 C 143.97 95.62 143.99 96.86 143.99 98.10 C 143.96 100.24 143.92 102.37 143.84 104.50 C 143.81 104.94 143.74 105.81 143.71 106.25 C 143.39 106.41 142.74 106.72 142.42 106.88 C 141.82 102.38 141.56 97.82 142.04 93.30 Z" />
</g>
<g id="#070805ff">
<path fill="#070805" opacity="1.00" d=" M 82.64 96.61 C 85.05 95.55 87.76 95.43 90.29 94.76 C 90.25 98.25 90.25 101.74 90.28 105.23 C 87.04 104.56 83.80 103.87 80.60 103.01 C 80.85 100.79 80.39 97.95 82.64 96.61 Z" />
</g>
<g id="#919173ff">
<path fill="#919173" opacity="1.00" d=" M 101.22 95.00 C 102.80 96.40 104.40 97.76 106.04 99.09 C 105.98 99.71 105.87 100.95 105.81 101.57 C 104.17 102.65 102.61 103.87 101.14 105.17 C 101.09 101.78 101.09 98.39 101.22 95.00 M 102.14 99.42 C 100.88 101.04 103.96 101.97 104.86 100.77 C 106.13 99.16 103.04 98.23 102.14 99.42 Z" />
</g>
<g id="#ceb02bff">
<path fill="#ceb02b" opacity="1.00" d=" M 37.37 95.88 C 38.56 95.99 39.73 96.23 40.91 96.42 C 40.89 97.04 40.87 98.27 40.85 98.89 C 38.77 98.93 36.68 98.96 34.59 99.00 C 34.81 98.32 35.23 96.97 35.45 96.30 C 35.93 96.19 36.89 95.98 37.37 95.88 Z" />
<path fill="#ceb02b" opacity="1.00" d=" M 34.94 101.19 C 36.88 101.17 38.83 101.10 40.77 101.03 C 40.84 101.54 40.99 102.54 41.06 103.05 C 40.80 103.42 40.28 104.18 40.03 104.56 C 39.15 104.49 37.38 104.37 36.50 104.30 C 35.98 103.26 35.46 102.23 34.94 101.19 Z" />
</g>
<g id="#edca40ff">
<path fill="#edca40" opacity="1.00" d=" M 40.91 96.42 C 41.11 96.23 41.52 95.84 41.72 95.65 L 41.95 95.47 C 41.61 98.84 41.55 102.23 41.51 105.61 C 41.40 104.97 41.17 103.69 41.06 103.05 C 40.99 102.54 40.84 101.54 40.77 101.03 C 38.83 101.10 36.88 101.17 34.94 101.19 C 34.79 100.89 34.50 100.29 34.36 99.99 L 34.59 99.00 C 36.68 98.96 38.77 98.93 40.85 98.89 C 40.87 98.27 40.89 97.04 40.91 96.42 Z" />
<path fill="#edca40" opacity="1.00" d=" M 143.99 98.10 C 144.69 97.25 145.40 96.39 146.11 95.54 C 148.21 96.25 150.40 96.80 152.32 97.93 C 154.13 98.81 153.65 102.04 151.83 102.68 C 149.31 103.79 146.53 104.03 143.84 104.50 C 143.92 102.37 143.96 100.24 143.99 98.10 Z" />
</g>
<g id="#cfd0c4ff">
<path fill="#cfd0c4" opacity="1.00" d=" M 91.43 96.47 C 94.18 96.09 96.96 95.78 99.73 96.18 C 99.66 98.91 99.60 101.64 99.51 104.37 C 96.88 104.35 94.25 104.35 91.63 104.34 C 91.55 101.71 91.50 99.09 91.43 96.47 Z" />
<path fill="#cfd0c4" opacity="1.00" d=" M 102.14 99.42 C 103.04 98.23 106.13 99.16 104.86 100.77 C 103.96 101.97 100.88 101.04 102.14 99.42 Z" />
</g>
<g id="#cccdbeff">
<path fill="#cccdbe" opacity="1.00" d=" M 8.34 101.49 C 9.10 101.57 10.62 101.74 11.38 101.83 C 11.45 103.90 11.31 105.98 11.48 108.06 C 11.97 111.49 12.63 114.89 13.09 118.33 C 12.71 117.89 11.94 117.01 11.56 116.57 C 10.96 111.46 10.44 106.24 8.34 101.49 Z" />
</g>
<g id="#d7d5baff">
<path fill="#d7d5ba" opacity="1.00" d=" M 40.03 104.56 C 40.28 104.18 40.80 103.42 41.06 103.05 C 41.17 103.69 41.40 104.97 41.51 105.61 C 38.92 105.70 36.33 105.58 33.75 105.45 C 33.78 110.98 33.16 116.48 32.54 121.97 C 32.35 123.63 31.49 125.11 30.80 126.60 C 30.87 126.03 31.02 124.88 31.09 124.31 C 31.50 121.01 31.79 117.69 32.06 114.38 C 32.34 111.19 32.68 108.01 32.94 104.83 C 33.43 104.68 34.40 104.37 34.89 104.22 C 35.30 104.24 36.10 104.28 36.50 104.30 C 37.38 104.37 39.15 104.49 40.03 104.56 Z" />
</g>
<g id="#cdcec0ff">
<path fill="#cdcec0" opacity="1.00" d=" M 50.98 106.30 C 59.85 106.38 68.66 107.60 77.53 107.94 C 79.11 108.05 80.69 108.18 82.26 108.42 C 75.46 108.77 68.62 109.02 61.85 108.10 C 58.23 107.54 54.28 108.19 50.98 106.30 Z" />
</g>
<g id="#cbccbdff">
<path fill="#cbccbd" opacity="1.00" d=" M 84.39 109.63 C 84.97 110.47 85.51 111.33 86.02 112.22 C 86.83 117.26 87.47 122.32 88.14 127.38 C 87.74 126.93 86.96 126.03 86.56 125.58 C 86.10 120.23 85.30 114.92 84.39 109.63 Z" />
</g>
<g id="#d1d2c4ff">
<path fill="#d1d2c4" opacity="1.00" d=" M 127.83 109.63 C 129.31 109.60 130.80 109.58 132.28 109.54 C 131.20 110.15 130.13 110.75 129.05 111.36 C 126.74 120.37 128.91 129.89 125.79 138.75 C 125.83 137.33 125.88 135.91 125.92 134.50 C 125.95 133.63 126.01 131.89 126.04 131.02 C 126.14 129.14 126.29 127.26 126.46 125.38 C 126.94 120.13 127.03 114.85 127.83 109.63 Z" />
</g>
<g id="#7a773bff">
<path fill="#7a773b" opacity="1.00" d=" M 112.89 130.70 C 114.26 130.89 115.64 131.09 117.01 131.29 C 115.72 132.99 114.65 134.84 113.50 136.64 C 111.36 135.15 112.51 132.74 112.89 130.70 Z" />
</g>
<g id="#8f8b57ff">
<path fill="#8f8b57" opacity="1.00" d=" M 121.36 131.39 C 122.92 131.27 124.48 131.14 126.04 131.02 C 126.01 131.89 125.95 133.63 125.92 134.50 C 124.96 134.95 124.00 135.42 123.01 135.79 C 121.01 135.35 121.74 132.90 121.36 131.39 Z" />
</g>
<g id="#d1d2c6ff">
<path fill="#d1d2c6" opacity="1.00" d=" M 94.26 169.58 C 92.11 162.83 91.28 155.68 91.47 148.60 C 92.32 152.40 92.92 156.25 93.47 160.11 C 93.98 163.24 94.17 166.41 94.26 169.58 Z" />
</g>
<g id="#dbdac8ff">
<path fill="#dbdac8" opacity="1.00" d=" M 123.42 168.08 C 124.47 175.38 123.24 182.69 122.64 189.96 C 122.46 192.17 121.36 194.12 120.38 196.06 C 119.76 196.32 118.53 196.85 117.92 197.11 C 123.49 189.82 121.22 180.00 121.63 171.50 C 122.09 170.29 122.69 169.16 123.42 168.08 Z" />
</g>
<g id="#828140ff">
<path fill="#828140" opacity="1.00" d=" M 108.15 171.11 C 110.44 171.56 113.26 171.17 115.05 172.94 C 116.79 175.90 117.58 179.30 119.07 182.39 C 120.64 178.94 120.99 175.18 121.63 171.50 C 121.22 180.00 123.49 189.82 117.92 197.11 C 116.44 197.87 114.98 198.68 113.49 199.42 C 113.72 197.38 113.90 195.34 114.06 193.30 C 111.87 192.84 109.69 192.37 107.52 191.90 C 107.55 191.34 107.62 190.23 107.66 189.67 C 110.07 183.83 109.14 177.18 108.15 171.11 M 111.14 172.02 C 110.92 177.67 110.98 183.33 111.08 188.98 C 112.79 188.84 114.49 188.71 116.20 188.60 C 116.60 186.33 117.35 184.05 117.23 181.73 C 116.43 177.92 115.26 173.42 111.14 172.02 Z" />
</g>
</svg>
