<?xml version="1.0" encoding="UTF-8" ?>
<!DOCTYPE svg PUBLIC "-//W3C//DTD SVG 1.1//EN" "http://www.w3.org/Graphics/SVG/1.1/DTD/svg11.dtd">
<svg width="56pt" height="74pt" viewBox="0 0 56 74" version="1.1" xmlns="http://www.w3.org/2000/svg">
<g id="#ffffffff">
</g>
<g id="#000000ff">
<path fill="#000000" opacity="1.00" d=" M 11.34 0.00 L 11.39 0.00 C 12.58 1.05 13.72 2.15 14.87 3.24 C 14.64 3.87 14.20 5.12 13.98 5.75 C 13.21 4.69 12.48 3.60 11.76 2.51 C 10.45 3.81 8.97 4.91 7.51 6.05 C 9.27 6.22 11.04 6.22 12.78 6.52 L 11.38 7.12 C 10.62 8.83 8.77 10.29 9.32 12.34 C 9.74 12.89 10.57 13.98 10.98 14.53 C 11.01 14.99 11.06 15.91 11.09 16.37 C 11.96 17.54 12.80 18.75 13.57 20.00 C 15.30 20.00 17.04 20.00 18.77 20.00 C 19.35 19.31 19.90 18.59 20.43 17.85 C 20.12 15.06 19.93 12.27 19.96 9.46 C 20.79 8.65 21.63 7.83 22.45 7.00 C 25.47 7.03 28.50 6.81 31.51 7.15 C 33.93 7.96 32.90 10.93 32.36 12.67 C 32.18 13.09 31.82 13.93 31.65 14.35 C 31.24 15.88 31.01 17.44 30.76 19.00 C 30.07 19.00 28.69 19.00 28.00 19.00 C 28.00 19.50 28.00 20.50 28.00 21.00 C 31.08 21.01 34.16 21.05 37.23 20.86 C 40.03 19.49 43.24 20.15 46.23 19.86 C 47.87 18.96 51.02 18.08 51.85 20.49 C 52.10 22.34 52.01 24.22 52.07 26.09 C 49.77 25.98 47.38 26.19 45.22 25.23 C 43.10 25.83 40.91 26.04 38.73 26.27 C 35.83 27.59 32.45 26.35 29.59 27.59 C 28.55 29.54 29.14 31.88 28.93 34.00 C 36.17 34.01 43.40 33.99 50.63 34.01 C 51.19 33.34 51.75 32.67 52.31 32.01 C 53.51 32.91 54.73 33.78 56.00 34.58 L 56.00 36.74 C 53.75 36.83 51.63 37.52 49.69 38.66 C 45.85 37.43 41.73 38.09 37.76 38.15 C 35.04 39.50 31.92 38.89 29.00 39.02 C 29.00 41.54 29.00 44.06 29.00 46.58 C 30.42 47.94 31.84 49.31 33.31 50.62 C 36.27 51.39 36.34 54.06 35.68 56.57 C 34.64 57.69 33.50 58.70 32.21 59.51 C 32.01 60.03 31.60 61.07 31.40 61.59 C 30.34 63.01 29.15 64.33 27.93 65.62 C 28.76 66.29 29.59 66.97 30.43 67.64 C 32.29 68.54 33.66 70.09 34.57 71.94 C 31.72 72.21 28.88 71.89 26.46 70.26 C 25.46 69.99 24.46 69.72 23.47 69.44 C 22.25 68.54 21.07 67.60 19.89 66.65 C 20.80 65.29 21.70 63.91 22.66 62.58 C 23.51 60.50 27.29 57.88 24.70 55.90 C 23.49 56.94 22.42 58.13 21.34 59.30 C 20.57 60.60 19.69 61.82 18.79 63.04 C 18.25 63.05 17.16 63.07 16.62 63.08 C 15.57 63.63 14.51 64.17 13.45 64.69 C 11.80 65.80 10.32 67.11 8.81 68.40 C 9.88 69.40 10.94 70.41 12.01 71.42 C 12.01 72.06 12.00 73.35 12.00 74.00 L 6.77 74.00 C 4.41 72.84 2.44 71.08 0.55 69.28 C 3.12 66.14 6.09 63.38 9.00 60.57 C 9.00 60.04 9.00 58.98 9.00 58.45 C 9.41 58.01 10.23 57.14 10.64 56.70 C 11.28 55.62 11.97 54.56 12.67 53.51 C 13.23 51.79 13.92 50.11 14.68 48.47 C 15.03 47.43 15.41 46.41 15.80 45.39 C 15.89 44.93 16.07 44.03 16.16 43.58 C 16.46 42.93 17.07 41.63 17.37 40.98 C 16.69 41.00 15.33 41.03 14.65 41.05 C 13.25 42.14 11.77 44.16 10.08 41.96 C 9.17 42.20 8.27 42.46 7.38 42.74 C 6.93 42.87 6.05 43.11 5.61 43.23 C 4.60 43.60 3.58 43.95 2.56 44.29 C 1.92 44.55 0.64 45.06 0.00 45.32 L 0.00 37.01 C 4.16 36.80 8.31 37.09 12.42 37.71 C 13.93 36.45 15.38 35.13 16.80 33.78 C 15.91 31.98 16.02 29.93 15.86 27.99 C 14.32 28.00 12.79 28.02 11.25 28.06 C 10.14 26.63 9.09 25.16 8.16 23.62 C 7.95 23.10 7.54 22.06 7.33 21.55 C 7.03 21.03 6.43 19.99 6.13 19.47 C 6.02 19.02 5.81 18.11 5.70 17.66 C 5.31 16.28 5.04 14.88 4.77 13.47 C 3.10 12.65 1.23 11.48 2.44 9.37 C 4.19 5.31 8.95 3.72 11.34 0.00 M 3.98 6.89 L 4.06 7.69 C 4.68 7.99 5.93 8.57 6.55 8.86 C 5.91 8.92 4.64 9.05 4.00 9.11 L 4.00 10.01 C 4.55 10.00 5.66 9.97 6.22 9.96 C 5.84 10.55 5.08 11.72 4.71 12.31 C 6.67 12.21 8.01 10.89 8.35 9.00 L 10.00 9.00 L 10.00 8.21 C 7.99 7.77 6.01 7.22 3.98 6.89 M 28.34 12.00 C 27.92 12.50 27.08 13.50 26.66 14.00 C 24.76 14.00 22.86 14.00 20.96 14.00 C 21.01 14.60 21.11 15.80 21.17 16.39 C 21.72 17.53 22.08 18.74 22.25 20.00 C 23.92 20.00 25.59 20.01 27.26 20.01 C 26.87 19.50 26.10 18.47 25.72 17.95 C 27.20 17.99 28.68 18.04 30.17 18.09 C 28.35 16.70 29.65 15.54 30.97 14.53 C 30.98 13.90 31.00 12.63 31.01 12.00 C 30.34 12.00 29.01 12.00 28.34 12.00 M 6.09 15.85 C 7.24 19.72 8.86 23.58 11.31 26.82 C 13.53 27.13 15.79 27.01 18.03 27.02 L 17.75 28.22 L 18.47 28.21 C 20.93 29.54 24.04 29.34 26.56 28.27 L 27.32 28.30 L 26.95 27.17 C 33.22 25.52 39.88 25.99 46.05 23.85 C 46.04 23.13 46.01 21.70 45.99 20.99 C 39.96 20.30 34.08 23.15 28.08 21.70 C 25.91 21.39 23.26 20.05 21.45 21.99 C 21.06 21.58 20.28 20.75 19.89 20.33 C 17.73 20.83 15.44 21.50 13.26 20.77 C 10.72 18.20 9.75 14.60 8.27 11.41 C 6.81 12.45 5.41 13.90 6.09 15.85 M 47.00 20.00 C 47.00 21.67 47.00 23.33 47.00 25.00 C 48.33 25.00 49.67 25.00 51.00 25.00 L 51.00 24.02 C 50.50 24.01 49.50 23.99 49.00 23.99 L 49.00 23.01 C 49.50 23.00 50.50 23.00 51.00 23.00 L 51.00 22.11 C 50.36 22.05 49.08 21.92 48.44 21.86 C 49.07 21.56 50.34 20.98 50.97 20.68 L 50.99 20.00 C 49.99 20.00 48.00 20.00 47.00 20.00 M 16.76 27.94 C 17.16 31.97 18.31 35.92 18.06 40.00 C 21.38 40.00 24.69 40.00 28.00 39.99 C 28.00 35.99 27.96 31.99 28.06 27.98 C 25.01 30.98 19.84 30.82 16.76 27.94 M 28.96 35.01 L 29.01 36.15 C 30.80 36.20 32.59 36.27 34.37 36.42 C 32.59 36.70 30.80 36.83 29.00 36.95 L 28.99 37.99 C 31.65 37.99 34.31 38.00 36.97 38.00 C 36.98 37.25 37.02 35.76 37.03 35.01 C 34.34 35.00 31.65 35.00 28.96 35.01 M 39.00 35.00 C 39.00 35.50 38.99 36.50 38.99 36.99 C 40.66 36.99 42.33 36.99 44.00 36.99 C 44.00 36.50 44.00 35.50 44.00 35.01 C 42.33 35.00 40.67 35.00 39.00 35.00 M 45.17 35.16 C 44.64 36.78 45.20 37.34 46.83 36.82 C 47.35 35.20 46.80 34.64 45.17 35.16 M 48.02 35.00 C 48.04 35.56 48.08 36.69 48.10 37.25 C 50.04 37.00 51.98 36.55 53.43 35.15 C 51.63 35.06 49.82 35.02 48.02 35.00 M 11.10 38.85 C 7.87 37.59 4.36 38.00 0.98 38.02 C 0.97 39.91 0.95 41.80 1.02 43.70 C 4.77 43.17 8.30 40.06 12.17 41.77 C 13.63 40.74 15.26 40.02 17.00 39.63 C 16.99 38.89 16.96 37.41 16.95 36.67 C 14.92 37.17 12.98 37.96 11.10 38.85 M 18.01 41.00 C 18.01 41.50 18.00 42.49 18.00 42.99 C 21.33 43.00 24.66 43.00 27.99 43.00 C 28.00 42.50 28.00 41.51 28.01 41.02 C 24.67 41.00 21.34 40.99 18.01 41.00 M 17.25 44.01 C 15.38 49.21 13.71 54.66 9.99 58.89 C 10.00 59.59 10.01 61.00 10.02 61.70 C 10.96 62.49 11.90 63.29 12.84 64.08 C 14.75 63.10 16.74 62.27 18.78 61.59 C 20.21 59.48 21.79 57.46 23.61 55.67 C 23.01 54.67 22.42 53.66 21.83 52.65 C 24.20 54.44 26.07 56.82 28.59 58.40 C 30.25 59.65 32.17 58.30 33.87 57.90 C 34.46 56.17 34.90 54.39 35.09 52.57 C 31.74 50.72 28.15 48.11 27.63 44.01 C 24.17 43.99 20.71 44.00 17.25 44.01 M 20.91 66.53 C 24.61 69.00 28.86 70.81 33.31 71.29 C 31.34 69.28 29.10 67.58 26.89 65.85 C 28.30 64.12 29.70 62.39 31.07 60.63 C 29.55 59.80 28.04 58.97 26.53 58.13 C 24.78 61.01 22.88 63.80 20.91 66.53 M 1.61 69.16 C 4.10 72.08 7.64 73.70 11.51 73.00 C 10.45 71.34 9.26 69.78 8.00 68.28 C 9.34 66.96 10.68 65.63 12.02 64.30 C 11.25 63.66 9.71 62.38 8.94 61.74 C 6.44 64.16 3.98 66.61 1.61 69.16 Z" />
<path fill="#000000" opacity="1.00" d=" M 29.22 13.22 C 29.83 13.84 29.83 13.84 29.22 13.22 Z" />
</g>
<g id="#ffc080ff">
<path fill="#ffc080" opacity="1.00" d=" M 3.98 6.89 C 6.01 7.22 7.99 7.77 10.00 8.21 L 10.00 9.00 L 8.35 9.00 C 8.01 10.89 6.67 12.21 4.71 12.31 C 5.08 11.72 5.84 10.55 6.22 9.96 C 5.66 9.97 4.55 10.00 4.00 10.01 L 4.00 9.11 C 4.64 9.05 5.91 8.92 6.55 8.86 C 5.93 8.57 4.68 7.99 4.06 7.69 L 3.98 6.89 Z" />
<path fill="#ffc080" opacity="1.00" d=" M 28.34 12.00 C 29.01 12.00 30.34 12.00 31.01 12.00 C 31.00 12.63 30.98 13.90 30.97 14.53 C 29.65 15.54 28.35 16.70 30.17 18.09 C 28.68 18.04 27.20 17.99 25.72 17.95 C 26.10 18.47 26.87 19.50 27.26 20.01 C 25.59 20.01 23.92 20.00 22.25 20.00 C 22.08 18.74 21.72 17.53 21.17 16.39 C 21.11 15.80 21.01 14.60 20.96 14.00 C 22.86 14.00 24.76 14.00 26.66 14.00 C 27.08 13.50 27.92 12.50 28.34 12.00 M 29.22 13.22 C 29.83 13.84 29.83 13.84 29.22 13.22 Z" />
<path fill="#ffc080" opacity="1.00" d=" M 47.00 20.00 C 48.00 20.00 49.99 20.00 50.99 20.00 L 50.97 20.68 C 50.34 20.98 49.07 21.56 48.44 21.86 C 49.08 21.92 50.36 22.05 51.00 22.11 L 51.00 23.00 C 50.50 23.00 49.50 23.00 49.00 23.01 L 49.00 23.99 C 49.50 23.99 50.50 24.01 51.00 24.02 L 51.00 25.00 C 49.67 25.00 48.33 25.00 47.00 25.00 C 47.00 23.33 47.00 21.67 47.00 20.00 Z" />
</g>
<g id="#9e532bff">
<path fill="#9e532b" opacity="1.00" d=" M 6.09 15.85 C 5.41 13.90 6.81 12.45 8.27 11.41 C 9.75 14.60 10.72 18.20 13.26 20.77 C 15.44 21.50 17.73 20.83 19.89 20.33 C 20.28 20.75 21.06 21.58 21.45 21.99 C 23.26 20.05 25.91 21.39 28.08 21.70 C 34.08 23.15 39.96 20.30 45.99 20.99 C 46.01 21.70 46.04 23.13 46.05 23.85 C 39.88 25.99 33.22 25.52 26.95 27.17 L 27.32 28.30 L 26.56 28.27 C 24.04 29.34 20.93 29.54 18.47 28.21 L 17.75 28.22 L 18.03 27.02 C 15.79 27.01 13.53 27.13 11.31 26.82 C 8.86 23.58 7.24 19.72 6.09 15.85 Z" />
<path fill="#9e532b" opacity="1.00" d=" M 16.76 27.94 C 19.84 30.82 25.01 30.98 28.06 27.98 C 27.96 31.99 28.00 35.99 28.00 39.99 C 24.69 40.00 21.38 40.00 18.06 40.00 C 18.31 35.92 17.16 31.97 16.76 27.94 Z" />
</g>
<g id="#895d26ff">
<path fill="#895d26" opacity="1.00" d=" M 28.96 35.01 C 31.65 35.00 34.34 35.00 37.03 35.01 C 37.02 35.76 36.98 37.25 36.97 38.00 C 34.31 38.00 31.65 37.99 28.99 37.99 L 29.00 36.95 C 30.80 36.83 32.59 36.70 34.37 36.42 C 32.59 36.27 30.80 36.20 29.01 36.15 L 28.96 35.01 Z" />
<path fill="#895d26" opacity="1.00" d=" M 39.00 35.00 C 40.67 35.00 42.33 35.00 44.00 35.01 C 44.00 35.50 44.00 36.50 44.00 36.99 C 42.33 36.99 40.66 36.99 38.99 36.99 C 38.99 36.50 39.00 35.50 39.00 35.00 Z" />
<path fill="#895d26" opacity="1.00" d=" M 45.17 35.16 C 46.80 34.64 47.35 35.20 46.83 36.82 C 45.20 37.34 44.64 36.78 45.17 35.16 Z" />
<path fill="#895d26" opacity="1.00" d=" M 11.10 38.85 C 12.98 37.96 14.92 37.17 16.95 36.67 C 16.96 37.41 16.99 38.89 17.00 39.63 C 15.26 40.02 13.63 40.74 12.17 41.77 C 8.30 40.06 4.77 43.17 1.02 43.70 C 0.95 41.80 0.97 39.91 0.98 38.02 C 4.36 38.00 7.87 37.59 11.10 38.85 Z" />
</g>
<g id="#2a2a2aff">
<path fill="#2a2a2a" opacity="1.00" d=" M 48.02 35.00 C 49.82 35.02 51.63 35.06 53.43 35.15 C 51.98 36.55 50.04 37.00 48.10 37.25 C 48.08 36.69 48.04 35.56 48.02 35.00 Z" />
</g>
<g id="#804000ff">
<path fill="#804000" opacity="1.00" d=" M 18.01 41.00 C 21.34 40.99 24.67 41.00 28.01 41.02 C 28.00 41.51 28.00 42.50 27.99 43.00 C 24.66 43.00 21.33 43.00 18.00 42.99 C 18.00 42.49 18.01 41.50 18.01 41.00 Z" />
<path fill="#804000" opacity="1.00" d=" M 20.91 66.53 C 22.88 63.80 24.78 61.01 26.53 58.13 C 28.04 58.97 29.55 59.80 31.07 60.63 C 29.70 62.39 28.30 64.12 26.89 65.85 C 29.10 67.58 31.34 69.28 33.31 71.29 C 28.86 70.81 24.61 69.00 20.91 66.53 Z" />
<path fill="#804000" opacity="1.00" d=" M 1.61 69.16 C 3.98 66.61 6.44 64.16 8.94 61.74 C 9.71 62.38 11.25 63.66 12.02 64.30 C 10.68 65.63 9.34 66.96 8.00 68.28 C 9.26 69.78 10.45 71.34 11.51 73.00 C 7.64 73.70 4.10 72.08 1.61 69.16 Z" />
</g>
<g id="#6d5632ff">
<path fill="#6d5632" opacity="1.00" d=" M 17.25 44.01 C 20.71 44.00 24.17 43.99 27.63 44.01 C 28.15 48.11 31.74 50.72 35.09 52.57 C 34.90 54.39 34.46 56.17 33.87 57.90 C 32.17 58.30 30.25 59.65 28.59 58.40 C 26.07 56.82 24.20 54.44 21.83 52.65 C 22.42 53.66 23.01 54.67 23.61 55.67 C 21.79 57.46 20.21 59.48 18.78 61.59 C 16.74 62.27 14.75 63.10 12.84 64.08 C 11.90 63.29 10.96 62.49 10.02 61.70 C 10.01 61.00 10.00 59.59 9.99 58.89 C 13.71 54.66 15.38 49.21 17.25 44.01 Z" />
</g>
</svg>
