<?xml version="1.0" encoding="UTF-8" ?>
<!DOCTYPE svg PUBLIC "-//W3C//DTD SVG 1.1//EN" "http://www.w3.org/Graphics/SVG/1.1/DTD/svg11.dtd">
<svg width="32pt" height="8pt" viewBox="0 0 32 8" version="1.1" xmlns="http://www.w3.org/2000/svg">
<g id="#000000ff">
<path fill="#000000" opacity="1.00" d=" M 0.00 0.00 L 3.48 0.00 C 2.85 0.34 1.60 1.01 0.98 1.34 C 1.03 3.23 1.02 5.12 0.99 7.01 C 7.34 7.01 13.68 7.02 20.02 6.98 C 20.00 4.99 19.99 3.00 20.00 1.01 C 14.78 0.63 9.33 1.95 4.32 0.00 L 25.13 0.00 C 26.55 0.57 27.97 1.11 29.38 1.70 C 30.59 1.97 31.46 2.60 32.00 3.59 L 32.00 4.57 C 31.23 5.23 30.41 5.83 29.54 6.36 C 28.08 6.89 26.61 7.35 25.20 8.00 L 0.00 8.00 L 0.00 0.00 M 21.00 1.00 C 21.02 3.00 21.03 5.00 21.01 7.00 C 21.51 7.00 22.50 7.00 22.99 7.00 C 22.98 5.00 22.97 3.00 22.99 0.99 C 22.49 1.00 21.50 1.00 21.00 1.00 M 23.98 0.86 C 24.01 2.94 24.01 5.02 23.97 7.10 C 25.64 6.59 27.33 6.13 29.02 5.69 C 29.01 4.56 29.00 3.44 28.99 2.31 C 27.31 1.87 25.63 1.41 23.98 0.86 Z" />
</g>
<g id="#464646ff">
<path fill="#464646" opacity="1.00" d=" M 3.48 0.00 L 4.32 0.00 C 9.33 1.95 14.78 0.63 20.00 1.01 C 19.99 3.00 20.00 4.99 20.02 6.98 C 13.68 7.02 7.34 7.01 0.99 7.01 C 1.02 5.12 1.03 3.23 0.98 1.34 C 1.60 1.01 2.85 0.34 3.48 0.00 Z" />
<path fill="#464646" opacity="1.00" d=" M 21.00 1.00 C 21.50 1.00 22.49 1.00 22.99 0.99 C 22.97 3.00 22.98 5.00 22.99 7.00 C 22.50 7.00 21.51 7.00 21.01 7.00 C 21.03 5.00 21.02 3.00 21.00 1.00 Z" />
<path fill="#464646" opacity="1.00" d=" M 23.98 0.86 C 25.63 1.41 27.31 1.87 28.99 2.31 C 29.00 3.44 29.01 4.56 29.02 5.69 C 27.33 6.13 25.64 6.59 23.97 7.10 C 24.01 5.02 24.01 2.94 23.98 0.86 Z" />
</g>
<g id="#ffffffff">
</g>
</svg>
