<?xml version="1.0" encoding="UTF-8" ?>
<!DOCTYPE svg PUBLIC "-//W3C//DTD SVG 1.1//EN" "http://www.w3.org/Graphics/SVG/1.1/DTD/svg11.dtd">
<svg width="577pt" height="318pt" viewBox="0 0 577 318" version="1.1" xmlns="http://www.w3.org/2000/svg">
<g id="#303132fa">
<path fill="#303132" opacity="0.98" d=" M 235.02 1.01 C 235.74 1.01 237.19 1.03 237.92 1.03 C 238.22 38.41 237.78 75.80 238.08 113.17 C 242.97 111.20 241.01 102.77 245.04 99.02 C 243.02 102.70 246.78 108.25 242.08 110.19 C 238.32 113.82 242.07 117.29 245.26 119.44 C 242.94 120.03 241.48 117.79 239.70 116.76 C 238.20 123.60 234.86 130.22 234.31 137.25 C 243.78 140.07 256.44 140.98 267.22 139.52 C 268.19 139.60 269.17 139.68 270.15 139.74 L 270.83 139.78 C 274.52 139.99 278.27 140.02 281.98 140.14 C 283.97 142.82 283.73 136.60 286.39 138.28 C 286.88 140.98 289.40 141.37 291.74 141.03 C 294.52 140.88 297.35 140.64 300.14 140.30 C 316.37 141.25 334.44 140.41 349.29 139.34 C 362.12 134.10 375.08 129.14 387.95 123.98 C 388.53 124.30 389.70 124.93 390.28 125.24 C 385.96 125.86 386.52 131.88 390.98 131.07 C 400.30 134.15 413.82 125.90 419.14 136.75 C 421.93 134.16 432.46 132.46 426.98 138.10 C 430.14 139.56 433.39 141.65 433.23 145.61 C 423.88 140.81 439.56 161.87 430.55 163.57 C 425.13 164.07 419.72 164.36 414.30 164.76 C 410.01 159.53 411.37 151.57 410.14 145.21 C 416.27 142.94 426.80 147.77 430.18 140.95 C 415.78 140.77 401.43 142.12 387.07 142.97 C 388.94 144.57 391.31 146.33 388.22 148.08 C 381.16 146.26 371.40 144.20 373.50 154.46 C 377.09 144.92 365.34 144.93 364.97 151.89 C 364.71 142.94 350.82 148.30 344.10 147.09 C 343.95 153.02 343.60 158.99 344.13 164.92 C 359.86 164.61 375.99 165.54 391.55 164.01 C 392.06 164.93 392.86 165.85 392.54 166.99 C 376.47 165.04 360.16 166.16 344.01 166.13 C 344.02 167.83 344.03 171.22 344.04 172.92 C 359.95 173.55 375.88 172.37 391.78 173.00 C 400.46 158.33 424.54 176.38 435.59 166.52 C 444.63 166.79 430.69 152.62 433.23 145.61 C 433.68 156.99 446.72 151.56 453.93 154.20 C 454.78 159.15 443.37 152.37 445.02 157.92 C 448.93 165.42 468.40 153.92 455.12 151.56 C 453.87 139.99 470.83 141.12 476.78 147.24 C 477.89 151.70 468.41 147.35 467.95 151.98 C 467.49 154.19 465.63 155.52 464.11 157.01 C 474.81 164.93 490.80 158.57 500.56 169.46 C 511.36 173.96 494.47 157.78 503.83 154.74 C 500.24 161.04 504.78 163.58 508.32 165.02 C 509.73 161.82 511.49 151.36 511.06 163.08 C 511.83 168.00 513.25 158.73 513.27 156.54 C 517.91 164.72 508.24 167.76 508.08 173.82 C 520.28 175.40 533.34 174.22 544.30 180.71 C 499.97 177.63 455.49 177.23 411.07 178.45 C 305.32 177.54 199.53 178.01 93.77 178.22 C 85.44 177.93 77.10 178.14 68.77 177.77 C 94.46 175.91 120.27 177.67 145.99 176.90 C 146.11 172.82 146.12 168.72 145.48 164.69 C 146.45 158.32 131.59 158.58 135.55 165.40 C 137.67 171.47 127.92 164.90 131.56 161.13 C 132.06 153.29 145.44 162.54 149.29 156.01 C 154.20 154.88 149.35 160.84 151.81 162.33 C 157.75 161.52 162.60 166.84 167.83 162.97 C 172.53 169.06 178.18 161.96 181.09 157.95 C 182.31 157.87 183.54 157.80 184.77 157.74 C 194.38 154.42 217.63 166.73 216.54 149.59 C 214.05 160.30 235.76 159.01 228.26 147.00 C 230.86 139.12 220.60 142.27 215.72 142.67 C 191.30 146.20 167.11 151.20 142.79 155.26 C 132.99 157.65 122.85 157.14 112.84 157.01 C 114.00 156.28 115.20 155.61 116.35 154.85 C 117.33 154.23 117.71 153.05 118.35 152.14 C 123.99 149.42 132.08 152.94 130.98 142.95 C 125.84 150.49 136.42 153.66 138.69 148.10 C 141.09 154.82 140.88 146.85 139.97 143.80 C 142.55 145.90 141.89 151.35 145.90 151.12 C 144.28 145.40 150.69 132.58 141.58 132.15 C 141.04 129.02 150.02 129.20 143.06 124.68 C 156.84 118.33 152.71 132.87 154.17 140.59 C 161.38 137.25 162.76 149.18 167.69 146.90 C 189.74 144.23 212.80 140.40 233.52 131.42 C 237.54 121.08 235.64 109.78 236.00 99.00 C 235.66 66.33 236.88 33.63 235.02 1.01 M 393.47 136.55 C 389.73 136.91 379.08 136.73 385.14 141.60 C 389.83 138.43 400.62 142.70 407.19 140.92 C 406.12 134.15 398.61 135.41 393.47 136.55 M 252.98 142.02 C 257.57 145.02 267.74 141.78 274.00 143.04 C 274.52 148.57 262.79 141.99 262.06 145.93 C 273.38 146.21 284.71 145.93 296.04 146.00 C 295.52 145.75 294.50 145.25 293.99 145.00 C 279.56 146.49 301.88 138.85 299.34 146.10 C 305.94 146.11 312.54 146.05 319.14 145.92 C 316.99 136.02 304.99 148.45 303.88 142.04 C 286.91 141.93 269.94 141.98 252.98 142.02 M 230.10 143.03 C 229.85 151.40 227.98 161.75 236.88 166.07 C 236.42 162.90 237.92 160.34 238.29 164.90 C 263.01 164.27 287.99 165.48 312.80 164.54 C 324.02 168.05 317.37 152.46 318.93 147.07 C 312.37 146.87 305.81 146.88 299.26 147.10 C 299.14 157.06 297.19 150.05 295.78 147.14 C 284.62 146.64 273.41 147.07 262.25 147.10 C 264.53 156.27 257.65 151.04 258.73 147.11 C 253.61 147.43 245.59 145.53 242.09 148.04 C 239.86 161.57 244.06 143.58 237.21 147.05 C 234.22 158.72 241.11 135.33 230.10 143.03 M 243.28 143.08 C 238.13 149.58 257.89 145.29 258.91 145.14 C 253.19 145.70 249.04 141.54 243.28 143.08 M 417.22 146.03 C 415.87 154.12 413.19 142.74 413.21 149.85 C 412.87 159.49 424.82 152.31 429.81 150.59 C 429.65 143.55 423.28 147.82 417.22 146.03 M 320.10 147.01 C 319.70 152.97 319.99 158.95 320.06 164.92 C 325.66 165.23 331.28 165.05 336.90 164.95 C 337.30 159.00 337.00 153.02 336.94 147.07 C 333.22 147.26 325.79 144.41 328.80 152.09 C 323.65 152.10 328.43 142.30 320.10 147.01 M 338.09 147.01 C 339.39 152.82 333.33 167.08 342.91 164.99 C 341.60 159.18 347.65 144.91 338.09 147.01 M 180.28 162.12 C 177.50 164.19 179.78 168.03 179.72 170.99 C 175.95 171.49 169.10 168.93 171.03 174.95 C 177.70 175.11 184.38 175.11 191.05 174.93 C 192.81 168.53 182.74 172.60 182.02 169.93 C 185.73 170.80 191.38 168.10 193.78 172.24 C 198.15 183.22 214.06 174.18 222.89 176.94 C 222.43 171.81 226.25 162.25 218.84 162.18 C 213.38 162.29 207.30 160.83 202.15 163.21 C 201.83 166.33 203.36 172.22 199.28 168.71 C 201.38 156.79 186.45 163.61 180.28 162.12 M 470.24 167.79 C 477.21 169.29 480.39 172.21 489.08 170.07 C 502.34 168.49 487.25 163.36 483.00 164.97 C 480.37 166.43 466.37 160.65 470.24 167.79 M 238.04 166.05 C 238.03 167.77 238.02 171.20 238.01 172.92 C 264.55 172.87 291.16 172.77 317.71 172.93 C 319.58 171.24 320.01 168.96 319.02 166.07 C 292.02 165.94 265.03 165.97 238.04 166.05 M 320.04 166.05 C 315.95 177.92 330.65 171.70 336.96 172.95 C 341.05 161.08 326.34 167.29 320.04 166.05 M 168.38 169.34 C 167.07 174.86 157.50 168.93 158.02 173.99 C 161.17 174.03 167.18 172.04 167.34 176.85 C 170.77 178.92 168.67 166.29 168.38 169.34 M 489.08 170.07 C 482.14 173.13 474.46 173.38 467.01 173.09 C 466.30 179.50 477.44 174.20 481.04 176.04 C 484.83 179.11 498.81 168.14 489.08 170.07 M 413.04 173.22 C 412.95 174.51 412.95 175.80 413.03 177.09 C 427.95 171.98 450.47 180.36 463.01 174.02 C 448.45 171.17 429.23 173.96 413.04 173.22 M 243.02 174.05 C 243.02 174.78 243.02 176.23 243.02 176.95 C 268.34 177.04 293.66 177.04 318.99 176.95 C 319.15 175.25 319.41 173.18 316.99 173.99 C 292.36 174.60 267.67 173.53 243.02 174.05 M 320.01 174.05 C 319.35 181.39 332.66 174.93 336.99 176.95 C 337.65 169.61 324.32 176.06 320.01 174.05 M 344.02 174.05 C 344.02 174.78 344.02 176.22 344.02 176.95 C 360.71 177.05 377.42 177.07 394.12 176.93 C 394.28 175.14 392.82 173.63 391.00 173.99 C 375.34 174.00 359.68 173.92 344.02 174.05 Z" />
</g>
<g id="#373838ed">
<path fill="#373838" opacity="0.93" d=" M 255.71 77.52 C 264.17 78.69 272.48 69.72 278.06 75.00 C 294.59 75.68 311.60 73.06 327.73 77.82 C 326.77 80.07 322.69 85.10 330.24 81.47 C 333.90 76.23 331.52 84.28 337.23 83.83 C 325.21 83.65 313.21 82.44 301.18 83.09 C 301.54 85.85 300.55 103.18 300.05 90.04 C 303.57 76.89 284.96 84.49 277.88 83.72 C 274.45 83.86 271.06 83.80 267.66 84.14 C 265.08 85.08 262.59 86.32 260.21 84.13 C 257.30 84.32 252.26 82.31 250.64 85.77 C 250.19 86.52 249.76 87.28 249.37 88.06 C 241.32 82.11 259.18 85.57 255.71 77.52 Z" />
</g>
<g id="#444444cc">
<path fill="#444444" opacity="0.80" d=" M 341.30 85.27 C 344.22 77.52 330.53 75.92 337.75 71.99 C 340.05 76.57 342.07 81.30 344.08 86.03 C 343.14 85.82 342.21 85.57 341.30 85.27 Z" />
</g>
<g id="#b4b5b8ff">
<path fill="#b4b5b8" opacity="1.00" d=" M 277.88 83.72 C 284.96 84.49 303.57 76.89 300.05 90.04 C 300.55 103.18 301.54 85.85 301.18 83.09 C 313.21 82.44 325.21 83.65 337.23 83.83 C 338.59 84.29 339.93 84.80 341.30 85.27 C 342.21 85.57 343.14 85.82 344.08 86.03 C 347.71 86.97 351.55 87.38 355.03 88.88 C 362.91 94.91 379.87 89.95 382.73 101.20 C 379.72 92.15 396.99 102.90 387.42 102.39 C 383.42 101.64 399.09 104.07 392.12 105.02 C 384.72 105.81 402.26 105.96 396.06 112.99 C 388.06 115.60 382.73 112.67 384.67 104.87 C 381.44 105.64 382.97 110.39 382.59 112.97 C 377.11 113.11 371.64 113.04 366.17 113.02 C 364.39 109.06 368.24 98.85 361.52 98.47 C 352.18 98.29 342.78 97.79 333.47 98.35 C 333.53 104.94 334.42 111.51 334.53 118.11 C 343.66 111.77 360.99 123.71 366.20 114.02 C 371.72 113.97 377.25 113.86 382.79 114.02 C 382.06 124.75 388.49 106.81 395.97 113.91 C 394.13 117.86 391.41 121.33 387.95 123.98 C 375.08 129.14 362.12 134.10 349.29 139.34 C 334.44 140.41 316.37 141.25 300.14 140.30 C 299.87 138.74 299.61 137.18 299.33 135.63 C 298.17 126.74 301.97 115.36 289.78 116.98 C 290.51 113.00 291.05 108.98 291.97 105.03 C 303.67 107.44 295.89 90.54 297.91 84.08 C 291.23 83.84 284.55 84.20 277.88 83.72 Z" />
</g>
<g id="#0c0c0c0f">
<path fill="#0c0c0c" opacity="0.06" d=" M 250.64 85.77 C 252.26 82.31 257.30 84.32 260.21 84.13 C 259.08 87.98 253.60 85.21 250.64 85.77 Z" />
</g>
<g id="#d8d9daff">
<path fill="#d8d9da" opacity="1.00" d=" M 260.21 84.13 C 262.59 86.32 265.08 85.08 267.66 84.14 C 268.81 86.93 278.50 88.03 277.88 83.72 C 284.55 84.20 291.23 83.84 297.91 84.08 C 295.89 90.54 303.67 107.44 291.97 105.03 C 294.19 100.71 289.34 91.23 284.78 96.89 C 277.33 102.49 274.01 94.48 268.11 92.88 C 269.89 97.63 267.41 98.83 262.58 98.56 C 260.94 104.12 260.59 109.98 260.07 115.72 C 269.17 120.78 280.17 117.44 289.78 116.98 C 301.97 115.36 298.17 126.74 299.33 135.63 C 296.70 137.42 291.86 137.04 291.74 141.03 C 289.40 141.37 286.88 140.98 286.39 138.28 C 283.73 136.60 283.97 142.82 281.98 140.14 C 281.80 136.49 271.74 136.26 270.83 139.78 L 270.15 139.74 C 269.65 137.34 267.62 133.80 264.81 135.70 C 259.43 129.78 251.52 125.23 245.26 119.44 C 242.07 117.29 238.32 113.82 242.08 110.19 C 246.78 108.25 243.02 102.70 245.04 99.02 C 246.87 95.52 247.89 91.69 249.37 88.06 C 249.76 87.28 250.19 86.52 250.64 85.77 C 253.60 85.21 259.08 87.98 260.21 84.13 Z" />
</g>
<g id="#11111116">
<path fill="#111111" opacity="0.09" d=" M 267.66 84.14 C 271.06 83.80 274.45 83.86 277.88 83.72 C 278.50 88.03 268.81 86.93 267.66 84.14 Z" />
</g>
<g id="#6b6c6ef5">
<path fill="#6b6c6e" opacity="0.96" d=" M 355.03 88.88 C 363.95 91.63 373.61 86.26 382.10 89.00 C 385.60 93.01 376.01 90.06 380.09 92.84 C 388.24 95.59 397.11 99.98 398.82 109.31 C 411.55 110.83 424.43 109.77 437.22 109.83 C 454.07 110.64 470.90 109.39 487.74 109.34 C 488.81 110.84 489.26 112.71 488.50 114.45 C 460.65 111.29 429.46 115.32 400.49 114.41 C 396.53 111.59 397.43 119.11 395.26 121.17 C 393.78 122.74 392.20 124.24 390.28 125.24 C 389.70 124.93 388.53 124.30 387.95 123.98 C 391.41 121.33 394.13 117.86 395.97 113.91 C 388.49 106.81 382.06 124.75 382.79 114.02 C 377.25 113.86 371.72 113.97 366.20 114.02 L 366.17 113.02 C 371.64 113.04 377.11 113.11 382.59 112.97 C 382.97 110.39 381.44 105.64 384.67 104.87 C 382.73 112.67 388.06 115.60 396.06 112.99 C 402.26 105.96 384.72 105.81 392.12 105.02 C 399.09 104.07 383.42 101.64 387.42 102.39 C 396.99 102.90 379.72 92.15 382.73 101.20 C 379.87 89.95 362.91 94.91 355.03 88.88 Z" />
</g>
<g id="#313131b7">
<path fill="#313131" opacity="0.72" d=" M 268.11 92.88 C 274.01 94.48 277.33 102.49 284.78 96.89 C 289.34 91.23 294.19 100.71 291.97 105.03 C 291.05 108.98 290.51 113.00 289.78 116.98 C 280.17 117.44 269.17 120.78 260.07 115.72 C 260.59 109.98 260.94 104.12 262.58 98.56 C 267.41 98.83 269.89 97.63 268.11 92.88 M 268.58 102.22 C 262.96 102.92 268.71 104.33 268.14 108.00 C 262.45 114.16 275.35 105.52 272.29 111.23 C 262.84 115.12 280.36 114.38 282.99 113.95 C 285.20 108.14 274.57 113.79 278.01 108.28 C 282.61 104.86 291.45 111.58 289.83 101.95 C 286.99 106.80 278.04 106.38 273.28 103.81 C 281.79 104.34 269.72 93.70 268.58 102.22 M 277.03 100.04 C 276.06 111.46 294.04 95.48 277.03 100.04 Z" />
</g>
<g id="#3e3f41ff">
<path fill="#3e3f41" opacity="1.00" d=" M 333.47 98.35 C 342.78 97.79 352.18 98.29 361.52 98.47 C 368.24 98.85 364.39 109.06 366.17 113.02 L 366.20 114.02 C 360.99 123.71 343.66 111.77 334.53 118.11 C 334.42 111.51 333.53 104.94 333.47 98.35 M 336.05 100.03 C 333.91 111.36 346.28 99.16 336.05 100.03 M 341.00 100.06 C 333.80 108.33 352.32 103.21 346.99 105.98 C 332.20 106.69 357.29 108.58 358.01 105.98 C 361.58 94.76 346.53 101.82 341.00 100.06 M 359.05 100.03 C 356.91 111.36 369.27 99.16 359.05 100.03 M 336.01 109.03 C 333.39 124.23 346.95 107.39 336.01 109.03 M 341.01 109.05 C 337.71 120.33 353.28 113.06 359.03 114.92 C 361.41 103.96 346.48 110.72 341.01 109.05 M 360.03 108.96 C 357.29 123.68 370.12 108.37 360.03 108.96 Z" />
</g>
<g id="#0f0f0f12">
<path fill="#0f0f0f" opacity="0.07" d=" M 268.58 102.22 C 269.72 93.70 281.79 104.34 273.28 103.81 C 273.05 100.51 269.24 106.48 268.58 102.22 Z" />
</g>
<g id="#0f0f1012">
<path fill="#0f0f10" opacity="0.07" d=" M 277.03 100.04 C 294.04 95.48 276.06 111.46 277.03 100.04 Z" />
</g>
<g id="#b5b6b7ff">
<path fill="#b5b6b7" opacity="1.00" d=" M 336.05 100.03 C 346.28 99.16 333.91 111.36 336.05 100.03 Z" />
</g>
<g id="#a3a4a7ff">
<path fill="#a3a4a7" opacity="1.00" d=" M 341.00 100.06 C 346.53 101.82 361.58 94.76 358.01 105.98 C 357.29 108.58 332.20 106.69 346.99 105.98 C 352.32 103.21 333.80 108.33 341.00 100.06 Z" />
</g>
<g id="#abacaeff">
<path fill="#abacae" opacity="1.00" d=" M 359.05 100.03 C 369.27 99.16 356.91 111.36 359.05 100.03 Z" />
</g>
<g id="#7b7b7bfb">
<path fill="#7b7b7b" opacity="1.00" d=" M 268.14 108.00 C 268.71 104.33 262.96 102.92 268.58 102.22 C 269.24 106.48 273.05 100.51 273.28 103.81 C 278.04 106.38 286.99 106.80 289.83 101.95 C 291.45 111.58 282.61 104.86 278.01 108.28 C 274.73 108.71 271.40 108.34 268.14 108.00 Z" />
</g>
<g id="#cbcbccff">
<path fill="#cbcbcc" opacity="1.00" d=" M 272.29 111.23 C 275.35 105.52 262.45 114.16 268.14 108.00 C 271.40 108.34 274.73 108.71 278.01 108.28 C 274.57 113.79 285.20 108.14 282.99 113.95 C 280.36 114.38 262.84 115.12 272.29 111.23 Z" />
</g>
<g id="#aeafb1ff">
<path fill="#aeafb1" opacity="1.00" d=" M 336.01 109.03 C 346.95 107.39 333.39 124.23 336.01 109.03 Z" />
</g>
<g id="#abacafff">
<path fill="#abacaf" opacity="1.00" d=" M 341.01 109.05 C 346.48 110.72 361.41 103.96 359.03 114.92 C 353.28 113.06 337.71 120.33 341.01 109.05 Z" />
</g>
<g id="#afb0b2ff">
<path fill="#afb0b2" opacity="1.00" d=" M 360.03 108.96 C 370.12 108.37 357.29 123.68 360.03 108.96 Z" />
</g>
<g id="#3a3a3a5a">
<path fill="#3a3a3a" opacity="0.35" d=" M 398.82 109.31 C 411.61 108.94 424.47 108.35 437.22 109.83 C 424.43 109.77 411.55 110.83 398.82 109.31 Z" />
</g>
<g id="#1f2020f4">
<path fill="#1f2020" opacity="0.96" d=" M 400.49 114.41 C 429.46 115.32 460.65 111.29 488.50 114.45 C 488.30 115.03 487.91 116.18 487.72 116.76 C 470.64 115.13 453.56 115.57 436.45 116.21 C 435.23 117.77 435.53 121.17 432.93 120.97 C 420.38 121.31 407.81 120.67 395.26 121.17 C 397.43 119.11 396.53 111.59 400.49 114.41 Z" />
</g>
<g id="#8b8b8bfb">
<path fill="#8b8b8b" opacity="1.00" d=" M 234.31 137.25 C 234.86 130.22 238.20 123.60 239.70 116.76 C 241.48 117.79 242.94 120.03 245.26 119.44 C 251.52 125.23 259.43 129.78 264.81 135.70 C 265.52 137.03 266.37 138.28 267.22 139.52 C 256.44 140.98 243.78 140.07 234.31 137.25 Z" />
</g>
<g id="#454646ee">
<path fill="#454646" opacity="0.93" d=" M 117.17 130.37 C 125.13 126.23 134.22 125.11 143.06 124.68 C 139.26 127.59 130.80 130.21 140.19 131.65 C 134.27 130.67 134.93 137.95 138.92 140.09 C 136.04 140.54 131.89 139.15 130.98 142.95 C 132.36 135.23 123.88 148.46 127.95 137.01 C 128.99 131.15 122.33 131.06 118.13 131.01 C 117.93 136.76 117.81 142.52 117.66 148.28 C 116.36 142.41 116.93 136.31 117.17 130.37 Z" />
</g>
<g id="#818283ff">
<path fill="#818283" opacity="1.00" d=" M 143.06 124.68 C 150.02 129.20 141.04 129.02 141.58 132.15 C 150.69 132.58 144.28 145.40 145.90 151.12 C 141.89 151.35 142.55 145.90 139.97 143.80 C 140.88 146.85 141.09 154.82 138.69 148.10 C 136.42 153.66 125.84 150.49 130.98 142.95 C 131.89 139.15 136.04 140.54 138.92 140.09 C 134.93 137.95 134.27 130.67 140.19 131.65 C 130.80 130.21 139.26 127.59 143.06 124.68 Z" />
</g>
<g id="#909191ff">
<path fill="#909191" opacity="1.00" d=" M 118.13 131.01 C 122.33 131.06 128.99 131.15 127.95 137.01 C 123.88 148.46 132.36 135.23 130.98 142.95 C 132.08 152.94 123.99 149.42 118.35 152.14 C 118.12 150.86 117.89 149.57 117.66 148.28 C 117.81 142.52 117.93 136.76 118.13 131.01 Z" />
</g>
<g id="#1616161e">
<path fill="#161616" opacity="0.12" d=" M 264.81 135.70 C 267.62 133.80 269.65 137.34 270.15 139.74 C 269.17 139.68 268.19 139.60 267.22 139.52 C 266.37 138.28 265.52 137.03 264.81 135.70 Z" />
</g>
<g id="#20202038">
<path fill="#202020" opacity="0.22" d=" M 291.74 141.03 C 291.86 137.04 296.70 137.42 299.33 135.63 C 299.61 137.18 299.87 138.74 300.14 140.30 C 297.35 140.64 294.52 140.88 291.74 141.03 Z" />
</g>
<g id="#7e7f82ff">
<path fill="#7e7f82" opacity="1.00" d=" M 393.47 136.55 C 398.61 135.41 406.12 134.15 407.19 140.92 C 400.62 142.70 389.83 138.43 385.14 141.60 C 379.08 136.73 389.73 136.91 393.47 136.55 Z" />
<path fill="#7e7f82" opacity="1.00" d=" M 357.87 264.07 C 361.52 273.60 362.70 259.20 368.36 263.60 C 373.34 265.07 366.36 269.43 371.75 269.47 C 376.69 264.68 377.03 277.83 371.80 271.14 C 363.76 277.75 379.45 275.54 373.32 280.34 C 370.85 284.46 370.44 277.65 367.59 279.53 C 362.99 280.20 374.23 288.40 363.16 283.90 C 356.14 282.23 368.17 280.40 360.03 276.84 C 356.65 281.54 354.32 278.73 353.96 273.95 C 357.31 275.16 360.78 274.45 357.86 271.09 C 352.69 270.72 358.26 267.73 355.86 265.39 C 356.50 264.91 357.17 264.46 357.87 264.07 Z" />
</g>
<g id="#0d0d0d10">
<path fill="#0d0d0d" opacity="0.06" d=" M 270.83 139.78 C 271.74 136.26 281.80 136.49 281.98 140.14 C 278.27 140.02 274.52 139.99 270.83 139.78 Z" />
</g>
<g id="#616366ff">
<path fill="#616366" opacity="1.00" d=" M 387.07 142.97 C 401.43 142.12 415.78 140.77 430.18 140.95 C 426.80 147.77 416.27 142.94 410.14 145.21 C 411.37 151.57 410.01 159.53 414.30 164.76 C 419.72 164.36 425.13 164.07 430.55 163.57 C 439.56 161.87 423.88 140.81 433.23 145.61 C 430.69 152.62 444.63 166.79 435.59 166.52 C 424.54 176.38 400.46 158.33 391.78 173.00 C 392.05 171.00 392.34 169.00 392.54 166.99 C 392.86 165.85 392.06 164.93 391.55 164.01 C 389.83 158.86 388.79 153.47 388.22 148.08 C 391.31 146.33 388.94 144.57 387.07 142.97 Z" />
</g>
<g id="#7b7c7cff">
<path fill="#7b7c7c" opacity="1.00" d=" M 215.72 142.67 C 220.60 142.27 230.86 139.12 228.26 147.00 C 235.76 159.01 214.05 160.30 216.54 149.59 C 217.63 166.73 194.38 154.42 184.77 157.74 C 195.59 156.30 218.57 160.12 215.72 142.67 Z" />
</g>
<g id="#6a6b6cff">
<path fill="#6a6b6c" opacity="1.00" d=" M 252.98 142.02 C 269.94 141.98 286.91 141.93 303.88 142.04 C 304.99 148.45 316.99 136.02 319.14 145.92 C 312.54 146.05 305.94 146.11 299.34 146.10 C 301.88 138.85 279.56 146.49 293.99 145.00 C 294.50 145.25 295.52 145.75 296.04 146.00 C 284.71 145.93 273.38 146.21 262.06 145.93 C 262.79 141.99 274.52 148.57 274.00 143.04 C 267.74 141.78 257.57 145.02 252.98 142.02 Z" />
</g>
<g id="#a9aaacff">
<path fill="#a9aaac" opacity="1.00" d=" M 142.79 155.26 C 167.11 151.20 191.30 146.20 215.72 142.67 C 218.57 160.12 195.59 156.30 184.77 157.74 C 183.54 157.80 182.31 157.87 181.09 157.95 C 170.84 157.10 161.44 160.34 151.81 162.33 C 149.35 160.84 154.20 154.88 149.29 156.01 C 147.67 155.82 144.41 155.45 142.79 155.26 Z" />
</g>
<g id="#b5b8bbff">
<path fill="#b5b8bb" opacity="1.00" d=" M 230.10 143.03 C 241.11 135.33 234.22 158.72 237.21 147.05 C 244.06 143.58 239.86 161.57 242.09 148.04 C 245.59 145.53 253.61 147.43 258.73 147.11 C 257.65 151.04 264.53 156.27 262.25 147.10 C 273.41 147.07 284.62 146.64 295.78 147.14 C 297.19 150.05 299.14 157.06 299.26 147.10 C 305.81 146.88 312.37 146.87 318.93 147.07 C 317.37 152.46 324.02 168.05 312.80 164.54 C 287.99 165.48 263.01 164.27 238.29 164.90 C 237.92 160.34 236.42 162.90 236.88 166.07 C 227.98 161.75 229.85 151.40 230.10 143.03 Z" />
</g>
<g id="#868787ff">
<path fill="#868787" opacity="1.00" d=" M 243.28 143.08 C 249.04 141.54 253.19 145.70 258.91 145.14 C 257.89 145.29 238.13 149.58 243.28 143.08 Z" />
</g>
<g id="#5e5f62ff">
<path fill="#5e5f62" opacity="1.00" d=" M 417.22 146.03 C 423.28 147.82 429.65 143.55 429.81 150.59 C 424.82 152.31 412.87 159.49 413.21 149.85 C 413.19 142.74 415.87 154.12 417.22 146.03 Z" />
</g>
<g id="#babdc0ff">
<path fill="#babdc0" opacity="1.00" d=" M 320.10 147.01 C 328.43 142.30 323.65 152.10 328.80 152.09 C 325.79 144.41 333.22 147.26 336.94 147.07 C 337.00 153.02 337.30 159.00 336.90 164.95 C 331.28 165.05 325.66 165.23 320.06 164.92 C 319.99 158.95 319.70 152.97 320.10 147.01 Z" />
</g>
<g id="#bbbfc2ff">
<path fill="#bbbfc2" opacity="1.00" d=" M 338.09 147.01 C 347.65 144.91 341.60 159.18 342.91 164.99 C 333.33 167.08 339.39 152.82 338.09 147.01 Z" />
</g>
<g id="#b7babdff">
<path fill="#b7babd" opacity="1.00" d=" M 344.10 147.09 C 350.82 148.30 364.71 142.94 364.97 151.89 C 365.34 144.93 377.09 144.92 373.50 154.46 C 371.40 144.20 381.16 146.26 388.22 148.08 C 388.79 153.47 389.83 158.86 391.55 164.01 C 375.99 165.54 359.86 164.61 344.13 164.92 C 343.60 158.99 343.95 153.02 344.10 147.09 Z" />
<path fill="#b7babd" opacity="1.00" d=" M 344.01 166.13 C 360.16 166.16 376.47 165.04 392.54 166.99 C 392.34 169.00 392.05 171.00 391.78 173.00 C 375.88 172.37 359.95 173.55 344.04 172.92 C 344.03 171.22 344.02 167.83 344.01 166.13 Z" />
</g>
<g id="#7b7c7ef8">
<path fill="#7b7c7e" opacity="0.97" d=" M 503.83 154.74 C 506.85 151.39 513.44 150.52 513.27 156.54 C 513.25 158.73 511.83 168.00 511.06 163.08 C 511.49 151.36 509.73 161.82 508.32 165.02 C 504.78 163.58 500.24 161.04 503.83 154.74 Z" />
</g>
<g id="#555656f1">
<path fill="#555656" opacity="0.95" d=" M 107.08 155.09 C 109.92 152.68 113.25 153.36 116.35 154.85 C 115.20 155.61 114.00 156.28 112.84 157.01 C 122.85 157.14 132.99 157.65 142.79 155.26 C 144.41 155.45 147.67 155.82 149.29 156.01 C 145.44 162.54 132.06 153.29 131.56 161.13 C 111.15 160.88 90.73 161.04 70.32 160.95 C 70.55 164.17 72.57 170.23 68.04 167.06 C 68.93 155.38 44.72 158.98 52.83 171.94 C 52.38 171.96 51.47 171.99 51.01 172.01 C 53.06 167.64 51.15 162.69 51.26 158.08 C 69.42 152.88 88.73 158.40 107.08 155.09 Z" />
</g>
<g id="#616262ff">
<path fill="#616262" opacity="1.00" d=" M 151.81 162.33 C 161.44 160.34 170.84 157.10 181.09 157.95 C 178.18 161.96 172.53 169.06 167.83 162.97 C 162.60 166.84 157.75 161.52 151.81 162.33 Z" />
</g>
<g id="#bbbcbeff">
<path fill="#bbbcbe" opacity="1.00" d=" M 52.83 171.94 C 44.72 158.98 68.93 155.38 68.04 167.06 C 72.57 170.23 70.55 164.17 70.32 160.95 C 90.73 161.04 111.15 160.88 131.56 161.13 C 127.92 164.90 137.67 171.47 135.55 165.40 C 131.59 158.58 146.45 158.32 145.48 164.69 C 145.31 167.49 144.98 173.09 144.81 175.90 C 114.24 176.14 83.67 175.97 53.09 175.95 C 52.97 174.61 52.88 173.28 52.83 171.94 Z" />
</g>
<g id="#a9abadff">
<path fill="#a9abad" opacity="1.00" d=" M 180.28 162.12 C 186.45 163.61 201.38 156.79 199.28 168.71 C 203.36 172.22 201.83 166.33 202.15 163.21 C 207.30 160.83 213.38 162.29 218.84 162.18 C 226.25 162.25 222.43 171.81 222.89 176.94 C 214.06 174.18 198.15 183.22 193.78 172.24 C 191.38 168.10 185.73 170.80 182.02 169.93 C 182.74 172.60 192.81 168.53 191.05 174.93 C 184.38 175.11 177.70 175.11 171.03 174.95 C 169.10 168.93 175.95 171.49 179.72 170.99 C 179.78 168.03 177.50 164.19 180.28 162.12 Z" />
</g>
<g id="#808487ff">
<path fill="#808487" opacity="1.00" d=" M 470.24 167.79 C 466.37 160.65 480.37 166.43 483.00 164.97 C 487.25 163.36 502.34 168.49 489.08 170.07 C 480.39 172.21 477.21 169.29 470.24 167.79 Z" />
</g>
<g id="#6b6c6dff">
<path fill="#6b6c6d" opacity="1.00" d=" M 145.48 164.69 C 146.12 168.72 146.11 172.82 145.99 176.90 C 120.27 177.67 94.46 175.91 68.77 177.77 C 67.57 177.74 66.37 177.71 65.17 177.68 C 61.83 176.39 54.95 178.93 53.09 175.95 C 83.67 175.97 114.24 176.14 144.81 175.90 C 144.98 173.09 145.31 167.49 145.48 164.69 Z" />
</g>
<g id="#b9bcbfff">
<path fill="#b9bcbf" opacity="1.00" d=" M 238.04 166.05 C 265.03 165.97 292.02 165.94 319.02 166.07 C 320.01 168.96 319.58 171.24 317.71 172.93 C 291.16 172.77 264.55 172.87 238.01 172.92 C 238.02 171.20 238.03 167.77 238.04 166.05 Z" />
</g>
<g id="#bbbec1ff">
<path fill="#bbbec1" opacity="1.00" d=" M 320.04 166.05 C 326.34 167.29 341.05 161.08 336.96 172.95 C 330.65 171.70 315.95 177.92 320.04 166.05 Z" />
</g>
<g id="#a5a5a7ff">
<path fill="#a5a5a7" opacity="1.00" d=" M 168.38 169.34 C 168.67 166.29 170.77 178.92 167.34 176.85 C 167.18 172.04 161.17 174.03 158.02 173.99 C 157.50 168.93 167.07 174.86 168.38 169.34 Z" />
</g>
<g id="#818385ff">
<path fill="#818385" opacity="1.00" d=" M 489.08 170.07 C 498.81 168.14 484.83 179.11 481.04 176.04 C 477.44 174.20 466.30 179.50 467.01 173.09 C 474.46 173.38 482.14 173.13 489.08 170.07 Z" />
</g>
<g id="#1d1d1df9">
<path fill="#1d1d1d" opacity="0.98" d=" M 40.81 186.75 C 40.10 179.77 43.79 173.07 51.01 172.01 C 51.47 171.99 52.38 171.96 52.83 171.94 C 52.88 173.28 52.97 174.61 53.09 175.95 C 54.95 178.93 61.83 176.39 65.17 177.68 C 56.80 179.99 49.19 184.44 40.81 186.75 Z" />
</g>
<g id="#7a7b7eff">
<path fill="#7a7b7e" opacity="1.00" d=" M 413.04 173.22 C 429.23 173.96 448.45 171.17 463.01 174.02 C 450.47 180.36 427.95 171.98 413.03 177.09 C 412.95 175.80 412.95 174.51 413.04 173.22 Z" />
</g>
<g id="#b8bbbdff">
<path fill="#b8bbbd" opacity="1.00" d=" M 243.02 174.05 C 267.67 173.53 292.36 174.60 316.99 173.99 C 319.41 173.18 319.15 175.25 318.99 176.95 C 293.66 177.04 268.34 177.04 243.02 176.95 C 243.02 176.23 243.02 174.78 243.02 174.05 Z" />
</g>
<g id="#babdbfff">
<path fill="#babdbf" opacity="1.00" d=" M 320.01 174.05 C 324.32 176.06 337.65 169.61 336.99 176.95 C 332.66 174.93 319.35 181.39 320.01 174.05 Z" />
</g>
<g id="#b6b8bbff">
<path fill="#b6b8bb" opacity="1.00" d=" M 344.02 174.05 C 359.68 173.92 375.34 174.00 391.00 173.99 C 392.82 173.63 394.28 175.14 394.12 176.93 C 377.42 177.07 360.71 177.05 344.02 176.95 C 344.02 176.22 344.02 174.78 344.02 174.05 Z" />
</g>
<g id="#b9babcfe">
<path fill="#b9babc" opacity="1.00" d=" M 40.81 186.75 C 49.19 184.44 56.80 179.99 65.17 177.68 C 66.37 177.71 67.57 177.74 68.77 177.77 C 77.10 178.14 85.44 177.93 93.77 178.22 C 107.05 179.81 120.45 178.55 133.78 179.09 C 133.91 180.37 134.00 181.67 134.05 182.96 C 99.99 184.32 62.71 176.03 32.93 196.72 C 28.92 198.96 25.32 205.03 20.75 200.70 C 21.46 199.74 22.15 198.76 22.85 197.79 C 27.87 192.92 34.64 189.92 40.81 186.75 Z" />
</g>
<g id="#797b7dff">
<path fill="#797b7d" opacity="1.00" d=" M 93.77 178.22 C 199.53 178.01 305.32 177.54 411.07 178.45 C 387.48 179.80 363.83 178.48 340.22 179.09 C 340.08 180.38 339.99 181.67 339.94 182.96 L 339.06 182.96 C 338.69 180.39 339.97 175.61 333.99 178.98 C 268.02 179.07 202.04 178.91 136.08 179.05 C 134.17 178.89 135.43 181.81 134.95 182.97 L 134.05 182.96 C 134.00 181.67 133.91 180.37 133.78 179.09 C 120.45 178.55 107.05 179.81 93.77 178.22 Z" />
</g>
<g id="#a6aaadfd">
<path fill="#a6aaad" opacity="1.00" d=" M 411.07 178.45 C 455.49 177.23 499.97 177.63 544.30 180.71 C 560.56 186.99 573.26 199.85 577.00 217.40 L 577.00 218.83 C 575.68 219.40 574.37 219.98 573.03 220.47 C 568.94 204.37 556.81 191.54 541.57 185.48 C 535.37 179.02 527.73 189.70 521.23 181.20 C 518.16 188.47 506.81 178.59 504.34 184.32 C 487.29 181.43 469.59 183.46 452.30 183.30 C 414.86 182.59 377.40 183.24 339.94 182.96 C 339.99 181.67 340.08 180.38 340.22 179.09 C 363.83 178.48 387.48 179.80 411.07 178.45 Z" />
</g>
<g id="#bdc0c2ff">
<path fill="#bdc0c2" opacity="1.00" d=" M 134.95 182.97 C 135.43 181.81 134.17 178.89 136.08 179.05 C 202.04 178.91 268.02 179.07 333.99 178.98 C 339.97 175.61 338.69 180.39 339.06 182.96 C 271.02 183.02 202.98 183.02 134.95 182.97 Z" />
</g>
<g id="#191a1afe">
<path fill="#191a1a" opacity="1.00" d=" M 504.34 184.32 C 506.81 178.59 518.16 188.47 521.23 181.20 C 527.73 189.70 535.37 179.02 541.57 185.48 C 556.81 191.54 568.94 204.37 573.03 220.47 C 570.97 221.23 569.34 217.15 568.57 221.11 C 563.82 208.87 563.83 232.51 572.16 227.14 C 573.82 228.49 573.07 231.04 571.14 231.63 C 568.30 229.70 565.06 235.12 565.64 229.81 C 563.14 231.07 561.77 240.15 564.82 236.95 C 566.99 227.45 564.17 247.72 570.45 241.97 C 572.20 243.31 572.36 245.12 570.09 245.99 C 564.95 245.85 557.83 244.07 558.14 251.63 C 561.54 252.35 560.76 257.07 564.89 256.17 C 566.96 258.56 563.35 260.07 561.29 259.78 C 556.22 252.36 545.25 263.69 552.12 266.20 C 551.40 271.93 546.23 265.54 542.90 267.81 C 546.60 264.28 547.02 260.42 544.69 255.96 C 562.44 240.36 557.79 207.82 536.03 196.69 C 524.30 191.13 510.28 191.95 498.91 198.02 C 497.79 198.58 496.79 199.35 495.79 200.08 C 493.13 191.15 486.74 203.83 479.91 199.13 C 485.47 206.11 477.11 210.83 470.59 211.93 C 477.35 215.12 476.69 223.46 469.39 225.48 C 464.53 227.16 469.98 229.59 472.56 229.93 C 473.36 227.46 474.93 219.95 474.10 230.97 C 478.49 237.74 468.32 238.77 468.24 242.61 C 474.10 242.22 480.60 248.23 475.50 253.45 C 470.29 261.00 484.29 251.27 484.05 260.06 C 478.25 259.91 472.44 259.80 466.71 260.72 C 463.93 254.83 458.72 250.87 454.87 245.78 C 459.29 248.62 466.13 252.75 466.76 253.54 C 470.58 248.00 464.58 243.06 465.62 237.32 C 468.02 228.77 458.65 222.01 451.62 226.63 C 449.74 228.52 448.14 226.11 446.59 225.08 C 447.89 217.58 433.54 223.34 429.18 224.84 C 421.01 216.68 413.41 214.41 402.87 212.92 C 414.24 224.93 430.72 232.15 447.28 232.56 C 448.46 236.23 448.47 241.49 453.02 242.66 C 446.91 245.22 440.50 239.43 433.97 240.93 C 437.68 239.05 435.40 234.85 433.60 232.37 C 418.18 227.52 399.72 224.95 389.26 211.65 C 381.99 209.47 382.36 200.46 389.37 198.82 C 385.18 195.84 379.26 196.43 385.00 191.96 C 377.46 188.32 370.59 190.07 376.21 197.56 C 379.77 195.28 383.36 194.99 379.70 199.75 C 375.15 204.08 368.70 191.48 365.43 198.52 C 362.92 204.23 357.53 198.03 353.89 196.93 C 350.62 194.29 350.86 200.75 347.88 201.02 C 343.93 201.03 339.67 195.60 336.37 196.55 C 333.63 205.70 343.61 214.66 353.02 214.98 C 364.57 220.21 378.91 211.41 389.40 217.87 C 383.72 219.17 374.17 216.04 370.09 218.90 C 378.47 221.20 387.22 219.92 395.68 222.09 C 395.40 225.79 395.05 229.49 395.18 233.22 C 395.34 224.95 392.56 223.80 386.01 225.28 C 385.47 225.44 384.40 225.78 383.86 225.94 C 381.28 227.17 378.46 228.43 377.37 224.84 C 377.40 223.61 377.74 221.99 375.94 222.07 C 365.26 220.32 354.95 216.21 344.22 215.07 C 340.82 225.14 356.52 228.66 364.16 230.78 C 346.76 231.77 332.87 218.64 316.65 217.21 C 322.12 214.93 325.58 209.81 325.06 203.81 C 321.75 205.59 321.43 209.70 319.20 212.39 C 312.84 211.22 321.86 202.44 314.88 202.01 C 311.53 199.46 302.44 207.11 304.68 200.69 C 301.44 200.90 299.53 205.16 300.42 208.01 C 302.58 212.89 306.98 217.93 312.77 217.65 C 316.32 218.44 314.27 219.01 311.76 219.50 C 316.80 221.17 330.93 219.19 323.21 227.03 C 320.47 226.25 317.74 225.40 314.94 224.92 C 313.96 225.01 313.05 225.29 312.20 225.78 C 309.76 227.52 307.35 228.70 307.03 224.70 C 299.23 217.34 284.24 217.81 273.50 215.16 C 273.16 220.39 266.68 208.04 260.95 213.07 C 270.06 221.42 281.35 227.49 293.42 230.82 C 276.49 231.66 263.77 217.15 246.68 218.95 C 261.36 217.03 253.01 235.26 259.67 241.53 C 265.12 240.68 265.12 235.70 265.28 231.11 C 271.04 230.98 276.88 230.48 282.62 231.19 C 280.35 239.00 287.96 237.09 291.43 240.74 C 286.83 241.74 282.09 242.60 278.04 245.13 C 274.13 242.77 281.38 233.88 279.36 241.21 C 283.42 242.42 283.26 234.94 279.71 235.46 C 279.96 229.65 266.85 234.90 271.36 240.55 C 277.35 238.08 270.18 244.63 270.86 250.09 C 264.85 256.12 260.95 264.22 260.87 272.82 L 260.02 273.14 C 261.32 268.06 256.35 270.86 256.74 274.18 C 256.58 273.87 256.27 273.25 256.11 272.94 C 255.28 267.83 254.21 262.72 251.78 258.10 C 261.64 256.09 257.91 246.32 256.28 239.63 C 254.13 235.37 256.49 225.16 249.47 225.27 C 242.28 221.87 245.93 227.88 246.14 230.65 C 245.97 231.00 245.62 231.69 245.45 232.04 C 244.54 228.32 244.38 222.94 239.91 227.28 C 239.11 219.80 228.87 221.59 223.55 219.47 C 216.60 219.75 201.73 208.53 202.19 220.78 C 207.10 224.31 212.72 226.69 217.97 229.67 C 208.73 231.70 219.57 238.54 224.19 240.82 C 223.69 240.85 222.69 240.93 222.19 240.97 C 221.44 241.02 219.93 241.11 219.17 241.16 C 210.57 245.03 215.91 232.01 207.20 233.13 C 203.71 232.57 198.80 241.08 205.09 242.80 C 201.14 242.04 203.14 244.71 204.16 246.82 C 197.33 251.83 191.69 259.12 190.81 267.76 C 189.99 268.83 189.08 269.85 188.37 270.99 C 187.08 276.13 187.16 281.69 184.22 286.31 C 186.25 276.03 186.86 265.12 180.60 256.04 C 187.75 253.19 187.56 244.01 182.36 239.31 C 179.03 233.94 178.17 227.24 174.06 222.38 C 168.16 225.38 164.92 229.84 158.19 225.58 C 147.75 221.41 135.14 223.28 124.01 222.11 C 129.14 234.84 115.09 227.90 108.82 226.25 C 110.24 233.46 113.01 240.67 111.05 248.10 C 119.43 240.63 130.74 236.18 140.11 243.33 C 132.27 246.84 126.18 253.31 122.22 260.83 C 120.91 256.95 116.01 256.85 112.92 255.09 C 107.61 251.61 107.38 260.60 104.14 263.23 C 104.69 261.29 105.33 259.38 106.19 257.56 C 107.21 255.65 108.26 253.73 108.82 251.62 C 109.13 250.50 109.36 249.35 109.49 248.19 C 111.41 237.04 107.31 215.89 94.08 215.70 C 93.06 212.54 88.84 210.02 85.05 209.17 C 83.87 212.45 83.26 216.46 79.12 217.08 C 77.54 217.15 75.96 217.24 74.38 217.38 C 70.09 216.83 71.19 209.34 66.41 212.20 C 55.84 210.33 68.10 219.81 61.54 220.47 C 59.71 218.96 58.56 214.16 55.71 216.67 C 51.82 219.10 57.25 221.81 57.34 224.91 C 53.23 223.17 49.86 220.26 46.27 217.74 C 49.27 221.81 41.66 225.26 46.05 227.83 C 47.74 234.65 36.23 230.86 36.89 237.79 C 40.97 236.54 44.90 237.03 46.04 241.26 C 40.02 247.89 49.73 251.89 55.22 247.98 C 46.79 251.71 42.68 255.42 49.04 263.34 C 51.57 259.93 57.17 255.37 53.43 262.50 C 49.67 269.28 62.72 273.28 62.52 263.85 C 62.91 268.32 56.98 274.09 63.07 276.27 C 59.16 276.57 53.88 267.42 54.55 276.15 C 50.78 273.58 50.47 274.41 52.89 278.06 C 49.91 277.27 46.95 276.40 43.90 275.88 C 45.90 277.55 47.70 279.28 44.14 280.25 C 37.72 282.08 43.43 271.22 36.95 271.14 C 26.03 270.72 35.22 256.90 24.29 255.42 C 25.51 249.93 28.39 243.69 23.96 238.08 C 28.44 234.24 29.09 228.09 26.06 223.12 C 29.42 220.21 35.17 219.46 36.68 214.79 C 38.18 208.05 46.91 209.15 51.02 204.98 C 54.35 201.79 47.89 201.03 45.74 199.93 C 55.48 193.96 69.38 202.59 76.74 191.78 C 81.41 185.19 86.58 197.52 90.79 190.82 C 96.90 187.03 76.35 188.76 91.98 188.10 C 115.01 189.38 137.94 188.19 160.69 184.37 C 257.86 185.63 355.19 188.15 452.30 183.30 C 469.59 183.46 487.29 181.43 504.34 184.32 M 489.32 185.29 C 486.69 185.51 481.42 185.95 478.78 186.17 C 481.41 191.34 495.02 188.12 489.32 185.29 M 472.25 187.60 C 469.88 188.56 460.84 186.29 465.22 189.79 C 468.97 195.29 481.99 186.27 472.25 187.60 M 414.34 189.34 C 411.70 189.55 406.42 189.96 403.78 190.17 C 405.50 195.36 417.44 193.27 414.34 189.34 M 418.85 188.99 C 420.66 193.12 429.98 195.23 430.18 189.33 C 426.43 190.15 422.62 189.09 418.85 188.99 M 433.85 188.93 C 435.68 193.54 446.22 194.97 446.01 189.10 C 441.95 190.06 437.90 189.65 433.85 188.93 M 448.85 188.90 C 452.00 190.34 450.25 193.56 449.97 196.09 C 452.27 195.97 457.18 190.03 455.46 195.40 C 453.19 204.18 445.31 191.20 441.07 195.98 C 439.01 200.41 432.30 197.56 434.99 204.90 C 432.02 192.70 432.73 209.50 427.05 211.27 C 419.72 207.78 433.40 205.64 426.83 200.17 C 419.60 195.10 414.04 206.86 422.84 209.21 C 420.81 216.26 420.09 205.76 415.97 208.66 C 410.74 207.44 416.15 198.08 412.31 198.18 C 406.66 207.21 416.85 218.70 426.84 214.94 C 435.23 216.41 442.61 222.73 452.35 219.30 C 453.91 215.63 447.15 217.65 444.99 218.02 C 432.50 220.55 445.75 213.34 447.99 215.99 C 461.31 219.38 444.83 208.29 451.98 208.01 C 464.99 211.52 452.63 193.32 461.95 194.80 C 463.45 191.77 454.55 193.50 459.97 191.89 C 464.56 186.95 451.49 189.34 448.85 188.90 M 160.84 190.19 C 162.87 194.12 171.21 195.21 172.01 189.95 C 168.30 190.38 164.56 190.48 160.84 190.19 M 176.76 190.04 C 182.21 198.33 190.74 186.29 176.76 190.04 M 191.85 190.03 C 193.29 193.37 198.30 194.85 200.92 191.85 C 199.77 188.60 194.60 191.09 191.85 190.03 M 206.86 190.01 C 208.24 193.59 214.33 195.07 216.13 191.13 C 213.03 190.68 209.97 190.23 206.86 190.01 M 221.86 190.02 C 223.42 193.19 230.34 196.29 230.97 191.07 C 227.92 190.64 224.91 190.23 221.86 190.02 M 236.75 190.29 C 238.85 194.25 245.30 195.02 248.22 191.17 C 244.39 190.88 240.57 190.58 236.75 190.29 M 251.71 190.28 C 253.11 194.36 257.51 193.88 260.99 193.95 C 262.11 188.88 254.80 191.31 251.71 190.28 M 387.80 190.13 C 390.27 194.13 399.63 195.98 400.18 190.26 C 396.12 191.66 391.92 190.56 387.80 190.13 M 266.85 191.08 C 269.53 194.82 274.14 195.16 278.02 193.47 C 278.48 188.52 269.41 193.37 266.85 191.08 M 281.76 191.16 C 284.21 195.10 292.97 196.86 294.05 191.21 C 289.96 191.37 285.85 191.53 281.76 191.16 M 297.70 191.31 C 299.22 195.00 303.53 196.58 307.06 194.08 C 313.36 190.35 300.15 192.29 297.70 191.31 M 312.70 191.31 C 314.60 196.21 321.18 195.59 324.22 192.17 C 320.38 191.88 316.54 191.59 312.70 191.31 M 327.92 191.12 C 328.77 194.82 339.40 197.16 339.19 191.26 C 335.50 192.59 331.68 191.48 327.92 191.12 M 342.86 191.13 C 345.16 195.76 352.15 196.26 355.28 192.24 C 351.12 191.95 347.00 191.52 342.86 191.13 M 357.87 190.99 C 359.69 195.97 369.08 196.65 370.10 191.11 C 366.08 192.23 361.94 191.15 357.87 190.99 M 145.75 192.05 C 147.47 195.50 153.09 196.87 155.79 193.79 C 160.40 189.37 147.23 193.33 145.75 192.05 M 131.90 194.06 C 136.53 202.38 147.32 189.80 131.90 194.06 M 124.32 195.49 C 121.89 196.13 114.03 194.66 118.24 197.79 C 120.01 200.79 128.79 197.25 124.32 195.49 M 166.00 199.03 C 157.89 195.35 171.31 208.78 162.64 208.11 C 165.51 204.27 157.38 198.80 159.49 207.54 C 159.89 214.18 147.29 217.59 147.08 209.80 C 146.57 209.81 145.55 209.85 145.04 209.87 C 148.60 217.82 141.96 207.45 138.97 206.91 C 139.58 217.12 153.00 220.27 159.98 213.98 C 159.50 224.25 187.38 212.18 177.90 221.08 C 182.27 227.33 183.91 245.77 194.77 239.86 C 196.37 241.91 196.74 246.14 199.90 246.05 C 200.97 240.07 196.23 227.68 207.03 230.95 C 217.80 232.94 207.30 227.20 204.73 225.11 C 199.81 223.05 190.97 219.53 183.98 218.92 C 189.47 212.98 176.24 211.70 175.63 206.37 C 171.83 201.75 183.48 200.59 177.82 197.19 C 173.61 192.39 170.33 202.34 166.00 199.03 M 109.40 197.44 C 106.56 198.07 103.59 198.08 100.71 198.21 C 102.31 202.55 112.47 200.70 109.40 197.44 M 222.07 204.62 C 222.47 219.88 247.96 218.60 246.02 202.96 C 241.88 203.03 242.91 209.46 239.34 211.21 C 241.07 207.04 232.71 211.82 236.08 209.08 C 240.88 206.93 239.99 199.56 234.37 199.51 C 228.47 197.43 231.17 208.46 226.11 207.12 C 226.64 204.80 229.51 200.54 225.26 202.67 C 224.69 196.69 221.03 200.68 222.07 204.62 M 92.31 200.27 C 75.97 204.14 105.26 202.12 92.31 200.27 M 415.24 201.41 C 412.86 206.13 418.67 203.73 415.24 201.41 M 71.74 202.29 C 72.39 205.70 77.77 205.10 79.97 205.02 C 81.40 199.27 74.74 204.46 71.74 202.29 M 147.08 209.80 C 153.06 215.87 160.52 200.52 152.09 205.01 C 151.44 210.12 148.22 206.62 148.83 203.19 C 144.47 202.81 143.72 207.68 147.08 209.80 M 56.90 204.06 C 61.53 212.38 72.32 199.80 56.90 204.06 M 556.88 205.34 C 557.54 207.03 559.61 213.50 560.36 208.96 C 562.69 210.93 564.07 216.55 567.80 213.90 C 564.92 210.30 562.71 203.72 556.88 205.34 M 134.26 243.10 C 134.44 246.37 137.29 241.56 134.26 243.10 Z" />
</g>
<g id="#323335ff">
<path fill="#323335" opacity="1.00" d=" M 32.93 196.72 C 62.71 176.03 99.99 184.32 134.05 182.96 L 134.95 182.97 C 202.98 183.02 271.02 183.02 339.06 182.96 L 339.94 182.96 C 377.40 183.24 414.86 182.59 452.30 183.30 C 355.19 188.15 257.86 185.63 160.69 184.37 C 137.94 188.19 115.01 189.38 91.98 188.10 C 76.35 188.76 96.90 187.03 90.79 190.82 C 86.58 197.52 81.41 185.19 76.74 191.78 C 69.38 202.59 55.48 193.96 45.74 199.93 C 41.51 198.72 37.38 196.97 32.93 196.72 Z" />
<path fill="#323335" opacity="1.00" d=" M 427.05 211.27 C 423.44 209.12 424.29 214.34 427.05 211.27 Z" />
</g>
<g id="#6f7071ff">
<path fill="#6f7071" opacity="1.00" d=" M 489.32 185.29 C 495.02 188.12 481.41 191.34 478.78 186.17 C 481.42 185.95 486.69 185.51 489.32 185.29 Z" />
</g>
<g id="#6b6b6bff">
<path fill="#6b6b6b" opacity="1.00" d=" M 472.25 187.60 C 481.99 186.27 468.97 195.29 465.22 189.79 C 460.84 186.29 469.88 188.56 472.25 187.60 Z" />
</g>
<g id="#78797aff">
<path fill="#78797a" opacity="1.00" d=" M 414.34 189.34 C 417.44 193.27 405.50 195.36 403.78 190.17 C 406.42 189.96 411.70 189.55 414.34 189.34 Z" />
<path fill="#78797a" opacity="1.00" d=" M 387.80 190.13 C 391.92 190.56 396.12 191.66 400.18 190.26 C 399.63 195.98 390.27 194.13 387.80 190.13 Z" />
</g>
<g id="#757678ff">
<path fill="#757678" opacity="1.00" d=" M 418.85 188.99 C 422.62 189.09 426.43 190.15 430.18 189.33 C 429.98 195.23 420.66 193.12 418.85 188.99 Z" />
</g>
<g id="#6e6e6fff">
<path fill="#6e6e6f" opacity="1.00" d=" M 433.85 188.93 C 437.90 189.65 441.95 190.06 446.01 189.10 C 446.22 194.97 435.68 193.54 433.85 188.93 Z" />
</g>
<g id="#424548ff">
<path fill="#424548" opacity="1.00" d=" M 448.85 188.90 C 451.49 189.34 464.56 186.95 459.97 191.89 C 454.55 193.50 463.45 191.77 461.95 194.80 C 452.63 193.32 464.99 211.52 451.98 208.01 C 444.83 208.29 461.31 219.38 447.99 215.99 C 445.75 213.34 432.50 220.55 444.99 218.02 C 447.15 217.65 453.91 215.63 452.35 219.30 C 442.61 222.73 435.23 216.41 426.84 214.94 C 430.34 212.33 433.57 209.13 434.99 204.90 C 432.30 197.56 439.01 200.41 441.07 195.98 C 445.31 191.20 453.19 204.18 455.46 195.40 C 457.18 190.03 452.27 195.97 449.97 196.09 C 450.25 193.56 452.00 190.34 448.85 188.90 Z" />
</g>
<g id="#7e7f7fff">
<path fill="#7e7f7f" opacity="1.00" d=" M 160.84 190.19 C 164.56 190.48 168.30 190.38 172.01 189.95 C 171.21 195.21 162.87 194.12 160.84 190.19 Z" />
</g>
<g id="#848586ff">
<path fill="#848586" opacity="1.00" d=" M 176.76 190.04 C 190.74 186.29 182.21 198.33 176.76 190.04 Z" />
</g>
<g id="#828382ff">
<path fill="#828382" opacity="1.00" d=" M 191.85 190.03 C 194.60 191.09 199.77 188.60 200.92 191.85 C 198.30 194.85 193.29 193.37 191.85 190.03 Z" />
</g>
<g id="#8e8e90ff">
<path fill="#8e8e90" opacity="1.00" d=" M 206.86 190.01 C 209.97 190.23 213.03 190.68 216.13 191.13 C 214.33 195.07 208.24 193.59 206.86 190.01 Z" />
</g>
<g id="#868687ff">
<path fill="#868687" opacity="1.00" d=" M 221.86 190.02 C 224.91 190.23 227.92 190.64 230.97 191.07 C 230.34 196.29 223.42 193.19 221.86 190.02 Z" />
</g>
<g id="#8c8c8eff">
<path fill="#8c8c8e" opacity="1.00" d=" M 236.75 190.29 C 240.57 190.58 244.39 190.88 248.22 191.17 C 245.30 195.02 238.85 194.25 236.75 190.29 Z" />
</g>
<g id="#858688ff">
<path fill="#858688" opacity="1.00" d=" M 251.71 190.28 C 254.80 191.31 262.11 188.88 260.99 193.95 C 257.51 193.88 253.11 194.36 251.71 190.28 Z" />
<path fill="#858688" opacity="1.00" d=" M 158.19 225.58 C 164.92 229.84 168.16 225.38 174.06 222.38 C 178.17 227.24 179.03 233.94 182.36 239.31 C 176.93 239.92 171.36 239.04 166.24 241.51 C 163.50 236.42 156.96 231.00 158.19 225.58 Z" />
</g>
<g id="#78787aff">
<path fill="#78787a" opacity="1.00" d=" M 266.85 191.08 C 269.41 193.37 278.48 188.52 278.02 193.47 C 274.14 195.16 269.53 194.82 266.85 191.08 Z" />
</g>
<g id="#6c6d6dff">
<path fill="#6c6d6d" opacity="1.00" d=" M 281.76 191.16 C 285.85 191.53 289.96 191.37 294.05 191.21 C 292.97 196.86 284.21 195.10 281.76 191.16 Z" />
</g>
<g id="#7f8080ff">
<path fill="#7f8080" opacity="1.00" d=" M 297.70 191.31 C 300.15 192.29 313.36 190.35 307.06 194.08 C 303.53 196.58 299.22 195.00 297.70 191.31 Z" />
</g>
<g id="#838485ff">
<path fill="#838485" opacity="1.00" d=" M 312.70 191.31 C 316.54 191.59 320.38 191.88 324.22 192.17 C 321.18 195.59 314.60 196.21 312.70 191.31 Z" />
</g>
<g id="#7a7b7cff">
<path fill="#7a7b7c" opacity="1.00" d=" M 327.92 191.12 C 331.68 191.48 335.50 192.59 339.19 191.26 C 339.40 197.16 328.77 194.82 327.92 191.12 Z" />
</g>
<g id="#787979ff">
<path fill="#787979" opacity="1.00" d=" M 342.86 191.13 C 347.00 191.52 351.12 191.95 355.28 192.24 C 352.15 196.26 345.16 195.76 342.86 191.13 Z" />
</g>
<g id="#727374ff">
<path fill="#727374" opacity="1.00" d=" M 357.87 190.99 C 361.94 191.15 366.08 192.23 370.10 191.11 C 369.08 196.65 359.69 195.97 357.87 190.99 Z" />
</g>
<g id="#46494bff">
<path fill="#46494b" opacity="1.00" d=" M 376.21 197.56 C 370.59 190.07 377.46 188.32 385.00 191.96 C 379.26 196.43 385.18 195.84 389.37 198.82 C 382.36 200.46 381.99 209.47 389.26 211.65 C 399.72 224.95 418.18 227.52 433.60 232.37 C 435.40 234.85 437.68 239.05 433.97 240.93 C 412.43 242.69 397.56 265.96 404.80 286.28 C 401.15 280.80 401.37 273.98 401.35 267.67 C 405.69 258.41 409.68 249.41 412.96 240.09 C 411.64 236.74 410.80 238.38 411.63 241.21 C 405.98 242.46 409.72 228.45 415.05 232.94 C 421.67 231.99 412.65 242.51 417.04 244.58 C 420.87 243.15 424.70 241.69 428.41 239.96 C 424.91 237.47 420.80 237.07 421.41 231.45 C 415.36 230.50 409.28 231.54 403.21 231.28 C 403.75 236.10 403.50 240.93 398.34 242.51 C 399.14 248.26 400.08 255.03 393.87 258.10 C 390.55 251.80 384.87 247.79 379.02 244.12 C 379.35 243.61 380.03 242.59 380.36 242.08 C 387.57 242.57 390.24 237.28 381.73 238.85 C 389.49 237.90 384.88 230.84 383.86 225.94 C 384.40 225.78 385.47 225.44 386.01 225.28 C 385.95 232.04 387.62 237.81 394.32 239.73 C 384.92 237.56 391.20 243.87 397.04 243.82 C 395.16 240.63 396.50 236.67 395.18 233.22 C 395.05 229.49 395.40 225.79 395.68 222.09 C 387.22 219.92 378.47 221.20 370.09 218.90 C 374.17 216.04 383.72 219.17 389.40 217.87 C 378.91 211.41 364.57 220.21 353.02 214.98 C 343.61 214.66 333.63 205.70 336.37 196.55 C 339.67 195.60 343.93 201.03 347.88 201.02 C 350.86 200.75 350.62 194.29 353.89 196.93 C 357.53 198.03 362.92 204.23 365.43 198.52 C 368.70 191.48 375.15 204.08 379.70 199.75 C 383.36 194.99 379.77 195.28 376.21 197.56 Z" />
</g>
<g id="#7a7c7bff">
<path fill="#7a7c7b" opacity="1.00" d=" M 145.75 192.05 C 147.23 193.33 160.40 189.37 155.79 193.79 C 153.09 196.87 147.47 195.50 145.75 192.05 Z" />
</g>
<g id="#666a6dff">
<path fill="#666a6d" opacity="1.00" d=" M 498.91 198.02 C 510.28 191.95 524.30 191.13 536.03 196.69 C 532.43 196.84 531.91 200.94 529.91 203.19 C 529.77 199.90 535.51 193.50 527.46 195.46 C 517.77 191.95 523.30 204.38 520.24 209.43 C 518.55 204.51 524.08 192.45 513.99 195.92 C 507.07 194.63 515.16 207.14 512.44 207.54 C 512.47 197.63 507.78 193.63 498.91 198.02 Z" />
</g>
<g id="#808081ff">
<path fill="#808081" opacity="1.00" d=" M 131.90 194.06 C 147.32 189.80 136.53 202.38 131.90 194.06 Z" />
</g>
<g id="#848685ff">
<path fill="#848685" opacity="1.00" d=" M 124.32 195.49 C 128.79 197.25 120.01 200.79 118.24 197.79 C 114.03 194.66 121.89 196.13 124.32 195.49 Z" />
</g>
<g id="#9c9fa2ff">
<path fill="#9c9fa2" opacity="1.00" d=" M 520.24 209.43 C 523.30 204.38 517.77 191.95 527.46 195.46 C 535.51 193.50 529.77 199.90 529.91 203.19 C 531.91 200.94 532.43 196.84 536.03 196.69 C 557.79 207.82 562.44 240.36 544.69 255.96 C 539.69 263.21 530.63 266.95 522.12 268.16 C 504.36 269.29 484.35 259.91 481.21 240.54 C 485.05 239.32 483.38 238.96 480.26 238.57 C 477.32 224.06 484.01 208.76 495.79 200.08 C 496.79 199.35 497.79 198.58 498.91 198.02 C 507.78 193.63 512.47 197.63 512.44 207.54 C 515.16 207.14 507.07 194.63 513.99 195.92 C 524.08 192.45 518.55 204.51 520.24 209.43 M 512.87 208.90 C 513.47 212.04 514.48 215.34 510.13 216.13 C 501.08 217.71 503.86 232.76 494.10 229.94 C 501.61 225.98 505.25 238.89 499.79 241.89 C 502.71 240.17 507.21 242.14 504.99 245.76 C 512.05 242.73 509.06 250.51 507.90 254.15 C 510.09 252.49 510.36 249.50 511.37 247.13 C 516.74 244.99 516.51 256.76 517.22 248.19 C 525.11 251.20 528.98 240.06 535.07 245.17 C 530.43 242.21 532.66 236.40 538.10 239.05 C 532.59 236.55 535.03 229.39 542.01 232.99 C 557.13 230.23 531.02 236.42 535.06 227.27 C 542.22 227.10 529.41 224.70 535.58 220.59 C 532.85 221.39 523.28 215.89 527.05 209.84 C 525.56 214.26 520.12 215.38 519.17 211.14 C 518.53 217.54 513.70 212.05 512.87 208.90 Z" />
</g>
<g id="#2f3335ff">
<path fill="#2f3335" opacity="1.00" d=" M 166.00 199.03 C 170.33 202.34 173.61 192.39 177.82 197.19 C 183.48 200.59 171.83 201.75 175.63 206.37 C 176.24 211.70 189.47 212.98 183.98 218.92 C 190.97 219.53 199.81 223.05 204.73 225.11 C 189.96 218.80 189.31 231.40 194.77 239.86 C 183.91 245.77 182.27 227.33 177.90 221.08 C 187.38 212.18 159.50 224.25 159.98 213.98 C 161.13 212.15 161.99 210.17 162.64 208.11 C 171.31 208.78 157.89 195.35 166.00 199.03 Z" />
</g>
<g id="#535456fd">
<path fill="#535456" opacity="1.00" d=" M 479.91 199.13 C 486.74 203.83 493.13 191.15 495.79 200.08 C 484.01 208.76 477.32 224.06 480.26 238.57 C 483.38 238.96 485.05 239.32 481.21 240.54 C 484.35 259.91 504.36 269.29 522.12 268.16 C 525.66 276.85 515.09 273.74 509.16 274.05 C 504.26 271.96 500.50 275.06 496.95 278.04 C 498.41 272.07 492.70 263.78 486.64 268.67 C 480.90 272.23 484.19 262.99 484.05 260.06 C 484.29 251.27 470.29 261.00 475.50 253.45 C 480.60 248.23 474.10 242.22 468.24 242.61 C 468.32 238.77 478.49 237.74 474.10 230.97 C 474.93 219.95 473.36 227.46 472.56 229.93 C 469.98 229.59 464.53 227.16 469.39 225.48 C 476.69 223.46 477.35 215.12 470.59 211.93 C 477.11 210.83 485.47 206.11 479.91 199.13 Z" />
</g>
<g id="#262727f0">
<path fill="#262727" opacity="0.94" d=" M 20.75 200.70 C 25.32 205.03 28.92 198.96 32.93 196.72 C 23.58 205.20 19.67 218.62 7.02 223.06 C 10.90 215.68 16.75 209.40 23.14 204.08 C 22.42 202.90 21.59 201.80 20.75 200.70 Z" />
</g>
<g id="#8d8d8eff">
<path fill="#8d8d8e" opacity="1.00" d=" M 109.40 197.44 C 112.47 200.70 102.31 202.55 100.71 198.21 C 103.59 198.08 106.56 198.07 109.40 197.44 Z" />
</g>
<g id="#444544b7">
<path fill="#444544" opacity="0.72" d=" M 7.64 211.84 C 11.34 205.89 17.00 201.48 22.85 197.79 C 22.15 198.76 21.46 199.74 20.75 200.70 C 16.02 204.00 12.54 208.80 7.64 211.84 Z" />
</g>
<g id="#717375ff">
<path fill="#717375" opacity="1.00" d=" M 412.31 198.18 C 416.15 198.08 410.74 207.44 415.97 208.66 C 420.09 205.76 420.81 216.26 422.84 209.21 C 414.04 206.86 419.60 195.10 426.83 200.17 C 433.40 205.64 419.72 207.78 427.05 211.27 C 423.44 209.12 424.29 214.34 427.05 211.27 C 432.73 209.50 432.02 192.70 434.99 204.90 C 433.57 209.13 430.34 212.33 426.84 214.94 C 416.85 218.70 406.66 207.21 412.31 198.18 Z" />
</g>
<g id="#545557ff">
<path fill="#545557" opacity="1.00" d=" M 222.07 204.62 C 221.03 200.68 224.69 196.69 225.26 202.67 C 229.51 200.54 226.64 204.80 226.11 207.12 C 231.17 208.46 228.47 197.43 234.37 199.51 C 239.99 199.56 240.88 206.93 236.08 209.08 C 232.71 211.82 241.07 207.04 239.34 211.21 C 231.90 217.90 226.75 208.15 222.07 204.62 Z" />
</g>
<g id="#919191ff">
<path fill="#919191" opacity="1.00" d=" M 92.31 200.27 C 105.26 202.12 75.97 204.14 92.31 200.27 Z" />
</g>
<g id="#a6a6a8f7">
<path fill="#a6a6a8" opacity="0.97" d=" M 7.64 211.84 C 12.54 208.80 16.02 204.00 20.75 200.70 C 21.59 201.80 22.42 202.90 23.14 204.08 C 16.75 209.40 10.90 215.68 7.02 223.06 C 6.19 227.88 2.33 227.23 0.00 223.85 L 0.00 222.49 C 2.71 219.06 5.01 215.33 7.64 211.84 Z" />
</g>
<g id="#515254ff">
<path fill="#515254" opacity="1.00" d=" M 300.42 208.01 C 299.53 205.16 301.44 200.90 304.68 200.69 C 302.44 207.11 311.53 199.46 314.88 202.01 C 321.86 202.44 312.84 211.22 319.20 212.39 C 312.02 221.97 305.44 207.79 300.42 208.01 Z" />
</g>
<g id="#6d6f6eff">
<path fill="#6d6f6e" opacity="1.00" d=" M 415.24 201.41 C 418.67 203.73 412.86 206.13 415.24 201.41 Z" />
</g>
<g id="#8d8e8dff">
<path fill="#8d8e8d" opacity="1.00" d=" M 71.74 202.29 C 74.74 204.46 81.40 199.27 79.97 205.02 C 77.77 205.10 72.39 205.70 71.74 202.29 Z" />
</g>
<g id="#636466ff">
<path fill="#636466" opacity="1.00" d=" M 147.08 209.80 C 143.72 207.68 144.47 202.81 148.83 203.19 C 148.22 206.62 151.44 210.12 152.09 205.01 C 160.52 200.52 153.06 215.87 147.08 209.80 Z" />
</g>
<g id="#97999aff">
<path fill="#97999a" opacity="1.00" d=" M 159.49 207.54 C 157.38 198.80 165.51 204.27 162.64 208.11 C 161.99 210.17 161.13 212.15 159.98 213.98 C 153.00 220.27 139.58 217.12 138.97 206.91 C 141.96 207.45 148.60 217.82 145.04 209.87 C 145.55 209.85 146.57 209.81 147.08 209.80 C 147.29 217.59 159.89 214.18 159.49 207.54 Z" />
</g>
<g id="#999b9cff">
<path fill="#999b9c" opacity="1.00" d=" M 239.34 211.21 C 242.91 209.46 241.88 203.03 246.02 202.96 C 247.96 218.60 222.47 219.88 222.07 204.62 C 226.75 208.15 231.90 217.90 239.34 211.21 Z" />
</g>
<g id="#838383ff">
<path fill="#838383" opacity="1.00" d=" M 56.90 204.06 C 72.32 199.80 61.53 212.38 56.90 204.06 Z" />
</g>
<g id="#9a9c9eff">
<path fill="#9a9c9e" opacity="1.00" d=" M 319.20 212.39 C 321.43 209.70 321.75 205.59 325.06 203.81 C 325.58 209.81 322.12 214.93 316.65 217.21 C 315.35 217.34 314.06 217.48 312.77 217.65 C 306.98 217.93 302.58 212.89 300.42 208.01 C 305.44 207.79 312.02 221.97 319.20 212.39 Z" />
</g>
<g id="#68696aff">
<path fill="#68696a" opacity="1.00" d=" M 556.88 205.34 C 562.71 203.72 564.92 210.30 567.80 213.90 C 564.07 216.55 562.69 210.93 560.36 208.96 C 559.61 213.50 557.54 207.03 556.88 205.34 Z" />
</g>
<g id="#393a3af9">
<path fill="#393a3a" opacity="0.98" d=" M 85.05 209.17 C 88.84 210.02 93.06 212.54 94.08 215.70 C 107.31 215.89 111.41 237.04 109.49 248.19 C 108.03 237.88 107.03 260.25 106.97 245.04 C 106.20 239.72 96.92 245.00 94.78 240.09 C 98.41 238.28 106.45 241.28 107.00 236.04 C 106.85 225.23 93.83 236.93 88.60 236.41 C 79.39 237.70 85.77 249.59 92.97 248.04 C 97.99 249.63 103.32 253.55 108.82 251.62 C 108.26 253.73 107.21 255.65 106.19 257.56 C 99.25 253.40 91.13 251.24 84.04 247.05 C 80.63 250.64 76.18 253.72 80.33 258.74 C 76.55 255.82 72.57 250.15 67.24 254.31 C 68.98 262.60 55.93 278.02 72.08 276.90 C 72.83 273.92 68.05 264.90 73.71 261.71 C 75.28 266.65 74.41 277.50 75.77 279.10 C 74.31 287.16 88.01 275.44 88.46 283.49 C 86.72 294.96 100.95 281.02 101.46 288.50 C 101.78 300.79 110.34 286.34 114.45 291.46 C 112.25 300.49 126.93 296.96 125.10 291.06 C 128.93 294.76 132.48 301.39 138.71 299.28 C 142.12 301.49 146.54 309.20 149.38 301.73 C 153.45 301.19 151.83 295.94 155.49 301.84 C 159.78 310.27 166.88 299.28 172.91 300.27 C 175.49 313.40 183.38 291.49 187.95 302.10 C 192.37 310.02 195.12 296.77 200.17 298.73 C 205.05 298.54 206.79 306.06 210.42 301.29 C 216.70 297.90 216.10 309.00 222.41 305.95 C 220.46 301.98 227.42 298.19 229.37 301.62 C 233.23 308.32 240.33 300.33 244.97 298.19 C 246.19 311.43 254.97 294.52 259.64 299.33 C 261.39 309.83 274.46 296.88 265.76 292.16 C 270.89 294.61 277.59 307.20 283.24 300.67 C 288.67 295.88 289.50 309.61 295.68 305.92 C 296.48 301.88 298.10 298.42 303.02 299.74 C 306.20 309.93 315.97 295.06 321.13 292.07 C 318.74 295.09 315.81 298.55 318.85 302.12 C 323.59 306.29 328.94 291.21 332.23 299.69 C 332.80 306.07 342.17 301.36 341.11 296.23 C 344.81 297.53 352.65 308.33 355.54 301.11 C 355.77 299.68 355.83 298.24 355.92 296.81 C 361.76 298.02 368.09 299.16 373.80 296.85 C 374.42 297.75 375.05 298.65 375.72 299.52 C 378.69 306.50 385.02 298.39 389.11 296.09 C 390.03 302.47 396.66 303.37 399.64 297.55 C 403.76 292.23 405.56 304.19 410.94 301.00 C 416.06 299.30 408.95 294.88 407.80 292.17 C 413.24 298.08 420.68 299.41 426.03 304.99 C 431.28 300.09 421.42 296.99 419.73 292.68 C 424.24 295.88 429.16 298.96 435.00 298.06 L 435.98 298.03 C 439.78 298.11 443.52 297.24 446.96 295.68 C 449.87 296.76 450.12 301.86 453.70 300.89 C 456.04 296.43 460.49 294.18 464.23 291.09 C 459.42 296.01 465.35 297.91 467.79 292.83 C 468.76 288.68 473.50 287.62 475.69 291.47 C 482.37 294.57 482.01 279.41 488.30 285.72 C 494.92 291.35 494.92 274.94 501.10 279.92 C 504.75 284.04 508.82 277.66 509.16 274.05 C 515.09 273.74 525.66 276.85 522.12 268.16 C 530.63 266.95 539.69 263.21 544.69 255.96 C 547.02 260.42 546.60 264.28 542.90 267.81 C 546.23 265.54 551.40 271.93 552.12 266.20 C 545.25 263.69 556.22 252.36 561.29 259.78 C 557.42 262.01 555.59 266.52 556.60 270.81 C 551.21 271.74 543.96 272.06 543.12 279.26 C 539.54 280.05 533.65 278.04 530.97 282.79 C 528.81 289.71 518.58 283.42 516.13 291.11 C 513.68 294.88 507.06 290.32 503.81 294.78 C 500.87 302.67 490.11 294.42 486.78 303.87 C 480.76 302.13 474.78 303.77 471.93 308.82 C 463.54 302.54 459.18 315.40 451.76 310.26 C 445.47 308.78 442.49 316.46 436.96 310.94 C 428.64 316.05 420.47 308.97 412.08 313.87 C 403.99 309.46 397.61 317.02 389.97 311.98 C 382.50 317.62 375.00 307.88 367.85 314.78 C 361.38 307.84 353.56 318.37 347.80 312.04 C 342.52 310.60 337.66 317.85 333.41 312.49 C 326.82 312.48 321.25 316.23 315.00 312.27 C 307.92 317.43 300.26 309.74 293.20 315.53 C 288.73 312.05 282.27 311.95 278.00 315.85 C 273.85 311.49 267.53 312.57 263.12 315.94 C 258.91 311.31 252.71 313.11 248.15 315.91 C 244.77 312.68 239.80 312.82 235.83 314.90 C 231.55 317.57 227.51 310.63 223.08 314.07 C 218.20 318.59 213.18 311.18 207.67 314.56 C 202.36 319.02 195.47 309.40 189.65 316.32 C 185.00 313.65 178.68 312.98 173.97 316.80 C 168.19 309.43 160.23 320.70 154.77 314.03 C 148.58 312.06 141.83 319.08 136.95 313.07 C 128.87 314.62 124.13 310.26 117.00 308.11 C 110.05 313.30 107.55 300.21 99.78 304.90 C 95.26 307.58 95.42 299.84 91.18 299.73 C 87.99 297.64 82.63 302.31 81.17 297.85 C 78.01 290.09 66.55 297.36 63.96 288.02 C 54.08 291.94 53.47 277.49 44.14 280.25 C 47.70 279.28 45.90 277.55 43.90 275.88 C 46.95 276.40 49.91 277.27 52.89 278.06 C 50.47 274.41 50.78 273.58 54.55 276.15 C 53.88 267.42 59.16 276.57 63.07 276.27 C 56.98 274.09 62.91 268.32 62.52 263.85 C 66.85 259.66 62.48 246.11 69.90 251.85 C 72.41 246.43 74.81 255.20 80.13 249.32 C 76.43 247.59 81.02 242.85 81.89 245.35 C 87.24 240.28 76.24 238.42 80.66 235.44 C 77.35 229.04 66.22 232.30 64.28 238.44 C 60.21 241.72 69.63 248.09 63.23 248.34 C 57.16 246.42 61.95 240.59 60.48 236.19 C 55.93 234.64 51.18 234.14 47.04 231.84 C 43.93 238.19 54.47 239.13 46.04 241.26 C 44.90 237.03 40.97 236.54 36.89 237.79 C 36.23 230.86 47.74 234.65 46.05 227.83 C 41.66 225.26 49.27 221.81 46.27 217.74 C 49.86 220.26 53.23 223.17 57.34 224.91 C 57.25 221.81 51.82 219.10 55.71 216.67 C 58.56 214.16 59.71 218.96 61.54 220.47 C 68.10 219.81 55.84 210.33 66.41 212.20 C 71.19 209.34 70.09 216.83 74.38 217.38 C 69.97 220.55 62.80 220.16 67.73 227.20 C 73.79 235.53 79.52 224.07 79.12 217.08 C 83.26 216.46 83.87 212.45 85.05 209.17 M 87.52 216.57 C 80.45 220.29 74.86 232.79 83.81 236.65 C 89.38 231.61 97.32 229.75 103.05 224.99 C 100.60 214.77 93.43 222.90 87.81 226.01 C 88.81 221.73 96.66 214.57 87.52 216.57 M 61.36 222.27 C 57.76 224.01 56.22 229.94 51.76 229.39 C 55.30 233.98 64.56 238.14 67.05 229.90 C 66.10 227.40 64.75 221.59 61.36 222.27 Z" />
</g>
<g id="#646668ff">
<path fill="#646668" opacity="1.00" d=" M 512.87 208.90 C 513.70 212.05 518.53 217.54 519.17 211.14 C 520.12 215.38 525.56 214.26 527.05 209.84 C 523.28 215.89 532.85 221.39 535.58 220.59 C 529.41 224.70 542.22 227.10 535.06 227.27 C 531.02 236.42 557.13 230.23 542.01 232.99 C 535.03 229.39 532.59 236.55 538.10 239.05 C 532.66 236.40 530.43 242.21 535.07 245.17 C 528.98 240.06 525.11 251.20 517.22 248.19 C 516.51 256.76 516.74 244.99 511.37 247.13 C 510.36 249.50 510.09 252.49 507.90 254.15 C 509.06 250.51 512.05 242.73 504.99 245.76 C 507.21 242.14 502.71 240.17 499.79 241.89 C 505.25 238.89 501.61 225.98 494.10 229.94 C 503.86 232.76 501.08 217.71 510.13 216.13 C 514.48 215.34 513.47 212.04 512.87 208.90 Z" />
</g>
<g id="#404244ff">
<path fill="#404244" opacity="1.00" d=" M 260.95 213.07 C 266.68 208.04 273.16 220.39 273.50 215.16 C 284.24 217.81 299.23 217.34 307.03 224.70 C 301.56 226.43 306.53 230.36 307.23 233.84 C 302.97 232.45 298.60 231.31 294.15 230.79 C 296.63 236.28 298.85 242.10 305.82 243.19 C 301.88 242.28 297.88 241.80 293.90 241.21 L 293.10 241.08 C 292.68 240.99 291.85 240.82 291.43 240.74 C 287.96 237.09 280.35 239.00 282.62 231.19 C 276.88 230.48 271.04 230.98 265.28 231.11 C 265.12 235.70 265.12 240.68 259.67 241.53 C 253.01 235.26 261.36 217.03 246.68 218.95 C 263.77 217.15 276.49 231.66 293.42 230.82 C 281.35 227.49 270.06 221.42 260.95 213.07 Z" />
</g>
<g id="#404143ff">
<path fill="#404143" opacity="1.00" d=" M 402.87 212.92 C 413.41 214.41 421.01 216.68 429.18 224.84 C 433.54 223.34 447.89 217.58 446.59 225.08 C 443.57 227.30 446.59 229.99 447.28 232.56 C 430.72 232.15 414.24 224.93 402.87 212.92 Z" />
</g>
<g id="#494a4bff">
<path fill="#494a4b" opacity="1.00" d=" M 202.19 220.78 C 201.73 208.53 216.60 219.75 223.55 219.47 C 228.87 221.59 239.11 219.80 239.91 227.28 C 238.84 228.98 237.86 230.72 236.91 232.49 C 232.90 232.81 229.07 231.20 225.11 230.82 C 226.47 238.44 232.44 243.57 240.39 242.11 C 242.96 240.98 248.93 243.05 246.73 238.49 C 242.24 238.42 247.47 234.78 245.45 232.04 C 245.62 231.69 245.97 231.00 246.14 230.65 C 244.75 235.97 256.41 239.96 247.89 239.18 C 249.05 242.69 256.84 245.19 256.28 239.63 C 257.91 246.32 261.64 256.09 251.78 258.10 C 247.40 251.25 240.85 245.55 233.12 242.88 C 230.23 241.86 227.21 241.28 224.19 240.82 C 219.57 238.54 208.73 231.70 217.97 229.67 C 212.72 226.69 207.10 224.31 202.19 220.78 Z" />
</g>
<g id="#444547ff">
<path fill="#444547" opacity="1.00" d=" M 344.22 215.07 C 354.95 216.21 365.26 220.32 375.94 222.07 C 377.74 221.99 377.40 223.61 377.37 224.84 C 371.18 228.39 380.10 230.50 378.01 235.12 C 375.76 230.14 368.67 232.26 364.16 230.78 C 356.52 228.66 340.82 225.14 344.22 215.07 Z" />
</g>
<g id="#969799ff">
<path fill="#969799" opacity="1.00" d=" M 87.52 216.57 C 96.66 214.57 88.81 221.73 87.81 226.01 C 93.43 222.90 100.60 214.77 103.05 224.99 C 97.32 229.75 89.38 231.61 83.81 236.65 C 74.86 232.79 80.45 220.29 87.52 216.57 Z" />
</g>
<g id="#9c9d9fff">
<path fill="#9c9d9f" opacity="1.00" d=" M 74.38 217.38 C 75.96 217.24 77.54 217.15 79.12 217.08 C 79.52 224.07 73.79 235.53 67.73 227.20 C 62.80 220.16 69.97 220.55 74.38 217.38 Z" />
</g>
<g id="#46484bff">
<path fill="#46484b" opacity="1.00" d=" M 312.77 217.65 C 314.06 217.48 315.35 217.34 316.65 217.21 C 332.87 218.64 346.76 231.77 364.16 230.78 C 365.85 234.02 366.82 237.57 368.14 240.97 C 355.90 240.44 344.33 246.61 336.94 256.19 C 338.40 251.95 341.28 248.39 342.73 244.15 C 336.18 243.81 346.20 242.94 343.78 239.38 C 340.61 234.99 344.64 243.63 340.06 240.87 C 338.45 234.81 343.24 231.14 348.86 232.95 C 347.61 236.66 347.83 240.69 346.42 244.35 C 349.95 242.86 358.49 242.03 358.28 238.77 C 349.76 240.37 356.41 227.12 346.98 230.97 C 342.27 231.59 331.31 227.74 334.03 237.06 C 334.50 241.67 328.15 240.74 326.14 243.92 C 332.70 248.17 325.43 262.26 319.67 253.52 C 316.34 250.62 313.07 247.63 309.31 245.28 C 309.68 243.51 309.51 241.72 309.12 239.98 C 316.62 238.17 317.27 231.07 312.20 225.78 C 313.05 225.29 313.96 225.01 314.94 224.92 C 317.21 231.47 315.24 244.12 325.64 243.05 C 326.11 237.59 323.95 232.36 323.21 227.03 C 330.93 219.19 316.80 221.17 311.76 219.50 C 314.27 219.01 316.32 218.44 312.77 217.65 Z" />
</g>
<g id="#6c6d6fef">
<path fill="#6c6d6f" opacity="0.94" d=" M 572.16 227.14 C 563.83 232.51 563.82 208.87 568.57 221.11 C 569.41 223.31 570.62 225.35 572.16 227.14 Z" />
</g>
<g id="#969898ff">
<path fill="#969898" opacity="1.00" d=" M 61.36 222.27 C 64.75 221.59 66.10 227.40 67.05 229.90 C 64.56 238.14 55.30 233.98 51.76 229.39 C 56.22 229.94 57.76 224.01 61.36 222.27 Z" />
</g>
<g id="#373839ff">
<path fill="#373839" opacity="1.00" d=" M 124.01 222.11 C 135.14 223.28 147.75 221.41 158.19 225.58 C 156.96 231.00 163.50 236.42 166.24 241.51 C 171.36 239.04 176.93 239.92 182.36 239.31 C 187.56 244.01 187.75 253.19 180.60 256.04 C 173.59 247.78 164.11 241.13 152.89 241.14 L 152.05 241.07 C 147.97 241.10 144.02 242.29 140.11 243.33 C 130.74 236.18 119.43 240.63 111.05 248.10 C 113.01 240.67 110.24 233.46 108.82 226.25 C 115.09 227.90 129.14 234.84 124.01 222.11 Z" />
</g>
<g id="#8e9093ff">
<path fill="#8e9093" opacity="1.00" d=" M 386.01 225.28 C 392.56 223.80 395.34 224.95 395.18 233.22 C 396.50 236.67 395.16 240.63 397.04 243.82 C 391.20 243.87 384.92 237.56 394.32 239.73 C 387.62 237.81 385.95 232.04 386.01 225.28 Z" />
</g>
<g id="#717373ff">
<path fill="#717373" opacity="1.00" d=" M 194.77 239.86 C 189.31 231.40 189.96 218.80 204.73 225.11 C 207.30 227.20 217.80 232.94 207.03 230.95 C 196.23 227.68 200.97 240.07 199.90 246.05 C 196.74 246.14 196.37 241.91 194.77 239.86 Z" />
</g>
<g id="#8c8e90ff">
<path fill="#8c8e90" opacity="1.00" d=" M 239.91 227.28 C 244.38 222.94 244.54 228.32 245.45 232.04 C 247.47 234.78 242.24 238.42 246.73 238.49 C 248.93 243.05 242.96 240.98 240.39 242.11 C 239.07 238.96 237.83 235.78 236.91 232.49 C 237.86 230.72 238.84 228.98 239.91 227.28 Z" />
</g>
<g id="#8d8f91ff">
<path fill="#8d8f91" opacity="1.00" d=" M 246.14 230.65 C 245.93 227.88 242.28 221.87 249.47 225.27 C 256.49 225.16 254.13 235.37 256.28 239.63 C 256.84 245.19 249.05 242.69 247.89 239.18 C 256.41 239.96 244.75 235.97 246.14 230.65 Z" />
</g>
<g id="#8c8e91ff">
<path fill="#8c8e91" opacity="1.00" d=" M 307.23 233.84 C 306.53 230.36 301.56 226.43 307.03 224.70 C 307.35 228.70 309.76 227.52 312.20 225.78 C 317.27 231.07 316.62 238.17 309.12 239.98 C 308.50 237.93 307.91 235.87 307.23 233.84 Z" />
<path fill="#8c8e91" opacity="1.00" d=" M 377.37 224.84 C 378.46 228.43 381.28 227.17 383.86 225.94 C 384.88 230.84 389.49 237.90 381.73 238.85 C 390.24 237.28 387.57 242.57 380.36 242.08 C 379.61 239.75 378.75 237.46 378.01 235.12 C 380.10 230.50 371.18 228.39 377.37 224.84 Z" />
</g>
<g id="#888b8eff">
<path fill="#888b8e" opacity="1.00" d=" M 314.94 224.92 C 317.74 225.40 320.47 226.25 323.21 227.03 C 323.95 232.36 326.11 237.59 325.64 243.05 C 315.24 244.12 317.21 231.47 314.94 224.92 Z" />
</g>
<g id="#787b7efe">
<path fill="#787b7e" opacity="1.00" d=" M 446.59 225.08 C 448.14 226.11 449.74 228.52 451.62 226.63 C 458.65 222.01 468.02 228.77 465.62 237.32 C 464.58 243.06 470.58 248.00 466.76 253.54 C 466.13 252.75 459.29 248.62 454.87 245.78 C 458.72 250.87 463.93 254.83 466.71 260.72 C 471.54 270.32 469.89 282.21 464.23 291.09 C 460.49 294.18 456.04 296.43 453.70 300.89 C 450.12 301.86 449.87 296.76 446.96 295.68 C 455.14 291.93 470.88 268.10 450.10 274.01 C 441.91 276.34 461.67 281.17 451.66 279.27 C 445.85 275.25 446.67 285.24 441.05 285.06 C 433.73 285.00 436.31 292.82 435.98 298.03 L 435.00 298.06 C 435.54 294.63 435.99 280.47 431.45 288.56 C 428.53 295.99 433.38 279.29 427.15 285.83 C 428.58 282.42 425.95 281.52 423.21 282.97 C 427.93 275.10 418.17 270.93 411.04 274.05 C 411.28 277.44 411.29 282.43 415.95 279.93 C 409.58 283.51 416.96 289.03 419.73 292.68 C 421.42 296.99 431.28 300.09 426.03 304.99 C 420.68 299.41 413.24 298.08 407.80 292.17 C 406.53 290.35 405.68 288.29 404.80 286.28 C 397.56 265.96 412.43 242.69 433.97 240.93 C 440.50 239.43 446.91 245.22 453.02 242.66 C 448.47 241.49 448.46 236.23 447.28 232.56 C 446.59 229.99 443.57 227.30 446.59 225.08 M 433.48 249.49 C 424.93 248.03 430.85 265.32 438.13 261.76 C 445.41 256.80 444.10 245.13 433.48 249.49 M 426.34 251.31 C 424.16 252.12 421.21 252.95 423.00 255.72 C 417.03 252.59 418.88 262.75 415.23 260.41 C 407.65 266.86 425.92 272.70 426.98 265.01 C 433.40 263.57 431.52 251.76 426.34 251.31 M 445.04 250.93 C 436.06 259.11 444.73 266.80 450.84 269.81 C 440.04 272.82 465.11 277.47 460.49 269.61 C 461.83 264.53 450.47 270.20 455.85 266.81 C 461.54 267.27 458.20 257.79 454.00 261.01 C 457.98 256.43 448.52 252.71 445.04 250.93 Z" />
</g>
<g id="#636466eb">
<path fill="#636466" opacity="0.92" d=" M 564.82 236.95 C 561.77 240.15 563.14 231.07 565.64 229.81 C 565.06 235.12 568.30 229.70 571.14 231.63 C 569.06 234.72 570.24 238.53 570.45 241.97 C 564.17 247.72 566.99 227.45 564.82 236.95 Z" />
</g>
<g id="#8f9091ff">
<path fill="#8f9091" opacity="1.00" d=" M 88.60 236.41 C 93.83 236.93 106.85 225.23 107.00 236.04 C 106.45 241.28 98.41 238.28 94.78 240.09 C 96.92 245.00 106.20 239.72 106.97 245.04 C 107.03 260.25 108.03 237.88 109.49 248.19 C 109.36 249.35 109.13 250.50 108.82 251.62 C 103.32 253.55 97.99 249.63 92.97 248.04 C 85.77 249.59 79.39 237.70 88.60 236.41 M 87.00 239.00 C 85.89 249.47 97.69 237.51 87.00 239.00 Z" />
</g>
<g id="#09090aff">
<path fill="#09090a" opacity="1.00" d=" M 225.11 230.82 C 229.07 231.20 232.90 232.81 236.91 232.49 C 237.83 235.78 239.07 238.96 240.39 242.11 C 232.44 243.57 226.47 238.44 225.11 230.82 Z" />
<path fill="#09090a" opacity="1.00" d=" M 294.15 230.79 C 298.60 231.31 302.97 232.45 307.23 233.84 C 307.91 235.87 308.50 237.93 309.12 239.98 C 309.51 241.72 309.68 243.51 309.31 245.28 C 308.16 244.55 307.01 243.83 305.82 243.19 C 298.85 242.10 296.63 236.28 294.15 230.79 Z" />
</g>
<g id="#111212fe">
<path fill="#111212" opacity="1.00" d=" M 334.03 237.06 C 331.31 227.74 342.27 231.59 346.98 230.97 C 356.41 227.12 349.76 240.37 358.28 238.77 C 358.49 242.03 349.95 242.86 346.42 244.35 C 347.83 240.69 347.61 236.66 348.86 232.95 C 343.24 231.14 338.45 234.81 340.06 240.87 C 344.64 243.63 340.61 234.99 343.78 239.38 C 346.20 242.94 336.18 243.81 342.73 244.15 C 341.28 248.39 338.40 251.95 336.94 256.19 C 333.37 262.66 332.61 270.02 331.69 277.22 C 330.76 274.49 332.76 267.13 327.81 269.74 C 327.44 269.83 326.70 269.99 326.34 270.08 C 326.15 263.91 322.55 258.72 319.67 253.52 C 325.43 262.26 332.70 248.17 326.14 243.92 C 328.15 240.74 334.50 241.67 334.03 237.06 Z" />
</g>
<g id="#0a0a0aff">
<path fill="#0a0a0a" opacity="1.00" d=" M 364.16 230.78 C 368.67 232.26 375.76 230.14 378.01 235.12 C 378.75 237.46 379.61 239.75 380.36 242.08 C 380.03 242.59 379.35 243.61 379.02 244.12 C 375.54 242.63 371.80 241.80 368.14 240.97 C 366.82 237.57 365.85 234.02 364.16 230.78 Z" />
</g>
<g id="#0e0e0efe">
<path fill="#0e0e0e" opacity="1.00" d=" M 403.21 231.28 C 409.28 231.54 415.36 230.50 421.41 231.45 C 420.80 237.07 424.91 237.47 428.41 239.96 C 424.70 241.69 420.87 243.15 417.04 244.58 C 412.65 242.51 421.67 231.99 415.05 232.94 C 409.72 228.45 405.98 242.46 411.63 241.21 C 410.80 238.38 411.64 236.74 412.96 240.09 C 409.68 249.41 405.69 258.41 401.35 267.67 C 398.72 270.17 399.05 273.96 398.41 277.28 C 398.07 270.75 397.57 263.71 393.87 258.10 C 400.08 255.03 399.14 248.26 398.34 242.51 C 403.50 240.93 403.75 236.10 403.21 231.28 M 417.10 237.26 C 415.56 240.29 420.37 237.44 417.10 237.26 Z" />
</g>
<g id="#797a7bfc">
<path fill="#797a7b" opacity="1.00" d=" M 47.04 231.84 C 51.18 234.14 55.93 234.64 60.48 236.19 C 61.95 240.59 57.16 246.42 63.23 248.34 C 69.63 248.09 60.21 241.72 64.28 238.44 C 66.22 232.30 77.35 229.04 80.66 235.44 C 76.24 238.42 87.24 240.28 81.89 245.35 C 81.02 242.85 76.43 247.59 80.13 249.32 C 74.81 255.20 72.41 246.43 69.90 251.85 C 62.48 246.11 66.85 259.66 62.52 263.85 C 62.72 273.28 49.67 269.28 53.43 262.50 C 57.17 255.37 51.57 259.93 49.04 263.34 C 42.68 255.42 46.79 251.71 55.22 247.98 C 49.73 251.89 40.02 247.89 46.04 241.26 C 54.47 239.13 43.93 238.19 47.04 231.84 Z" />
</g>
<g id="#454545ff">
<path fill="#454545" opacity="1.00" d=" M 205.09 242.80 C 198.80 241.08 203.71 232.57 207.20 233.13 C 215.91 232.01 210.57 245.03 219.17 241.16 C 213.83 242.05 208.91 244.33 204.16 246.82 C 203.14 244.71 201.14 242.04 205.09 242.80 Z" />
</g>
<g id="#4a4a4aff">
<path fill="#4a4a4a" opacity="1.00" d=" M 271.36 240.55 C 266.85 234.90 279.96 229.65 279.71 235.46 C 283.26 234.94 283.42 242.42 279.36 241.21 C 281.38 233.88 274.13 242.77 278.04 245.13 C 275.69 246.86 273.29 248.49 270.86 250.09 C 270.18 244.63 277.35 238.08 271.36 240.55 Z" />
</g>
<g id="#3c3e3dff">
<path fill="#3c3e3d" opacity="1.00" d=" M 417.10 237.26 C 420.37 237.44 415.56 240.29 417.10 237.26 Z" />
</g>
<g id="#151517ff">
<path fill="#151517" opacity="1.00" d=" M 87.00 239.00 C 97.69 237.51 85.89 249.47 87.00 239.00 Z" />
</g>
<g id="#a2a3a5ff">
<path fill="#a2a3a5" opacity="1.00" d=" M 140.11 243.33 C 144.02 242.29 147.97 241.10 152.05 241.07 C 154.40 247.90 142.12 245.59 151.40 247.74 C 126.05 242.79 114.62 282.20 134.72 295.27 C 139.29 298.02 143.72 301.91 149.38 301.73 C 146.54 309.20 142.12 301.49 138.71 299.28 C 132.48 301.39 128.93 294.76 125.10 291.06 C 119.94 281.91 119.27 270.80 122.22 260.83 C 126.18 253.31 132.27 246.84 140.11 243.33 Z" />
</g>
<g id="#5c5d5fff">
<path fill="#5c5d5f" opacity="1.00" d=" M 152.05 241.07 L 152.89 241.14 C 153.15 249.54 167.79 246.06 172.32 253.71 C 181.22 257.55 176.42 271.67 184.99 273.74 C 177.69 274.21 182.85 285.94 176.86 289.86 C 170.00 294.89 164.42 304.25 155.49 301.84 C 151.83 295.94 153.45 301.19 149.38 301.73 C 143.72 301.91 139.29 298.02 134.72 295.27 C 114.62 282.20 126.05 242.79 151.40 247.74 C 142.12 245.59 154.40 247.90 152.05 241.07 M 149.41 249.36 C 135.31 247.08 115.33 280.50 140.65 272.88 C 139.43 263.81 151.83 264.39 152.86 258.10 C 151.56 264.55 160.56 260.93 162.19 265.79 C 162.39 269.70 171.78 269.07 165.08 270.28 C 164.10 276.36 174.75 271.40 178.08 272.93 C 180.39 264.15 165.08 269.68 175.99 265.76 C 173.03 254.73 160.29 248.02 149.41 249.36 M 149.92 263.03 C 151.61 268.84 154.25 265.98 148.68 268.84 C 147.08 262.19 139.08 270.58 146.06 271.07 C 148.94 274.38 139.31 272.93 142.72 277.18 C 145.06 283.46 145.44 271.26 147.95 277.08 C 152.50 283.52 160.05 277.50 159.13 271.08 C 164.22 279.00 164.39 263.96 158.68 269.58 C 154.65 268.48 160.76 260.05 149.92 263.03 M 127.97 274.04 C 128.35 279.90 130.78 285.99 134.72 290.35 C 138.69 292.97 144.87 300.44 147.03 292.85 C 142.96 297.91 154.51 301.06 153.01 294.99 C 152.43 282.51 155.39 295.89 154.15 298.03 C 163.45 304.04 157.07 288.20 160.30 293.66 C 160.63 300.42 170.61 293.95 164.84 289.91 C 171.94 297.68 179.45 278.58 177.01 274.00 C 170.40 269.79 158.75 277.45 166.22 282.88 C 163.38 281.56 159.81 282.34 162.00 285.98 C 159.53 283.30 157.98 284.46 157.79 287.90 C 154.47 281.63 141.06 289.04 144.96 281.91 C 141.10 283.04 136.63 285.01 142.08 281.01 C 143.48 273.76 134.14 271.61 127.97 274.04 Z" />
</g>
<g id="#9e9fa1fd">
<path fill="#9e9fa1" opacity="1.00" d=" M 152.89 241.14 C 164.11 241.13 173.59 247.78 180.60 256.04 C 186.86 265.12 186.25 276.03 184.22 286.31 C 182.05 292.08 177.56 296.41 172.91 300.27 C 166.88 299.28 159.78 310.27 155.49 301.84 C 164.42 304.25 170.00 294.89 176.86 289.86 C 182.85 285.94 177.69 274.21 184.99 273.74 C 176.42 271.67 181.22 257.55 172.32 253.71 C 167.79 246.06 153.15 249.54 152.89 241.14 Z" />
</g>
<g id="#a6a7a9ff">
<path fill="#a6a7a9" opacity="1.00" d=" M 219.17 241.16 C 219.93 241.11 221.44 241.02 222.19 240.97 C 224.18 247.92 214.94 246.92 213.04 244.96 C 212.15 248.42 207.64 251.58 204.62 248.47 C 204.60 255.34 192.16 262.90 194.69 272.88 C 188.25 276.46 191.10 270.42 190.81 267.76 C 191.69 259.12 197.33 251.83 204.16 246.82 C 208.91 244.33 213.83 242.05 219.17 241.16 Z" />
</g>
<g id="#757678fd">
<path fill="#757678" opacity="1.00" d=" M 222.19 240.97 C 222.69 240.93 223.69 240.85 224.19 240.82 C 227.21 241.28 230.23 241.86 233.12 242.88 C 230.36 247.68 236.04 250.02 240.20 249.55 C 242.15 255.15 249.90 260.20 250.40 267.50 C 248.72 273.21 252.59 273.19 256.11 272.94 C 256.27 273.25 256.58 273.87 256.74 274.18 C 256.77 283.49 252.59 292.70 244.97 298.19 C 240.33 300.33 233.23 308.32 229.37 301.62 C 227.42 298.19 220.46 301.98 222.41 305.95 C 216.10 309.00 216.70 297.90 210.42 301.29 C 206.79 306.06 205.05 298.54 200.17 298.73 C 192.76 291.22 189.72 281.16 188.37 270.99 C 189.08 269.85 189.99 268.83 190.81 267.76 C 191.10 270.42 188.25 276.46 194.69 272.88 C 192.16 262.90 204.60 255.34 204.62 248.47 C 207.64 251.58 212.15 248.42 213.04 244.96 C 214.94 246.92 224.18 247.92 222.19 240.97 M 220.47 249.53 C 214.17 247.77 217.48 254.79 216.30 255.69 C 215.44 244.81 201.03 258.68 204.18 260.81 C 200.88 258.70 196.72 267.81 202.37 266.59 C 207.97 268.18 201.77 268.12 199.21 267.18 C 192.91 275.53 211.68 276.37 211.43 269.34 C 212.12 264.61 218.59 263.05 218.81 259.16 C 222.11 270.70 222.30 244.40 223.03 255.00 C 220.04 262.16 230.32 266.25 233.14 259.88 C 229.02 263.64 234.04 271.28 238.94 267.87 C 255.75 268.35 232.61 243.44 228.84 255.08 C 232.08 248.78 225.03 248.81 220.47 249.53 M 234.96 274.06 C 233.97 277.65 238.07 277.53 240.34 278.68 C 245.92 282.26 229.13 275.97 235.24 281.74 C 240.61 287.04 228.05 278.23 232.01 285.98 C 227.64 279.58 227.91 293.75 226.72 286.08 C 219.68 284.61 223.89 305.80 230.02 296.04 C 230.85 296.21 238.90 295.89 235.96 291.03 C 240.45 296.09 249.90 282.37 242.91 279.92 C 247.70 282.58 247.58 277.55 248.00 274.08 C 243.66 273.75 239.29 273.98 234.96 274.06 M 210.28 278.36 C 207.32 280.14 201.38 279.34 200.04 282.96 C 201.86 287.47 206.54 296.33 211.16 289.92 C 205.67 293.60 215.73 299.94 215.81 293.86 C 218.01 289.22 216.02 295.85 216.75 297.37 C 227.36 302.92 222.68 278.48 213.99 285.98 C 216.14 282.51 212.76 281.37 210.00 283.01 C 211.31 281.75 213.15 278.40 210.28 278.36 Z" />
</g>
<g id="#a2a4a7ff">
<path fill="#a2a4a7" opacity="1.00" d=" M 278.04 245.13 C 282.09 242.60 286.83 241.74 291.43 240.74 C 291.85 240.82 292.68 240.99 293.10 241.08 C 292.98 249.57 278.23 246.01 273.72 253.70 C 266.68 258.03 268.04 268.43 263.01 273.21 C 262.47 273.11 261.40 272.92 260.87 272.82 C 260.95 264.22 264.85 256.12 270.86 250.09 C 273.29 248.49 275.69 246.86 278.04 245.13 Z" />
</g>
<g id="#595b5dfe">
<path fill="#595b5d" opacity="1.00" d=" M 293.10 241.08 L 293.90 241.21 C 292.29 247.75 299.24 245.31 303.29 246.92 C 314.34 250.50 320.76 261.93 322.38 272.86 C 324.75 273.57 326.53 272.76 326.34 270.08 C 326.70 269.99 327.44 269.83 327.81 269.74 C 326.84 277.44 326.93 286.23 321.13 292.07 C 321.22 287.16 330.81 273.74 322.31 274.15 C 322.36 280.28 315.78 286.46 318.82 292.12 C 311.85 287.24 311.28 300.43 303.02 299.74 C 298.10 298.42 296.48 301.88 295.68 305.92 C 289.50 309.61 288.67 295.88 283.24 300.67 C 281.59 298.24 278.14 295.88 275.63 298.53 C 272.42 292.76 266.44 281.49 263.01 273.21 C 268.04 268.43 266.68 258.03 273.72 253.70 C 278.23 246.01 292.98 249.57 293.10 241.08 M 289.34 249.32 C 283.53 250.71 277.93 253.31 274.15 258.10 C 275.22 259.86 276.94 261.86 273.73 260.45 C 268.84 263.05 265.13 277.51 275.98 273.04 C 283.70 274.29 282.83 261.17 291.94 261.90 C 294.01 259.30 295.81 246.43 289.34 249.32 M 294.08 248.98 C 294.42 254.06 291.06 262.73 298.35 262.68 C 301.26 266.06 309.78 268.26 306.00 271.98 C 307.88 274.77 315.19 272.17 318.75 273.11 C 318.46 260.05 306.68 249.61 294.08 248.98 M 291.35 263.08 C 290.57 264.70 290.71 271.19 288.59 267.39 C 286.11 262.59 280.65 272.90 286.92 271.03 C 290.69 276.36 284.71 288.02 297.02 284.14 C 293.00 281.13 296.73 276.22 298.95 280.01 C 300.77 286.19 308.85 271.44 299.12 276.87 C 299.72 271.97 299.50 270.79 303.98 273.04 C 305.49 266.63 300.44 268.93 296.81 269.79 C 301.18 265.11 297.18 261.92 291.35 263.08 M 268.96 274.04 C 268.30 286.84 280.07 298.84 292.93 298.01 C 296.26 287.29 290.24 285.90 282.54 281.73 C 283.42 273.56 276.83 271.62 268.96 274.04 M 306.38 274.12 C 306.17 281.21 298.63 284.43 294.04 287.15 C 288.70 300.51 300.76 299.34 307.79 293.87 C 317.27 289.20 324.99 267.17 306.38 274.12 Z" />
</g>
<g id="#a3a5a8ff">
<path fill="#a3a5a8" opacity="1.00" d=" M 293.90 241.21 C 297.88 241.80 301.88 242.28 305.82 243.19 C 307.01 243.83 308.16 244.55 309.31 245.28 C 313.07 247.63 316.34 250.62 319.67 253.52 C 322.55 258.72 326.15 263.91 326.34 270.08 C 326.53 272.76 324.75 273.57 322.38 272.86 C 320.76 261.93 314.34 250.50 303.29 246.92 C 299.24 245.31 292.29 247.75 293.90 241.21 Z" />
</g>
<g id="#999d9ffd">
<path fill="#999d9f" opacity="1.00" d=" M 336.94 256.19 C 344.33 246.61 355.90 240.44 368.14 240.97 C 371.80 241.80 375.54 242.63 379.02 244.12 C 384.87 247.79 390.55 251.80 393.87 258.10 C 397.57 263.71 398.07 270.75 398.41 277.28 C 397.26 284.19 394.78 291.60 389.11 296.09 C 385.02 298.39 378.69 306.50 375.72 299.52 C 389.03 295.03 396.10 279.39 392.76 266.18 C 388.46 251.95 371.12 241.52 356.77 246.63 C 345.12 249.91 337.93 261.50 336.03 272.91 C 336.07 285.64 344.49 295.67 355.54 301.11 C 352.65 308.33 344.81 297.53 341.11 296.23 C 335.56 291.64 332.24 284.34 331.69 277.22 C 332.61 270.02 333.37 262.66 336.94 256.19 Z" />
</g>
<g id="#515352ff">
<path fill="#515352" opacity="1.00" d=" M 134.26 243.10 C 137.29 241.56 134.44 246.37 134.26 243.10 Z" />
</g>
<g id="#a4a6a8ff">
<path fill="#a4a6a8" opacity="1.00" d=" M 233.12 242.88 C 240.85 245.55 247.40 251.25 251.78 258.10 C 254.21 262.72 255.28 267.83 256.11 272.94 C 252.59 273.19 248.72 273.21 250.40 267.50 C 249.90 260.20 242.15 255.15 240.20 249.55 C 236.04 250.02 230.36 247.68 233.12 242.88 Z" />
</g>
<g id="#57595cff">
<path fill="#57595c" opacity="1.00" d=" M 356.77 246.63 C 371.12 241.52 388.46 251.95 392.76 266.18 C 396.10 279.39 389.03 295.03 375.72 299.52 C 375.05 298.65 374.42 297.75 373.80 296.85 C 382.56 292.55 390.57 284.50 390.01 274.04 C 383.25 270.31 372.00 275.31 377.85 282.97 C 375.22 281.63 372.41 282.25 373.84 285.66 C 369.21 283.18 363.96 287.75 359.27 284.96 C 354.34 283.75 353.75 278.23 352.52 274.19 C 348.34 273.94 344.15 273.70 339.99 274.09 C 340.76 283.86 346.72 293.06 355.92 296.81 C 355.83 298.24 355.77 299.68 355.54 301.11 C 344.49 295.67 336.07 285.64 336.03 272.91 C 337.93 261.50 345.12 249.91 356.77 246.63 M 342.44 265.48 C 345.23 265.85 335.46 273.48 342.99 273.06 C 351.88 276.40 353.00 270.70 355.86 265.39 C 358.26 267.73 352.69 270.72 357.86 271.09 C 360.78 274.45 357.31 275.16 353.96 273.95 C 354.32 278.73 356.65 281.54 360.03 276.84 C 368.17 280.40 356.14 282.23 363.16 283.90 C 374.23 288.40 362.99 280.20 367.59 279.53 C 370.44 277.65 370.85 284.46 373.32 280.34 C 379.45 275.54 363.76 277.75 371.80 271.14 C 377.03 277.83 376.69 264.68 371.75 269.47 C 366.36 269.43 373.34 265.07 368.36 263.60 C 362.70 259.20 361.52 273.60 357.87 264.07 C 364.50 258.31 378.73 263.78 377.06 272.92 C 381.37 273.25 385.68 273.00 390.01 272.95 C 388.76 262.07 381.26 249.88 366.97 249.01 C 356.88 249.11 343.77 254.60 342.44 265.48 Z" />
</g>
<g id="#5c5d5ef2">
<path fill="#5c5d5e" opacity="0.95" d=" M 558.14 251.63 C 557.83 244.07 564.95 245.85 570.09 245.99 C 566.40 247.75 563.89 252.10 564.89 256.17 C 560.76 257.07 561.54 252.35 558.14 251.63 Z" />
</g>
<g id="#838486ff">
<path fill="#838486" opacity="1.00" d=" M 80.33 258.74 C 76.18 253.72 80.63 250.64 84.04 247.05 C 91.13 251.24 99.25 253.40 106.19 257.56 C 105.33 259.38 104.69 261.29 104.14 263.23 C 103.94 263.53 103.52 264.11 103.32 264.41 C 98.91 268.11 95.38 257.20 91.55 263.34 C 101.21 263.42 93.79 272.38 88.21 272.98 C 85.48 268.29 83.71 263.04 80.33 258.74 Z" />
</g>
<g id="#a7a8aaff">
<path fill="#a7a8aa" opacity="1.00" d=" M 149.41 249.36 C 160.29 248.02 173.03 254.73 175.99 265.76 C 165.08 269.68 180.39 264.15 178.08 272.93 C 174.75 271.40 164.10 276.36 165.08 270.28 C 171.78 269.07 162.39 269.70 162.19 265.79 C 160.56 260.93 151.56 264.55 152.86 258.10 C 151.83 264.39 139.43 263.81 140.65 272.88 C 115.33 280.50 135.31 247.08 149.41 249.36 Z" />
</g>
<g id="#a8aaacff">
<path fill="#a8aaac" opacity="1.00" d=" M 220.47 249.53 C 225.03 248.81 232.08 248.78 228.84 255.08 C 232.61 243.44 255.75 268.35 238.94 267.87 C 234.04 271.28 229.02 263.64 233.14 259.88 C 230.32 266.25 220.04 262.16 223.03 255.00 C 222.30 244.40 222.11 270.70 218.81 259.16 C 218.59 263.05 212.12 264.61 211.43 269.34 C 211.68 276.37 192.91 275.53 199.21 267.18 C 201.77 268.12 207.97 268.18 202.37 266.59 C 196.72 267.81 200.88 258.70 204.18 260.81 C 201.03 258.68 215.44 244.81 216.30 255.69 C 217.48 254.79 214.17 247.77 220.47 249.53 Z" />
</g>
<g id="#a4a7aaff">
<path fill="#a4a7aa" opacity="1.00" d=" M 289.34 249.32 C 295.81 246.43 294.01 259.30 291.94 261.90 C 282.83 261.17 283.70 274.29 275.98 273.04 C 265.13 277.51 268.84 263.05 273.73 260.45 C 276.94 261.86 275.22 259.86 274.15 258.10 C 277.93 253.31 283.53 250.71 289.34 249.32 Z" />
</g>
<g id="#a3a6aaff">
<path fill="#a3a6aa" opacity="1.00" d=" M 294.08 248.98 C 306.68 249.61 318.46 260.05 318.75 273.11 C 315.19 272.17 307.88 274.77 306.00 271.98 C 309.78 268.26 301.26 266.06 298.35 262.68 C 291.06 262.73 294.42 254.06 294.08 248.98 Z" />
</g>
<g id="#a2a5a8ff">
<path fill="#a2a5a8" opacity="1.00" d=" M 342.44 265.48 C 343.77 254.60 356.88 249.11 366.97 249.01 C 381.26 249.88 388.76 262.07 390.01 272.95 C 385.68 273.00 381.37 273.25 377.06 272.92 C 378.73 263.78 364.50 258.31 357.87 264.07 C 357.17 264.46 356.50 264.91 355.86 265.39 C 353.00 270.70 351.88 276.40 342.99 273.06 C 335.46 273.48 345.23 265.85 342.44 265.48 Z" />
</g>
<g id="#a6aaadff">
<path fill="#a6aaad" opacity="1.00" d=" M 433.48 249.49 C 444.10 245.13 445.41 256.80 438.13 261.76 C 430.85 265.32 424.93 248.03 433.48 249.49 Z" />
</g>
<g id="#a5a9acff">
<path fill="#a5a9ac" opacity="1.00" d=" M 426.34 251.31 C 431.52 251.76 433.40 263.57 426.98 265.01 C 425.92 272.70 407.65 266.86 415.23 260.41 C 418.88 262.75 417.03 252.59 423.00 255.72 C 421.21 252.95 424.16 252.12 426.34 251.31 Z" />
</g>
<g id="#a4a8abff">
<path fill="#a4a8ab" opacity="1.00" d=" M 445.04 250.93 C 448.52 252.71 457.98 256.43 454.00 261.01 C 458.20 257.79 461.54 267.27 455.85 266.81 C 450.47 270.20 461.83 264.53 460.49 269.61 C 465.11 277.47 440.04 272.82 450.84 269.81 C 444.73 266.80 436.06 259.11 445.04 250.93 Z" />
</g>
<g id="#838486fd">
<path fill="#838486" opacity="1.00" d=" M 67.24 254.31 C 72.57 250.15 76.55 255.82 80.33 258.74 C 77.97 263.92 85.62 269.77 83.25 275.16 C 74.12 276.62 79.35 277.22 84.38 277.86 C 81.56 278.56 78.65 278.74 75.77 279.10 C 74.41 277.50 75.28 266.65 73.71 261.71 C 68.05 264.90 72.83 273.92 72.08 276.90 C 55.93 278.02 68.98 262.60 67.24 254.31 Z" />
</g>
<g id="#4c4d4def">
<path fill="#4c4d4d" opacity="0.94" d=" M 80.33 258.74 C 83.71 263.04 85.48 268.29 88.21 272.98 C 93.79 272.38 101.21 263.42 91.55 263.34 C 95.38 257.20 98.91 268.11 103.32 264.41 C 98.98 271.03 91.80 275.46 84.38 277.86 C 79.35 277.22 74.12 276.62 83.25 275.16 C 85.62 269.77 77.97 263.92 80.33 258.74 Z" />
</g>
<g id="#4a4a4bb6">
<path fill="#4a4a4b" opacity="0.71" d=" M 125.10 291.06 C 117.62 283.53 117.31 269.71 122.22 260.83 C 119.27 270.80 119.94 281.91 125.10 291.06 Z" />
</g>
<g id="#808183ff">
<path fill="#808183" opacity="1.00" d=" M 149.92 263.03 C 160.76 260.05 154.65 268.48 158.68 269.58 C 164.39 263.96 164.22 279.00 159.13 271.08 C 160.05 277.50 152.50 283.52 147.95 277.08 C 145.44 271.26 145.06 283.46 142.72 277.18 C 139.31 272.93 148.94 274.38 146.06 271.07 C 139.08 270.58 147.08 262.19 148.68 268.84 C 154.25 265.98 151.61 268.84 149.92 263.03 Z" />
</g>
<g id="#7e7f81ff">
<path fill="#7e7f81" opacity="1.00" d=" M 291.35 263.08 C 297.18 261.92 301.18 265.11 296.81 269.79 C 300.44 268.93 305.49 266.63 303.98 273.04 C 299.50 270.79 299.72 271.97 299.12 276.87 C 308.85 271.44 300.77 286.19 298.95 280.01 C 296.73 276.22 293.00 281.13 297.02 284.14 C 284.71 288.02 290.69 276.36 286.92 271.03 C 280.65 272.90 286.11 262.59 288.59 267.39 C 290.71 271.19 290.57 264.70 291.35 263.08 Z" />
</g>
<g id="#505152d2">
<path fill="#505152" opacity="0.82" d=" M 260.02 273.14 L 260.87 272.82 C 261.19 277.35 262.25 281.77 262.77 286.28 C 260.51 282.30 259.75 277.69 260.02 273.14 Z" />
</g>
<g id="#9b9ea0fd">
<path fill="#9b9ea0" opacity="1.00" d=" M 260.87 272.82 C 261.40 272.92 262.47 273.11 263.01 273.21 C 266.44 281.49 272.42 292.76 275.63 298.53 C 278.14 295.88 281.59 298.24 283.24 300.67 C 277.59 307.20 270.89 294.61 265.76 292.16 C 264.56 290.31 263.67 288.29 262.77 286.28 C 262.25 281.77 261.19 277.35 260.87 272.82 Z" />
</g>
<g id="#9fa0a2ff">
<path fill="#9fa0a2" opacity="1.00" d=" M 127.97 274.04 C 134.14 271.61 143.48 273.76 142.08 281.01 C 136.63 285.01 141.10 283.04 144.96 281.91 C 141.06 289.04 154.47 281.63 157.79 287.90 C 157.98 284.46 159.53 283.30 162.00 285.98 C 159.81 282.34 163.38 281.56 166.22 282.88 C 158.75 277.45 170.40 269.79 177.01 274.00 C 179.45 278.58 171.94 297.68 164.84 289.91 C 170.61 293.95 160.63 300.42 160.30 293.66 C 157.07 288.20 163.45 304.04 154.15 298.03 C 155.39 295.89 152.43 282.51 153.01 294.99 C 154.51 301.06 142.96 297.91 147.03 292.85 C 144.87 300.44 138.69 292.97 134.72 290.35 C 130.78 285.99 128.35 279.90 127.97 274.04 Z" />
<path fill="#9fa0a2" opacity="1.00" d=" M 210.28 278.36 C 213.15 278.40 211.31 281.75 210.00 283.01 C 212.76 281.37 216.14 282.51 213.99 285.98 C 222.68 278.48 227.36 302.92 216.75 297.37 C 216.02 295.85 218.01 289.22 215.81 293.86 C 215.73 299.94 205.67 293.60 211.16 289.92 C 206.54 296.33 201.86 287.47 200.04 282.96 C 201.38 279.34 207.32 280.14 210.28 278.36 Z" />
</g>
<g id="#9ea0a4ff">
<path fill="#9ea0a4" opacity="1.00" d=" M 234.96 274.06 C 239.29 273.98 243.66 273.75 248.00 274.08 C 247.58 277.55 247.70 282.58 242.91 279.92 C 249.90 282.37 240.45 296.09 235.96 291.03 C 238.90 295.89 230.85 296.21 230.02 296.04 C 223.89 305.80 219.68 284.61 226.72 286.08 C 227.91 293.75 227.64 279.58 232.01 285.98 C 228.05 278.23 240.61 287.04 235.24 281.74 C 229.13 275.97 245.92 282.26 240.34 278.68 C 238.07 277.53 233.97 277.65 234.96 274.06 Z" />
</g>
<g id="#9b9da1ff">
<path fill="#9b9da1" opacity="1.00" d=" M 268.96 274.04 C 276.83 271.62 283.42 273.56 282.54 281.73 C 290.24 285.90 296.26 287.29 292.93 298.01 C 280.07 298.84 268.30 286.84 268.96 274.04 Z" />
</g>
<g id="#9a9da0ff">
<path fill="#9a9da0" opacity="1.00" d=" M 306.38 274.12 C 324.99 267.17 317.27 289.20 307.79 293.87 C 300.76 299.34 288.70 300.51 294.04 287.15 C 298.63 284.43 306.17 281.21 306.38 274.12 Z" />
</g>
<g id="#9ea1a4ff">
<path fill="#9ea1a4" opacity="1.00" d=" M 322.31 274.15 C 330.81 273.74 321.22 287.16 321.13 292.07 C 315.97 295.06 306.20 309.93 303.02 299.74 C 311.28 300.43 311.85 287.24 318.82 292.12 C 315.78 286.46 322.36 280.28 322.31 274.15 Z" />
</g>
<g id="#999c9fff">
<path fill="#999c9f" opacity="1.00" d=" M 339.99 274.09 C 344.15 273.70 348.34 273.94 352.52 274.19 C 353.75 278.23 354.34 283.75 359.27 284.96 C 363.96 287.75 369.21 283.18 373.84 285.66 C 372.41 282.25 375.22 281.63 377.85 282.97 C 372.00 275.31 383.25 270.31 390.01 274.04 C 390.57 284.50 382.56 292.55 373.80 296.85 C 368.09 299.16 361.76 298.02 355.92 296.81 C 346.72 293.06 340.76 283.86 339.99 274.09 Z" />
</g>
<g id="#9b9fa2ff">
<path fill="#9b9fa2" opacity="1.00" d=" M 411.04 274.05 C 418.17 270.93 427.93 275.10 423.21 282.97 C 425.95 281.52 428.58 282.42 427.15 285.83 C 433.38 279.29 428.53 295.99 431.45 288.56 C 435.99 280.47 435.54 294.63 435.00 298.06 C 429.16 298.96 424.24 295.88 419.73 292.68 C 416.96 289.03 409.58 283.51 415.95 279.93 C 411.29 282.43 411.28 277.44 411.04 274.05 Z" />
</g>
<g id="#999da0ff">
<path fill="#999da0" opacity="1.00" d=" M 451.66 279.27 C 461.67 281.17 441.91 276.34 450.10 274.01 C 470.88 268.10 455.14 291.93 446.96 295.68 C 443.52 297.24 439.78 298.11 435.98 298.03 C 436.31 292.82 433.73 285.00 441.05 285.06 C 446.67 285.24 445.85 275.25 451.66 279.27 Z" />
</g>
</svg>
