<?xml version="1.0" encoding="UTF-8" ?>
<!DOCTYPE svg PUBLIC "-//W3C//DTD SVG 1.1//EN" "http://www.w3.org/Graphics/SVG/1.1/DTD/svg11.dtd">
<svg width="600pt" height="148pt" viewBox="0 0 600 148" version="1.1" xmlns="http://www.w3.org/2000/svg">
<g id="#ffffffff">
<path fill="#ffffff" opacity="1.00" d=" M 0.00 0.00 L 600.00 0.00 L 600.00 148.00 L 578.60 148.00 C 578.06 140.13 571.94 133.28 564.28 131.61 C 562.22 131.11 560.10 130.86 558.00 130.83 C 497.00 130.87 436.01 130.83 375.02 130.85 C 371.63 130.86 368.25 130.64 364.90 130.16 C 366.31 127.94 368.05 125.95 369.75 123.94 C 373.03 119.41 374.98 114.11 377.14 108.99 C 378.85 105.86 380.95 102.97 383.25 100.24 C 382.33 100.39 380.50 100.68 379.59 100.83 C 379.12 98.53 378.60 96.24 378.05 93.97 C 377.79 92.26 377.63 90.54 377.30 88.85 C 377.23 88.68 377.07 88.35 377.00 88.19 C 375.98 85.43 375.05 82.63 373.58 80.07 C 373.44 79.20 373.31 78.33 373.18 77.46 C 382.82 77.51 392.55 78.15 402.10 76.47 C 409.61 75.39 418.27 74.12 424.71 79.16 C 426.43 80.79 427.82 77.94 428.99 76.94 C 431.18 74.78 431.77 71.74 431.73 68.78 C 421.02 64.66 409.42 67.44 398.29 66.51 C 398.30 69.57 398.33 72.63 398.15 75.68 C 397.73 72.92 397.71 70.12 397.77 67.33 C 395.77 67.17 393.79 66.98 391.81 66.76 C 393.68 66.77 395.56 66.73 397.44 66.70 C 398.00 66.14 398.56 65.58 399.13 65.01 C 431.08 65.37 463.03 65.17 494.98 65.25 C 498.68 65.30 502.41 65.35 506.06 64.62 C 514.59 62.94 523.32 63.45 531.96 63.34 C 549.31 63.40 566.66 63.32 584.00 63.39 C 585.85 63.45 587.66 62.97 589.44 62.47 C 589.35 58.45 589.36 54.43 589.48 50.41 C 587.68 49.98 585.86 49.61 584.02 49.65 C 562.69 49.74 541.36 49.65 520.03 49.70 C 513.61 49.72 507.42 47.48 501.00 47.55 C 454.39 47.63 407.79 47.50 361.19 47.65 C 351.78 46.37 342.28 45.99 332.79 46.31 C 332.33 45.99 331.39 45.36 330.93 45.05 C 324.98 31.54 316.99 19.00 311.58 5.25 C 311.16 3.99 310.74 2.73 310.32 1.47 C 306.65 3.07 302.92 4.57 299.49 6.65 C 301.85 10.67 303.75 14.95 306.24 18.90 C 307.48 20.86 308.72 22.83 309.93 24.80 C 310.93 26.47 311.93 28.13 312.95 29.79 C 314.46 33.16 315.76 36.79 318.60 39.32 C 315.85 41.33 313.10 43.35 310.51 45.58 C 306.48 46.55 302.33 46.31 298.24 46.27 C 298.22 42.57 299.08 38.97 299.77 35.36 C 297.29 35.34 294.81 35.36 292.34 35.41 C 293.04 38.29 293.83 41.15 294.42 44.05 C 293.46 44.77 292.45 45.44 291.28 45.71 C 287.08 45.90 282.86 45.84 278.67 45.54 L 277.76 45.31 C 276.05 44.81 274.30 44.44 272.56 44.09 C 272.46 41.21 272.41 38.33 272.35 35.45 C 270.48 35.42 268.62 35.42 266.76 35.45 C 266.64 37.10 266.51 38.75 266.39 40.40 C 263.43 40.54 260.47 40.60 257.51 40.55 L 257.47 41.46 C 255.62 41.38 253.77 41.31 251.92 41.25 C 248.84 45.02 247.39 50.09 248.20 54.90 C 248.54 58.10 248.46 61.32 248.44 64.54 C 224.87 64.80 201.29 64.69 177.71 64.74 C 177.68 67.15 177.68 69.56 177.72 71.96 C 179.74 73.02 181.73 74.11 183.66 75.32 C 186.28 76.57 189.03 77.76 192.01 77.55 C 220.94 77.46 249.87 77.66 278.79 77.44 C 279.83 80.90 280.08 84.54 280.99 88.03 C 281.61 90.00 282.33 91.95 282.64 94.01 C 281.61 95.28 280.24 96.21 278.97 97.21 C 273.06 98.80 266.95 99.28 260.95 100.32 C 257.98 100.95 254.33 99.17 251.97 101.68 C 227.92 105.55 203.83 109.12 179.78 112.94 C 180.75 113.48 181.74 113.99 182.74 114.47 C 181.82 115.23 180.70 115.73 179.49 115.76 C 179.56 114.90 179.59 114.03 179.61 113.17 C 172.38 114.09 165.11 114.93 157.97 116.45 C 157.29 116.56 155.93 116.77 155.24 116.87 C 150.13 117.63 144.92 117.95 139.93 119.35 C 138.37 119.53 136.81 119.71 135.27 119.95 C 119.46 122.03 103.77 124.99 87.96 127.04 C 85.52 127.25 83.12 127.73 80.76 128.36 C 79.35 128.56 77.93 128.70 76.52 128.88 C 75.87 128.98 75.22 129.10 74.58 129.23 C 69.93 130.25 65.13 130.17 60.51 131.32 C 57.14 131.54 53.76 131.53 50.39 131.55 C 50.05 125.14 50.95 118.64 49.60 112.32 C 47.77 112.55 45.94 112.81 44.15 113.27 C 43.50 113.41 42.20 113.69 41.55 113.82 C 40.30 114.14 38.42 114.29 38.27 115.94 C 37.68 120.88 38.12 125.88 38.00 130.84 C 30.96 131.06 23.73 129.63 16.84 131.53 C 16.08 131.56 14.57 131.62 13.82 131.65 C 7.55 134.73 0.68 140.22 1.45 148.00 L 0.00 148.00 L 0.00 0.00 Z" />
<path fill="#ffffff" opacity="1.00" d=" M 337.88 65.78 C 339.77 65.59 341.65 65.40 343.55 65.29 C 343.76 65.28 344.19 65.26 344.41 65.24 L 344.10 66.48 C 349.84 68.43 354.37 73.06 358.11 77.71 C 360.39 80.27 362.44 83.03 364.21 85.97 C 364.54 88.70 364.37 91.48 363.89 94.19 C 363.43 91.45 363.25 88.68 363.12 85.91 C 358.93 86.42 354.98 87.98 350.85 88.80 C 352.35 87.29 353.91 85.84 355.45 84.38 C 354.36 84.41 352.18 84.47 351.09 84.50 C 351.27 83.81 351.61 82.43 351.79 81.74 C 350.65 81.00 349.52 80.23 348.42 79.45 C 348.08 79.15 347.40 78.56 347.06 78.27 C 347.87 76.58 348.68 74.90 349.48 73.21 C 350.44 74.91 351.41 76.62 352.45 78.28 C 352.80 79.40 353.16 80.52 353.53 81.63 C 354.77 81.56 356.00 81.48 357.25 81.41 C 357.31 82.19 357.42 83.75 357.48 84.52 C 358.67 84.45 359.86 84.36 361.06 84.27 C 360.23 83.17 359.42 82.07 358.62 80.96 C 357.79 77.90 355.15 75.92 353.12 73.66 C 351.80 72.27 350.38 70.95 348.76 69.91 C 346.99 68.92 345.22 67.91 343.46 66.90 C 343.44 68.98 343.44 71.07 343.43 73.15 C 344.01 74.24 344.56 75.34 345.10 76.46 C 344.43 76.49 343.09 76.55 342.42 76.58 C 342.54 75.25 342.66 73.92 342.78 72.59 C 342.13 72.19 340.81 71.39 340.15 70.99 C 340.55 69.40 341.65 68.34 343.21 67.77 C 341.75 66.41 339.71 66.28 337.88 65.78 Z" />
<path fill="#ffffff" opacity="1.00" d=" M 341.76 102.59 C 348.62 101.99 355.51 102.27 362.39 102.34 C 361.65 104.88 361.21 107.49 361.33 110.15 C 360.14 111.80 359.80 115.05 357.14 114.63 C 353.40 112.33 349.97 109.57 346.16 107.40 C 344.60 105.88 343.16 104.24 341.76 102.59 Z" />
<path fill="#ffffff" opacity="1.00" d=" M 340.56 110.27 C 345.68 112.04 350.01 115.33 354.61 118.08 C 354.64 118.43 354.69 119.15 354.71 119.51 C 352.73 121.60 350.63 123.56 348.87 125.85 C 345.62 121.88 343.18 117.34 340.66 112.89 C 340.63 112.24 340.58 110.93 340.56 110.27 Z" />
<path fill="#ffffff" opacity="1.00" d=" M 317.08 128.72 C 320.05 122.82 323.01 116.79 327.38 111.78 C 327.72 118.10 327.48 124.42 327.54 130.74 C 325.24 130.26 322.96 129.76 320.67 129.29 C 321.55 130.61 322.56 131.88 323.15 133.38 C 321.74 133.43 320.33 133.38 318.93 133.21 C 318.42 133.03 317.40 132.67 316.89 132.48 C 318.59 131.95 319.76 130.90 320.41 129.32 C 319.52 129.29 317.74 129.22 316.85 129.19 L 317.08 128.72 Z" />
<path fill="#ffffff" opacity="1.00" d=" M 333.69 130.51 C 333.64 124.35 333.06 118.12 334.20 112.03 C 338.13 117.16 340.96 122.98 344.23 128.53 L 343.06 128.56 C 339.81 128.45 336.67 129.29 333.69 130.51 Z" />
<path fill="#ffffff" opacity="1.00" d=" M 299.59 114.86 C 299.80 115.08 300.23 115.51 300.44 115.72 C 302.94 118.60 305.50 121.42 307.79 124.48 C 308.04 124.85 308.56 125.60 308.81 125.98 C 304.01 124.10 301.94 119.04 299.59 114.86 Z" />
<path fill="#ffffff" opacity="1.00" d=" M 306.31 117.80 C 309.95 115.85 314.20 116.73 318.14 116.65 C 316.79 119.63 314.86 122.29 312.93 124.92 L 312.31 125.72 C 311.38 124.84 310.44 123.97 309.51 123.10 C 308.09 121.56 305.67 120.26 306.31 117.80 Z" />
<path fill="#ffffff" opacity="1.00" d=" M 284.98 120.59 C 285.79 120.52 287.42 120.37 288.23 120.29 C 290.97 122.85 293.50 125.67 295.24 129.01 C 295.41 129.60 295.74 130.77 295.91 131.36 C 259.15 131.37 222.40 131.30 185.64 131.39 L 185.62 130.26 C 189.42 130.40 193.23 130.43 197.03 130.27 C 200.35 129.43 203.73 128.89 207.08 128.19 C 212.73 126.92 218.64 128.59 224.25 126.97 C 230.38 125.02 236.90 126.88 243.11 125.47 C 249.96 123.44 257.23 125.29 264.09 123.15 C 270.17 122.54 276.55 123.76 282.39 121.60 C 283.26 121.29 284.13 120.96 284.98 120.59 Z" />
<path fill="#ffffff" opacity="1.00" d=" M 338.17 131.95 C 339.12 131.73 340.08 131.53 341.04 131.33 C 342.26 131.41 343.34 131.87 344.29 132.69 C 343.69 132.81 342.50 133.07 341.90 133.20 C 340.38 133.33 338.85 133.39 337.33 133.39 L 338.17 131.95 Z" />
</g>
<g id="#000000ff">
<path fill="#000000" opacity="1.00" d=" M 299.49 6.65 C 302.92 4.57 306.65 3.07 310.32 1.47 C 310.74 2.73 311.16 3.99 311.58 5.25 C 316.99 19.00 324.98 31.54 330.93 45.05 C 331.39 45.36 332.33 45.99 332.79 46.31 C 342.28 45.99 351.78 46.37 361.19 47.65 C 360.39 47.98 359.59 48.31 358.80 48.64 C 355.85 48.96 352.84 48.96 349.97 48.15 C 344.98 46.84 339.78 47.41 334.70 47.54 C 336.83 51.55 341.41 52.82 345.16 54.77 C 348.74 56.26 351.85 58.61 355.31 60.31 C 361.57 62.63 368.40 61.28 374.85 60.63 C 374.74 57.20 374.73 53.76 374.74 50.33 C 370.94 50.26 367.13 50.43 363.36 49.99 C 380.90 48.94 398.49 49.62 416.05 49.43 C 423.73 49.64 431.45 49.00 439.11 49.82 C 420.42 49.61 401.73 49.86 383.03 49.69 C 380.48 49.63 377.96 49.98 375.47 50.46 C 375.58 54.37 375.31 58.28 375.65 62.18 C 376.34 64.07 378.44 63.41 379.99 63.54 C 386.76 63.41 393.54 63.60 400.32 63.40 C 400.02 63.81 399.43 64.61 399.13 65.01 C 398.56 65.58 398.00 66.14 397.44 66.70 C 395.56 66.73 393.68 66.77 391.81 66.76 C 382.61 66.10 373.37 66.82 364.15 66.68 C 366.09 69.65 367.52 73.23 370.39 75.42 C 374.97 75.82 379.58 76.95 384.19 76.20 C 388.80 75.47 393.49 75.70 398.15 75.68 C 398.33 72.63 398.30 69.57 398.29 66.51 C 409.42 67.44 421.02 64.66 431.73 68.78 C 431.77 71.74 431.18 74.78 428.99 76.94 C 427.82 77.94 426.43 80.79 424.71 79.16 C 418.27 74.12 409.61 75.39 402.10 76.47 C 392.55 78.15 382.82 77.51 373.18 77.46 C 373.31 78.33 373.44 79.20 373.58 80.07 C 375.05 82.63 375.98 85.43 377.00 88.19 C 374.89 87.23 372.96 85.93 371.40 84.23 C 372.03 80.68 369.13 78.10 367.58 75.25 C 365.18 71.17 362.58 67.00 358.49 64.41 C 350.50 59.18 341.59 55.36 332.34 53.02 C 331.74 53.99 331.15 54.97 330.57 55.94 C 329.42 53.42 327.04 52.65 324.41 52.99 C 324.16 54.25 323.90 55.51 323.65 56.78 C 321.47 56.16 319.29 55.55 317.12 54.94 C 316.75 56.29 316.39 57.64 316.03 58.99 C 314.56 58.60 312.47 56.21 311.40 58.27 C 308.61 62.71 302.93 63.08 298.98 65.96 C 296.22 69.08 294.57 73.00 292.39 76.52 C 289.01 82.91 285.16 89.57 285.35 97.04 C 285.84 97.49 286.81 98.40 287.30 98.86 C 285.69 100.21 284.45 101.89 284.13 104.02 C 285.56 104.83 286.98 105.67 288.41 106.50 C 287.79 108.05 287.16 109.59 286.70 111.19 C 287.56 112.24 288.81 112.84 289.92 113.61 C 289.66 114.98 289.41 116.35 289.16 117.72 C 292.44 120.38 296.91 124.35 295.24 129.01 C 293.50 125.67 290.97 122.85 288.23 120.29 C 287.42 120.37 285.79 120.52 284.98 120.59 C 284.13 120.96 283.26 121.29 282.39 121.60 C 278.77 121.55 275.12 121.57 271.57 120.80 C 276.92 120.19 282.60 120.66 287.53 118.09 C 285.27 111.96 284.01 105.56 282.77 99.17 C 281.66 99.34 280.54 99.53 279.44 99.72 C 278.74 99.58 277.36 99.31 276.66 99.18 C 277.42 98.51 278.18 97.85 278.97 97.21 C 280.24 96.21 281.61 95.28 282.64 94.01 C 282.33 91.95 281.61 90.00 280.99 88.03 C 280.08 84.54 279.83 80.90 278.79 77.44 C 249.87 77.66 220.94 77.46 192.01 77.55 C 189.03 77.76 186.28 76.57 183.66 75.32 C 181.73 74.11 179.74 73.02 177.72 71.96 C 177.68 69.56 177.68 67.15 177.71 64.74 C 201.29 64.69 224.87 64.80 248.44 64.54 C 248.46 61.32 248.54 58.10 248.20 54.90 C 247.39 50.09 248.84 45.02 251.92 41.25 C 253.77 41.31 255.62 41.38 257.47 41.46 L 257.51 40.55 C 260.47 40.60 263.43 40.54 266.39 40.40 C 266.51 38.75 266.64 37.10 266.76 35.45 C 268.62 35.42 270.48 35.42 272.35 35.45 C 272.41 38.33 272.46 41.21 272.56 44.09 C 274.30 44.44 276.05 44.81 277.76 45.31 L 278.67 45.54 C 279.82 45.87 280.97 46.22 282.12 46.58 C 280.98 46.96 279.84 47.34 278.70 47.69 L 277.65 48.01 C 276.50 52.00 276.06 56.58 277.38 60.53 C 277.78 60.72 278.57 61.10 278.97 61.29 C 284.81 61.47 290.66 61.14 296.50 61.31 C 296.94 58.02 294.53 55.63 291.26 55.88 C 291.73 52.98 292.72 50.20 294.14 47.63 C 292.80 47.62 291.46 47.61 290.12 47.60 C 289.50 47.28 288.89 46.95 288.29 46.62 C 289.04 46.39 290.53 45.94 291.28 45.71 C 292.45 45.44 293.46 44.77 294.42 44.05 C 293.83 41.15 293.04 38.29 292.34 35.41 C 294.81 35.36 297.29 35.34 299.77 35.36 C 299.08 38.97 298.22 42.57 298.24 46.27 C 302.33 46.31 306.48 46.55 310.51 45.58 C 313.10 43.35 315.85 41.33 318.60 39.32 C 315.76 36.79 314.46 33.16 312.95 29.79 C 311.93 28.13 310.93 26.47 309.93 24.80 C 308.72 22.83 307.48 20.86 306.24 18.90 C 303.75 14.95 301.85 10.67 299.49 6.65 M 302.36 9.00 C 304.85 12.41 306.48 16.47 308.65 20.14 C 309.75 21.66 310.81 23.24 311.70 24.90 C 314.96 30.20 318.77 35.19 321.18 40.96 C 322.89 44.22 324.86 48.00 328.77 48.90 C 327.00 42.50 323.12 37.04 320.41 31.05 C 316.67 23.06 312.69 15.19 308.65 7.35 C 307.67 4.11 301.21 5.57 302.36 9.00 M 264.87 42.07 C 261.15 42.58 257.37 42.13 253.66 42.67 L 253.06 44.33 C 258.44 44.35 263.81 44.43 269.19 44.21 C 270.10 42.11 270.88 39.94 271.29 37.68 C 268.36 37.77 267.08 40.67 264.87 42.07 M 312.49 44.31 C 312.56 46.19 312.45 48.09 312.78 49.95 C 314.06 51.21 315.51 52.30 316.89 53.46 C 319.70 53.72 322.44 53.07 324.64 51.25 C 322.52 48.95 320.30 46.71 317.83 44.77 C 316.12 44.19 314.25 44.47 312.49 44.31 M 250.74 45.75 C 250.43 46.25 249.80 47.25 249.49 47.75 C 249.50 54.11 249.28 60.47 249.71 66.81 C 226.17 66.66 202.61 66.54 179.08 66.89 C 178.85 69.79 180.61 71.92 182.82 73.51 C 184.20 74.00 185.56 74.54 186.81 75.33 C 192.87 75.84 198.95 75.65 205.02 75.68 C 230.01 75.69 254.99 75.66 279.98 75.70 C 281.65 75.66 283.32 75.50 284.99 75.32 C 289.10 73.74 294.69 72.01 295.13 66.79 C 288.91 66.84 282.42 65.76 276.39 67.59 C 276.66 61.75 276.06 55.91 276.41 50.07 C 276.56 48.53 276.12 47.04 275.71 45.57 C 267.40 46.09 259.06 45.89 250.74 45.75 M 297.71 47.48 C 298.39 49.13 299.09 50.78 299.74 52.44 C 302.43 51.89 305.12 51.34 307.75 50.56 C 307.48 50.85 306.92 51.42 306.64 51.71 C 306.09 53.45 305.56 55.20 305.15 56.98 C 308.19 56.19 312.77 55.35 313.73 51.92 C 309.97 47.32 303.22 46.95 297.71 47.48 M 296.26 51.47 C 296.26 53.38 296.29 55.28 296.38 57.19 C 297.45 58.14 298.14 59.36 298.45 60.84 C 298.73 61.67 300.69 62.28 301.50 61.73 C 304.66 63.17 307.35 59.98 308.81 57.58 C 306.52 57.09 304.20 57.41 301.92 57.75 C 302.49 56.30 303.09 54.88 303.72 53.46 C 302.96 53.39 301.45 53.26 300.69 53.20 C 299.41 52.19 297.85 51.72 296.26 51.47 M 277.13 64.28 C 283.25 66.16 290.02 64.75 296.40 65.19 C 296.72 63.55 296.16 61.36 294.02 61.80 C 289.68 61.71 285.34 61.54 281.02 61.94 C 279.62 62.45 276.49 61.65 277.13 64.28 M 362.50 62.40 C 362.41 63.08 362.23 64.44 362.14 65.12 C 366.07 65.07 370.18 65.81 373.92 64.21 C 371.18 60.97 366.23 61.63 362.50 62.40 M 400.14 68.17 C 400.13 70.09 400.13 72.01 400.14 73.94 C 407.12 73.93 414.11 73.64 421.09 74.10 C 424.06 74.52 426.91 72.73 429.86 73.68 C 429.69 72.68 429.52 71.68 429.35 70.68 C 428.67 70.73 427.29 70.81 426.60 70.86 C 426.51 70.10 426.34 68.58 426.25 67.82 C 417.63 68.41 408.84 68.15 400.14 68.17 M 283.60 78.57 C 282.96 80.61 282.61 82.71 283.24 84.80 C 284.95 84.75 286.39 83.99 287.49 82.70 C 287.47 81.24 287.47 79.78 287.48 78.32 C 286.18 78.40 284.89 78.48 283.60 78.57 Z" />
<path fill="#000000" opacity="1.00" d=" M 256.35 50.27 C 260.77 50.26 265.19 50.25 269.62 50.29 C 269.27 54.13 269.22 57.99 269.63 61.82 C 265.27 62.08 260.71 60.98 256.52 62.48 C 256.59 58.41 256.75 54.33 256.35 50.27 M 257.44 51.86 C 257.36 54.75 257.34 57.64 257.25 60.53 C 260.97 61.44 265.06 61.79 268.73 60.49 C 268.62 57.62 268.61 54.75 268.57 51.88 C 264.86 51.82 261.15 51.82 257.44 51.86 Z" />
<path fill="#000000" opacity="1.00" d=" M 320.84 63.54 C 321.72 61.67 324.09 62.65 325.71 62.33 C 325.71 63.00 325.72 64.35 325.72 65.03 L 326.56 65.07 C 329.18 65.19 331.80 65.30 334.42 65.28 C 334.62 64.62 335.01 63.29 335.21 62.63 C 338.17 62.52 341.38 63.11 343.55 65.29 C 341.65 65.40 339.77 65.59 337.88 65.78 C 339.71 66.28 341.75 66.41 343.21 67.77 C 341.65 68.34 340.55 69.40 340.15 70.99 C 340.81 71.39 342.13 72.19 342.78 72.59 C 342.66 73.92 342.54 75.25 342.42 76.58 C 343.09 76.55 344.43 76.49 345.10 76.46 C 344.56 75.34 344.01 74.24 343.43 73.15 C 343.44 71.07 343.44 68.98 343.46 66.90 C 345.22 67.91 346.99 68.92 348.76 69.91 C 348.13 73.45 347.06 76.87 345.82 80.23 C 342.54 77.92 342.15 81.88 340.60 83.71 C 339.59 84.83 338.29 85.63 337.11 86.54 C 338.46 87.72 339.81 88.90 341.21 90.04 C 342.70 91.41 342.75 93.05 341.40 94.57 C 339.42 91.75 336.64 89.68 334.38 87.12 C 335.90 83.09 339.47 80.15 340.73 75.97 C 339.94 71.78 336.77 68.51 333.63 65.83 C 333.16 73.06 333.62 80.32 333.36 87.56 C 331.47 87.25 329.58 86.90 327.71 86.54 C 324.97 89.30 321.01 91.39 319.92 95.36 C 319.55 95.63 318.81 96.17 318.44 96.44 C 317.40 102.49 321.81 107.62 326.82 110.29 C 328.89 111.25 331.27 110.77 333.48 110.90 C 333.06 117.55 333.50 124.22 333.28 130.88 C 335.21 130.62 337.14 130.36 339.08 130.12 L 338.17 131.95 L 337.33 133.39 C 338.85 133.39 340.38 133.33 341.90 133.20 L 341.87 133.35 C 339.16 134.44 336.69 136.37 333.59 135.86 L 334.27 134.93 C 334.50 134.64 334.96 134.04 335.19 133.74 C 333.98 133.27 332.77 132.80 331.57 132.35 C 331.82 125.78 331.85 119.21 331.67 112.65 C 330.60 112.85 329.54 113.06 328.47 113.26 C 329.19 119.64 327.57 126.26 329.63 132.46 C 328.45 132.81 327.28 133.16 326.11 133.51 C 326.27 133.87 326.58 134.58 326.74 134.94 L 327.22 136.03 C 324.15 136.16 321.57 134.49 318.93 133.21 C 320.33 133.38 321.74 133.43 323.15 133.38 C 322.56 131.88 321.55 130.61 320.67 129.29 C 322.96 129.76 325.24 130.26 327.54 130.74 C 327.48 124.42 327.72 118.10 327.38 111.78 C 323.01 116.79 320.05 122.82 317.08 128.72 L 316.25 129.85 C 315.66 129.34 314.48 128.31 313.89 127.80 C 313.38 127.49 312.35 126.86 311.84 126.54 C 312.11 126.14 312.66 125.32 312.93 124.92 C 314.86 122.29 316.79 119.63 318.14 116.65 C 314.20 116.73 309.95 115.85 306.31 117.80 C 305.67 120.26 308.09 121.56 309.51 123.10 C 309.08 123.45 308.22 124.13 307.79 124.48 C 305.50 121.42 302.94 118.60 300.44 115.72 L 301.23 113.99 C 303.24 114.50 305.43 114.70 307.05 113.12 C 311.13 109.89 317.06 107.92 319.04 102.76 C 312.37 100.36 305.22 101.57 298.31 101.50 C 298.64 103.29 299.01 105.06 299.37 106.84 C 298.43 106.66 297.50 106.51 296.56 106.37 L 295.93 106.76 C 293.45 109.13 292.69 102.23 294.97 102.90 L 295.53 103.76 C 296.20 102.87 296.86 101.98 297.54 101.10 C 296.99 99.36 296.45 97.62 295.92 95.88 C 295.60 96.23 294.96 96.92 294.64 97.27 C 292.66 93.57 295.85 89.75 295.31 85.82 C 295.60 86.17 296.17 86.85 296.46 87.20 C 296.28 89.73 295.97 92.25 295.67 94.77 C 296.30 94.63 297.57 94.35 298.21 94.21 C 298.62 91.50 298.57 88.77 298.61 86.04 C 299.09 89.27 299.41 92.51 299.69 95.76 C 299.90 97.66 296.58 98.31 297.62 100.30 C 303.81 100.93 310.13 101.07 316.32 100.31 C 316.51 99.68 316.91 98.42 317.11 97.79 C 311.66 97.64 306.21 97.60 300.76 97.56 C 300.82 97.12 300.95 96.22 301.02 95.77 C 305.63 96.63 310.36 96.33 315.02 96.12 C 316.67 96.33 317.61 94.88 318.63 93.88 C 316.17 91.61 314.34 88.76 313.33 85.57 C 314.94 85.82 316.54 86.14 318.14 86.52 C 317.83 88.49 316.33 91.11 319.49 91.19 C 319.90 89.71 320.31 88.24 320.84 86.80 C 319.05 81.13 315.57 76.24 312.36 71.32 C 313.66 70.47 315.01 69.69 316.39 68.96 C 319.64 75.14 322.98 81.33 327.29 86.85 C 327.98 80.29 326.86 73.65 327.55 67.05 L 326.34 67.61 C 324.57 68.12 322.68 68.39 320.98 67.54 C 322.72 66.92 325.25 67.06 325.45 64.61 C 324.04 63.83 322.39 63.80 320.84 63.54 M 328.56 66.74 C 329.46 72.14 329.47 77.68 328.75 83.11 C 328.53 84.82 329.41 85.70 331.38 85.76 C 332.27 79.43 331.47 73.00 331.83 66.63 C 331.02 66.66 329.38 66.71 328.56 66.74 M 314.40 115.60 C 316.52 115.46 320.93 116.45 320.70 113.07 C 319.74 109.11 312.18 111.55 314.40 115.60 Z" />
<path fill="#000000" opacity="1.00" d=" M 249.84 66.61 C 258.50 66.37 267.16 66.55 275.83 66.50 L 275.64 68.21 C 267.33 68.06 259.01 68.39 250.71 68.06 L 249.84 66.61 Z" />
<path fill="#000000" opacity="1.00" d=" M 303.73 79.72 C 305.38 77.47 307.18 74.98 309.98 74.14 C 309.62 74.54 308.90 75.33 308.54 75.73 C 307.98 77.41 307.32 79.04 306.59 80.65 C 305.63 80.34 304.68 80.03 303.73 79.72 Z" />
<path fill="#000000" opacity="1.00" d=" M 350.76 72.90 L 353.12 73.66 C 355.15 75.92 357.79 77.90 358.62 80.96 C 359.42 82.07 360.23 83.17 361.06 84.27 C 359.86 84.36 358.67 84.45 357.48 84.52 C 357.42 83.75 357.31 82.19 357.25 81.41 C 356.00 81.48 354.77 81.56 353.53 81.63 C 353.16 80.52 352.80 79.40 352.45 78.28 C 351.89 76.49 351.31 74.69 350.76 72.90 Z" />
<path fill="#000000" opacity="1.00" d=" M 346.53 80.89 C 347.15 80.41 347.78 79.93 348.42 79.45 C 349.52 80.23 350.65 81.00 351.79 81.74 C 351.61 82.43 351.27 83.81 351.09 84.50 C 352.18 84.47 354.36 84.41 355.45 84.38 C 353.91 85.84 352.35 87.29 350.85 88.80 C 354.98 87.98 358.93 86.42 363.12 85.91 C 363.25 88.68 363.43 91.45 363.89 94.19 C 364.37 91.48 364.54 88.70 364.21 85.97 L 365.48 86.35 C 366.65 89.50 367.02 92.88 367.12 96.22 C 366.39 96.21 364.94 96.18 364.21 96.16 C 364.19 98.41 364.19 100.67 364.23 102.92 L 364.69 102.91 L 365.73 102.89 L 366.84 102.88 C 366.99 104.98 366.98 107.09 366.55 109.16 C 366.19 107.83 365.90 106.48 365.60 105.14 L 365.05 105.02 C 364.65 104.93 363.85 104.75 363.45 104.66 C 362.90 107.56 362.21 110.43 361.14 113.18 C 359.74 115.25 358.39 117.35 356.94 119.38 C 356.36 119.05 355.19 118.40 354.61 118.08 C 350.01 115.33 345.68 112.04 340.56 110.27 C 340.58 110.93 340.63 112.24 340.66 112.89 C 343.18 117.34 345.62 121.88 348.87 125.85 L 349.51 126.63 C 348.68 127.05 347.87 127.49 347.08 127.94 C 346.48 128.28 345.30 128.97 344.71 129.31 L 344.23 128.53 C 340.96 122.98 338.13 117.16 334.20 112.03 C 334.87 108.89 338.49 107.74 340.26 105.26 C 340.51 105.01 341.02 104.49 341.27 104.23 C 342.86 105.34 344.46 106.45 346.16 107.40 C 349.97 109.57 353.40 112.33 357.14 114.63 C 359.80 115.05 360.14 111.80 361.33 110.15 C 361.21 107.49 361.65 104.88 362.39 102.34 C 362.48 101.81 362.68 100.76 362.77 100.23 C 362.82 99.62 362.92 98.41 362.97 97.80 C 356.59 97.61 350.21 97.71 343.84 97.85 C 343.56 97.74 343.00 97.50 342.72 97.39 C 343.05 97.09 343.71 96.49 344.04 96.19 C 350.22 96.07 356.41 96.39 362.58 95.89 C 361.79 93.54 361.36 91.09 361.16 88.62 C 360.47 88.75 359.07 89.00 358.37 89.13 C 354.48 89.47 350.75 90.63 346.93 91.30 C 344.25 91.71 343.92 88.59 343.24 86.78 C 345.05 86.21 346.86 85.64 348.68 85.09 C 348.40 83.47 347.69 82.07 346.53 80.89 Z" />
<path fill="#000000" opacity="1.00" d=" M 326.53 91.73 C 329.20 91.79 331.88 91.79 334.56 91.68 C 334.61 92.41 334.72 93.89 334.77 94.63 C 335.50 94.62 336.94 94.61 337.66 94.61 C 337.53 97.19 337.61 99.79 337.44 102.37 C 336.57 102.93 335.69 103.46 334.79 103.96 C 334.72 104.65 334.60 106.02 334.54 106.70 C 332.28 104.91 329.44 105.28 326.79 105.64 C 326.30 104.02 324.91 103.08 323.64 102.13 C 324.81 99.64 324.03 97.08 323.16 94.66 C 323.99 94.65 325.64 94.62 326.46 94.60 C 326.48 93.88 326.51 92.45 326.53 91.73 M 327.74 93.40 C 326.32 96.69 324.34 100.96 327.72 103.77 C 329.85 103.65 331.99 103.53 334.13 103.35 C 336.14 100.80 336.11 97.66 334.46 94.94 C 332.24 94.34 330.04 93.60 327.74 93.40 Z" />
<path fill="#000000" opacity="1.00" d=" M 373.55 90.75 C 374.40 90.77 376.11 90.82 376.96 90.84 C 377.33 91.88 377.69 92.92 378.05 93.97 C 378.60 96.24 379.12 98.53 379.59 100.83 C 380.50 100.68 382.33 100.39 383.25 100.24 C 380.95 102.97 378.85 105.86 377.14 108.99 C 374.98 114.11 373.03 119.41 369.75 123.94 C 368.82 117.18 374.65 111.67 375.09 105.02 C 375.23 101.34 375.16 97.63 375.83 94.00 C 375.07 92.91 374.30 91.83 373.55 90.75 Z" />
<path fill="#000000" opacity="1.00" d=" M 295.94 111.77 C 295.93 111.64 295.92 111.39 295.91 111.26 L 295.94 111.77 Z" />
<path fill="#000000" opacity="1.00" d=" M 44.15 113.27 C 45.94 112.81 47.77 112.55 49.60 112.32 C 50.95 118.64 50.05 125.14 50.39 131.55 C 53.76 131.53 57.14 131.54 60.51 131.32 C 61.71 131.74 62.92 132.17 64.12 132.61 C 61.74 132.89 59.34 133.10 57.03 133.77 C 54.97 134.34 53.23 135.67 52.70 137.85 C 51.84 136.29 50.96 134.74 50.06 133.21 C 46.27 133.25 42.44 133.14 38.70 133.84 C 32.20 132.60 25.59 133.48 19.03 133.19 C 11.53 132.35 5.74 138.88 2.86 145.08 C 2.98 145.46 3.20 146.22 3.32 146.59 C 7.18 146.98 11.06 146.68 14.94 146.72 C 113.96 146.76 212.99 146.76 312.01 146.72 C 315.07 146.81 318.15 146.72 321.18 146.18 C 317.39 142.39 311.78 141.52 307.52 138.37 C 314.81 138.34 320.71 144.63 328.15 144.20 C 329.44 143.39 330.54 142.33 331.68 141.32 C 331.62 142.09 331.50 143.64 331.43 144.41 C 332.87 144.61 334.31 144.84 335.77 144.87 C 336.82 143.62 337.66 142.22 338.57 140.87 C 339.56 142.20 340.43 143.61 340.85 145.24 C 340.97 145.59 341.22 146.31 341.35 146.67 C 419.65 146.78 497.96 146.71 576.27 146.76 C 576.50 140.04 569.93 136.19 564.94 133.08 C 542.31 133.60 519.65 133.14 497.01 133.30 C 452.76 133.33 408.51 133.21 364.26 133.37 C 363.37 133.14 361.59 132.68 360.71 132.46 C 364.77 131.71 368.88 132.19 372.98 132.27 C 431.97 132.25 490.96 132.26 549.95 132.26 C 554.73 132.36 559.53 132.30 564.28 131.61 C 571.94 133.28 578.06 140.13 578.60 148.00 L 1.45 148.00 C 0.68 140.22 7.55 134.73 13.82 131.65 C 14.57 131.62 16.08 131.56 16.84 131.53 C 24.07 131.68 31.34 131.95 38.56 131.49 C 40.90 126.97 40.26 121.76 40.44 116.86 C 40.75 121.74 40.38 126.63 40.23 131.51 C 43.01 131.61 45.80 131.62 48.58 131.55 C 48.83 125.71 48.84 119.86 48.57 114.01 C 45.89 114.46 43.29 115.22 40.69 115.97 L 41.55 113.82 C 42.20 113.69 43.50 113.41 44.15 113.27 Z" />
<path fill="#000000" opacity="1.00" d=" M 155.24 116.87 C 155.93 116.77 157.29 116.56 157.97 116.45 C 161.98 118.00 156.19 119.21 155.24 116.87 Z" />
<path fill="#000000" opacity="1.00" d=" M 135.27 119.95 C 136.81 119.71 138.37 119.53 139.93 119.35 C 140.03 119.66 140.22 120.26 140.31 120.56 C 138.99 122.10 136.68 120.70 135.27 119.95 Z" />
<path fill="#000000" opacity="1.00" d=" M 76.52 128.88 C 77.93 128.70 79.35 128.56 80.76 128.36 C 82.11 128.64 83.42 129.14 84.54 129.97 C 81.90 130.29 79.23 130.37 76.57 130.44 L 76.52 128.88 Z" />
<path fill="#000000" opacity="1.00" d=" M 172.01 130.58 C 176.35 130.83 180.61 129.93 184.79 128.87 C 184.85 129.69 184.98 131.34 185.04 132.16 C 221.36 131.60 257.69 131.57 294.02 131.78 C 295.32 131.95 296.42 131.32 297.34 130.48 C 300.33 132.86 305.54 133.18 306.28 137.59 C 303.05 135.79 299.95 133.05 296.02 133.24 C 260.33 133.44 224.63 133.33 188.94 133.27 C 180.29 132.69 171.60 132.36 162.96 133.15 C 158.29 133.61 153.60 133.22 148.93 133.15 C 145.22 133.08 141.79 134.74 138.16 135.21 C 135.52 135.06 132.89 134.72 130.32 134.11 C 133.79 132.88 137.48 133.28 141.08 133.37 C 143.82 133.56 146.20 131.80 148.89 131.67 C 152.18 131.52 155.47 131.70 158.75 131.72 C 163.25 132.32 167.52 130.27 172.01 130.58 Z" />
<path fill="#000000" opacity="1.00" d=" M 344.26 140.24 C 349.82 139.89 353.70 135.46 358.76 133.71 C 359.19 133.73 360.06 133.76 360.50 133.78 C 355.32 136.42 350.78 140.10 345.75 142.97 C 345.32 143.08 344.46 143.31 344.03 143.42 C 344.09 142.62 344.20 141.04 344.26 140.24 Z" />
<path fill="#000000" opacity="1.00" d=" M 117.43 136.15 C 120.70 133.22 125.57 134.98 129.50 135.09 C 127.83 135.82 126.12 136.51 124.32 136.84 C 122.02 136.71 119.72 136.48 117.43 136.15 Z" />
<path fill="#000000" opacity="1.00" d=" M 83.26 138.76 C 86.86 137.00 90.95 137.99 94.73 138.48 C 92.04 138.94 89.32 139.28 86.58 139.14 C 85.75 139.04 84.09 138.86 83.26 138.76 Z" />
<path fill="#000000" opacity="1.00" d=" M 53.20 138.74 C 54.08 139.32 54.95 139.92 55.82 140.52 C 59.18 140.56 62.54 140.52 65.89 140.77 C 65.38 141.02 64.36 141.52 63.85 141.77 C 59.25 141.47 54.95 143.21 50.43 143.56 C 51.82 143.19 53.24 143.01 54.64 142.69 C 54.43 142.25 54.01 141.37 53.80 140.92 C 53.65 140.38 53.35 139.28 53.20 138.74 Z" />
<path fill="#000000" opacity="1.00" d=" M 67.48 140.47 C 70.31 138.12 74.34 139.40 77.68 139.43 C 78.17 139.64 79.15 140.07 79.64 140.28 C 78.44 140.53 77.25 140.78 76.05 141.02 C 73.19 140.99 70.33 140.80 67.48 140.47 Z" />
</g>
<g id="#a0bc83ff">
<path fill="#a0bc83" opacity="1.00" d=" M 302.36 9.00 C 301.21 5.57 307.67 4.11 308.65 7.35 C 312.69 15.19 316.67 23.06 320.41 31.05 C 323.12 37.04 327.00 42.50 328.77 48.90 C 324.86 48.00 322.89 44.22 321.18 40.96 C 318.77 35.19 314.96 30.20 311.70 24.90 C 310.81 23.24 309.75 21.66 308.65 20.14 C 306.48 16.47 304.85 12.41 302.36 9.00 Z" />
<path fill="#a0bc83" opacity="1.00" d=" M 264.87 42.07 C 267.08 40.67 268.36 37.77 271.29 37.68 C 270.88 39.94 270.10 42.11 269.19 44.21 C 263.81 44.43 258.44 44.35 253.06 44.33 L 253.66 42.67 C 257.37 42.13 261.15 42.58 264.87 42.07 Z" />
<path fill="#a0bc83" opacity="1.00" d=" M 312.49 44.31 C 314.25 44.47 316.12 44.19 317.83 44.77 C 320.30 46.71 322.52 48.95 324.64 51.25 C 322.44 53.07 319.70 53.72 316.89 53.46 C 315.51 52.30 314.06 51.21 312.78 49.95 C 312.45 48.09 312.56 46.19 312.49 44.31 Z" />
<path fill="#a0bc83" opacity="1.00" d=" M 250.74 45.75 C 259.06 45.89 267.40 46.09 275.71 45.57 C 276.12 47.04 276.56 48.53 276.41 50.07 C 276.06 55.91 276.66 61.75 276.39 67.59 C 282.42 65.76 288.91 66.84 295.13 66.79 C 294.69 72.01 289.10 73.74 284.99 75.32 C 283.32 75.50 281.65 75.66 279.98 75.70 C 254.99 75.66 230.01 75.69 205.02 75.68 C 198.95 75.65 192.87 75.84 186.81 75.33 C 185.56 74.54 184.20 74.00 182.82 73.51 C 180.61 71.92 178.85 69.79 179.08 66.89 C 202.61 66.54 226.17 66.66 249.71 66.81 C 249.28 60.47 249.50 54.11 249.49 47.75 C 249.80 47.25 250.43 46.25 250.74 45.75 M 256.35 50.27 C 256.75 54.33 256.59 58.41 256.52 62.48 C 260.71 60.98 265.27 62.08 269.63 61.82 C 269.22 57.99 269.27 54.13 269.62 50.29 C 265.19 50.25 260.77 50.26 256.35 50.27 M 249.84 66.61 L 250.71 68.06 C 259.01 68.39 267.33 68.06 275.64 68.21 L 275.83 66.50 C 267.16 66.55 258.50 66.37 249.84 66.61 Z" />
<path fill="#a0bc83" opacity="1.00" d=" M 277.65 48.01 L 278.70 47.69 C 282.50 47.72 286.31 47.65 290.12 47.60 C 291.46 47.61 292.80 47.62 294.14 47.63 C 292.72 50.20 291.73 52.98 291.26 55.88 C 294.53 55.63 296.94 58.02 296.50 61.31 C 290.66 61.14 284.81 61.47 278.97 61.29 C 278.57 61.10 277.78 60.72 277.38 60.53 C 276.06 56.58 276.50 52.00 277.65 48.01 Z" />
<path fill="#a0bc83" opacity="1.00" d=" M 297.71 47.48 C 303.22 46.95 309.97 47.32 313.73 51.92 C 312.77 55.35 308.19 56.19 305.15 56.98 C 305.56 55.20 306.09 53.45 306.64 51.71 C 306.92 51.42 307.48 50.85 307.75 50.56 C 305.12 51.34 302.43 51.89 299.74 52.44 C 299.09 50.78 298.39 49.13 297.71 47.48 Z" />
<path fill="#a0bc83" opacity="1.00" d=" M 334.70 47.54 C 339.78 47.41 344.98 46.84 349.97 48.15 C 352.84 48.96 355.85 48.96 358.80 48.64 C 360.32 49.07 361.83 49.55 363.36 49.99 C 367.13 50.43 370.94 50.26 374.74 50.33 C 374.73 53.76 374.74 57.20 374.85 60.63 C 368.40 61.28 361.57 62.63 355.31 60.31 C 351.85 58.61 348.74 56.26 345.16 54.77 C 341.41 52.82 336.83 51.55 334.70 47.54 Z" />
<path fill="#a0bc83" opacity="1.00" d=" M 375.47 50.46 C 377.96 49.98 380.48 49.63 383.03 49.69 C 401.73 49.86 420.42 49.61 439.11 49.82 C 441.42 50.04 443.73 50.28 446.06 50.30 C 465.03 50.29 484.00 50.22 502.97 50.32 C 508.38 50.21 513.62 51.69 518.98 52.05 C 537.49 52.03 556.00 52.01 574.51 52.05 C 574.54 54.77 574.57 57.49 574.60 60.22 C 567.80 61.53 560.84 61.87 553.97 60.96 C 545.33 60.39 536.65 60.60 528.00 60.54 C 522.26 60.31 516.74 62.49 511.00 62.00 C 506.94 61.67 503.04 63.11 499.01 63.27 C 466.12 63.34 433.21 63.09 400.32 63.40 C 393.54 63.60 386.76 63.41 379.99 63.54 C 378.44 63.41 376.34 64.07 375.65 62.18 C 375.31 58.28 375.58 54.37 375.47 50.46 Z" />
<path fill="#a0bc83" opacity="1.00" d=" M 257.44 51.86 C 261.15 51.82 264.86 51.82 268.57 51.88 C 268.61 54.75 268.62 57.62 268.73 60.49 C 265.06 61.79 260.97 61.44 257.25 60.53 C 257.34 57.64 257.36 54.75 257.44 51.86 Z" />
<path fill="#a0bc83" opacity="1.00" d=" M 296.26 51.47 C 297.85 51.72 299.41 52.19 300.69 53.20 C 301.45 53.26 302.96 53.39 303.72 53.46 C 303.09 54.88 302.49 56.30 301.92 57.75 C 304.20 57.41 306.52 57.09 308.81 57.58 C 307.35 59.98 304.66 63.17 301.50 61.73 C 301.67 60.55 301.80 59.36 301.88 58.17 C 300.71 59.02 299.58 59.93 298.45 60.84 C 298.14 59.36 297.45 58.14 296.38 57.19 C 296.29 55.28 296.26 53.38 296.26 51.47 Z" />
<path fill="#a0bc83" opacity="1.00" d=" M 576.21 52.16 C 579.73 51.97 583.26 51.97 586.78 52.16 C 586.72 54.93 586.86 57.73 586.49 60.48 C 583.11 60.81 579.71 60.59 576.32 60.59 C 576.31 57.78 576.28 54.97 576.21 52.16 Z" />
<path fill="#a0bc83" opacity="1.00" d=" M 277.13 64.28 C 276.49 61.65 279.62 62.45 281.02 61.94 C 285.34 61.54 289.68 61.71 294.02 61.80 C 296.16 61.36 296.72 63.55 296.40 65.19 C 290.02 64.75 283.25 66.16 277.13 64.28 Z" />
<path fill="#a0bc83" opacity="1.00" d=" M 328.11 62.06 C 329.98 62.15 331.84 62.24 333.72 62.33 C 333.89 63.07 334.24 64.54 334.42 65.28 C 331.80 65.30 329.18 65.19 326.56 65.07 C 327.07 64.07 327.59 63.06 328.11 62.06 Z" />
<path fill="#a0bc83" opacity="1.00" d=" M 362.50 62.40 C 366.23 61.63 371.18 60.97 373.92 64.21 C 370.18 65.81 366.07 65.07 362.14 65.12 C 362.23 64.44 362.41 63.08 362.50 62.40 Z" />
<path fill="#a0bc83" opacity="1.00" d=" M 306.42 73.40 C 311.13 69.02 316.71 64.05 323.64 64.87 L 324.29 65.96 C 322.53 66.36 320.77 66.75 319.02 67.17 C 320.16 68.14 321.08 70.09 322.89 69.44 C 324.08 68.91 325.18 68.20 326.34 67.61 L 327.55 67.05 C 326.86 73.65 327.98 80.29 327.29 86.85 C 322.98 81.33 319.64 75.14 316.39 68.96 C 315.01 69.69 313.66 70.47 312.36 71.32 C 315.57 76.24 319.05 81.13 320.84 86.80 C 320.31 88.24 319.90 89.71 319.49 91.19 C 316.33 91.11 317.83 88.49 318.14 86.52 C 316.54 86.14 314.94 85.82 313.33 85.57 C 314.34 88.76 316.17 91.61 318.63 93.88 C 317.61 94.88 316.67 96.33 315.02 96.12 C 310.36 96.33 305.63 96.63 301.02 95.77 C 300.95 96.22 300.82 97.12 300.76 97.56 C 306.21 97.60 311.66 97.64 317.11 97.79 C 316.91 98.42 316.51 99.68 316.32 100.31 C 310.13 101.07 303.81 100.93 297.62 100.30 C 296.58 98.31 299.90 97.66 299.69 95.76 C 299.41 92.51 299.09 89.27 298.61 86.04 C 298.57 88.77 298.62 91.50 298.21 94.21 C 297.57 94.35 296.30 94.63 295.67 94.77 C 295.97 92.25 296.28 89.73 296.46 87.20 C 298.32 81.76 302.44 77.42 306.42 73.40 M 303.73 79.72 C 304.68 80.03 305.63 80.34 306.59 80.65 C 307.32 79.04 307.98 77.41 308.54 75.73 C 308.90 75.33 309.62 74.54 309.98 74.14 C 307.18 74.98 305.38 77.47 303.73 79.72 M 308.12 81.22 C 307.57 82.84 308.12 83.41 309.76 82.95 C 310.30 81.34 309.75 80.76 308.12 81.22 M 308.20 85.20 C 307.65 86.83 308.19 87.42 309.81 86.94 C 310.34 85.31 309.81 84.73 308.20 85.20 Z" />
<path fill="#a0bc83" opacity="1.00" d=" M 328.56 66.74 C 329.38 66.71 331.02 66.66 331.83 66.63 C 331.47 73.00 332.27 79.43 331.38 85.76 C 329.41 85.70 328.53 84.82 328.75 83.11 C 329.47 77.68 329.46 72.14 328.56 66.74 Z" />
<path fill="#a0bc83" opacity="1.00" d=" M 333.36 87.56 C 333.62 80.32 333.16 73.06 333.63 65.83 C 336.77 68.51 339.94 71.78 340.73 75.97 C 339.47 80.15 335.90 83.09 334.38 87.12 C 336.64 89.68 339.42 91.75 341.40 94.57 C 341.65 94.89 342.14 95.52 342.39 95.84 C 342.42 99.11 341.61 102.30 340.26 105.26 C 338.49 107.74 334.87 108.89 334.20 112.03 C 333.06 118.12 333.64 124.35 333.69 130.51 C 336.67 129.29 339.81 128.45 343.06 128.56 C 342.55 129.25 341.55 130.64 341.04 131.33 C 340.08 131.53 339.12 131.73 338.17 131.95 L 339.08 130.12 C 337.14 130.36 335.21 130.62 333.28 130.88 C 333.50 124.22 333.06 117.55 333.48 110.90 C 331.27 110.77 328.89 111.25 326.82 110.29 C 321.81 107.62 317.40 102.49 318.44 96.44 C 318.81 96.17 319.55 95.63 319.92 95.36 C 321.01 91.39 324.97 89.30 327.71 86.54 C 329.58 86.90 331.47 87.25 333.36 87.56 M 326.53 91.73 C 326.51 92.45 326.48 93.88 326.46 94.60 C 325.64 94.62 323.99 94.65 323.16 94.66 C 324.03 97.08 324.81 99.64 323.64 102.13 C 324.91 103.08 326.30 104.02 326.79 105.64 C 329.44 105.28 332.28 104.91 334.54 106.70 C 334.60 106.02 334.72 104.65 334.79 103.96 C 335.69 103.46 336.57 102.93 337.44 102.37 C 337.61 99.79 337.53 97.19 337.66 94.61 C 336.94 94.61 335.50 94.62 334.77 94.63 C 334.72 93.89 334.61 92.41 334.56 91.68 C 331.88 91.79 329.20 91.79 326.53 91.73 Z" />
<path fill="#a0bc83" opacity="1.00" d=" M 364.15 66.68 C 373.37 66.82 382.61 66.10 391.81 66.76 C 393.79 66.98 395.77 67.17 397.77 67.33 C 397.71 70.12 397.73 72.92 398.15 75.68 C 393.49 75.70 388.80 75.47 384.19 76.20 C 379.58 76.95 374.97 75.82 370.39 75.42 C 367.52 73.23 366.09 69.65 364.15 66.68 Z" />
<path fill="#a0bc83" opacity="1.00" d=" M 400.14 68.17 C 408.84 68.15 417.63 68.41 426.25 67.82 C 426.34 68.58 426.51 70.10 426.60 70.86 C 427.29 70.81 428.67 70.73 429.35 70.68 C 429.52 71.68 429.69 72.68 429.86 73.68 C 426.91 72.73 424.06 74.52 421.09 74.10 C 414.11 73.64 407.12 73.93 400.14 73.94 C 400.13 72.01 400.13 70.09 400.14 68.17 Z" />
<path fill="#a0bc83" opacity="1.00" d=" M 348.76 69.91 C 350.38 70.95 351.80 72.27 353.12 73.66 L 350.76 72.90 C 351.31 74.69 351.89 76.49 352.45 78.28 C 351.41 76.62 350.44 74.91 349.48 73.21 C 348.68 74.90 347.87 76.58 347.06 78.27 C 347.40 78.56 348.08 79.15 348.42 79.45 C 347.78 79.93 347.15 80.41 346.53 80.89 C 347.69 82.07 348.40 83.47 348.68 85.09 C 346.86 85.64 345.05 86.21 343.24 86.78 C 343.30 88.12 343.35 89.46 343.40 90.80 C 342.85 90.61 341.76 90.23 341.21 90.04 C 339.81 88.90 338.46 87.72 337.11 86.54 C 338.29 85.63 339.59 84.83 340.60 83.71 C 342.15 81.88 342.54 77.92 345.82 80.23 C 347.06 76.87 348.13 73.45 348.76 69.91 Z" />
<path fill="#a0bc83" opacity="1.00" d=" M 283.60 78.57 C 284.89 78.48 286.18 78.40 287.48 78.32 C 287.47 79.78 287.47 81.24 287.49 82.70 C 286.39 83.99 284.95 84.75 283.24 84.80 C 282.61 82.71 282.96 80.61 283.60 78.57 Z" />
<path fill="#a0bc83" opacity="1.00" d=" M 358.37 89.13 C 359.07 89.00 360.47 88.75 361.16 88.62 C 361.36 91.09 361.79 93.54 362.58 95.89 C 356.41 96.39 350.22 96.07 344.04 96.19 C 343.57 95.59 342.64 94.38 342.18 93.78 C 347.25 91.17 353.24 91.58 358.37 89.13 Z" />
<path fill="#a0bc83" opacity="1.00" d=" M 327.74 93.40 C 330.04 93.60 332.24 94.34 334.46 94.94 C 336.11 97.66 336.14 100.80 334.13 103.35 C 331.99 103.53 329.85 103.65 327.72 103.77 C 324.34 100.96 326.32 96.69 327.74 93.40 Z" />
<path fill="#a0bc83" opacity="1.00" d=" M 294.64 97.27 C 294.96 96.92 295.60 96.23 295.92 95.88 C 296.45 97.62 296.99 99.36 297.54 101.10 C 296.86 101.98 296.20 102.87 295.53 103.76 L 294.97 102.90 C 293.91 101.28 292.67 98.74 294.64 97.27 Z" />
<path fill="#a0bc83" opacity="1.00" d=" M 364.84 96.76 C 367.83 96.96 368.23 101.82 365.73 102.89 L 364.69 102.91 C 364.69 100.86 364.73 98.81 364.84 96.76 Z" />
<path fill="#a0bc83" opacity="1.00" d=" M 343.84 97.85 C 350.21 97.71 356.59 97.61 362.97 97.80 C 362.92 98.41 362.82 99.62 362.77 100.23 C 357.19 100.02 351.58 100.49 346.01 100.02 C 345.47 99.48 344.38 98.40 343.84 97.85 Z" />
<path fill="#a0bc83" opacity="1.00" d=" M 279.44 99.72 C 280.54 99.53 281.66 99.34 282.77 99.17 C 284.01 105.56 285.27 111.96 287.53 118.09 C 282.60 120.66 276.92 120.19 271.57 120.80 C 275.12 121.57 278.77 121.55 282.39 121.60 C 276.55 123.76 270.17 122.54 264.09 123.15 C 264.63 122.63 265.72 121.58 266.27 121.06 C 262.78 120.75 259.30 121.22 255.92 122.07 C 251.69 123.12 247.26 122.09 243.03 123.18 C 237.76 124.54 232.30 123.68 226.95 124.11 C 223.29 124.67 219.70 125.86 215.95 125.49 C 210.23 125.10 204.75 127.29 199.03 127.00 C 194.89 126.79 191.00 128.27 187.19 129.67 C 182.32 127.15 176.99 129.76 171.91 129.84 C 167.46 129.93 163.06 130.61 158.75 131.72 C 155.47 131.70 152.18 131.52 148.89 131.67 C 146.20 131.80 143.82 133.56 141.08 133.37 C 137.48 133.28 133.79 132.88 130.32 134.11 C 132.89 134.72 135.52 135.06 138.16 135.21 C 135.28 135.60 132.37 135.42 129.50 135.09 C 125.57 134.98 120.70 133.22 117.43 136.15 C 119.72 136.48 122.02 136.71 124.32 136.84 C 120.19 137.76 115.95 137.23 111.84 136.53 C 113.48 136.44 115.12 136.30 116.75 136.08 C 105.71 134.24 94.66 138.56 83.54 137.20 C 82.01 138.81 79.78 139.14 77.68 139.43 C 74.34 139.40 70.31 138.12 67.48 140.47 C 70.33 140.80 73.19 140.99 76.05 141.02 C 72.68 141.90 69.27 141.06 65.89 140.77 C 62.54 140.52 59.18 140.56 55.82 140.52 C 54.95 139.92 54.08 139.32 53.20 138.74 C 53.35 139.28 53.65 140.38 53.80 140.92 L 53.18 142.14 C 48.81 142.51 44.41 142.43 40.03 142.25 C 38.02 141.91 36.05 141.36 34.18 140.54 C 35.31 138.08 36.66 135.68 38.70 133.84 C 42.44 133.14 46.27 133.25 50.06 133.21 C 50.96 134.74 51.84 136.29 52.70 137.85 C 53.23 135.67 54.97 134.34 57.03 133.77 C 62.94 133.83 68.57 131.65 74.49 131.90 C 74.51 131.23 74.56 129.90 74.58 129.23 C 75.22 129.10 75.87 128.98 76.52 128.88 L 76.57 130.44 C 79.23 130.37 81.90 130.29 84.54 129.97 C 83.42 129.14 82.11 128.64 80.76 128.36 C 83.12 127.73 85.52 127.25 87.96 127.04 C 86.39 127.45 84.70 127.90 83.69 129.31 C 89.85 129.54 95.86 128.07 101.93 127.32 C 109.86 125.59 118.03 125.23 125.95 123.41 C 137.05 122.14 147.97 119.83 159.07 118.56 C 165.81 117.20 172.62 116.11 179.49 115.76 C 180.70 115.73 181.82 115.23 182.74 114.47 C 193.24 113.65 203.53 111.32 213.98 110.07 C 224.94 108.08 235.98 106.54 246.96 104.61 C 250.26 103.90 253.85 104.34 256.90 102.63 L 252.92 101.72 C 254.67 101.40 257.40 100.02 258.36 102.37 C 260.95 102.50 263.56 102.33 266.10 101.75 C 270.50 100.68 275.20 101.53 279.44 99.72 Z" />
<path fill="#a0bc83" opacity="1.00" d=" M 298.31 101.50 C 305.22 101.57 312.37 100.36 319.04 102.76 C 317.06 107.92 311.13 109.89 307.05 113.12 C 305.43 114.70 303.24 114.50 301.23 113.99 C 300.86 111.96 299.11 108.34 297.47 111.97 C 297.08 111.92 296.32 111.82 295.94 111.77 L 295.91 111.26 C 295.82 109.76 295.83 108.26 295.93 106.76 L 296.56 106.37 C 297.50 106.51 298.43 106.66 299.37 106.84 C 299.01 105.06 298.64 103.29 298.31 101.50 Z" />
<path fill="#a0bc83" opacity="1.00" d=" M 363.45 104.66 C 363.85 104.75 364.65 104.93 365.05 105.02 C 365.69 108.03 364.33 111.35 363.18 114.15 C 359.92 118.94 357.05 125.01 351.05 126.79 C 352.82 124.16 355.07 121.92 356.94 119.38 C 358.39 117.35 359.74 115.25 361.14 113.18 C 362.21 110.43 362.90 107.56 363.45 104.66 Z" />
<path fill="#a0bc83" opacity="1.00" d=" M 314.40 115.60 C 312.18 111.55 319.74 109.11 320.70 113.07 C 320.93 116.45 316.52 115.46 314.40 115.60 Z" />
<path fill="#a0bc83" opacity="1.00" d=" M 328.47 113.26 C 329.54 113.06 330.60 112.85 331.67 112.65 C 331.85 119.21 331.82 125.78 331.57 132.35 C 332.77 132.80 333.98 133.27 335.19 133.74 C 334.96 134.04 334.50 134.64 334.27 134.93 C 331.88 136.27 329.16 136.02 326.74 134.94 C 326.58 134.58 326.27 133.87 326.11 133.51 C 327.28 133.16 328.45 132.81 329.63 132.46 C 327.57 126.26 329.19 119.64 328.47 113.26 Z" />
<path fill="#a0bc83" opacity="1.00" d=" M 38.27 115.94 C 38.42 114.29 40.30 114.14 41.55 113.82 L 40.69 115.97 C 43.29 115.22 45.89 114.46 48.57 114.01 C 48.84 119.86 48.83 125.71 48.58 131.55 C 45.80 131.62 43.01 131.61 40.23 131.51 C 40.38 126.63 40.75 121.74 40.44 116.86 C 40.26 121.76 40.90 126.97 38.56 131.49 C 31.34 131.95 24.07 131.68 16.84 131.53 C 23.73 129.63 30.96 131.06 38.00 130.84 C 38.12 125.88 37.68 120.88 38.27 115.94 Z" />
<path fill="#a0bc83" opacity="1.00" d=" M 311.51 127.93 C 312.10 127.90 313.30 127.83 313.89 127.80 C 314.48 128.31 315.66 129.34 316.25 129.85 C 314.36 131.76 312.18 130.05 311.51 127.93 Z" />
<path fill="#a0bc83" opacity="1.00" d=" M 344.71 129.31 C 345.30 128.97 346.48 128.28 347.08 127.94 C 347.69 127.89 348.91 127.78 349.52 127.73 C 349.20 129.41 347.94 130.44 346.41 130.98 C 345.99 130.56 345.14 129.73 344.71 129.31 Z" />
</g>
<g id="#464646ff">
<path fill="#464646" opacity="1.00" d=" M 278.67 45.54 C 282.86 45.84 287.08 45.90 291.28 45.71 C 290.53 45.94 289.04 46.39 288.29 46.62 C 288.89 46.95 289.50 47.28 290.12 47.60 C 286.31 47.65 282.50 47.72 278.70 47.69 C 279.84 47.34 280.98 46.96 282.12 46.58 C 280.97 46.22 279.82 45.87 278.67 45.54 Z" />
<path fill="#464646" opacity="1.00" d=" M 361.19 47.65 C 407.79 47.50 454.39 47.63 501.00 47.55 C 507.42 47.48 513.61 49.72 520.03 49.70 C 541.36 49.65 562.69 49.74 584.02 49.65 C 585.86 49.61 587.68 49.98 589.48 50.41 C 589.36 54.43 589.35 58.45 589.44 62.47 C 587.66 62.97 585.85 63.45 584.00 63.39 C 566.66 63.32 549.31 63.40 531.96 63.34 C 523.32 63.45 514.59 62.94 506.06 64.62 C 502.41 65.35 498.68 65.30 494.98 65.25 C 463.03 65.17 431.08 65.37 399.13 65.01 C 399.43 64.61 400.02 63.81 400.32 63.40 C 433.21 63.09 466.12 63.34 499.01 63.27 C 503.04 63.11 506.94 61.67 511.00 62.00 C 516.74 62.49 522.26 60.31 528.00 60.54 C 536.65 60.60 545.33 60.39 553.97 60.96 C 560.84 61.87 567.80 61.53 574.60 60.22 C 574.57 57.49 574.54 54.77 574.51 52.05 C 556.00 52.01 537.49 52.03 518.98 52.05 C 513.62 51.69 508.38 50.21 502.97 50.32 C 484.00 50.22 465.03 50.29 446.06 50.30 C 443.73 50.28 441.42 50.04 439.11 49.82 C 431.45 49.00 423.73 49.64 416.05 49.43 C 398.49 49.62 380.90 48.94 363.36 49.99 C 361.83 49.55 360.32 49.07 358.80 48.64 C 359.59 48.31 360.39 47.98 361.19 47.65 M 576.21 52.16 C 576.28 54.97 576.31 57.78 576.32 60.59 C 579.71 60.59 583.11 60.81 586.49 60.48 C 586.86 57.73 586.72 54.93 586.78 52.16 C 583.26 51.97 579.73 51.97 576.21 52.16 Z" />
<path fill="#464646" opacity="1.00" d=" M 324.41 52.99 C 327.04 52.65 329.42 53.42 330.57 55.94 C 331.15 54.97 331.74 53.99 332.34 53.02 C 341.59 55.36 350.50 59.18 358.49 64.41 C 362.58 67.00 365.18 71.17 367.58 75.25 C 369.13 78.10 372.03 80.68 371.40 84.23 C 372.96 85.93 374.89 87.23 377.00 88.19 C 377.07 88.35 377.23 88.68 377.30 88.85 C 377.63 90.54 377.79 92.26 378.05 93.97 C 377.69 92.92 377.33 91.88 376.96 90.84 C 376.11 90.82 374.40 90.77 373.55 90.75 C 374.30 91.83 375.07 92.91 375.83 94.00 C 375.16 97.63 375.23 101.34 375.09 105.02 C 374.65 111.67 368.82 117.18 369.75 123.94 C 368.05 125.95 366.31 127.94 364.90 130.16 C 368.25 130.64 371.63 130.86 375.02 130.85 C 436.01 130.83 497.00 130.87 558.00 130.83 C 560.10 130.86 562.22 131.11 564.28 131.61 C 559.53 132.30 554.73 132.36 549.95 132.26 C 490.96 132.26 431.97 132.25 372.98 132.27 C 368.88 132.19 364.77 131.71 360.71 132.46 C 361.59 132.68 363.37 133.14 364.26 133.37 C 363.00 133.49 361.74 133.64 360.50 133.78 C 360.06 133.76 359.19 133.73 358.76 133.71 C 353.70 135.46 349.82 139.89 344.26 140.24 C 344.20 141.04 344.09 142.62 344.03 143.42 C 344.46 143.31 345.32 143.08 345.75 142.97 C 344.16 143.83 342.51 144.54 340.85 145.24 C 340.43 143.61 339.56 142.20 338.57 140.87 C 337.66 142.22 336.82 143.62 335.77 144.87 C 334.31 144.84 332.87 144.61 331.43 144.41 C 331.50 143.64 331.62 142.09 331.68 141.32 C 330.54 142.33 329.44 143.39 328.15 144.20 C 320.71 144.63 314.81 138.34 307.52 138.37 C 307.10 138.11 306.69 137.85 306.28 137.59 C 305.54 133.18 300.33 132.86 297.34 130.48 C 296.42 131.32 295.32 131.95 294.02 131.78 C 257.69 131.57 221.36 131.60 185.04 132.16 C 184.98 131.34 184.85 129.69 184.79 128.87 C 180.61 129.93 176.35 130.83 172.01 130.58 C 167.52 130.27 163.25 132.32 158.75 131.72 C 163.06 130.61 167.46 129.93 171.91 129.84 C 176.99 129.76 182.32 127.15 187.19 129.67 C 191.00 128.27 194.89 126.79 199.03 127.00 C 204.75 127.29 210.23 125.10 215.95 125.49 C 219.70 125.86 223.29 124.67 226.95 124.11 C 232.30 123.68 237.76 124.54 243.03 123.18 C 247.26 122.09 251.69 123.12 255.92 122.07 C 259.30 121.22 262.78 120.75 266.27 121.06 C 265.72 121.58 264.63 122.63 264.09 123.15 C 257.23 125.29 249.96 123.44 243.11 125.47 C 236.90 126.88 230.38 125.02 224.25 126.97 C 218.64 128.59 212.73 126.92 207.08 128.19 C 203.73 128.89 200.35 129.43 197.03 130.27 C 193.23 130.43 189.42 130.40 185.62 130.26 L 185.64 131.39 C 222.40 131.30 259.15 131.37 295.91 131.36 C 295.74 130.77 295.41 129.60 295.24 129.01 C 296.91 124.35 292.44 120.38 289.16 117.72 C 289.41 116.35 289.66 114.98 289.92 113.61 C 288.81 112.84 287.56 112.24 286.70 111.19 C 287.16 109.59 287.79 108.05 288.41 106.50 C 286.98 105.67 285.56 104.83 284.13 104.02 C 284.45 101.89 285.69 100.21 287.30 98.86 C 286.81 98.40 285.84 97.49 285.35 97.04 C 285.16 89.57 289.01 82.91 292.39 76.52 C 294.57 73.00 296.22 69.08 298.98 65.96 C 302.93 63.08 308.61 62.71 311.40 58.27 C 312.47 56.21 314.56 58.60 316.03 58.99 C 316.39 57.64 316.75 56.29 317.12 54.94 C 319.29 55.55 321.47 56.16 323.65 56.78 C 323.90 55.51 324.16 54.25 324.41 52.99 M 320.84 63.54 C 322.39 63.80 324.04 63.83 325.45 64.61 C 325.25 67.06 322.72 66.92 320.98 67.54 C 322.68 68.39 324.57 68.12 326.34 67.61 C 325.18 68.20 324.08 68.91 322.89 69.44 C 321.08 70.09 320.16 68.14 319.02 67.17 C 320.77 66.75 322.53 66.36 324.29 65.96 L 323.64 64.87 C 316.71 64.05 311.13 69.02 306.42 73.40 C 302.44 77.42 298.32 81.76 296.46 87.20 C 296.17 86.85 295.60 86.17 295.31 85.82 C 295.85 89.75 292.66 93.57 294.64 97.27 C 292.67 98.74 293.91 101.28 294.97 102.90 C 292.69 102.23 293.45 109.13 295.93 106.76 C 295.83 108.26 295.82 109.76 295.91 111.26 C 295.92 111.39 295.93 111.64 295.94 111.77 C 296.32 111.82 297.08 111.92 297.47 111.97 C 299.11 108.34 300.86 111.96 301.23 113.99 L 300.44 115.72 C 300.23 115.51 299.80 115.08 299.59 114.86 C 301.94 119.04 304.01 124.10 308.81 125.98 C 308.56 125.60 308.04 124.85 307.79 124.48 C 308.22 124.13 309.08 123.45 309.51 123.10 C 310.44 123.97 311.38 124.84 312.31 125.72 L 312.93 124.92 C 312.66 125.32 312.11 126.14 311.84 126.54 C 312.35 126.86 313.38 127.49 313.89 127.80 C 313.30 127.83 312.10 127.90 311.51 127.93 C 312.18 130.05 314.36 131.76 316.25 129.85 L 317.08 128.72 L 316.85 129.19 C 317.74 129.22 319.52 129.29 320.41 129.32 C 319.76 130.90 318.59 131.95 316.89 132.48 C 317.40 132.67 318.42 133.03 318.93 133.21 C 321.57 134.49 324.15 136.16 327.22 136.03 L 326.74 134.94 C 329.16 136.02 331.88 136.27 334.27 134.93 L 333.59 135.86 C 336.69 136.37 339.16 134.44 341.87 133.35 L 341.90 133.20 C 342.50 133.07 343.69 132.81 344.29 132.69 C 343.34 131.87 342.26 131.41 341.04 131.33 C 341.55 130.64 342.55 129.25 343.06 128.56 L 344.23 128.53 L 344.71 129.31 C 345.14 129.73 345.99 130.56 346.41 130.98 C 347.94 130.44 349.20 129.41 349.52 127.73 C 348.91 127.78 347.69 127.89 347.08 127.94 C 347.87 127.49 348.68 127.05 349.51 126.63 L 348.87 125.85 C 350.63 123.56 352.73 121.60 354.71 119.51 C 354.69 119.15 354.64 118.43 354.61 118.08 C 355.19 118.40 356.36 119.05 356.94 119.38 C 355.07 121.92 352.82 124.16 351.05 126.79 C 357.05 125.01 359.92 118.94 363.18 114.15 C 364.33 111.35 365.69 108.03 365.05 105.02 L 365.60 105.14 C 365.90 106.48 366.19 107.83 366.55 109.16 C 366.98 107.09 366.99 104.98 366.84 102.88 L 365.73 102.89 C 368.23 101.82 367.83 96.96 364.84 96.76 C 364.73 98.81 364.69 100.86 364.69 102.91 L 364.23 102.92 C 364.19 100.67 364.19 98.41 364.21 96.16 C 364.94 96.18 366.39 96.21 367.12 96.22 C 367.02 92.88 366.65 89.50 365.48 86.35 L 364.21 85.97 C 362.44 83.03 360.39 80.27 358.11 77.71 C 354.37 73.06 349.84 68.43 344.10 66.48 L 344.41 65.24 C 344.19 65.26 343.76 65.28 343.55 65.29 C 341.38 63.11 338.17 62.52 335.21 62.63 C 335.01 63.29 334.62 64.62 334.42 65.28 C 334.24 64.54 333.89 63.07 333.72 62.33 C 331.84 62.24 329.98 62.15 328.11 62.06 C 327.59 63.06 327.07 64.07 326.56 65.07 L 325.72 65.03 C 325.72 64.35 325.71 63.00 325.71 62.33 C 324.09 62.65 321.72 61.67 320.84 63.54 Z" />
<path fill="#464646" opacity="1.00" d=" M 298.45 60.84 C 299.58 59.93 300.71 59.02 301.88 58.17 C 301.80 59.36 301.67 60.55 301.50 61.73 C 300.69 62.28 298.73 61.67 298.45 60.84 Z" />
<path fill="#464646" opacity="1.00" d=" M 308.12 81.22 C 309.75 80.76 310.30 81.34 309.76 82.95 C 308.12 83.41 307.57 82.84 308.12 81.22 Z" />
<path fill="#464646" opacity="1.00" d=" M 308.20 85.20 C 309.81 84.73 310.34 85.31 309.81 86.94 C 308.19 87.42 307.65 86.83 308.20 85.20 Z" />
<path fill="#464646" opacity="1.00" d=" M 343.40 90.80 C 343.35 89.46 343.30 88.12 343.24 86.78 C 343.92 88.59 344.25 91.71 346.93 91.30 C 350.75 90.63 354.48 89.47 358.37 89.13 C 353.24 91.58 347.25 91.17 342.18 93.78 C 342.64 94.38 343.57 95.59 344.04 96.19 C 343.71 96.49 343.05 97.09 342.72 97.39 C 343.00 97.50 343.56 97.74 343.84 97.85 C 344.38 98.40 345.47 99.48 346.01 100.02 C 351.58 100.49 357.19 100.02 362.77 100.23 C 362.68 100.76 362.48 101.81 362.39 102.34 C 355.51 102.27 348.62 101.99 341.76 102.59 C 343.16 104.24 344.60 105.88 346.16 107.40 C 344.46 106.45 342.86 105.34 341.27 104.23 C 341.02 104.49 340.51 105.01 340.26 105.26 C 341.61 102.30 342.42 99.11 342.39 95.84 C 342.14 95.52 341.65 94.89 341.40 94.57 C 342.75 93.05 342.70 91.41 341.21 90.04 C 341.76 90.23 342.85 90.61 343.40 90.80 Z" />
<path fill="#464646" opacity="1.00" d=" M 260.95 100.32 C 266.95 99.28 273.06 98.80 278.97 97.21 C 278.18 97.85 277.42 98.51 276.66 99.18 C 277.36 99.31 278.74 99.58 279.44 99.72 C 275.20 101.53 270.50 100.68 266.10 101.75 C 263.56 102.33 260.95 102.50 258.36 102.37 C 257.40 100.02 254.67 101.40 252.92 101.72 L 256.90 102.63 C 253.85 104.34 250.26 103.90 246.96 104.61 C 235.98 106.54 224.94 108.08 213.98 110.07 C 203.53 111.32 193.24 113.65 182.74 114.47 C 181.74 113.99 180.75 113.48 179.78 112.94 C 203.83 109.12 227.92 105.55 251.97 101.68 C 254.33 99.17 257.98 100.95 260.95 100.32 Z" />
<path fill="#464646" opacity="1.00" d=" M 157.97 116.45 C 165.11 114.93 172.38 114.09 179.61 113.17 C 179.59 114.03 179.56 114.90 179.49 115.76 C 172.62 116.11 165.81 117.20 159.07 118.56 C 147.97 119.83 137.05 122.14 125.95 123.41 C 118.03 125.23 109.86 125.59 101.93 127.32 C 95.86 128.07 89.85 129.54 83.69 129.31 C 84.70 127.90 86.39 127.45 87.96 127.04 C 103.77 124.99 119.46 122.03 135.27 119.95 C 136.68 120.70 138.99 122.10 140.31 120.56 C 140.22 120.26 140.03 119.66 139.93 119.35 C 144.92 117.95 150.13 117.63 155.24 116.87 C 156.19 119.21 161.98 118.00 157.97 116.45 Z" />
<path fill="#464646" opacity="1.00" d=" M 60.51 131.32 C 65.13 130.17 69.93 130.25 74.58 129.23 C 74.56 129.90 74.51 131.23 74.49 131.90 C 68.57 131.65 62.94 133.83 57.03 133.77 C 59.34 133.10 61.74 132.89 64.12 132.61 C 62.92 132.17 61.71 131.74 60.51 131.32 Z" />
<path fill="#464646" opacity="1.00" d=" M 83.54 137.20 C 94.66 138.56 105.71 134.24 116.75 136.08 C 115.12 136.30 113.48 136.44 111.84 136.53 C 111.51 136.49 110.85 136.41 110.53 136.37 C 110.50 136.68 110.46 137.31 110.43 137.63 C 105.29 138.87 99.98 138.77 94.73 138.48 C 90.95 137.99 86.86 137.00 83.26 138.76 C 84.09 138.86 85.75 139.04 86.58 139.14 C 88.03 139.62 89.45 140.18 90.87 140.74 C 87.13 140.65 83.38 140.58 79.64 140.28 C 79.15 140.07 78.17 139.64 77.68 139.43 C 79.78 139.14 82.01 138.81 83.54 137.20 Z" />
<path fill="#464646" opacity="1.00" d=" M 32.59 143.59 C 33.12 142.57 33.65 141.55 34.18 140.54 C 36.05 141.36 38.02 141.91 40.03 142.25 C 40.80 142.82 41.55 143.41 42.29 144.02 C 39.06 144.56 35.74 144.58 32.59 143.59 Z" />
</g>
<g id="#346434ff">
<path fill="#346434" opacity="1.00" d=" M 2.86 145.08 C 5.74 138.88 11.53 132.35 19.03 133.19 C 25.59 133.48 32.20 132.60 38.70 133.84 C 36.66 135.68 35.31 138.08 34.18 140.54 C 33.65 141.55 33.12 142.57 32.59 143.59 C 35.74 144.58 39.06 144.56 42.29 144.02 C 41.55 143.41 40.80 142.82 40.03 142.25 C 44.41 142.43 48.81 142.51 53.18 142.14 L 53.80 140.92 C 54.01 141.37 54.43 142.25 54.64 142.69 C 53.24 143.01 51.82 143.19 50.43 143.56 C 54.95 143.21 59.25 141.47 63.85 141.77 C 64.36 141.52 65.38 141.02 65.89 140.77 C 69.27 141.06 72.68 141.90 76.05 141.02 C 77.25 140.78 78.44 140.53 79.64 140.28 C 83.38 140.58 87.13 140.65 90.87 140.74 C 89.45 140.18 88.03 139.62 86.58 139.14 C 89.32 139.28 92.04 138.94 94.73 138.48 C 99.98 138.77 105.29 138.87 110.43 137.63 C 110.46 137.31 110.50 136.68 110.53 136.37 C 110.85 136.41 111.51 136.49 111.84 136.53 C 115.95 137.23 120.19 137.76 124.32 136.84 C 126.12 136.51 127.83 135.82 129.50 135.09 C 132.37 135.42 135.28 135.60 138.16 135.21 C 141.79 134.74 145.22 133.08 148.93 133.15 C 153.60 133.22 158.29 133.61 162.96 133.15 C 171.60 132.36 180.29 132.69 188.94 133.27 C 224.63 133.33 260.33 133.44 296.02 133.24 C 299.95 133.05 303.05 135.79 306.28 137.59 C 306.69 137.85 307.10 138.11 307.52 138.37 C 311.78 141.52 317.39 142.39 321.18 146.18 C 318.15 146.72 315.07 146.81 312.01 146.72 C 212.99 146.76 113.96 146.76 14.94 146.72 C 11.06 146.68 7.18 146.98 3.32 146.59 C 3.20 146.22 2.98 145.46 2.86 145.08 Z" />
<path fill="#346434" opacity="1.00" d=" M 364.26 133.37 C 408.51 133.21 452.76 133.33 497.01 133.30 C 519.65 133.14 542.31 133.60 564.94 133.08 C 569.93 136.19 576.50 140.04 576.27 146.76 C 497.96 146.71 419.65 146.78 341.35 146.67 C 341.22 146.31 340.97 145.59 340.85 145.24 C 342.51 144.54 344.16 143.83 345.75 142.97 C 350.78 140.10 355.32 136.42 360.50 133.78 C 361.74 133.64 363.00 133.49 364.26 133.37 Z" />
</g>
</svg>
