<?xml version="1.0" encoding="UTF-8" ?>
<!DOCTYPE svg PUBLIC "-//W3C//DTD SVG 1.1//EN" "http://www.w3.org/Graphics/SVG/1.1/DTD/svg11.dtd">
<svg width="294pt" height="92pt" viewBox="0 0 294 92" version="1.1" xmlns="http://www.w3.org/2000/svg">
<g id="#ffffffff">
<path fill="#ffffff" opacity="1.00" d=" M 84.32 32.24 C 84.67 32.91 84.67 32.91 84.32 32.24 Z" />
<path fill="#ffffff" opacity="1.00" d=" M 91.24 47.32 C 91.83 47.78 91.83 47.78 91.24 47.32 Z" />
<path fill="#ffffff" opacity="1.00" d=" M 90.27 49.30 C 90.82 49.81 90.82 49.81 90.27 49.30 Z" />
<path fill="#ffffff" opacity="1.00" d=" M 75.28 51.27 C 75.87 51.73 75.87 51.73 75.28 51.27 Z" />
<path fill="#ffffff" opacity="1.00" d=" M 89.26 51.26 C 89.75 51.82 89.75 51.82 89.26 51.26 Z" />
<path fill="#ffffff" opacity="1.00" d=" M 76.19 53.28 C 76.74 53.79 76.74 53.79 76.19 53.28 Z" />
<path fill="#ffffff" opacity="1.00" d=" M 88.31 53.25 C 88.73 53.86 88.73 53.86 88.31 53.25 Z" />
<path fill="#ffffff" opacity="1.00" d=" M 77.17 55.35 C 77.80 55.75 77.80 55.75 77.17 55.35 Z" />
<path fill="#ffffff" opacity="1.00" d=" M 87.23 55.28 C 87.80 55.77 87.80 55.77 87.23 55.28 Z" />
<path fill="#ffffff" opacity="1.00" d=" M 93.30 56.25 C 93.85 56.75 93.85 56.75 93.30 56.25 Z" />
<path fill="#ffffff" opacity="1.00" d=" M 78.27 57.26 C 78.74 57.84 78.74 57.84 78.27 57.26 Z" />
<path fill="#ffffff" opacity="1.00" d=" M 97.28 62.02 C 97.35 60.62 99.82 60.95 100.68 61.51 C 100.61 62.91 98.09 62.74 97.28 62.02 Z" />
<path fill="#ffffff" opacity="1.00" d=" M 93.46 62.11 C 93.98 62.12 95.03 62.13 95.55 62.13 L 95.52 62.82 C 95.00 62.81 93.96 62.81 93.43 62.80 L 93.46 62.11 Z" />
<path fill="#ffffff" opacity="1.00" d=" M 81.38 64.46 C 81.93 64.46 83.05 64.46 83.61 64.45 C 83.60 65.00 83.58 66.09 83.57 66.64 C 83.04 66.64 81.96 66.64 81.42 66.64 C 81.41 66.10 81.39 65.01 81.38 64.46 Z" />
<path fill="#ffffff" opacity="1.00" d=" M 119.45 64.17 C 119.97 64.16 121.02 64.13 121.54 64.12 L 121.57 64.82 C 121.05 64.82 120.01 64.84 119.49 64.85 L 119.45 64.17 Z" />
<path fill="#ffffff" opacity="1.00" d=" M 95.33 68.00 C 98.13 66.42 95.49 71.37 95.33 68.00 Z" />
<path fill="#ffffff" opacity="1.00" d=" M 98.47 69.10 C 98.99 69.12 100.04 69.16 100.56 69.17 L 100.53 69.87 C 100.01 69.85 98.97 69.80 98.45 69.78 L 98.47 69.10 Z" />
<path fill="#ffffff" opacity="1.00" d=" M 102.26 70.28 C 102.83 70.76 102.83 70.76 102.26 70.28 Z" />
</g>
<g id="#000000ff">
<path fill="#000000" opacity="1.00" d=" M 75.26 12.00 C 75.69 12.00 76.56 12.00 77.00 12.00 C 77.00 12.64 77.00 13.91 77.00 14.55 C 80.87 18.31 84.68 22.13 88.45 26.00 C 91.30 26.00 94.15 26.00 97.00 26.00 C 97.00 24.33 97.00 22.67 97.00 21.00 C 100.58 21.00 104.15 21.00 107.73 21.00 C 108.02 23.05 108.51 25.06 109.11 27.04 L 110.39 26.93 C 110.07 26.30 109.43 25.05 109.11 24.42 C 109.07 23.82 108.98 22.61 108.94 22.00 C 109.46 22.00 110.49 22.00 111.00 22.00 C 111.00 27.33 111.00 32.67 111.00 38.00 C 126.78 38.02 142.56 37.95 158.34 38.04 C 158.09 38.62 157.57 39.80 157.31 40.38 C 157.08 40.91 156.64 41.98 156.42 42.51 C 155.30 44.08 154.01 45.52 152.72 46.94 C 152.20 47.03 151.15 47.21 150.62 47.30 C 149.15 47.72 147.64 47.97 146.14 48.22 C 145.98 49.93 146.25 52.92 143.88 53.03 C 141.45 53.68 140.98 50.68 140.65 48.97 C 137.77 49.17 133.93 47.93 132.62 51.37 C 132.22 52.42 131.83 53.46 131.43 54.51 C 129.89 56.86 127.86 58.85 125.54 60.44 C 124.32 61.15 123.09 61.84 121.84 62.50 C 122.22 62.85 122.99 63.55 123.38 63.90 C 124.34 64.01 125.31 64.12 126.27 64.24 C 129.02 65.24 132.04 64.73 134.76 65.79 C 137.43 66.06 140.24 65.70 142.75 66.83 C 144.81 66.96 146.88 67.01 148.95 67.05 C 148.99 66.45 149.08 65.25 149.12 64.65 C 150.31 65.01 151.48 65.41 152.65 65.84 C 155.35 66.06 158.20 65.67 160.75 66.83 C 163.82 67.04 166.91 67.01 169.99 67.01 C 169.99 67.40 170.00 68.19 170.00 68.59 C 170.65 68.93 171.96 69.61 172.62 69.95 C 177.97 70.44 183.61 69.05 188.77 70.84 C 196.06 71.67 203.67 69.87 210.76 71.84 C 217.83 72.21 224.91 71.87 231.99 72.00 C 233.82 71.93 235.49 72.72 237.20 73.26 C 236.65 72.18 236.12 71.09 235.61 70.00 C 230.07 70.00 224.53 69.98 219.00 70.03 C 216.72 70.00 214.33 70.21 212.22 69.16 C 202.13 68.80 192.03 69.10 181.94 69.00 C 181.96 68.25 182.00 66.75 182.02 66.00 C 198.42 65.89 214.83 66.21 231.22 65.84 C 232.28 65.34 233.38 65.22 234.51 65.48 C 235.46 65.86 236.42 66.25 237.37 66.64 C 238.76 67.37 240.15 68.10 241.53 68.85 C 242.92 68.93 244.33 68.97 245.72 69.15 C 246.95 70.06 246.99 71.64 247.34 73.00 C 251.23 73.00 255.11 73.00 259.00 73.00 C 259.00 73.74 259.00 75.21 259.00 75.95 C 258.39 75.98 257.17 76.05 256.56 76.08 C 256.02 76.38 254.94 76.98 254.40 77.28 C 253.86 77.61 252.80 78.28 252.27 78.62 C 246.47 79.48 240.58 78.67 234.76 79.17 C 233.10 79.78 231.35 80.02 229.62 80.31 C 228.42 80.66 227.21 80.99 226.00 81.29 L 225.97 82.00 C 226.60 82.00 227.84 82.01 228.47 82.02 C 229.49 82.67 230.51 83.33 231.54 83.98 C 247.35 84.01 263.16 84.01 278.98 83.98 C 280.76 83.99 282.56 84.09 284.34 84.34 C 285.57 85.30 286.78 86.29 287.99 87.29 C 288.02 87.82 288.07 88.88 288.10 89.41 C 288.43 90.06 289.08 91.35 289.41 92.00 L 288.49 92.00 C 287.21 89.03 286.07 84.88 282.03 85.08 C 268.36 84.83 254.67 85.13 240.99 84.95 C 236.33 84.78 231.74 86.47 227.08 85.67 C 221.12 84.61 215.05 85.05 209.03 85.01 C 174.00 84.98 138.97 85.03 103.94 84.97 C 101.80 84.87 99.69 85.44 97.96 86.73 C 94.74 88.97 91.24 90.79 87.50 92.00 L 78.18 92.00 C 74.35 90.67 70.85 88.64 67.51 86.39 C 65.64 84.97 63.24 84.96 61.01 84.95 C 47.03 85.04 33.05 85.01 19.06 84.98 C 15.54 85.03 11.97 84.67 8.48 85.32 C 5.23 85.90 4.84 89.58 3.53 92.00 L 2.50 92.00 C 2.85 91.37 3.55 90.10 3.90 89.46 C 3.93 88.91 3.99 87.81 4.02 87.26 C 5.23 86.27 6.44 85.29 7.67 84.34 C 11.08 83.85 14.54 83.99 17.97 83.99 C 33.38 84.02 48.79 83.97 64.19 84.01 C 62.56 81.90 61.04 79.69 59.68 77.39 C 59.31 76.96 58.58 76.10 58.21 75.67 C 57.96 74.61 57.69 73.56 57.41 72.51 C 56.99 71.45 56.55 70.40 56.09 69.36 C 55.97 66.46 55.97 63.55 56.08 60.64 C 56.55 59.61 56.99 58.56 57.41 57.51 C 57.69 56.46 57.95 55.41 58.20 54.35 C 58.56 53.92 59.28 53.07 59.63 52.64 C 60.43 51.37 61.31 50.16 62.19 48.95 C 59.90 48.98 57.61 48.88 55.33 49.11 C 54.49 50.10 53.86 51.26 53.18 52.37 C 52.94 52.89 52.47 53.95 52.23 54.47 C 52.08 54.98 51.78 55.99 51.63 56.49 C 51.21 58.09 50.94 59.73 50.63 61.35 C 49.85 63.83 49.99 66.44 49.94 69.00 C 49.44 69.00 48.44 69.00 47.94 69.00 C 47.99 66.45 47.85 63.83 48.63 61.36 C 48.94 59.72 49.22 58.08 49.65 56.47 C 49.78 55.96 50.04 54.93 50.16 54.42 C 50.49 53.91 51.14 52.89 51.47 52.38 C 51.74 51.26 52.00 50.15 52.24 49.02 C 44.50 48.97 36.75 49.01 29.00 49.00 C 29.00 48.26 29.00 46.79 29.00 46.05 C 27.11 46.02 25.21 46.09 23.33 45.88 C 21.61 44.84 22.09 42.72 21.81 41.04 C 22.36 41.03 23.45 40.99 24.00 40.97 C 24.00 40.21 24.00 38.68 24.00 37.91 C 22.58 38.00 21.15 38.09 19.73 38.20 C 18.20 38.71 16.62 39.00 15.03 39.29 C 14.98 34.76 14.98 30.23 15.03 25.71 C 16.62 26.00 18.22 26.29 19.74 26.83 C 33.48 27.22 47.24 26.89 60.99 27.00 C 60.99 26.47 61.01 25.42 61.02 24.89 C 62.11 25.00 63.20 25.11 64.29 25.23 C 66.31 26.11 68.56 26.19 70.73 25.96 C 71.58 24.99 71.98 23.75 72.41 22.55 C 72.88 20.40 73.35 18.24 74.39 16.28 C 74.77 14.87 75.00 13.43 75.26 12.00 M 76.38 15.52 C 76.09 18.20 74.27 21.24 76.27 23.68 C 78.48 27.56 83.62 25.52 87.19 25.98 C 83.69 22.39 80.37 18.59 76.38 15.52 M 98.01 22.00 C 98.00 25.33 98.00 28.67 98.01 32.00 C 101.00 32.00 103.99 32.00 106.99 32.00 C 107.00 28.67 107.00 25.33 106.99 22.00 C 103.99 22.00 101.00 22.00 98.01 22.00 M 74.36 22.66 C 73.53 26.13 72.42 29.53 71.12 32.86 C 71.36 33.05 71.84 33.43 72.08 33.62 L 72.88 34.25 C 74.17 31.50 75.56 28.78 77.19 26.21 C 76.26 25.02 75.31 23.84 74.36 22.66 M 62.01 26.00 C 62.00 30.16 61.92 34.33 62.13 38.49 C 65.56 35.31 63.48 30.11 63.98 26.00 C 63.48 26.00 62.50 26.00 62.01 26.00 M 16.00 27.01 C 16.00 30.67 16.00 34.34 16.01 38.00 C 16.50 38.00 17.49 38.00 17.99 38.00 C 18.00 34.33 18.00 30.67 17.99 27.00 C 17.49 27.00 16.50 27.01 16.00 27.01 M 65.00 27.01 C 65.00 30.10 65.00 33.20 65.02 36.30 C 66.33 35.10 67.63 33.90 68.93 32.70 C 68.99 31.58 69.05 30.47 69.11 29.35 C 69.84 28.57 70.57 27.79 71.30 27.01 C 69.20 27.00 67.10 27.01 65.00 27.01 M 77.25 27.29 C 76.58 28.72 76.13 30.24 75.67 31.75 C 74.55 32.98 73.40 34.19 72.25 35.38 L 72.08 33.62 C 70.08 34.86 68.19 36.27 66.54 37.95 C 70.33 38.19 74.54 38.39 77.35 35.34 C 78.31 34.25 79.30 33.18 80.29 32.12 C 80.83 32.00 81.92 31.75 82.46 31.63 C 83.75 31.35 85.28 30.42 86.38 31.71 C 88.78 33.78 89.65 37.38 92.90 38.47 C 92.98 36.32 93.01 34.16 93.03 32.01 C 94.35 32.00 95.68 31.99 97.00 31.99 C 97.00 30.33 97.00 28.67 97.00 27.00 C 90.42 27.21 83.79 26.58 77.25 27.29 M 19.00 28.00 C 19.00 31.00 19.00 34.00 19.01 37.00 C 33.01 37.00 47.00 37.01 61.00 36.99 C 61.00 34.00 61.00 31.00 61.00 28.01 C 47.00 27.99 33.00 28.00 19.00 28.00 M 107.97 28.01 C 107.99 30.17 108.03 32.33 108.13 34.48 C 110.23 32.93 110.06 30.34 110.13 28.00 C 109.59 28.00 108.51 28.01 107.97 28.01 M 84.32 32.24 C 84.67 32.91 84.67 32.91 84.32 32.24 M 72.80 38.98 C 69.96 39.21 67.11 39.00 64.26 38.98 C 63.89 39.48 63.13 40.49 62.76 40.99 C 66.06 40.94 69.51 41.49 72.65 40.22 C 73.13 40.11 74.09 39.89 74.57 39.78 C 75.88 39.24 77.20 38.71 78.51 38.17 C 80.19 38.03 81.88 37.89 83.56 37.72 L 82.67 37.06 C 83.61 37.01 85.47 36.90 86.40 36.85 L 85.46 37.61 C 87.30 38.20 89.14 38.78 90.99 39.35 C 89.73 37.84 88.62 36.23 87.60 34.55 C 87.39 34.13 86.98 33.28 86.77 32.86 L 85.46 32.62 L 86.36 34.24 C 85.43 34.16 83.56 34.01 82.62 33.93 L 83.93 32.48 C 78.97 32.35 77.31 38.13 72.80 38.98 M 94.01 33.00 C 94.01 34.66 94.00 36.33 93.99 37.99 C 98.33 38.00 102.66 38.01 107.00 37.99 C 106.99 36.33 106.99 34.66 106.99 33.00 C 102.66 33.00 98.34 33.00 94.01 33.00 M 108.11 35.39 C 107.02 36.35 108.29 38.77 109.68 37.84 C 110.78 36.89 109.46 34.52 108.11 35.39 M 26.01 38.99 C 26.00 40.33 26.00 41.67 26.00 43.00 C 26.75 43.00 28.25 43.00 29.00 43.00 C 29.00 41.67 29.00 40.34 29.00 39.00 C 28.25 39.00 26.75 39.00 26.01 38.99 M 29.98 39.01 C 29.99 39.51 30.01 40.50 30.03 41.00 C 38.69 40.98 47.35 41.03 56.01 41.01 C 58.05 41.23 59.82 40.17 61.48 39.14 C 50.98 38.82 40.48 39.07 29.98 39.01 M 64.17 47.66 C 64.29 46.28 65.38 45.28 66.09 44.17 C 67.34 43.68 68.59 43.18 69.83 42.65 C 67.07 41.86 64.18 41.91 61.34 42.02 C 59.44 44.01 57.53 46.00 55.65 48.01 C 58.02 48.05 60.46 47.57 62.77 48.23 C 63.26 49.50 62.10 50.40 61.51 51.38 C 57.95 56.08 56.28 62.20 57.08 68.06 C 57.94 73.79 61.14 78.85 64.79 83.23 C 67.06 85.38 69.89 86.82 72.40 88.67 C 75.85 89.81 79.32 91.30 83.04 91.10 C 86.73 91.30 90.17 89.81 93.59 88.66 C 96.10 86.82 98.94 85.39 101.21 83.24 C 104.44 79.53 106.98 75.21 108.50 70.52 C 110.72 62.29 107.11 54.12 102.15 47.70 C 109.40 48.29 116.67 47.89 123.94 48.00 L 123.74 45.48 C 124.98 46.40 125.91 48.61 127.76 47.77 C 128.58 45.92 126.36 44.97 125.47 43.69 C 128.89 45.14 132.44 44.80 135.94 44.01 C 138.14 43.96 137.75 46.56 138.33 48.00 C 139.00 48.00 140.33 48.00 140.99 48.00 C 140.99 46.00 141.00 44.00 141.00 42.00 C 129.67 41.99 118.33 42.01 107.00 42.00 C 103.40 42.02 99.74 41.64 96.23 42.64 L 97.57 43.21 C 98.16 43.48 99.32 44.03 99.91 44.30 L 100.16 44.57 C 100.86 45.55 101.57 46.53 102.26 47.53 C 97.21 43.55 91.71 39.45 85.06 38.99 C 77.16 38.17 69.57 42.15 64.17 47.66 M 90.98 39.47 C 93.22 40.36 95.55 41.13 98.00 41.03 C 116.01 40.99 134.02 40.97 152.03 41.04 C 153.97 41.12 155.87 40.73 157.48 39.58 C 155.67 39.24 153.84 38.94 151.99 38.96 C 133.35 39.03 114.70 39.01 96.05 38.97 C 94.35 38.99 92.66 39.21 90.98 39.47 M 23.07 41.56 C 23.06 42.42 23.03 44.13 23.02 44.98 C 28.67 45.02 34.32 44.99 39.96 45.00 C 39.98 45.75 40.02 47.25 40.03 48.00 C 44.49 47.99 48.94 48.04 53.40 47.95 C 54.80 45.79 56.50 43.84 58.30 42.00 C 49.03 42.03 39.77 41.95 30.51 42.03 C 29.47 45.88 24.82 43.70 23.07 41.56 M 142.01 42.00 C 141.99 45.33 142.00 48.67 142.04 52.00 C 142.76 52.00 144.21 52.00 144.94 52.00 C 145.00 48.66 145.01 45.33 144.99 41.99 C 144.24 42.00 142.75 42.00 142.01 42.00 M 146.00 42.00 C 146.00 43.74 146.01 45.48 146.02 47.22 C 149.75 46.91 153.97 46.00 155.51 42.11 C 152.34 41.99 149.17 41.99 146.00 42.00 M 134.01 44.99 C 134.01 45.75 134.00 47.25 134.00 48.00 C 134.76 48.00 136.28 47.99 137.04 47.98 C 137.01 47.24 136.96 45.76 136.93 45.02 C 136.20 45.02 134.74 45.00 134.01 44.99 M 29.99 46.01 C 30.00 46.51 30.01 47.50 30.01 48.00 C 33.01 48.00 36.00 48.00 39.00 47.99 C 39.00 47.50 39.00 46.50 39.00 46.01 C 36.00 46.00 33.00 46.00 29.99 46.01 M 129.49 46.03 C 128.99 49.12 125.71 50.24 124.53 52.97 C 125.72 52.27 126.92 51.55 128.10 50.82 C 129.17 52.78 129.38 55.07 126.85 55.95 L 126.92 56.76 L 127.24 57.67 C 130.97 55.12 132.66 50.34 133.26 46.01 C 132.00 46.02 130.74 46.03 129.49 46.03 M 103.79 48.99 C 105.80 51.58 107.91 54.21 108.72 57.46 C 108.72 59.34 109.92 60.66 111.50 61.50 C 113.25 62.03 115.63 62.66 116.78 60.75 C 120.74 57.48 123.16 52.97 126.26 48.98 C 118.77 49.02 111.28 49.00 103.79 48.99 M 124.38 56.88 C 125.32 57.04 126.15 56.73 126.85 55.95 C 127.68 54.96 128.00 53.84 127.82 52.59 C 126.23 52.58 125.31 55.69 124.38 56.88 M 122.29 56.22 C 120.59 58.03 118.86 59.80 117.08 61.52 C 117.59 61.94 118.59 62.76 119.09 63.17 C 121.18 61.51 124.95 60.89 125.75 58.28 C 124.61 57.57 123.44 56.90 122.29 56.22 M 110.61 62.22 C 111.11 62.76 111.11 62.76 110.61 62.22 M 112.23 63.67 C 113.89 64.22 116.93 64.71 118.05 63.34 C 116.40 62.76 113.35 62.29 112.23 63.67 M 110.10 64.01 C 110.24 67.74 109.33 71.37 107.86 74.78 C 113.83 76.05 119.95 75.75 125.94 76.81 C 131.56 77.51 137.27 76.34 142.86 77.49 C 147.19 78.35 151.62 77.95 156.00 78.00 C 172.00 78.03 188.01 77.95 204.01 78.04 C 205.59 78.06 207.18 77.87 208.62 77.19 C 216.76 76.84 224.93 76.96 233.07 77.07 C 238.65 78.15 244.34 78.22 250.01 77.95 C 251.66 78.01 252.97 76.85 254.39 76.17 C 247.58 75.57 240.67 76.71 233.93 75.33 C 225.63 74.25 217.16 75.94 208.91 74.31 C 201.80 73.30 194.53 74.85 187.46 73.40 C 182.18 72.41 176.75 73.66 171.50 72.41 C 156.67 71.36 141.85 69.61 127.12 67.51 C 121.53 65.91 115.79 65.10 110.10 64.01 M 119.45 64.17 L 119.49 64.85 C 120.01 64.84 121.05 64.82 121.57 64.82 L 121.54 64.12 C 121.02 64.13 119.97 64.16 119.45 64.17 M 123.51 65.82 C 124.08 65.82 125.23 65.82 125.81 65.82 L 125.80 65.19 C 124.53 64.33 123.77 64.54 123.51 65.82 M 127.25 66.34 C 128.24 67.57 132.08 67.58 133.07 66.36 C 131.28 65.66 129.03 65.58 127.25 66.34 M 149.79 65.93 C 150.13 66.44 150.81 67.47 151.15 67.99 C 154.24 68.01 157.43 68.35 160.41 67.31 C 156.85 67.06 153.22 67.06 149.79 65.93 M 134.27 67.64 C 136.26 68.19 139.55 68.72 141.07 67.38 C 139.09 66.78 135.73 66.26 134.27 67.64 M 182.99 67.00 L 183.01 68.00 C 191.98 68.09 200.96 67.84 209.93 68.08 C 216.56 69.43 223.33 68.97 230.05 68.95 C 233.84 68.88 237.52 70.02 241.32 70.02 C 238.85 68.24 236.05 67.03 233.14 66.19 C 229.20 67.41 225.05 66.98 221.00 67.00 C 208.33 67.00 195.66 67.00 182.99 67.00 M 141.24 68.14 C 144.43 69.63 148.16 69.22 151.45 68.30 C 148.06 67.93 144.64 67.86 141.24 68.14 M 159.32 68.27 L 160.52 68.71 C 163.28 69.36 166.18 68.91 169.00 68.98 L 169.01 68.00 C 165.78 67.98 162.53 67.90 159.32 68.27 M 150.25 69.20 C 153.51 70.52 157.10 69.82 160.50 70.29 L 160.52 68.71 C 157.11 69.09 153.67 68.93 150.25 69.20 M 160.50 70.29 L 159.28 70.65 C 163.08 71.11 166.94 71.25 170.74 70.81 C 170.81 70.60 170.93 70.18 171.00 69.97 C 167.51 70.03 163.95 69.64 160.50 70.29 M 240.43 70.55 C 239.15 70.94 237.86 71.33 236.58 71.73 C 239.41 73.56 242.84 72.95 246.01 73.00 C 246.00 72.23 245.99 70.69 245.99 69.92 C 244.12 69.99 242.26 70.18 240.43 70.55 M 172.25 71.19 C 172.21 71.39 172.14 71.79 172.11 71.99 C 177.35 72.10 182.58 71.94 187.82 72.00 L 187.84 71.00 C 182.64 71.13 177.43 70.69 172.25 71.19 M 187.30 72.71 C 194.42 73.09 201.65 73.31 208.74 72.69 L 208.93 72.33 C 204.65 71.68 200.32 72.11 196.02 71.99 C 193.11 72.00 190.09 71.65 187.30 72.71 M 210.24 73.21 C 210.25 73.40 210.28 73.78 210.29 73.97 C 217.21 74.14 224.13 73.85 231.04 74.11 C 232.41 74.44 233.65 73.73 234.74 73.03 C 226.57 73.12 218.38 72.71 210.24 73.21 M 235.92 74.91 C 243.28 75.22 250.67 74.88 258.05 75.00 L 257.95 74.00 C 251.23 74.01 244.51 74.00 237.79 73.95 C 237.18 73.78 233.97 74.24 235.92 74.91 M 107.36 76.04 C 106.25 77.42 105.40 78.98 104.38 80.42 C 103.60 81.67 102.69 82.83 101.80 84.01 C 138.87 83.99 175.93 84.00 213.00 84.00 L 213.00 83.01 C 210.54 83.01 208.09 83.03 205.63 82.90 C 203.90 81.72 201.53 82.33 199.95 80.83 C 200.25 80.37 200.85 79.45 201.15 78.99 C 181.98 78.97 162.80 79.09 143.63 78.93 C 143.21 78.71 142.37 78.28 141.95 78.06 C 136.30 77.83 130.65 78.16 125.01 77.95 C 124.60 77.73 123.78 77.29 123.37 77.07 C 120.13 76.95 116.88 77.05 113.63 76.92 C 111.86 75.44 109.46 76.06 107.36 76.04 M 200.70 80.66 C 208.87 82.15 217.14 83.15 225.37 84.33 C 227.33 84.95 229.38 85.06 231.43 84.95 C 228.96 83.46 226.24 82.51 223.55 81.51 C 226.80 79.41 230.79 79.34 234.39 78.23 C 227.27 77.74 220.13 78.14 213.00 77.96 C 208.67 77.60 204.91 80.17 200.70 80.66 Z" />
<path fill="#000000" opacity="1.00" d=" M 82.67 37.06 C 81.30 36.49 81.49 34.64 82.62 33.93 C 82.63 34.71 82.66 36.28 82.67 37.06 Z" />
<path fill="#000000" opacity="1.00" d=" M 86.10 35.18 L 86.75 34.70 C 86.66 35.24 86.49 36.31 86.40 36.85 C 86.32 36.43 86.17 35.60 86.10 35.18 Z" />
<path fill="#000000" opacity="1.00" d=" M 76.47 42.25 C 79.46 42.04 82.59 40.34 85.52 41.68 C 86.81 41.89 88.11 42.06 89.41 42.24 C 90.17 42.46 91.69 42.91 92.45 43.13 C 92.41 43.77 92.35 45.04 92.32 45.67 L 92.59 45.85 C 92.75 45.35 93.06 44.36 93.21 43.86 C 93.66 43.91 94.55 44.00 94.99 44.05 L 94.67 45.32 L 95.59 45.12 C 96.11 45.42 97.14 46.00 97.66 46.30 C 98.74 47.26 99.82 48.22 100.91 49.17 C 99.92 51.47 99.05 53.96 96.95 55.50 C 97.35 54.65 98.17 52.94 98.57 52.09 C 96.77 52.67 95.32 53.86 95.42 55.88 C 94.35 57.09 93.23 58.26 92.14 59.45 C 91.38 58.74 90.65 58.01 89.91 57.29 C 93.31 54.73 96.72 52.17 100.18 49.69 C 98.30 47.95 96.23 46.43 94.12 44.99 C 91.63 49.17 90.11 53.89 87.12 57.75 C 87.10 58.18 87.06 59.04 87.05 59.47 C 88.35 59.75 89.65 60.04 90.95 60.31 C 89.91 60.46 87.82 60.75 86.78 60.90 C 88.52 62.29 90.69 62.06 92.63 61.36 C 93.57 61.12 94.51 60.88 95.46 60.65 C 98.58 59.93 101.71 59.28 104.88 58.80 C 103.95 55.89 102.57 53.17 100.82 50.67 C 101.82 51.51 102.82 52.35 103.81 53.20 C 104.03 53.76 104.47 54.89 104.68 55.46 C 105.01 56.47 105.35 57.47 105.69 58.47 C 107.57 63.25 106.85 68.48 104.88 73.11 L 105.00 71.06 L 103.19 70.27 L 104.60 72.48 C 99.70 70.78 94.61 69.71 89.75 67.89 C 91.66 67.96 93.56 67.82 95.44 67.47 C 94.21 67.24 91.75 66.78 90.53 66.55 C 92.16 66.04 93.84 66.05 95.49 66.41 C 96.47 66.89 97.46 67.37 98.44 67.84 C 99.52 67.91 100.60 67.97 101.68 68.04 C 102.59 68.78 103.51 69.51 104.42 70.25 C 104.78 69.33 105.14 68.42 105.50 67.51 C 105.82 65.68 106.76 63.22 104.69 62.07 C 103.10 61.77 101.57 62.38 100.08 62.84 C 96.22 63.23 92.36 64.16 89.08 66.31 L 89.25 67.83 C 88.82 67.24 87.96 66.06 87.53 65.48 C 89.30 64.53 91.13 63.72 92.93 62.83 C 91.84 62.84 89.66 62.84 88.57 62.84 C 88.03 63.36 87.50 63.88 86.96 64.39 C 87.27 60.22 81.82 59.70 79.00 61.00 C 79.33 60.33 79.98 58.99 80.31 58.33 L 79.04 58.11 L 78.80 60.44 C 76.65 56.51 74.82 52.42 72.59 48.53 C 73.66 49.11 74.73 49.70 75.79 50.29 C 74.77 48.30 73.52 46.43 72.24 44.58 L 72.00 46.13 C 71.45 45.98 70.35 45.69 69.80 45.54 C 71.77 43.98 74.08 42.98 76.47 42.25 M 82.00 42.04 C 82.00 47.68 82.00 53.31 82.00 58.95 L 83.00 59.04 C 83.00 53.34 83.00 47.65 83.00 41.95 L 82.00 42.04 M 73.69 44.18 C 75.18 47.38 76.77 50.53 78.33 53.70 C 79.10 55.29 79.87 56.87 80.67 58.43 C 81.31 53.25 80.91 48.03 80.99 42.83 C 78.51 42.97 76.04 43.34 73.69 44.18 M 83.98 42.30 C 84.28 48.18 83.19 54.24 85.01 59.96 L 86.42 59.57 C 85.64 58.30 84.40 56.99 85.71 55.55 C 85.84 55.28 86.11 54.74 86.24 54.47 C 87.63 51.73 88.90 48.90 90.67 46.37 L 90.89 45.78 C 91.19 42.16 86.27 43.12 83.98 42.30 M 91.24 47.32 C 91.83 47.78 91.83 47.78 91.24 47.32 M 90.27 49.30 C 90.82 49.81 90.82 49.81 90.27 49.30 M 75.28 51.27 C 75.87 51.73 75.87 51.73 75.28 51.27 M 89.26 51.26 C 89.75 51.82 89.75 51.82 89.26 51.26 M 76.19 53.28 C 76.74 53.79 76.74 53.79 76.19 53.28 M 88.31 53.25 C 88.73 53.86 88.73 53.86 88.31 53.25 M 77.17 55.35 C 77.80 55.75 77.80 55.75 77.17 55.35 M 87.23 55.28 C 87.80 55.77 87.80 55.77 87.23 55.28 M 93.30 56.25 C 93.85 56.75 93.85 56.75 93.30 56.25 M 78.27 57.26 C 78.74 57.84 78.74 57.84 78.27 57.26 M 102.18 60.82 C 103.42 61.69 104.19 61.48 104.49 60.19 C 103.24 59.33 102.48 59.54 102.18 60.82 M 97.28 62.02 C 98.09 62.74 100.61 62.91 100.68 61.51 C 99.82 60.95 97.35 60.62 97.28 62.02 M 93.46 62.11 L 93.43 62.80 C 93.96 62.81 95.00 62.81 95.52 62.82 L 95.55 62.13 C 95.03 62.13 93.98 62.12 93.46 62.11 M 95.33 68.00 C 95.49 71.37 98.13 66.42 95.33 68.00 M 98.47 69.10 L 98.45 69.78 C 98.97 69.80 100.01 69.85 100.53 69.87 L 100.56 69.17 C 100.04 69.16 98.99 69.12 98.47 69.10 M 102.26 70.28 C 102.83 70.76 102.83 70.76 102.26 70.28 Z" />
<path fill="#000000" opacity="1.00" d=" M 63.96 50.47 C 65.68 48.59 67.59 46.86 69.80 45.54 C 69.35 46.25 68.44 47.65 67.98 48.35 C 69.76 48.01 71.34 47.25 72.72 46.08 C 72.85 46.58 73.11 47.58 73.24 48.07 L 72.14 48.12 C 71.56 50.95 69.80 54.42 72.86 56.51 C 70.39 55.54 70.03 58.67 68.86 59.95 C 69.89 59.97 71.97 60.00 73.00 60.01 L 73.02 60.92 C 71.57 61.01 70.13 61.10 68.68 61.20 L 69.02 60.19 C 66.48 59.61 63.93 59.01 61.39 58.42 L 61.16 59.39 C 61.03 59.89 60.77 60.90 60.65 61.40 C 59.93 63.63 60.00 65.98 59.91 68.28 C 61.16 67.97 62.40 67.63 63.64 67.25 C 65.40 66.86 67.71 67.49 68.82 65.68 C 68.99 64.41 69.11 63.13 69.18 61.85 C 70.23 61.98 71.28 62.13 72.33 62.28 C 74.20 63.31 76.30 62.73 78.26 62.36 C 77.51 64.11 76.80 65.87 76.08 67.63 L 75.90 65.73 C 74.37 66.01 72.85 66.32 71.34 66.72 C 70.55 66.81 68.97 66.99 68.18 67.07 L 68.17 67.98 C 69.00 68.01 70.66 68.08 71.49 68.11 C 72.54 72.01 75.52 68.25 77.57 67.36 C 78.74 69.74 81.83 72.05 84.44 70.41 C 85.94 69.86 86.66 68.34 87.56 67.16 C 89.91 69.61 92.54 71.77 95.33 73.71 C 98.48 74.29 101.65 75.05 104.89 74.73 C 101.45 81.28 95.53 86.77 88.02 87.98 C 83.17 89.63 78.08 88.26 73.42 86.65 C 66.50 83.82 61.63 77.40 59.68 70.31 C 60.56 70.11 62.33 69.72 63.21 69.52 C 61.46 69.13 58.41 68.68 58.94 66.08 C 59.64 61.21 59.65 54.79 64.28 51.85 C 63.52 53.07 62.80 54.30 62.05 55.52 C 62.03 56.12 61.99 57.32 61.97 57.92 C 63.09 57.99 64.22 58.06 65.34 58.14 C 66.38 58.56 67.43 58.95 68.49 59.32 C 68.79 58.63 69.40 57.25 69.71 56.56 C 69.35 55.27 69.02 53.98 68.67 52.69 C 68.60 53.42 68.45 54.88 68.38 55.61 C 67.63 54.92 66.88 54.23 66.14 53.52 C 66.46 52.03 65.73 51.02 63.96 50.47 M 65.67 49.05 C 65.85 51.29 68.06 52.07 69.74 53.01 C 70.27 51.68 70.77 50.35 71.25 49.01 C 69.39 49.00 67.53 49.01 65.67 49.05 M 70.04 62.79 C 70.02 63.60 69.99 65.22 69.97 66.03 C 71.96 65.55 73.97 65.13 75.99 64.75 L 76.01 64.21 C 74.02 63.75 72.03 63.26 70.04 62.79 M 64.29 68.22 L 64.30 68.82 C 64.90 68.82 66.11 68.80 66.71 68.80 L 66.70 68.19 C 66.10 68.20 64.89 68.21 64.29 68.22 M 67.42 69.84 C 65.10 69.85 62.87 70.37 60.75 71.32 C 61.23 72.44 61.75 73.54 62.21 74.67 C 62.91 76.02 63.81 77.20 65.12 78.02 C 65.37 77.20 65.86 75.58 66.11 74.77 C 66.75 75.05 68.04 75.60 68.68 75.88 L 67.86 74.31 C 69.26 73.18 70.65 72.00 72.36 71.39 C 71.57 69.24 69.31 68.00 67.42 69.84 M 74.06 70.82 C 73.03 71.49 74.13 73.09 72.87 73.75 C 70.19 75.62 67.54 77.56 64.90 79.48 C 66.59 81.31 68.55 82.85 70.68 84.14 C 71.40 82.99 72.08 81.81 72.75 80.63 C 73.00 80.13 73.49 79.13 73.74 78.62 C 74.77 76.91 75.16 75.01 75.47 73.07 C 78.11 72.32 76.02 76.80 76.75 77.90 L 75.22 77.34 C 75.45 77.98 75.91 79.24 76.14 79.88 L 74.22 79.31 C 74.45 79.94 74.91 81.19 75.14 81.82 L 73.22 81.36 C 73.42 81.84 73.82 82.82 74.02 83.30 C 73.38 83.58 72.11 84.15 71.47 84.43 C 74.60 83.78 77.82 84.00 80.99 84.01 C 80.95 80.79 81.11 77.57 80.95 74.36 L 79.82 73.39 L 77.57 73.20 C 78.75 72.46 79.93 71.74 81.13 71.03 C 79.47 71.25 77.82 71.77 76.13 71.64 L 76.58 70.23 C 75.95 70.37 74.69 70.67 74.06 70.82 M 85.80 70.79 C 85.02 71.54 84.39 72.44 83.99 73.45 C 85.42 72.91 86.57 73.74 87.65 74.57 C 88.50 73.41 89.66 73.11 91.11 73.67 C 88.88 73.01 89.36 70.54 88.83 68.77 L 88.58 71.87 C 87.74 71.56 86.70 69.63 85.80 70.79 M 82.28 71.40 C 82.13 77.09 81.22 83.04 82.73 88.60 C 82.88 82.91 83.78 76.96 82.28 71.40 M 92.10 72.63 C 92.58 73.22 93.54 74.41 94.02 75.01 C 92.96 75.01 90.82 75.02 89.75 75.02 C 89.98 76.95 90.79 78.71 91.59 80.45 C 92.37 81.70 93.33 82.83 94.29 83.96 C 96.44 83.17 98.63 82.34 100.15 80.52 C 98.53 79.27 96.76 78.23 95.21 76.88 C 95.62 74.75 93.41 73.80 92.10 72.63 M 84.07 74.59 C 83.96 77.73 84.01 80.87 84.00 84.01 C 86.11 84.00 88.21 84.00 90.32 83.96 C 90.07 83.37 89.57 82.20 89.32 81.61 C 87.76 79.14 87.33 75.39 84.07 74.59 M 95.96 76.04 C 98.13 75.41 99.49 77.03 101.02 78.16 C 101.86 77.60 102.64 76.97 103.38 76.27 C 101.86 76.24 100.50 75.80 99.29 74.95 C 98.09 75.04 96.98 75.41 95.96 76.04 M 88.21 76.30 C 88.73 76.83 88.73 76.83 88.21 76.30 M 90.95 81.72 C 91.16 82.54 91.58 84.18 91.79 85.00 C 89.19 85.00 86.60 85.00 84.01 85.01 C 84.00 85.68 83.98 87.02 83.97 87.70 C 87.11 87.14 90.47 86.86 93.08 84.81 C 92.39 83.76 91.68 82.73 90.95 81.72 M 72.69 85.20 C 75.27 86.54 78.10 87.15 81.00 87.16 C 81.00 86.61 80.99 85.52 80.99 84.98 C 78.22 84.98 75.45 85.01 72.69 85.20 Z" />
<path fill="#000000" opacity="1.00" d=" M 61.86 60.35 C 62.30 60.31 63.18 60.22 63.62 60.17 L 63.83 61.02 C 63.34 60.85 62.35 60.52 61.86 60.35 Z" />
<path fill="#000000" opacity="1.00" d=" M 66.16 61.30 L 66.95 60.83 C 67.21 61.14 67.74 61.74 68.01 62.05 C 67.61 62.04 66.82 62.02 66.43 62.02 L 66.16 61.30 Z" />
<path fill="#000000" opacity="1.00" d=" M 78.27 61.26 C 78.80 61.77 78.80 61.77 78.27 61.26 Z" />
<path fill="#000000" opacity="1.00" d=" M 81.37 63.05 C 82.89 62.59 85.07 63.31 85.04 65.15 C 85.39 66.91 83.62 68.55 81.88 68.04 C 79.54 67.57 79.22 64.05 81.37 63.05 M 81.38 64.46 C 81.39 65.01 81.41 66.10 81.42 66.64 C 81.96 66.64 83.04 66.64 83.57 66.64 C 83.58 66.09 83.60 65.00 83.61 64.45 C 83.05 64.46 81.93 64.46 81.38 64.46 Z" />
<path fill="#000000" opacity="1.00" d=" M 73.56 67.08 C 76.61 65.58 73.70 70.37 73.56 67.08 Z" />
<path fill="#000000" opacity="1.00" d=" M 75.36 71.36 C 75.66 71.66 75.66 71.66 75.36 71.36 Z" />
<path fill="#000000" opacity="1.00" d=" M 87.36 72.36 C 87.66 72.66 87.66 72.66 87.36 72.36 Z" />
<path fill="#000000" opacity="1.00" d=" M 104.24 73.27 C 104.77 73.79 104.77 73.79 104.24 73.27 Z" />
<path fill="#000000" opacity="1.00" d=" M 78.36 74.36 C 78.66 74.66 78.66 74.66 78.36 74.36 Z" />
<path fill="#000000" opacity="1.00" d=" M 77.13 75.90 L 77.77 75.87 L 77.80 76.51 L 77.16 76.54 L 77.13 75.90 Z" />
<path fill="#000000" opacity="1.00" d=" M 76.18 78.15 C 76.88 78.84 76.88 78.84 76.18 78.15 Z" />
<path fill="#000000" opacity="1.00" d=" M 75.18 80.18 C 75.88 80.86 75.88 80.86 75.18 80.18 Z" />
<path fill="#000000" opacity="1.00" d=" M 74.17 82.14 C 74.87 82.83 74.87 82.83 74.17 82.14 Z" />
</g>
<g id="#59693cff">
<path fill="#59693c" opacity="1.00" d=" M 76.38 15.52 C 80.37 18.59 83.69 22.39 87.19 25.98 C 83.62 25.52 78.48 27.56 76.27 23.68 C 74.27 21.24 76.09 18.20 76.38 15.52 Z" />
<path fill="#59693c" opacity="1.00" d=" M 98.01 22.00 C 101.00 22.00 103.99 22.00 106.99 22.00 C 107.00 25.33 107.00 28.67 106.99 32.00 C 103.99 32.00 101.00 32.00 98.01 32.00 C 98.00 28.67 98.00 25.33 98.01 22.00 Z" />
<path fill="#59693c" opacity="1.00" d=" M 74.36 22.66 C 75.31 23.84 76.26 25.02 77.19 26.21 C 75.56 28.78 74.17 31.50 72.88 34.25 L 72.08 33.62 C 71.84 33.43 71.36 33.05 71.12 32.86 C 72.42 29.53 73.53 26.13 74.36 22.66 Z" />
<path fill="#59693c" opacity="1.00" d=" M 62.01 26.00 C 62.50 26.00 63.48 26.00 63.98 26.00 C 63.48 30.11 65.56 35.31 62.13 38.49 C 61.92 34.33 62.00 30.16 62.01 26.00 Z" />
<path fill="#59693c" opacity="1.00" d=" M 16.00 27.01 C 16.50 27.01 17.49 27.00 17.99 27.00 C 18.00 30.67 18.00 34.33 17.99 38.00 C 17.49 38.00 16.50 38.00 16.01 38.00 C 16.00 34.34 16.00 30.67 16.00 27.01 Z" />
<path fill="#59693c" opacity="1.00" d=" M 65.00 27.01 C 67.10 27.01 69.20 27.00 71.30 27.01 C 70.57 27.79 69.84 28.57 69.11 29.35 C 69.05 30.47 68.99 31.58 68.93 32.70 C 67.63 33.90 66.33 35.10 65.02 36.30 C 65.00 33.20 65.00 30.10 65.00 27.01 Z" />
<path fill="#59693c" opacity="1.00" d=" M 77.25 27.29 C 83.79 26.58 90.42 27.21 97.00 27.00 C 97.00 28.67 97.00 30.33 97.00 31.99 C 95.68 31.99 94.35 32.00 93.03 32.01 C 93.01 34.16 92.98 36.32 92.90 38.47 C 89.65 37.38 88.78 33.78 86.38 31.71 C 85.28 30.42 83.75 31.35 82.46 31.63 C 81.92 31.75 80.83 32.00 80.29 32.12 C 79.30 33.18 78.31 34.25 77.35 35.34 C 74.54 38.39 70.33 38.19 66.54 37.95 C 68.19 36.27 70.08 34.86 72.08 33.62 L 72.25 35.38 C 73.40 34.19 74.55 32.98 75.67 31.75 C 76.13 30.24 76.58 28.72 77.25 27.29 Z" />
<path fill="#59693c" opacity="1.00" d=" M 19.00 28.00 C 33.00 28.00 47.00 27.99 61.00 28.01 C 61.00 31.00 61.00 34.00 61.00 36.99 C 47.00 37.01 33.01 37.00 19.01 37.00 C 19.00 34.00 19.00 31.00 19.00 28.00 Z" />
<path fill="#59693c" opacity="1.00" d=" M 107.97 28.01 C 108.51 28.01 109.59 28.00 110.13 28.00 C 110.06 30.34 110.23 32.93 108.13 34.48 C 108.03 32.33 107.99 30.17 107.97 28.01 Z" />
<path fill="#59693c" opacity="1.00" d=" M 72.80 38.98 C 77.31 38.13 78.97 32.35 83.93 32.48 L 82.62 33.93 C 81.49 34.64 81.30 36.49 82.67 37.06 L 83.56 37.72 C 81.88 37.89 80.19 38.03 78.51 38.17 C 77.20 38.71 75.88 39.24 74.57 39.78 C 74.09 39.89 73.13 40.11 72.65 40.22 C 69.51 41.49 66.06 40.94 62.76 40.99 C 63.13 40.49 63.89 39.48 64.26 38.98 C 67.11 39.00 69.96 39.21 72.80 38.98 Z" />
<path fill="#59693c" opacity="1.00" d=" M 85.46 32.62 L 86.77 32.86 C 86.98 33.28 87.39 34.13 87.60 34.55 C 88.62 36.23 89.73 37.84 90.99 39.35 C 89.14 38.78 87.30 38.20 85.46 37.61 L 86.40 36.85 C 86.49 36.31 86.66 35.24 86.75 34.70 L 86.10 35.18 C 86.17 35.60 86.32 36.43 86.40 36.85 C 85.47 36.90 83.61 37.01 82.67 37.06 C 82.66 36.28 82.63 34.71 82.62 33.93 C 83.56 34.01 85.43 34.16 86.36 34.24 L 85.46 32.62 Z" />
<path fill="#59693c" opacity="1.00" d=" M 94.01 33.00 C 98.34 33.00 102.66 33.00 106.99 33.00 C 106.99 34.66 106.99 36.33 107.00 37.99 C 102.66 38.01 98.33 38.00 93.99 37.99 C 94.00 36.33 94.01 34.66 94.01 33.00 Z" />
<path fill="#59693c" opacity="1.00" d=" M 108.11 35.39 C 109.46 34.52 110.78 36.89 109.68 37.84 C 108.29 38.77 107.02 36.35 108.11 35.39 Z" />
<path fill="#59693c" opacity="1.00" d=" M 26.01 38.99 C 26.75 39.00 28.25 39.00 29.00 39.00 C 29.00 40.34 29.00 41.67 29.00 43.00 C 28.25 43.00 26.75 43.00 26.00 43.00 C 26.00 41.67 26.00 40.33 26.01 38.99 Z" />
<path fill="#59693c" opacity="1.00" d=" M 29.98 39.01 C 40.48 39.07 50.98 38.82 61.48 39.14 C 59.82 40.17 58.05 41.23 56.01 41.01 C 47.35 41.03 38.69 40.98 30.03 41.00 C 30.01 40.50 29.99 39.51 29.98 39.01 Z" />
<path fill="#59693c" opacity="1.00" d=" M 64.17 47.66 C 69.57 42.15 77.16 38.17 85.06 38.99 C 91.71 39.45 97.21 43.55 102.26 47.53 C 101.57 46.53 100.86 45.55 100.16 44.57 L 99.91 44.30 C 99.32 44.03 98.16 43.48 97.57 43.21 L 96.23 42.64 C 99.74 41.64 103.40 42.02 107.00 42.00 C 118.33 42.01 129.67 41.99 141.00 42.00 C 141.00 44.00 140.99 46.00 140.99 48.00 C 140.33 48.00 139.00 48.00 138.33 48.00 C 137.75 46.56 138.14 43.96 135.94 44.01 C 132.44 44.80 128.89 45.14 125.47 43.69 C 126.36 44.97 128.58 45.92 127.76 47.77 C 125.91 48.61 124.98 46.40 123.74 45.48 L 123.94 48.00 C 116.67 47.89 109.40 48.29 102.15 47.70 C 107.11 54.12 110.72 62.29 108.50 70.52 C 106.98 75.21 104.44 79.53 101.21 83.24 C 98.94 85.39 96.10 86.82 93.59 88.66 C 90.17 89.81 86.73 91.30 83.04 91.10 C 79.32 91.30 75.85 89.81 72.40 88.67 C 69.89 86.82 67.06 85.38 64.79 83.23 C 61.14 78.85 57.94 73.79 57.08 68.06 C 56.28 62.20 57.95 56.08 61.51 51.38 C 62.10 50.40 63.26 49.50 62.77 48.23 C 60.46 47.57 58.02 48.05 55.65 48.01 C 57.53 46.00 59.44 44.01 61.34 42.02 C 64.18 41.91 67.07 41.86 69.83 42.65 C 68.59 43.18 67.34 43.68 66.09 44.17 C 65.38 45.28 64.29 46.28 64.17 47.66 M 76.47 42.25 C 74.08 42.98 71.77 43.98 69.80 45.54 C 70.35 45.69 71.45 45.98 72.00 46.13 L 72.24 44.58 C 73.52 46.43 74.77 48.30 75.79 50.29 C 74.73 49.70 73.66 49.11 72.59 48.53 C 74.82 52.42 76.65 56.51 78.80 60.44 L 79.04 58.11 L 80.31 58.33 C 79.98 58.99 79.33 60.33 79.00 61.00 C 81.82 59.70 87.27 60.22 86.96 64.39 C 87.50 63.88 88.03 63.36 88.57 62.84 C 89.66 62.84 91.84 62.84 92.93 62.83 C 91.13 63.72 89.30 64.53 87.53 65.48 C 87.96 66.06 88.82 67.24 89.25 67.83 L 89.08 66.31 C 92.36 64.16 96.22 63.23 100.08 62.84 C 101.57 62.38 103.10 61.77 104.69 62.07 C 106.76 63.22 105.82 65.68 105.50 67.51 C 105.14 68.42 104.78 69.33 104.42 70.25 C 103.51 69.51 102.59 68.78 101.68 68.04 C 100.60 67.97 99.52 67.91 98.44 67.84 C 97.46 67.37 96.47 66.89 95.49 66.41 C 93.84 66.05 92.16 66.04 90.53 66.55 C 91.75 66.78 94.21 67.24 95.44 67.47 C 93.56 67.82 91.66 67.96 89.75 67.89 C 94.61 69.71 99.70 70.78 104.60 72.48 L 103.19 70.27 L 105.00 71.06 L 104.88 73.11 C 106.85 68.48 107.57 63.25 105.69 58.47 C 105.35 57.47 105.01 56.47 104.68 55.46 C 104.47 54.89 104.03 53.76 103.81 53.20 C 102.82 52.35 101.82 51.51 100.82 50.67 C 102.57 53.17 103.95 55.89 104.88 58.80 C 101.71 59.28 98.58 59.93 95.46 60.65 C 94.51 60.88 93.57 61.12 92.63 61.36 C 90.69 62.06 88.52 62.29 86.78 60.90 C 87.82 60.75 89.91 60.46 90.95 60.31 C 89.65 60.04 88.35 59.75 87.05 59.47 C 87.06 59.04 87.10 58.18 87.12 57.75 C 90.11 53.89 91.63 49.17 94.12 44.99 C 96.23 46.43 98.30 47.95 100.18 49.69 C 96.72 52.17 93.31 54.73 89.91 57.29 C 90.65 58.01 91.38 58.74 92.14 59.45 C 93.23 58.26 94.35 57.09 95.42 55.88 C 95.32 53.86 96.77 52.67 98.57 52.09 C 98.17 52.94 97.35 54.65 96.95 55.50 C 99.05 53.96 99.92 51.47 100.91 49.17 C 99.82 48.22 98.74 47.26 97.66 46.30 C 97.14 46.00 96.11 45.42 95.59 45.12 L 94.67 45.32 L 94.99 44.05 C 94.55 44.00 93.66 43.91 93.21 43.86 C 93.06 44.36 92.75 45.35 92.59 45.85 L 92.32 45.67 C 92.35 45.04 92.41 43.77 92.45 43.13 C 91.69 42.91 90.17 42.46 89.41 42.24 C 88.11 42.06 86.81 41.89 85.52 41.68 C 82.59 40.34 79.46 42.04 76.47 42.25 M 63.96 50.47 C 65.73 51.02 66.46 52.03 66.14 53.52 C 65.68 53.11 64.74 52.27 64.28 51.85 C 59.65 54.79 59.64 61.21 58.94 66.08 C 58.41 68.68 61.46 69.13 63.21 69.52 C 62.33 69.72 60.56 70.11 59.68 70.31 C 61.63 77.40 66.50 83.82 73.42 86.65 C 78.08 88.26 83.17 89.63 88.02 87.98 C 95.53 86.77 101.45 81.28 104.89 74.73 C 101.65 75.05 98.48 74.29 95.33 73.71 C 92.54 71.77 89.91 69.61 87.56 67.16 C 86.66 68.34 85.94 69.86 84.44 70.41 C 81.83 72.05 78.74 69.74 77.57 67.36 C 75.52 68.25 72.54 72.01 71.49 68.11 C 70.66 68.08 69.00 68.01 68.17 67.98 L 68.18 67.07 C 68.97 66.99 70.55 66.81 71.34 66.72 C 72.85 66.32 74.37 66.01 75.90 65.73 L 76.08 67.63 C 76.80 65.87 77.51 64.11 78.26 62.36 C 76.30 62.73 74.20 63.31 72.33 62.28 C 71.28 62.13 70.23 61.98 69.18 61.85 L 68.01 62.05 C 67.74 61.74 67.21 61.14 66.95 60.83 L 66.16 61.30 C 65.58 61.23 64.41 61.09 63.83 61.02 L 63.62 60.17 C 63.18 60.22 62.30 60.31 61.86 60.35 L 61.16 59.39 L 61.39 58.42 C 63.93 59.01 66.48 59.61 69.02 60.19 L 68.68 61.20 C 70.13 61.10 71.57 61.01 73.02 60.92 L 73.00 60.01 C 71.97 60.00 69.89 59.97 68.86 59.95 C 70.03 58.67 70.39 55.54 72.86 56.51 C 69.80 54.42 71.56 50.95 72.14 48.12 L 73.24 48.07 C 73.11 47.58 72.85 46.58 72.72 46.08 C 71.34 47.25 69.76 48.01 67.98 48.35 C 68.44 47.65 69.35 46.25 69.80 45.54 C 67.59 46.86 65.68 48.59 63.96 50.47 M 78.27 61.26 C 78.80 61.77 78.80 61.77 78.27 61.26 M 81.37 63.05 C 79.22 64.05 79.54 67.57 81.88 68.04 C 83.62 68.55 85.39 66.91 85.04 65.15 C 85.07 63.31 82.89 62.59 81.37 63.05 M 73.56 67.08 C 73.70 70.37 76.61 65.58 73.56 67.08 M 104.24 73.27 C 104.77 73.79 104.77 73.79 104.24 73.27 Z" />
<path fill="#59693c" opacity="1.00" d=" M 90.98 39.47 C 92.66 39.21 94.35 38.99 96.05 38.97 C 114.70 39.01 133.35 39.03 151.99 38.96 C 153.84 38.94 155.67 39.24 157.48 39.58 C 155.87 40.73 153.97 41.12 152.03 41.04 C 134.02 40.97 116.01 40.99 98.00 41.03 C 95.55 41.13 93.22 40.36 90.98 39.47 Z" />
<path fill="#59693c" opacity="1.00" d=" M 23.07 41.56 C 24.82 43.70 29.47 45.88 30.51 42.03 C 39.77 41.95 49.03 42.03 58.30 42.00 C 56.50 43.84 54.80 45.79 53.40 47.95 C 48.94 48.04 44.49 47.99 40.03 48.00 C 40.02 47.25 39.98 45.75 39.96 45.00 C 34.32 44.99 28.67 45.02 23.02 44.98 C 23.03 44.13 23.06 42.42 23.07 41.56 Z" />
<path fill="#59693c" opacity="1.00" d=" M 82.00 42.04 L 83.00 41.95 C 83.00 47.65 83.00 53.34 83.00 59.04 L 82.00 58.95 C 82.00 53.31 82.00 47.68 82.00 42.04 Z" />
<path fill="#59693c" opacity="1.00" d=" M 142.01 42.00 C 142.75 42.00 144.24 42.00 144.99 41.99 C 145.01 45.33 145.00 48.66 144.94 52.00 C 144.21 52.00 142.76 52.00 142.04 52.00 C 142.00 48.67 141.99 45.33 142.01 42.00 Z" />
<path fill="#59693c" opacity="1.00" d=" M 146.00 42.00 C 149.17 41.99 152.34 41.99 155.51 42.11 C 153.97 46.00 149.75 46.91 146.02 47.22 C 146.01 45.48 146.00 43.74 146.00 42.00 Z" />
<path fill="#59693c" opacity="1.00" d=" M 73.69 44.18 C 76.04 43.34 78.51 42.97 80.99 42.83 C 80.91 48.03 81.31 53.25 80.67 58.43 C 79.87 56.87 79.10 55.29 78.33 53.70 C 76.77 50.53 75.18 47.38 73.69 44.18 Z" />
<path fill="#59693c" opacity="1.00" d=" M 83.98 42.30 C 86.27 43.12 91.19 42.16 90.89 45.78 L 90.67 46.37 C 88.90 48.90 87.63 51.73 86.24 54.47 C 86.11 54.74 85.84 55.28 85.71 55.55 C 84.40 56.99 85.64 58.30 86.42 59.57 L 85.01 59.96 C 83.19 54.24 84.28 48.18 83.98 42.30 Z" />
<path fill="#59693c" opacity="1.00" d=" M 134.01 44.99 C 134.74 45.00 136.20 45.02 136.93 45.02 C 136.96 45.76 137.01 47.24 137.04 47.98 C 136.28 47.99 134.76 48.00 134.00 48.00 C 134.00 47.25 134.01 45.75 134.01 44.99 Z" />
<path fill="#59693c" opacity="1.00" d=" M 29.99 46.01 C 33.00 46.00 36.00 46.00 39.00 46.01 C 39.00 46.50 39.00 47.50 39.00 47.99 C 36.00 48.00 33.01 48.00 30.01 48.00 C 30.01 47.50 30.00 46.51 29.99 46.01 Z" />
<path fill="#59693c" opacity="1.00" d=" M 129.49 46.03 C 130.74 46.03 132.00 46.02 133.26 46.01 C 132.66 50.34 130.97 55.12 127.24 57.67 L 126.92 56.76 L 126.85 55.95 C 129.38 55.07 129.17 52.78 128.10 50.82 C 126.92 51.55 125.72 52.27 124.53 52.97 C 125.71 50.24 128.99 49.12 129.49 46.03 Z" />
<path fill="#59693c" opacity="1.00" d=" M 122.29 56.22 C 123.44 56.90 124.61 57.57 125.75 58.28 C 124.95 60.89 121.18 61.51 119.09 63.17 C 118.59 62.76 117.59 61.94 117.08 61.52 C 118.86 59.80 120.59 58.03 122.29 56.22 Z" />
<path fill="#59693c" opacity="1.00" d=" M 102.18 60.82 C 102.48 59.54 103.24 59.33 104.49 60.19 C 104.19 61.48 103.42 61.69 102.18 60.82 Z" />
<path fill="#59693c" opacity="1.00" d=" M 110.61 62.22 C 111.11 62.76 111.11 62.76 110.61 62.22 Z" />
<path fill="#59693c" opacity="1.00" d=" M 70.04 62.79 C 72.03 63.26 74.02 63.75 76.01 64.21 L 75.99 64.75 C 73.97 65.13 71.96 65.55 69.97 66.03 C 69.99 65.22 70.02 63.60 70.04 62.79 Z" />
<path fill="#59693c" opacity="1.00" d=" M 112.23 63.67 C 113.35 62.29 116.40 62.76 118.05 63.34 C 116.93 64.71 113.89 64.22 112.23 63.67 Z" />
<path fill="#59693c" opacity="1.00" d=" M 110.10 64.01 C 115.79 65.10 121.53 65.91 127.12 67.51 C 141.85 69.61 156.67 71.36 171.50 72.41 C 176.75 73.66 182.18 72.41 187.46 73.40 C 194.53 74.85 201.80 73.30 208.91 74.31 C 217.16 75.94 225.63 74.25 233.93 75.33 C 240.67 76.71 247.58 75.57 254.39 76.17 C 252.97 76.85 251.66 78.01 250.01 77.95 C 244.34 78.22 238.65 78.15 233.07 77.07 C 224.93 76.96 216.76 76.84 208.62 77.19 C 207.18 77.87 205.59 78.06 204.01 78.04 C 188.01 77.95 172.00 78.03 156.00 78.00 C 151.62 77.95 147.19 78.35 142.86 77.49 C 137.27 76.34 131.56 77.51 125.94 76.81 C 119.95 75.75 113.83 76.05 107.86 74.78 C 109.33 71.37 110.24 67.74 110.10 64.01 Z" />
<path fill="#59693c" opacity="1.00" d=" M 123.51 65.82 C 123.77 64.54 124.53 64.33 125.80 65.19 L 125.81 65.82 C 125.23 65.82 124.08 65.82 123.51 65.82 Z" />
<path fill="#59693c" opacity="1.00" d=" M 127.25 66.34 C 129.03 65.58 131.28 65.66 133.07 66.36 C 132.08 67.58 128.24 67.57 127.25 66.34 Z" />
<path fill="#59693c" opacity="1.00" d=" M 149.79 65.93 C 153.22 67.06 156.85 67.06 160.41 67.31 C 157.43 68.35 154.24 68.01 151.15 67.99 C 150.81 67.47 150.13 66.44 149.79 65.93 Z" />
<path fill="#59693c" opacity="1.00" d=" M 134.27 67.64 C 135.73 66.26 139.09 66.78 141.07 67.38 C 139.55 68.72 136.26 68.19 134.27 67.64 Z" />
<path fill="#59693c" opacity="1.00" d=" M 182.99 67.00 C 195.66 67.00 208.33 67.00 221.00 67.00 C 225.05 66.98 229.20 67.41 233.14 66.19 C 236.05 67.03 238.85 68.24 241.32 70.02 C 237.52 70.02 233.84 68.88 230.05 68.95 C 223.33 68.97 216.56 69.43 209.93 68.08 C 200.96 67.84 191.98 68.09 183.01 68.00 L 182.99 67.00 Z" />
<path fill="#59693c" opacity="1.00" d=" M 64.29 68.22 C 64.89 68.21 66.10 68.20 66.70 68.19 L 66.71 68.80 C 66.11 68.80 64.90 68.82 64.30 68.82 L 64.29 68.22 Z" />
<path fill="#59693c" opacity="1.00" d=" M 141.24 68.14 C 144.64 67.86 148.06 67.93 151.45 68.30 C 148.16 69.22 144.43 69.63 141.24 68.14 Z" />
<path fill="#59693c" opacity="1.00" d=" M 159.32 68.27 C 162.53 67.90 165.78 67.98 169.01 68.00 L 169.00 68.98 C 166.18 68.91 163.28 69.36 160.52 68.71 L 159.32 68.27 Z" />
<path fill="#59693c" opacity="1.00" d=" M 150.25 69.20 C 153.67 68.93 157.11 69.09 160.52 68.71 L 160.50 70.29 C 157.10 69.82 153.51 70.52 150.25 69.20 Z" />
<path fill="#59693c" opacity="1.00" d=" M 160.50 70.29 C 163.95 69.64 167.51 70.03 171.00 69.97 C 170.93 70.18 170.81 70.60 170.74 70.81 C 166.94 71.25 163.08 71.11 159.28 70.65 L 160.50 70.29 Z" />
<path fill="#59693c" opacity="1.00" d=" M 240.43 70.55 C 242.26 70.18 244.12 69.99 245.99 69.92 C 245.99 70.69 246.00 72.23 246.01 73.00 C 242.84 72.95 239.41 73.56 236.58 71.73 C 237.86 71.33 239.15 70.94 240.43 70.55 Z" />
<path fill="#59693c" opacity="1.00" d=" M 172.25 71.19 C 177.43 70.69 182.64 71.13 187.84 71.00 L 187.82 72.00 C 182.58 71.94 177.35 72.10 172.11 71.99 C 172.14 71.79 172.21 71.39 172.25 71.19 Z" />
<path fill="#59693c" opacity="1.00" d=" M 82.28 71.40 C 83.78 76.96 82.88 82.91 82.73 88.60 C 81.22 83.04 82.13 77.09 82.28 71.40 Z" />
<path fill="#59693c" opacity="1.00" d=" M 187.30 72.71 C 190.09 71.65 193.11 72.00 196.02 71.99 C 200.32 72.11 204.65 71.68 208.93 72.33 L 208.74 72.69 C 201.65 73.31 194.42 73.09 187.30 72.71 Z" />
<path fill="#59693c" opacity="1.00" d=" M 210.24 73.21 C 218.38 72.71 226.57 73.12 234.74 73.03 C 233.65 73.73 232.41 74.44 231.04 74.11 C 224.13 73.85 217.21 74.14 210.29 73.97 C 210.28 73.78 210.25 73.40 210.24 73.21 Z" />
<path fill="#59693c" opacity="1.00" d=" M 235.92 74.91 C 233.97 74.24 237.18 73.78 237.79 73.95 C 244.51 74.00 251.23 74.01 257.95 74.00 L 258.05 75.00 C 250.67 74.88 243.28 75.22 235.92 74.91 Z" />
<path fill="#59693c" opacity="1.00" d=" M 88.21 76.30 C 88.73 76.83 88.73 76.83 88.21 76.30 Z" />
<path fill="#59693c" opacity="1.00" d=" M 200.70 80.66 C 204.91 80.17 208.67 77.60 213.00 77.96 C 220.13 78.14 227.27 77.74 234.39 78.23 C 230.79 79.34 226.80 79.41 223.55 81.51 C 226.24 82.51 228.96 83.46 231.43 84.95 C 229.38 85.06 227.33 84.95 225.37 84.33 C 217.14 83.15 208.87 82.15 200.70 80.66 Z" />
</g>
<g id="#407138ff">
<path fill="#407138" opacity="1.00" d=" M 90.95 81.72 C 91.68 82.73 92.39 83.76 93.08 84.81 C 90.47 86.86 87.11 87.14 83.97 87.70 C 83.98 87.02 84.00 85.68 84.01 85.01 C 86.60 85.00 89.19 85.00 91.79 85.00 C 91.58 84.18 91.16 82.54 90.95 81.72 Z" />
<path fill="#407138" opacity="1.00" d=" M 8.48 85.32 C 11.97 84.67 15.54 85.03 19.06 84.98 C 33.05 85.01 47.03 85.04 61.01 84.95 C 63.24 84.96 65.64 84.97 67.51 86.39 C 70.85 88.64 74.35 90.67 78.18 92.00 L 3.53 92.00 C 4.84 89.58 5.23 85.90 8.48 85.32 Z" />
<path fill="#407138" opacity="1.00" d=" M 72.69 85.20 C 75.45 85.01 78.22 84.98 80.99 84.98 C 80.99 85.52 81.00 86.61 81.00 87.16 C 78.10 87.15 75.27 86.54 72.69 85.20 Z" />
<path fill="#407138" opacity="1.00" d=" M 97.96 86.73 C 99.69 85.44 101.80 84.87 103.94 84.97 C 138.97 85.03 174.00 84.98 209.03 85.01 C 215.05 85.05 221.12 84.61 227.08 85.67 C 231.74 86.47 236.33 84.78 240.99 84.95 C 254.67 85.13 268.36 84.83 282.03 85.08 C 286.07 84.88 287.21 89.03 288.49 92.00 L 87.50 92.00 C 91.24 90.79 94.74 88.97 97.96 86.73 Z" />
</g>
</svg>
