<?xml version="1.0" encoding="UTF-8" ?>
<!DOCTYPE svg PUBLIC "-//W3C//DTD SVG 1.1//EN" "http://www.w3.org/Graphics/SVG/1.1/DTD/svg11.dtd">
<svg width="400pt" height="99pt" viewBox="0 0 400 99" version="1.1" xmlns="http://www.w3.org/2000/svg">
<g id="#000000ff">
<path fill="#000000" opacity="1.00" d=" M 199.97 4.93 C 202.24 3.61 204.12 1.38 206.78 0.89 C 206.90 2.08 207.06 3.26 207.26 4.44 C 212.72 12.67 216.31 22.42 221.30 30.94 C 259.06 32.91 297.09 31.76 334.99 32.02 C 354.17 34.01 373.62 32.50 392.93 33.06 C 393.10 36.00 393.09 38.96 392.92 41.91 C 350.20 41.70 307.71 43.64 264.96 43.00 C 269.11 48.12 280.96 42.63 287.88 46.28 C 288.06 47.68 288.28 49.19 287.81 50.55 C 286.16 51.22 284.72 52.25 283.18 53.11 C 282.48 52.36 281.73 51.67 280.94 51.03 C 269.92 50.56 259.10 52.73 248.04 51.95 C 251.93 56.94 251.30 62.86 253.72 68.40 C 253.63 66.50 254.45 65.69 256.18 65.99 C 251.17 72.77 247.91 81.18 243.03 88.04 C 286.70 88.05 330.37 88.06 374.04 88.03 C 379.95 87.48 385.83 93.01 385.07 99.00 L 0.91 99.00 C 1.04 97.50 0.85 95.95 1.26 94.49 C 6.84 86.15 17.04 88.14 25.98 87.96 C 26.24 84.49 25.74 80.97 26.28 77.54 C 27.76 75.16 30.22 74.45 32.89 75.03 C 33.13 79.33 32.79 83.63 32.99 87.94 C 39.66 88.78 46.15 87.23 52.76 86.96 C 62.60 81.81 76.34 85.46 86.17 80.06 C 96.73 78.69 108.63 79.29 118.14 75.06 C 130.76 74.57 143.16 71.75 155.75 70.96 C 156.55 70.33 157.35 69.71 158.17 69.09 C 167.38 68.29 176.61 67.42 185.70 65.78 C 185.81 65.42 186.03 64.68 186.14 64.32 C 187.13 63.78 188.14 63.29 189.18 62.86 C 188.28 61.00 188.48 58.18 186.09 57.54 L 186.10 56.86 C 188.23 58.23 188.26 54.79 186.09 56.01 C 186.06 54.68 185.99 53.34 185.88 52.01 C 166.25 51.85 146.62 52.03 127.00 51.93 C 123.84 51.85 121.31 49.87 119.22 47.71 C 118.85 46.20 119.01 44.62 119.03 43.08 C 134.33 42.83 149.64 43.16 164.94 42.94 C 165.16 38.74 164.81 34.53 165.09 30.33 C 165.75 30.18 167.06 29.87 167.71 29.71 C 167.88 29.08 168.22 27.80 168.39 27.16 C 171.51 26.93 174.65 27.14 177.78 26.94 C 177.93 25.64 178.09 24.34 178.25 23.04 C 179.46 22.95 180.68 22.94 181.90 23.00 C 182.05 25.27 181.93 27.55 182.13 29.82 C 186.15 31.33 190.49 31.30 194.71 30.93 C 197.63 29.03 194.20 25.73 194.99 23.07 C 196.69 22.92 198.40 22.95 200.10 23.07 C 199.72 25.71 198.61 28.27 199.02 30.99 C 204.48 32.31 209.01 30.02 212.28 25.77 C 211.77 25.79 210.75 25.83 210.24 25.85 C 210.40 25.38 210.72 24.44 210.88 23.97 C 207.38 17.54 203.25 11.46 199.97 4.93 M 201.00 5.78 C 205.04 10.07 207.74 17.23 211.31 22.78 C 211.93 22.90 213.16 23.13 213.78 23.25 C 214.32 26.59 214.76 31.98 219.12 32.14 C 217.58 28.83 214.68 24.80 213.78 20.32 C 209.93 18.49 211.35 11.56 207.28 9.62 C 206.75 7.66 206.21 5.57 204.76 4.06 C 203.52 4.06 201.48 4.60 201.00 5.78 M 177.77 27.94 C 174.82 27.96 171.87 27.81 168.93 27.98 C 168.95 28.47 168.99 29.45 169.00 29.94 C 172.24 30.04 175.49 30.09 178.73 29.92 C 179.42 28.33 180.31 26.75 180.06 24.95 C 178.61 25.12 178.86 27.19 177.77 27.94 M 208.93 30.00 C 208.74 32.28 209.94 34.34 211.27 36.09 C 212.94 36.09 214.46 35.39 215.96 34.72 C 216.98 31.08 211.10 33.28 211.82 29.99 C 211.10 29.99 209.65 30.00 208.93 30.00 M 167.04 31.04 C 166.96 35.68 166.96 40.32 167.04 44.96 C 172.68 45.04 178.32 45.04 183.96 44.96 C 184.05 40.28 184.02 35.59 183.95 30.91 C 178.32 31.09 172.68 30.92 167.04 31.04 M 185.06 32.05 C 184.95 35.01 184.94 37.99 185.05 40.96 C 189.37 41.02 193.71 41.06 198.03 40.92 C 197.99 40.27 197.90 38.97 197.85 38.33 C 197.33 38.08 196.30 37.58 195.78 37.33 C 195.29 37.48 194.31 37.78 193.82 37.93 C 194.53 36.40 194.64 34.81 193.97 33.25 C 194.49 32.94 195.54 32.34 196.06 32.03 C 192.40 31.77 188.72 31.76 185.06 32.05 M 199.04 31.94 C 199.33 32.96 199.74 33.95 200.26 34.88 C 201.52 35.02 202.78 35.04 204.05 34.93 C 204.03 35.45 204.01 36.47 204.00 36.99 C 205.80 37.33 207.39 36.41 208.98 35.72 C 208.97 35.10 208.94 33.87 208.92 33.25 C 205.65 32.33 202.53 31.26 199.04 31.94 M 222.96 31.94 C 223.22 32.95 224.12 33.37 225.66 33.19 C 226.75 37.82 233.68 35.19 235.39 39.68 C 239.39 42.25 244.47 40.52 248.95 40.96 C 249.06 38.30 249.06 35.64 248.94 32.99 C 240.11 33.43 231.83 31.13 222.96 31.94 M 220.08 33.22 C 218.58 36.35 223.32 33.42 220.08 33.22 M 251.06 32.99 C 250.93 35.98 250.94 38.97 251.05 41.96 C 295.18 42.82 338.97 41.37 382.95 41.01 C 383.03 39.02 383.03 37.03 382.95 35.04 C 369.06 34.90 355.16 35.10 341.26 34.95 C 341.13 34.46 340.86 33.49 340.72 33.00 C 310.86 32.82 280.94 32.82 251.06 32.99 M 197.94 34.89 C 197.86 37.27 198.82 39.61 200.04 41.60 C 200.02 40.75 199.99 39.06 199.98 38.22 C 200.87 37.18 202.48 37.32 203.31 36.15 C 201.43 36.10 199.72 35.39 197.94 34.89 M 384.04 35.05 C 383.96 37.03 383.96 39.02 384.05 41.00 C 386.34 41.21 388.65 41.16 390.95 40.98 C 391.06 39.00 391.05 37.02 390.96 35.05 C 388.65 34.93 386.34 34.94 384.04 35.05 M 216.13 36.03 C 216.06 37.35 215.99 38.66 215.92 39.97 C 214.96 39.56 214.61 38.52 214.86 36.86 C 213.61 36.74 212.37 36.81 211.14 37.07 C 211.06 38.36 210.98 39.66 210.90 40.95 C 209.98 40.58 209.61 39.60 209.80 38.02 C 209.10 38.03 207.69 38.04 206.98 38.04 C 206.96 39.26 207.08 40.47 207.35 41.67 C 216.87 42.56 228.49 38.45 236.04 46.86 C 239.07 47.78 240.35 50.65 242.12 52.87 C 243.43 52.74 244.65 52.23 245.89 51.79 C 245.84 51.21 245.75 50.05 245.71 49.47 C 245.08 49.31 243.83 48.99 243.20 48.84 C 243.44 46.20 241.34 46.54 239.98 47.94 C 240.55 46.69 240.96 45.38 241.26 44.04 C 239.72 44.35 238.39 45.24 237.02 45.96 C 237.38 44.79 237.77 43.62 237.95 42.41 C 235.66 41.14 233.07 38.92 231.10 42.03 C 232.72 37.32 230.95 37.71 228.23 39.98 C 228.27 38.57 227.87 37.49 227.03 36.74 C 226.56 37.02 225.63 37.58 225.16 37.87 C 225.40 35.32 222.78 36.03 221.13 36.02 C 221.05 37.33 220.98 38.64 220.91 39.96 L 220.10 39.97 C 220.02 38.66 219.94 37.35 219.87 36.04 C 218.62 35.95 217.37 35.95 216.13 36.03 M 201.19 38.01 C 201.02 39.40 200.72 40.76 200.30 42.09 C 202.68 41.95 205.73 40.47 206.24 37.99 C 204.55 38.03 202.87 38.04 201.19 38.01 M 205.12 40.99 C 204.10 43.80 200.83 43.39 198.74 42.10 C 199.75 44.14 201.65 45.45 203.20 47.04 C 201.49 47.38 200.68 46.01 199.82 44.83 C 199.39 45.16 198.52 45.80 198.08 46.13 C 198.77 47.06 199.50 47.95 200.25 48.83 C 197.11 46.30 195.29 49.58 194.42 52.31 C 194.95 53.55 196.31 54.32 196.11 55.84 L 195.20 56.00 C 195.12 55.45 194.97 54.35 194.89 53.80 C 193.00 53.62 192.65 55.47 191.98 56.80 C 192.47 57.06 193.44 57.58 193.93 57.83 C 192.17 57.94 189.43 58.38 190.00 60.80 C 190.73 60.88 192.20 61.05 192.93 61.13 L 192.93 61.86 C 192.21 61.94 190.77 62.12 190.05 62.20 C 189.94 63.42 189.94 64.65 190.04 65.87 C 191.34 65.94 192.64 66.02 193.95 66.10 L 193.95 66.90 C 192.64 66.98 191.34 67.06 190.03 67.13 C 189.95 68.38 189.95 69.63 190.04 70.87 C 191.34 70.94 192.65 71.01 193.95 71.08 L 193.95 71.88 C 193.17 71.94 191.60 72.06 190.81 72.12 C 190.87 72.80 190.97 74.14 191.02 74.82 C 192.35 74.93 193.67 75.04 195.00 75.16 C 195.75 77.47 192.04 76.60 193.06 79.02 C 194.81 78.73 196.50 78.19 198.23 77.79 C 197.15 79.24 193.74 79.87 195.34 82.67 C 196.59 82.85 197.80 82.29 199.01 82.08 C 197.73 82.98 197.96 84.95 198.02 86.35 C 198.67 85.22 199.92 84.66 200.82 83.76 C 197.97 87.45 199.96 89.52 203.99 86.96 C 203.78 87.50 203.34 88.59 203.12 89.13 C 204.20 89.32 205.23 88.95 206.21 88.03 C 202.79 92.25 207.97 93.59 210.13 89.81 C 210.00 91.25 208.54 92.42 209.14 93.93 C 210.06 94.26 210.94 94.02 211.79 93.18 C 212.11 93.70 212.76 94.74 213.08 95.26 C 214.03 95.02 214.95 94.68 215.83 94.23 C 215.70 96.63 218.20 96.01 219.80 95.96 C 219.88 95.23 220.05 93.79 220.14 93.07 L 220.86 93.07 C 220.94 93.79 221.11 95.23 221.20 95.95 C 222.40 96.04 223.61 96.05 224.82 95.96 C 224.89 95.22 225.03 93.73 225.11 92.99 C 225.41 93.50 226.02 94.53 226.32 95.04 C 227.46 95.30 228.62 95.25 229.79 94.90 C 229.87 94.17 230.04 92.72 230.12 91.99 C 231.32 92.37 230.95 94.63 232.67 93.69 C 232.95 92.50 233.10 91.28 233.14 90.05 C 232.44 89.72 231.04 89.05 230.34 88.72 C 231.75 87.99 232.66 86.70 233.46 85.37 C 234.70 84.96 235.96 84.61 237.11 83.96 C 236.85 86.36 234.52 86.84 233.05 88.18 C 233.51 89.75 234.70 91.01 235.96 92.00 C 237.54 91.40 237.05 88.95 236.03 88.02 C 237.38 88.49 238.78 88.79 240.19 89.06 C 241.52 86.01 236.77 87.90 237.99 84.82 C 240.62 87.47 244.93 86.93 241.06 83.26 C 241.77 83.23 243.21 83.17 243.92 83.14 L 244.00 82.10 C 245.96 82.48 246.38 80.59 246.89 79.15 C 246.42 77.74 243.96 78.51 244.01 76.95 C 245.30 77.17 246.57 77.50 247.88 77.68 C 249.69 76.23 248.24 75.09 247.21 74.29 C 248.23 73.64 249.80 73.50 250.28 72.23 C 249.71 71.95 248.56 71.39 247.98 71.11 C 248.73 71.04 250.21 70.89 250.95 70.81 C 251.04 69.61 251.04 68.40 250.95 67.20 C 250.23 67.11 248.79 66.94 248.06 66.85 L 248.08 66.14 C 248.79 66.05 250.23 65.88 250.94 65.80 C 251.21 64.58 251.23 63.35 251.00 62.13 C 249.68 62.06 248.37 61.98 247.05 61.90 L 247.05 61.09 C 248.37 61.02 249.69 60.94 251.02 60.86 C 250.82 58.55 248.27 56.96 246.07 56.82 C 246.53 56.51 247.45 55.90 247.91 55.59 C 247.87 55.03 247.78 53.90 247.73 53.34 C 240.77 50.80 244.22 58.92 244.20 62.63 C 247.11 63.12 245.88 66.67 245.83 68.74 C 245.30 68.85 244.24 69.09 243.71 69.20 C 244.30 67.32 243.94 65.31 244.00 63.37 L 243.02 63.37 C 242.83 68.80 242.16 74.11 239.78 79.09 C 237.60 79.27 236.42 76.92 235.68 75.22 C 232.29 75.43 229.26 69.49 226.20 73.21 C 223.69 74.84 225.76 77.75 226.70 79.69 C 224.52 78.48 223.48 75.52 221.93 74.56 C 221.96 78.87 221.92 83.18 221.98 87.50 C 224.53 86.37 228.42 88.26 230.09 86.00 C 228.31 84.79 226.84 82.88 227.24 80.62 C 228.09 82.73 230.32 83.74 231.14 85.89 C 230.81 86.40 230.15 87.42 229.83 87.93 C 225.01 86.91 220.38 90.81 215.88 88.02 C 213.63 88.48 207.60 87.78 211.30 84.63 L 210.89 86.40 C 213.36 87.55 216.43 86.81 219.02 88.07 C 218.94 84.53 220.25 68.69 216.17 77.07 C 216.20 72.81 214.93 74.65 214.13 77.35 C 213.17 78.99 215.30 79.19 215.81 77.84 C 214.36 80.04 214.08 83.01 211.51 84.29 C 211.68 83.14 212.03 80.83 212.20 79.68 C 210.14 80.39 211.15 83.48 209.70 84.95 C 206.91 85.65 203.64 82.29 204.13 79.60 C 205.24 81.30 206.49 84.29 208.86 83.97 C 210.08 82.03 210.30 79.60 212.14 78.01 C 209.84 77.99 207.54 77.93 205.26 77.70 C 206.60 77.21 207.23 76.26 207.15 74.85 C 204.95 74.37 205.20 76.87 203.63 77.54 C 204.93 72.62 212.28 72.05 213.81 67.93 C 213.91 68.62 214.10 70.01 214.20 70.71 C 217.26 75.19 225.77 74.81 227.19 69.16 C 229.40 64.97 226.02 59.36 221.77 58.21 C 223.22 57.80 223.13 55.76 224.83 55.55 C 224.79 57.65 226.45 59.08 227.35 60.82 C 229.10 61.60 230.58 60.87 230.31 58.79 C 229.44 58.87 227.70 59.04 226.83 59.12 L 226.79 57.93 C 228.59 58.34 230.06 57.50 231.65 56.89 C 231.35 57.40 230.74 58.43 230.44 58.95 C 231.09 58.68 232.38 58.14 233.02 57.87 L 232.96 59.10 C 235.69 59.40 238.20 58.57 240.75 57.75 C 239.15 53.25 235.96 58.81 233.23 58.00 C 233.89 57.52 235.21 56.55 235.87 56.06 C 234.37 55.85 233.12 56.13 232.14 56.92 C 232.04 56.24 231.84 54.89 231.74 54.21 C 230.75 53.52 229.72 52.85 228.54 52.55 C 229.85 51.63 230.40 50.36 230.20 48.75 C 227.89 48.37 227.94 50.18 227.91 51.89 L 226.80 51.78 C 227.64 48.97 225.07 46.74 223.24 45.04 C 225.36 44.95 227.49 44.94 229.62 45.01 L 229.62 46.00 C 228.01 45.68 226.75 45.92 225.84 46.70 C 226.58 47.70 227.29 48.52 227.96 49.15 C 226.85 46.46 230.34 47.79 229.93 45.73 C 230.61 46.13 231.95 46.94 232.62 47.34 C 229.28 50.54 231.36 55.62 236.25 54.18 C 236.24 51.47 234.72 49.16 232.48 47.74 C 235.95 47.26 235.86 51.40 238.28 52.77 C 237.85 53.16 236.99 53.94 236.56 54.34 C 237.42 54.13 239.12 53.71 239.98 53.50 C 240.70 56.76 242.96 59.33 242.06 63.13 L 243.10 63.19 C 244.36 56.33 239.44 51.87 236.04 46.86 C 235.36 46.86 234.01 46.88 233.33 46.88 C 232.30 45.27 229.95 45.21 229.64 43.16 C 223.21 42.23 217.57 42.05 211.16 43.04 C 210.85 46.20 206.27 46.33 203.89 47.79 C 204.91 45.41 208.23 45.62 209.16 43.28 C 207.75 42.63 206.38 41.89 205.12 40.99 M 185.01 42.04 L 184.99 42.97 C 189.32 43.04 193.66 43.04 197.99 42.96 L 198.01 42.03 C 193.67 41.97 189.34 41.97 185.01 42.04 M 240.59 42.97 C 243.39 43.05 246.20 42.99 249.00 43.00 L 249.00 42.01 C 246.29 42.47 242.67 40.92 240.59 42.97 M 119.98 45.06 C 119.99 45.74 120.01 47.09 120.02 47.76 C 121.79 48.98 125.13 48.22 125.33 50.96 C 146.74 51.17 168.21 51.28 189.64 50.90 C 190.05 49.88 190.58 48.92 191.23 48.03 C 192.11 48.10 192.97 48.35 193.80 48.78 C 194.81 47.68 196.40 46.81 196.06 45.06 C 185.05 44.53 173.86 47.86 162.98 45.01 C 148.65 45.02 134.31 44.92 119.98 45.06 M 242.89 45.02 C 243.39 45.87 243.86 46.74 244.31 47.63 C 245.87 48.17 246.91 49.31 247.37 50.90 C 253.19 51.39 259.10 51.08 264.95 50.99 C 265.05 49.01 265.06 47.03 264.96 45.05 C 257.61 44.94 250.25 45.00 242.89 45.02 M 267.01 45.96 C 267.01 46.71 267.01 48.20 267.01 48.95 C 272.66 49.05 278.32 49.04 283.98 48.95 C 283.98 48.20 283.98 46.71 283.97 45.96 C 278.32 45.90 272.66 45.77 267.01 45.96 M 285.11 47.20 C 283.61 50.44 288.28 47.47 285.11 47.20 M 230.20 48.75 C 230.96 48.01 230.96 48.01 230.20 48.75 M 191.25 49.92 C 191.46 53.33 194.31 48.28 191.25 49.92 M 283.13 51.13 C 283.94 51.94 283.94 51.94 283.13 51.13 M 189.00 53.14 C 188.99 54.50 188.99 55.85 189.00 57.20 C 189.49 56.86 190.49 56.17 190.99 55.82 C 191.00 54.49 191.00 53.16 191.00 51.83 C 190.50 52.16 189.50 52.82 189.00 53.14 M 236.13 55.06 C 236.94 55.89 236.94 55.89 236.13 55.06 M 237.65 60.85 C 236.15 61.21 234.60 60.84 233.08 60.96 C 232.44 62.95 229.65 61.54 228.08 62.09 C 228.06 62.58 228.00 63.55 227.97 64.04 C 232.51 63.98 237.05 64.02 241.60 64.00 C 241.18 62.35 240.99 60.67 240.85 58.98 C 239.32 58.69 237.86 59.11 237.65 60.85 M 233.08 60.96 C 232.19 60.00 232.19 60.00 233.08 60.96 M 188.23 65.14 C 188.82 65.74 188.82 65.74 188.23 65.14 M 229.99 66.03 L 230.00 66.96 C 234.00 67.04 238.01 67.04 242.01 66.97 L 241.99 66.04 C 237.99 65.96 233.99 65.96 229.99 66.03 M 174.14 67.97 C 171.45 70.73 165.32 66.40 164.73 70.96 C 154.26 70.83 144.52 73.99 134.13 73.98 C 131.71 76.55 126.07 72.62 125.74 76.96 C 117.62 76.45 110.17 79.26 102.13 79.00 C 99.69 81.53 94.08 77.62 93.74 81.96 C 85.95 81.41 78.81 84.15 71.14 83.96 C 68.46 86.75 62.29 82.39 61.75 86.96 C 53.05 87.53 44.34 87.94 36.09 90.29 C 34.95 95.47 42.22 94.44 45.14 93.07 C 53.49 93.50 61.37 91.40 69.74 91.95 C 69.87 91.47 70.13 90.52 70.26 90.05 C 87.93 90.06 105.05 86.96 122.73 86.95 C 122.86 86.47 123.14 85.53 123.27 85.05 C 136.31 85.29 148.83 82.71 161.87 82.93 C 165.77 80.00 173.47 84.69 175.27 80.05 C 180.48 79.42 186.13 81.25 190.96 78.73 C 190.10 74.87 188.51 71.11 188.94 67.06 C 183.81 66.27 179.30 68.67 174.14 67.97 M 228.08 68.09 C 228.08 68.75 228.06 70.08 228.05 70.74 C 231.65 72.56 235.93 73.75 238.06 77.11 C 242.15 76.62 240.60 70.88 241.50 67.97 C 237.03 67.99 232.55 67.78 228.08 68.09 M 211.86 72.15 C 212.40 75.15 215.42 70.63 211.86 72.15 M 210.09 73.13 C 210.90 73.95 210.90 73.95 210.09 73.13 M 208.83 76.92 C 210.59 77.04 212.40 76.91 214.13 77.35 C 214.07 76.46 213.96 74.69 213.90 73.80 C 212.02 74.35 208.63 74.22 208.83 76.92 M 220.03 75.00 C 219.96 79.33 219.96 83.67 220.03 88.01 L 220.96 88.00 C 221.04 83.67 221.03 79.33 220.97 75.00 L 220.03 75.00 M 27.03 87.96 C 28.68 88.03 30.34 88.02 32.00 87.95 C 32.27 84.31 32.17 80.66 31.97 77.02 C 25.01 75.24 26.97 83.82 27.03 87.96 M 188.63 81.84 C 172.97 82.13 157.57 84.18 142.00 84.95 C 139.83 85.31 136.16 83.74 135.63 86.86 C 131.53 87.24 127.39 86.86 123.27 87.00 L 123.58 88.07 C 148.41 88.01 173.25 88.08 198.09 88.03 C 197.62 87.69 196.70 87.01 196.24 86.67 C 196.40 83.76 193.39 82.55 192.59 80.01 C 190.92 79.68 188.90 79.73 188.63 81.84 M 2.99 97.92 C 73.31 98.06 143.66 98.04 213.98 97.93 C 213.98 97.50 213.98 96.64 213.98 96.22 C 206.04 97.09 202.88 87.38 195.00 88.98 C 158.43 89.62 121.68 87.74 85.25 90.18 C 80.89 94.14 74.21 90.56 69.00 92.78 C 52.95 92.92 37.16 96.47 21.07 96.01 C 21.95 93.57 23.14 91.27 24.08 88.87 C 16.23 88.41 4.07 87.69 2.99 97.92 M 25.20 90.26 C 26.02 93.18 22.37 92.44 22.98 94.94 C 27.33 95.08 31.68 94.98 36.03 94.99 C 35.71 93.40 35.14 91.87 34.75 90.30 C 31.90 88.39 28.09 88.51 25.20 90.26 M 227.01 96.20 C 227.01 96.63 227.02 97.49 227.03 97.92 C 279.35 98.04 331.69 98.07 384.02 97.91 C 384.88 93.35 379.07 92.81 377.53 89.38 C 333.42 88.40 289.15 89.51 244.99 88.83 C 237.80 88.32 234.47 96.81 227.01 96.20 Z" />
<path fill="#000000" opacity="1.00" d=" M 170.05 33.05 C 173.35 32.94 176.65 32.95 179.95 33.04 C 180.06 36.01 180.06 38.99 179.95 41.95 C 176.65 42.05 173.35 42.05 170.05 41.95 C 169.94 38.99 169.94 36.01 170.05 33.05 M 172.04 35.05 C 171.94 37.01 171.94 38.99 172.04 40.95 C 174.34 41.06 176.65 41.06 178.96 40.95 C 179.06 38.98 179.05 37.01 178.96 35.04 C 176.65 34.94 174.34 34.93 172.04 35.05 Z" />
<path fill="#000000" opacity="1.00" d=" M 204.05 34.93 C 208.27 35.32 203.72 30.72 204.05 34.93 Z" />
<path fill="#000000" opacity="1.00" d=" M 211.29 45.06 C 216.05 46.37 218.10 41.57 222.85 43.05 C 221.49 47.96 222.29 53.15 221.77 58.21 C 219.89 57.78 218.17 58.78 216.44 59.32 C 215.08 60.93 214.48 63.51 212.28 64.16 C 212.20 61.75 209.34 61.30 208.85 59.14 C 209.87 58.09 209.87 58.09 208.85 59.14 C 205.56 58.65 203.07 54.16 199.76 57.24 C 200.61 56.03 201.04 54.70 201.07 53.25 C 197.78 54.30 196.95 61.60 198.95 63.20 C 199.05 61.25 198.97 59.30 199.00 57.35 L 200.04 57.44 C 200.12 59.64 199.89 61.83 199.53 64.00 C 203.78 64.10 208.03 63.83 212.28 64.16 C 212.14 65.42 212.01 66.69 211.88 67.96 C 207.64 68.14 203.40 67.90 199.16 68.00 C 200.09 70.06 200.04 72.33 200.09 74.54 L 199.01 74.69 C 199.01 72.90 199.01 71.12 198.99 69.34 C 196.54 70.35 198.66 74.89 199.02 77.24 C 191.48 69.17 195.33 53.81 203.89 47.79 C 203.74 50.01 201.15 50.89 200.91 52.87 C 201.40 52.92 202.38 53.03 202.87 53.08 C 203.50 58.22 207.39 53.94 202.87 53.08 C 204.31 51.17 205.34 48.85 207.34 47.45 C 206.47 49.25 205.49 51.00 204.59 52.79 C 205.53 53.73 206.77 54.48 207.04 55.89 C 207.02 56.14 206.99 56.65 206.97 56.90 C 207.76 57.86 207.76 57.86 206.97 56.90 L 207.04 55.89 C 209.32 56.27 213.72 60.19 214.26 56.17 C 216.98 54.33 212.57 53.15 214.26 56.17 C 210.36 55.39 210.95 49.39 207.62 47.22 C 208.78 46.72 209.96 46.30 211.18 45.95 C 211.55 46.90 211.86 47.87 212.09 48.86 L 210.93 49.05 C 210.07 48.03 210.07 48.03 210.93 49.05 C 210.98 49.86 211.08 51.48 211.13 52.29 C 212.54 51.59 211.45 49.27 213.03 48.79 C 215.12 51.40 215.69 55.69 217.97 58.18 C 219.95 57.18 218.70 54.03 219.01 52.14 C 216.99 48.90 214.85 45.74 211.29 45.06 M 218.17 45.04 C 212.68 47.03 221.91 49.42 218.17 45.04 M 220.04 45.00 C 219.95 49.00 219.98 53.01 220.04 57.01 L 220.96 57.00 C 221.04 53.00 221.01 49.00 220.97 45.00 L 220.04 45.00 M 215.07 56.98 C 215.88 57.80 215.88 57.80 215.07 56.98 M 211.11 59.27 C 211.07 64.36 217.18 57.28 211.11 59.27 M 196.04 62.78 C 196.57 65.03 194.39 69.73 198.17 69.24 C 197.99 67.34 198.00 65.44 198.02 63.54 C 197.53 63.35 196.54 62.97 196.04 62.78 M 198.99 66.03 L 199.01 66.96 C 203.01 67.00 207.00 67.05 211.00 66.97 L 211.00 66.03 C 207.00 65.96 202.99 65.97 198.99 66.03 Z" />
<path fill="#000000" opacity="1.00" d=" M 235.10 43.15 C 238.34 43.35 233.58 46.23 235.10 43.15 Z" />
<path fill="#000000" opacity="1.00" d=" M 204.24 44.08 C 204.80 44.64 204.80 44.64 204.24 44.08 Z" />
<path fill="#000000" opacity="1.00" d=" M 242.25 50.07 C 242.81 50.63 242.81 50.63 242.25 50.07 Z" />
<path fill="#000000" opacity="1.00" d=" M 196.26 51.12 C 200.28 49.20 197.57 54.51 196.26 51.12 Z" />
<path fill="#000000" opacity="1.00" d=" M 225.19 53.39 C 225.59 52.99 226.40 52.18 226.80 51.78 C 228.61 53.52 227.93 55.86 226.78 57.74 C 226.55 57.35 226.09 56.56 225.85 56.17 C 228.94 55.20 225.09 52.67 225.85 56.17 L 224.83 55.55 C 224.92 55.01 225.10 53.93 225.19 53.39 Z" />
<path fill="#000000" opacity="1.00" d=" M 220.11 59.20 C 223.28 59.49 218.60 62.42 220.11 59.20 Z" />
<path fill="#000000" opacity="1.00" d=" M 216.81 60.83 C 218.87 61.19 221.29 63.27 222.92 60.73 C 222.88 61.63 222.80 63.42 222.76 64.32 C 224.03 64.13 225.14 63.61 226.09 62.76 C 225.05 64.66 224.10 67.43 226.28 68.96 C 225.33 68.84 223.43 68.59 222.48 68.47 C 222.60 69.42 222.83 71.32 222.95 72.27 C 221.18 69.59 218.87 72.03 216.67 72.04 C 217.31 71.56 218.59 70.59 219.23 70.10 C 218.24 68.66 216.74 68.24 214.72 68.85 C 216.88 67.43 215.96 64.61 214.91 62.79 C 215.48 63.04 216.64 63.55 217.22 63.81 C 217.07 65.24 216.93 66.66 216.81 68.09 C 220.44 70.51 225.37 67.58 221.95 63.08 C 220.00 62.44 218.93 63.62 217.32 64.10 C 218.11 62.88 217.94 61.79 216.81 60.83 Z" />
<path fill="#000000" opacity="1.00" d=" M 185.92 62.97 C 185.91 62.77 185.89 62.38 185.88 62.18 L 185.92 62.97 Z" />
<path fill="#000000" opacity="1.00" d=" M 214.13 66.13 C 214.94 66.94 214.94 66.94 214.13 66.13 Z" />
<path fill="#000000" opacity="1.00" d=" M 226.13 66.13 C 226.94 66.94 226.94 66.94 226.13 66.13 Z" />
<path fill="#000000" opacity="1.00" d=" M 243.12 75.02 C 242.83 73.29 242.56 71.41 243.48 69.81 C 244.57 71.39 244.66 73.69 243.12 75.02 Z" />
<path fill="#000000" opacity="1.00" d=" M 220.13 72.13 C 220.93 72.94 220.93 72.94 220.13 72.13 Z" />
<path fill="#000000" opacity="1.00" d=" M 228.37 73.55 C 228.54 73.55 228.86 73.55 229.03 73.54 L 228.37 73.55 Z" />
<path fill="#000000" opacity="1.00" d=" M 230.20 74.28 C 230.38 74.34 230.75 74.46 230.94 74.52 C 230.75 74.46 230.38 74.34 230.20 74.28 Z" />
<path fill="#000000" opacity="1.00" d=" M 200.11 75.25 C 205.78 77.38 200.56 81.24 200.11 75.25 Z" />
<path fill="#000000" opacity="1.00" d=" M 226.57 75.69 C 226.57 75.55 226.58 75.27 226.59 75.13 L 226.57 75.69 Z" />
<path fill="#000000" opacity="1.00" d=" M 232.22 75.86 C 232.93 75.73 235.17 76.89 235.06 77.79 C 233.73 78.52 231.69 77.55 232.22 75.86 Z" />
<path fill="#000000" opacity="1.00" d=" M 241.08 79.24 C 241.33 77.92 241.68 76.33 243.02 75.70 C 243.63 77.27 242.78 78.98 241.08 79.24 Z" />
<path fill="#000000" opacity="1.00" d=" M 226.53 76.61 C 227.72 77.73 228.92 78.87 230.35 79.71 C 231.00 81.09 231.45 82.56 231.91 84.02 C 234.37 83.28 235.93 81.31 237.51 79.44 C 237.29 82.62 234.14 83.86 231.93 85.34 C 231.32 84.46 230.70 83.60 230.07 82.75 C 230.05 82.09 230.01 80.79 229.99 80.13 C 227.86 80.43 226.84 78.38 226.53 76.61 Z" />
<path fill="#000000" opacity="1.00" d=" M 199.19 77.66 C 201.65 82.58 206.50 85.42 210.64 88.94 C 205.58 87.37 199.72 83.32 199.19 77.66 Z" />
<path fill="#000000" opacity="1.00" d=" M 204.32 78.44 L 204.56 78.25 C 204.49 78.37 204.34 78.61 204.27 78.74 L 204.32 78.44 Z" />
<path fill="#000000" opacity="1.00" d=" M 237.11 83.96 C 237.68 82.02 239.66 81.19 240.96 79.82 C 241.56 82.26 239.45 84.14 237.11 83.96 Z" />
<path fill="#000000" opacity="1.00" d=" M 244.00 82.10 C 244.47 77.37 239.21 82.28 244.00 82.10 Z" />
<path fill="#000000" opacity="1.00" d=" M 211.33 84.58 C 211.37 84.52 211.44 84.40 211.47 84.34 C 211.44 84.40 211.37 84.52 211.33 84.58 Z" />
<path fill="#000000" opacity="1.00" d=" M 211.03 89.22 C 212.71 88.80 214.64 88.50 216.18 89.52 C 214.60 90.48 212.37 90.72 211.03 89.22 Z" />
<path fill="#000000" opacity="1.00" d=" M 223.84 89.51 C 225.67 88.44 227.85 88.98 229.84 89.07 C 228.37 90.91 225.69 90.46 223.84 89.51 Z" />
<path fill="#000000" opacity="1.00" d=" M 216.76 89.82 C 218.91 90.08 221.10 90.09 223.26 89.81 C 223.46 93.16 216.54 93.17 216.76 89.82 Z" />
</g>
<g id="#a0bc83ff">
<path fill="#a0bc83" opacity="1.00" d=" M 201.00 5.78 C 201.48 4.60 203.52 4.06 204.76 4.06 C 206.21 5.57 206.75 7.66 207.28 9.62 C 211.35 11.56 209.93 18.49 213.78 20.32 C 214.68 24.80 217.58 28.83 219.12 32.14 C 214.76 31.98 214.32 26.59 213.78 23.25 C 213.16 23.13 211.93 22.90 211.31 22.78 C 207.74 17.23 205.04 10.07 201.00 5.78 Z" />
<path fill="#a0bc83" opacity="1.00" d=" M 177.77 27.94 C 178.86 27.19 178.61 25.12 180.06 24.95 C 180.31 26.75 179.42 28.33 178.73 29.92 C 175.49 30.09 172.24 30.04 169.00 29.94 C 168.99 29.45 168.95 28.47 168.93 27.98 C 171.87 27.81 174.82 27.96 177.77 27.94 Z" />
<path fill="#a0bc83" opacity="1.00" d=" M 208.93 30.00 C 209.65 30.00 211.10 29.99 211.82 29.99 C 211.10 33.28 216.98 31.08 215.96 34.72 C 214.46 35.39 212.94 36.09 211.27 36.09 C 209.94 34.34 208.74 32.28 208.93 30.00 Z" />
<path fill="#a0bc83" opacity="1.00" d=" M 167.04 31.04 C 172.68 30.92 178.32 31.09 183.95 30.91 C 184.02 35.59 184.05 40.28 183.96 44.96 C 178.32 45.04 172.68 45.04 167.04 44.96 C 166.96 40.32 166.96 35.68 167.04 31.04 M 170.05 33.05 C 169.94 36.01 169.94 38.99 170.05 41.95 C 173.35 42.05 176.65 42.05 179.95 41.95 C 180.06 38.99 180.06 36.01 179.95 33.04 C 176.65 32.95 173.35 32.94 170.05 33.05 Z" />
<path fill="#a0bc83" opacity="1.00" d=" M 185.06 32.05 C 188.72 31.76 192.40 31.77 196.06 32.03 C 195.54 32.34 194.49 32.94 193.97 33.25 C 194.64 34.81 194.53 36.40 193.82 37.93 C 194.31 37.78 195.29 37.48 195.78 37.33 C 196.30 37.58 197.33 38.08 197.85 38.33 C 197.90 38.97 197.99 40.27 198.03 40.92 C 193.71 41.06 189.37 41.02 185.05 40.96 C 184.94 37.99 184.95 35.01 185.06 32.05 Z" />
<path fill="#a0bc83" opacity="1.00" d=" M 199.04 31.94 C 202.53 31.26 205.65 32.33 208.92 33.25 C 208.94 33.87 208.97 35.10 208.98 35.72 C 207.39 36.41 205.80 37.33 204.00 36.99 C 204.01 36.47 204.03 35.45 204.05 34.93 C 208.27 35.32 203.72 30.72 204.05 34.93 C 202.78 35.04 201.52 35.02 200.26 34.88 C 199.74 33.95 199.33 32.96 199.04 31.94 Z" />
<path fill="#a0bc83" opacity="1.00" d=" M 222.96 31.94 C 231.83 31.13 240.11 33.43 248.94 32.99 C 249.06 35.64 249.06 38.30 248.95 40.96 C 244.47 40.52 239.39 42.25 235.39 39.68 C 233.68 35.19 226.75 37.82 225.66 33.19 C 224.12 33.37 223.22 32.95 222.96 31.94 Z" />
<path fill="#a0bc83" opacity="1.00" d=" M 251.06 32.99 C 280.94 32.82 310.86 32.82 340.72 33.00 C 340.86 33.49 341.13 34.46 341.26 34.95 C 355.16 35.10 369.06 34.90 382.95 35.04 C 383.03 37.03 383.03 39.02 382.95 41.01 C 338.97 41.37 295.18 42.82 251.05 41.96 C 250.94 38.97 250.93 35.98 251.06 32.99 Z" />
<path fill="#a0bc83" opacity="1.00" d=" M 172.04 35.05 C 174.34 34.93 176.65 34.94 178.96 35.04 C 179.05 37.01 179.06 38.98 178.96 40.95 C 176.65 41.06 174.34 41.06 172.04 40.95 C 171.94 38.99 171.94 37.01 172.04 35.05 Z" />
<path fill="#a0bc83" opacity="1.00" d=" M 197.94 34.89 C 199.72 35.39 201.43 36.10 203.31 36.15 C 202.48 37.32 200.87 37.18 199.98 38.22 C 199.99 39.06 200.02 40.75 200.04 41.60 C 198.82 39.61 197.86 37.27 197.94 34.89 Z" />
<path fill="#a0bc83" opacity="1.00" d=" M 384.04 35.05 C 386.34 34.94 388.65 34.93 390.96 35.05 C 391.05 37.02 391.06 39.00 390.95 40.98 C 388.65 41.16 386.34 41.21 384.05 41.00 C 383.96 39.02 383.96 37.03 384.04 35.05 Z" />
<path fill="#a0bc83" opacity="1.00" d=" M 201.19 38.01 C 202.87 38.04 204.55 38.03 206.24 37.99 C 205.73 40.47 202.68 41.95 200.30 42.09 C 200.72 40.76 201.02 39.40 201.19 38.01 Z" />
<path fill="#a0bc83" opacity="1.00" d=" M 185.01 42.04 C 189.34 41.97 193.67 41.97 198.01 42.03 L 197.99 42.96 C 193.66 43.04 189.32 43.04 184.99 42.97 L 185.01 42.04 Z" />
<path fill="#a0bc83" opacity="1.00" d=" M 211.16 43.04 C 217.57 42.05 223.21 42.23 229.64 43.16 C 229.95 45.21 232.30 45.27 233.33 46.88 C 234.01 46.88 235.36 46.86 236.04 46.86 C 239.44 51.87 244.36 56.33 243.10 63.19 L 242.06 63.13 C 242.96 59.33 240.70 56.76 239.98 53.50 C 239.12 53.71 237.42 54.13 236.56 54.34 C 236.99 53.94 237.85 53.16 238.28 52.77 C 235.86 51.40 235.95 47.26 232.48 47.74 C 234.72 49.16 236.24 51.47 236.25 54.18 C 231.36 55.62 229.28 50.54 232.62 47.34 C 231.95 46.94 230.61 46.13 229.93 45.73 C 230.34 47.79 226.85 46.46 227.96 49.15 C 227.29 48.52 226.58 47.70 225.84 46.70 C 226.75 45.92 228.01 45.68 229.62 46.00 L 229.62 45.01 C 227.49 44.94 225.36 44.95 223.24 45.04 C 225.07 46.74 227.64 48.97 226.80 51.78 C 226.40 52.18 225.59 52.99 225.19 53.39 C 225.10 53.93 224.92 55.01 224.83 55.55 C 223.13 55.76 223.22 57.80 221.77 58.21 C 222.29 53.15 221.49 47.96 222.85 43.05 C 218.10 41.57 216.05 46.37 211.29 45.06 C 214.85 45.74 216.99 48.90 219.01 52.14 C 218.70 54.03 219.95 57.18 217.97 58.18 C 215.69 55.69 215.12 51.40 213.03 48.79 C 211.45 49.27 212.54 51.59 211.13 52.29 C 211.08 51.48 210.98 49.86 210.93 49.05 L 212.09 48.86 C 211.86 47.87 211.55 46.90 211.18 45.95 C 209.96 46.30 208.78 46.72 207.62 47.22 C 210.95 49.39 210.36 55.39 214.26 56.17 C 213.72 60.19 209.32 56.27 207.04 55.89 C 206.77 54.48 205.53 53.73 204.59 52.79 C 205.49 51.00 206.47 49.25 207.34 47.45 C 205.34 48.85 204.31 51.17 202.87 53.08 C 202.38 53.03 201.40 52.92 200.91 52.87 C 201.15 50.89 203.74 50.01 203.89 47.79 C 206.27 46.33 210.85 46.20 211.16 43.04 Z" />
<path fill="#a0bc83" opacity="1.00" d=" M 240.59 42.97 C 242.67 40.92 246.29 42.47 249.00 42.01 L 249.00 43.00 C 246.20 42.99 243.39 43.05 240.59 42.97 Z" />
<path fill="#a0bc83" opacity="1.00" d=" M 119.98 45.06 C 134.31 44.92 148.65 45.02 162.98 45.01 C 173.86 47.86 185.05 44.53 196.06 45.06 C 196.40 46.81 194.81 47.68 193.80 48.78 C 192.97 48.35 192.11 48.10 191.23 48.03 C 190.58 48.92 190.05 49.88 189.64 50.90 C 168.21 51.28 146.74 51.17 125.33 50.96 C 125.13 48.22 121.79 48.98 120.02 47.76 C 120.01 47.09 119.99 45.74 119.98 45.06 Z" />
<path fill="#a0bc83" opacity="1.00" d=" M 218.17 45.04 C 221.91 49.42 212.68 47.03 218.17 45.04 Z" />
<path fill="#a0bc83" opacity="1.00" d=" M 220.04 45.00 L 220.97 45.00 C 221.01 49.00 221.04 53.00 220.96 57.00 L 220.04 57.01 C 219.98 53.01 219.95 49.00 220.04 45.00 Z" />
<path fill="#a0bc83" opacity="1.00" d=" M 242.89 45.02 C 250.25 45.00 257.61 44.94 264.96 45.05 C 265.06 47.03 265.05 49.01 264.95 50.99 C 259.10 51.08 253.19 51.39 247.37 50.90 C 246.91 49.31 245.87 48.17 244.31 47.63 C 243.86 46.74 243.39 45.87 242.89 45.02 Z" />
<path fill="#a0bc83" opacity="1.00" d=" M 267.01 45.96 C 272.66 45.77 278.32 45.90 283.97 45.96 C 283.98 46.71 283.98 48.20 283.98 48.95 C 278.32 49.04 272.66 49.05 267.01 48.95 C 267.01 48.20 267.01 46.71 267.01 45.96 Z" />
<path fill="#a0bc83" opacity="1.00" d=" M 285.11 47.20 C 288.28 47.47 283.61 50.44 285.11 47.20 Z" />
<path fill="#a0bc83" opacity="1.00" d=" M 210.93 49.05 C 210.07 48.03 210.07 48.03 210.93 49.05 Z" />
<path fill="#a0bc83" opacity="1.00" d=" M 230.20 48.75 C 230.96 48.01 230.96 48.01 230.20 48.75 Z" />
<path fill="#a0bc83" opacity="1.00" d=" M 227.91 51.89 C 227.94 50.18 227.89 48.37 230.20 48.75 C 230.40 50.36 229.85 51.63 228.54 52.55 C 229.72 52.85 230.75 53.52 231.74 54.21 C 231.84 54.89 232.04 56.24 232.14 56.92 C 233.12 56.13 234.37 55.85 235.87 56.06 C 235.21 56.55 233.89 57.52 233.23 58.00 C 235.96 58.81 239.15 53.25 240.75 57.75 C 238.20 58.57 235.69 59.40 232.96 59.10 L 233.02 57.87 C 232.38 58.14 231.09 58.68 230.44 58.95 C 230.74 58.43 231.35 57.40 231.65 56.89 C 230.06 57.50 228.59 58.34 226.79 57.93 L 226.83 59.12 C 227.70 59.04 229.44 58.87 230.31 58.79 C 230.58 60.87 229.10 61.60 227.35 60.82 C 226.45 59.08 224.79 57.65 224.83 55.55 L 225.85 56.17 C 226.09 56.56 226.55 57.35 226.78 57.74 C 227.93 55.86 228.61 53.52 226.80 51.78 L 227.91 51.89 Z" />
<path fill="#a0bc83" opacity="1.00" d=" M 283.13 51.13 C 283.94 51.94 283.94 51.94 283.13 51.13 Z" />
<path fill="#a0bc83" opacity="1.00" d=" M 189.00 53.14 C 189.50 52.82 190.50 52.16 191.00 51.83 C 191.00 53.16 191.00 54.49 190.99 55.82 C 190.49 56.17 189.49 56.86 189.00 57.20 C 188.99 55.85 188.99 54.50 189.00 53.14 Z" />
<path fill="#a0bc83" opacity="1.00" d=" M 202.87 53.08 C 203.50 58.22 207.39 53.94 202.87 53.08 Z" />
<path fill="#a0bc83" opacity="1.00" d=" M 198.95 63.20 C 196.95 61.60 197.78 54.30 201.07 53.25 C 201.04 54.70 200.61 56.03 199.76 57.24 C 203.07 54.16 205.56 58.65 208.85 59.14 C 209.34 61.30 212.20 61.75 212.28 64.16 C 208.03 63.83 203.78 64.10 199.53 64.00 C 199.89 61.83 200.12 59.64 200.04 57.44 L 199.00 57.35 C 198.97 59.30 199.05 61.25 198.95 63.20 Z" />
<path fill="#a0bc83" opacity="1.00" d=" M 214.26 56.17 C 216.98 54.33 212.57 53.15 214.26 56.17 Z" />
<path fill="#a0bc83" opacity="1.00" d=" M 225.85 56.17 C 228.94 55.20 225.09 52.67 225.85 56.17 Z" />
<path fill="#a0bc83" opacity="1.00" d=" M 236.13 55.06 C 236.94 55.89 236.94 55.89 236.13 55.06 Z" />
<path fill="#a0bc83" opacity="1.00" d=" M 206.97 56.90 C 206.99 56.65 207.02 56.14 207.04 55.89 L 206.97 56.90 Z" />
<path fill="#a0bc83" opacity="1.00" d=" M 206.97 56.90 C 207.76 57.86 207.76 57.86 206.97 56.90 Z" />
<path fill="#a0bc83" opacity="1.00" d=" M 215.07 56.98 C 215.88 57.80 215.88 57.80 215.07 56.98 Z" />
<path fill="#a0bc83" opacity="1.00" d=" M 186.09 57.54 C 188.48 58.18 188.28 61.00 189.18 62.86 C 188.14 63.29 187.13 63.78 186.14 64.32 L 185.92 62.97 L 185.88 62.18 C 185.97 60.63 186.04 59.09 186.09 57.54 Z" />
<path fill="#a0bc83" opacity="1.00" d=" M 208.85 59.14 C 209.87 58.09 209.87 58.09 208.85 59.14 Z" />
<path fill="#a0bc83" opacity="1.00" d=" M 216.44 59.32 C 218.17 58.78 219.89 57.78 221.77 58.21 C 226.02 59.36 229.40 64.97 227.19 69.16 C 225.77 74.81 217.26 75.19 214.20 70.71 C 214.10 70.01 213.91 68.62 213.81 67.93 C 212.28 72.05 204.93 72.62 203.63 77.54 C 205.20 76.87 204.95 74.37 207.15 74.85 C 207.23 76.26 206.60 77.21 205.26 77.70 L 204.56 78.25 L 204.32 78.44 L 204.27 78.74 L 204.13 79.60 C 203.64 82.29 206.91 85.65 209.70 84.95 C 211.15 83.48 210.14 80.39 212.20 79.68 C 212.03 80.83 211.68 83.14 211.51 84.29 L 211.47 84.34 C 211.44 84.40 211.37 84.52 211.33 84.58 L 211.30 84.63 C 207.60 87.78 213.63 88.48 215.88 88.02 C 220.38 90.81 225.01 86.91 229.83 87.93 C 230.15 87.42 230.81 86.40 231.14 85.89 C 230.32 83.74 228.09 82.73 227.24 80.62 C 227.10 80.39 226.83 79.92 226.70 79.69 C 225.76 77.75 223.69 74.84 226.20 73.21 C 229.26 69.49 232.29 75.43 235.68 75.22 C 236.42 76.92 237.60 79.27 239.78 79.09 C 242.16 74.11 242.83 68.80 243.02 63.37 L 244.00 63.37 C 243.94 65.31 244.30 67.32 243.71 69.20 L 243.48 69.81 C 242.56 71.41 242.83 73.29 243.12 75.02 L 243.02 75.70 C 241.68 76.33 241.33 77.92 241.08 79.24 L 240.96 79.82 C 239.66 81.19 237.68 82.02 237.11 83.96 C 235.96 84.61 234.70 84.96 233.46 85.37 C 232.66 86.70 231.75 87.99 230.34 88.72 L 229.84 89.07 C 227.85 88.98 225.67 88.44 223.84 89.51 L 223.26 89.81 C 221.10 90.09 218.91 90.08 216.76 89.82 L 216.18 89.52 C 214.64 88.50 212.71 88.80 211.03 89.22 L 210.64 88.94 C 206.50 85.42 201.65 82.58 199.19 77.66 L 199.02 77.24 C 198.66 74.89 196.54 70.35 198.99 69.34 C 199.01 71.12 199.01 72.90 199.01 74.69 L 200.09 74.54 C 200.04 72.33 200.09 70.06 199.16 68.00 C 203.40 67.90 207.64 68.14 211.88 67.96 C 212.01 66.69 212.14 65.42 212.28 64.16 C 214.48 63.51 215.08 60.93 216.44 59.32 M 220.11 59.20 C 218.60 62.42 223.28 59.49 220.11 59.20 M 216.81 60.83 C 217.94 61.79 218.11 62.88 217.32 64.10 C 218.93 63.62 220.00 62.44 221.95 63.08 C 225.37 67.58 220.44 70.51 216.81 68.09 C 216.93 66.66 217.07 65.24 217.22 63.81 C 216.64 63.55 215.48 63.04 214.91 62.79 C 215.96 64.61 216.88 67.43 214.72 68.85 C 216.74 68.24 218.24 68.66 219.23 70.10 C 218.59 70.59 217.31 71.56 216.67 72.04 C 218.87 72.03 221.18 69.59 222.95 72.27 C 222.83 71.32 222.60 69.42 222.48 68.47 C 223.43 68.59 225.33 68.84 226.28 68.96 C 224.10 67.43 225.05 64.66 226.09 62.76 C 225.14 63.61 224.03 64.13 222.76 64.32 C 222.80 63.42 222.88 61.63 222.92 60.73 C 221.29 63.27 218.87 61.19 216.81 60.83 M 214.13 66.13 C 214.94 66.94 214.94 66.94 214.13 66.13 M 226.13 66.13 C 226.94 66.94 226.94 66.94 226.13 66.13 M 220.13 72.13 C 220.93 72.94 220.93 72.94 220.13 72.13 M 228.37 73.55 L 226.64 73.59 L 226.59 75.13 C 226.58 75.27 226.57 75.55 226.57 75.69 L 226.53 76.61 C 226.84 78.38 227.86 80.43 229.99 80.13 C 230.01 80.79 230.05 82.09 230.07 82.75 C 230.70 83.60 231.32 84.46 231.93 85.34 C 234.14 83.86 237.29 82.62 237.51 79.44 C 237.10 78.97 236.27 78.03 235.85 77.56 L 235.06 77.79 C 235.17 76.89 232.93 75.73 232.22 75.86 L 232.24 74.59 L 230.94 74.52 C 230.75 74.46 230.38 74.34 230.20 74.28 L 229.03 73.54 C 228.86 73.55 228.54 73.55 228.37 73.55 M 200.11 75.25 C 200.56 81.24 205.78 77.38 200.11 75.25 Z" />
<path fill="#a0bc83" opacity="1.00" d=" M 211.11 59.27 C 217.18 57.28 211.07 64.36 211.11 59.27 Z" />
<path fill="#a0bc83" opacity="1.00" d=" M 237.65 60.85 C 237.86 59.11 239.32 58.69 240.85 58.98 C 240.99 60.67 241.18 62.35 241.60 64.00 C 237.05 64.02 232.51 63.98 227.97 64.04 C 228.00 63.55 228.06 62.58 228.08 62.09 C 229.65 61.54 232.44 62.95 233.08 60.96 C 234.60 60.84 236.15 61.21 237.65 60.85 Z" />
<path fill="#a0bc83" opacity="1.00" d=" M 233.08 60.96 C 232.19 60.00 232.19 60.00 233.08 60.96 Z" />
<path fill="#a0bc83" opacity="1.00" d=" M 196.04 62.78 C 196.54 62.97 197.53 63.35 198.02 63.54 C 198.00 65.44 197.99 67.34 198.17 69.24 C 194.39 69.73 196.57 65.03 196.04 62.78 Z" />
<path fill="#a0bc83" opacity="1.00" d=" M 198.99 66.03 C 202.99 65.97 207.00 65.96 211.00 66.03 L 211.00 66.97 C 207.00 67.05 203.01 67.00 199.01 66.96 L 198.99 66.03 Z" />
<path fill="#a0bc83" opacity="1.00" d=" M 229.99 66.03 C 233.99 65.96 237.99 65.96 241.99 66.04 L 242.01 66.97 C 238.01 67.04 234.00 67.04 230.00 66.96 L 229.99 66.03 Z" />
<path fill="#a0bc83" opacity="1.00" d=" M 174.14 67.97 C 179.30 68.67 183.81 66.27 188.94 67.06 C 188.51 71.11 190.10 74.87 190.96 78.73 C 186.13 81.25 180.48 79.42 175.27 80.05 C 173.47 84.69 165.77 80.00 161.87 82.93 C 148.83 82.71 136.31 85.29 123.27 85.05 C 123.14 85.53 122.86 86.47 122.73 86.95 C 105.05 86.96 87.93 90.06 70.26 90.05 C 70.13 90.52 69.87 91.47 69.74 91.95 C 61.37 91.40 53.49 93.50 45.14 93.07 C 42.22 94.44 34.95 95.47 36.09 90.29 C 44.34 87.94 53.05 87.53 61.75 86.96 C 62.29 82.39 68.46 86.75 71.14 83.96 C 78.81 84.15 85.95 81.41 93.74 81.96 C 94.08 77.62 99.69 81.53 102.13 79.00 C 110.17 79.26 117.62 76.45 125.74 76.96 C 126.07 72.62 131.71 76.55 134.13 73.98 C 144.52 73.99 154.26 70.83 164.73 70.96 C 165.32 66.40 171.45 70.73 174.14 67.97 Z" />
<path fill="#a0bc83" opacity="1.00" d=" M 211.86 72.15 C 215.42 70.63 212.40 75.15 211.86 72.15 Z" />
<path fill="#a0bc83" opacity="1.00" d=" M 210.09 73.13 C 210.90 73.95 210.90 73.95 210.09 73.13 Z" />
<path fill="#a0bc83" opacity="1.00" d=" M 208.83 76.92 C 208.63 74.22 212.02 74.35 213.90 73.80 C 213.96 74.69 214.07 76.46 214.13 77.35 C 212.40 76.91 210.59 77.04 208.83 76.92 Z" />
<path fill="#a0bc83" opacity="1.00" d=" M 214.13 77.35 C 214.93 74.65 216.20 72.81 216.17 77.07 L 215.81 77.84 C 215.30 79.19 213.17 78.99 214.13 77.35 Z" />
<path fill="#a0bc83" opacity="1.00" d=" M 220.03 75.00 L 220.97 75.00 C 221.03 79.33 221.04 83.67 220.96 88.00 L 220.03 88.01 C 219.96 83.67 219.96 79.33 220.03 75.00 Z" />
<path fill="#a0bc83" opacity="1.00" d=" M 27.03 87.96 C 26.97 83.82 25.01 75.24 31.97 77.02 C 32.17 80.66 32.27 84.31 32.00 87.95 C 30.34 88.02 28.68 88.03 27.03 87.96 Z" />
<path fill="#a0bc83" opacity="1.00" d=" M 25.20 90.26 C 28.09 88.51 31.90 88.39 34.75 90.30 C 35.14 91.87 35.71 93.40 36.03 94.99 C 31.68 94.98 27.33 95.08 22.98 94.94 C 22.37 92.44 26.02 93.18 25.20 90.26 Z" />
</g>
<g id="#464646ff">
<path fill="#464646" opacity="1.00" d=" M 220.08 33.22 C 223.32 33.42 218.58 36.35 220.08 33.22 Z" />
<path fill="#464646" opacity="1.00" d=" M 216.13 36.03 C 217.37 35.95 218.62 35.95 219.87 36.04 C 219.94 37.35 220.02 38.66 220.10 39.97 L 220.91 39.96 C 220.98 38.64 221.05 37.33 221.13 36.02 C 222.78 36.03 225.40 35.32 225.16 37.87 C 225.63 37.58 226.56 37.02 227.03 36.74 C 227.87 37.49 228.27 38.57 228.23 39.98 C 230.95 37.71 232.72 37.32 231.10 42.03 C 233.07 38.92 235.66 41.14 237.95 42.41 C 237.77 43.62 237.38 44.79 237.02 45.96 C 238.39 45.24 239.72 44.35 241.26 44.04 C 240.96 45.38 240.55 46.69 239.98 47.94 C 241.34 46.54 243.44 46.20 243.20 48.84 C 243.83 48.99 245.08 49.31 245.71 49.47 C 245.75 50.05 245.84 51.21 245.89 51.79 C 244.65 52.23 243.43 52.74 242.12 52.87 C 240.35 50.65 239.07 47.78 236.04 46.86 C 228.49 38.45 216.87 42.56 207.35 41.67 C 207.08 40.47 206.96 39.26 206.98 38.04 C 207.69 38.04 209.10 38.03 209.80 38.02 C 209.61 39.60 209.98 40.58 210.90 40.95 C 210.98 39.66 211.06 38.36 211.14 37.07 C 212.37 36.81 213.61 36.74 214.86 36.86 C 214.61 38.52 214.96 39.56 215.92 39.97 C 215.99 38.66 216.06 37.35 216.13 36.03 M 235.10 43.15 C 233.58 46.23 238.34 43.35 235.10 43.15 M 242.25 50.07 C 242.81 50.63 242.81 50.63 242.25 50.07 Z" />
<path fill="#464646" opacity="1.00" d=" M 205.12 40.99 C 206.38 41.89 207.75 42.63 209.16 43.28 C 208.23 45.62 204.91 45.41 203.89 47.79 C 195.33 53.81 191.48 69.17 199.02 77.24 L 199.19 77.66 C 199.72 83.32 205.58 87.37 210.64 88.94 L 211.03 89.22 C 212.37 90.72 214.60 90.48 216.18 89.52 L 216.76 89.82 C 216.54 93.17 223.46 93.16 223.26 89.81 L 223.84 89.51 C 225.69 90.46 228.37 90.91 229.84 89.07 L 230.34 88.72 C 231.04 89.05 232.44 89.72 233.14 90.05 C 233.10 91.28 232.95 92.50 232.67 93.69 C 230.95 94.63 231.32 92.37 230.12 91.99 C 230.04 92.72 229.87 94.17 229.79 94.90 C 228.62 95.25 227.46 95.30 226.32 95.04 C 226.02 94.53 225.41 93.50 225.11 92.99 C 225.03 93.73 224.89 95.22 224.82 95.96 C 223.61 96.05 222.40 96.04 221.20 95.95 C 221.11 95.23 220.94 93.79 220.86 93.07 L 220.14 93.07 C 220.05 93.79 219.88 95.23 219.80 95.96 C 218.20 96.01 215.70 96.63 215.83 94.23 C 214.95 94.68 214.03 95.02 213.08 95.26 C 212.76 94.74 212.11 93.70 211.79 93.18 C 210.94 94.02 210.06 94.26 209.14 93.93 C 208.54 92.42 210.00 91.25 210.13 89.81 C 207.97 93.59 202.79 92.25 206.21 88.03 C 205.23 88.95 204.20 89.32 203.12 89.13 C 203.34 88.59 203.78 87.50 203.99 86.96 C 199.96 89.52 197.97 87.45 200.82 83.76 C 199.92 84.66 198.67 85.22 198.02 86.35 C 197.96 84.95 197.73 82.98 199.01 82.08 C 197.80 82.29 196.59 82.85 195.34 82.67 C 193.74 79.87 197.15 79.24 198.23 77.79 C 196.50 78.19 194.81 78.73 193.06 79.02 C 192.04 76.60 195.75 77.47 195.00 75.16 C 193.67 75.04 192.35 74.93 191.02 74.82 C 190.97 74.14 190.87 72.80 190.81 72.12 C 191.60 72.06 193.17 71.94 193.95 71.88 L 193.95 71.08 C 192.65 71.01 191.34 70.94 190.04 70.87 C 189.95 69.63 189.95 68.38 190.03 67.13 C 191.34 67.06 192.64 66.98 193.95 66.90 L 193.95 66.10 C 192.64 66.02 191.34 65.94 190.04 65.87 C 189.94 64.65 189.94 63.42 190.05 62.20 C 190.77 62.12 192.21 61.94 192.93 61.86 L 192.93 61.13 C 192.20 61.05 190.73 60.88 190.00 60.80 C 189.43 58.38 192.17 57.94 193.93 57.83 C 193.44 57.58 192.47 57.06 191.98 56.80 C 192.65 55.47 193.00 53.62 194.89 53.80 C 194.97 54.35 195.12 55.45 195.20 56.00 L 196.11 55.84 C 196.31 54.32 194.95 53.55 194.42 52.31 C 195.29 49.58 197.11 46.30 200.25 48.83 C 199.50 47.95 198.77 47.06 198.08 46.13 C 198.52 45.80 199.39 45.16 199.82 44.83 C 200.68 46.01 201.49 47.38 203.20 47.04 C 201.65 45.45 199.75 44.14 198.74 42.10 C 200.83 43.39 204.10 43.80 205.12 40.99 M 204.24 44.08 C 204.80 44.64 204.80 44.64 204.24 44.08 M 196.26 51.12 C 197.57 54.51 200.28 49.20 196.26 51.12 Z" />
<path fill="#464646" opacity="1.00" d=" M 191.25 49.92 C 194.31 48.28 191.46 53.33 191.25 49.92 Z" />
<path fill="#464646" opacity="1.00" d=" M 244.20 62.63 C 244.22 58.92 240.77 50.80 247.73 53.34 C 247.78 53.90 247.87 55.03 247.91 55.59 C 247.45 55.90 246.53 56.51 246.07 56.82 C 248.27 56.96 250.82 58.55 251.02 60.86 C 249.69 60.94 248.37 61.02 247.05 61.09 L 247.05 61.90 C 248.37 61.98 249.68 62.06 251.00 62.13 C 251.23 63.35 251.21 64.58 250.94 65.80 C 250.23 65.88 248.79 66.05 248.08 66.14 L 248.06 66.85 C 248.79 66.94 250.23 67.11 250.95 67.20 C 251.04 68.40 251.04 69.61 250.95 70.81 C 250.21 70.89 248.73 71.04 247.98 71.11 C 248.56 71.39 249.71 71.95 250.28 72.23 C 249.80 73.50 248.23 73.64 247.21 74.29 C 248.24 75.09 249.69 76.23 247.88 77.68 C 246.57 77.50 245.30 77.17 244.01 76.95 C 243.96 78.51 246.42 77.74 246.89 79.15 C 246.38 80.59 245.96 82.48 244.00 82.10 C 244.47 77.37 239.21 82.28 244.00 82.10 L 243.92 83.14 C 243.21 83.17 241.77 83.23 241.06 83.26 C 244.93 86.93 240.62 87.47 237.99 84.82 C 236.77 87.90 241.52 86.01 240.19 89.06 C 238.78 88.79 237.38 88.49 236.03 88.02 C 237.05 88.95 237.54 91.40 235.96 92.00 C 234.70 91.01 233.51 89.75 233.05 88.18 C 234.52 86.84 236.85 86.36 237.11 83.96 C 239.45 84.14 241.56 82.26 240.96 79.82 L 241.08 79.24 C 242.78 78.98 243.63 77.27 243.02 75.70 L 243.12 75.02 C 244.66 73.69 244.57 71.39 243.48 69.81 L 243.71 69.20 C 244.24 69.09 245.30 68.85 245.83 68.74 C 245.88 66.67 247.11 63.12 244.20 62.63 Z" />
<path fill="#464646" opacity="1.00" d=" M 186.09 56.01 C 188.26 54.79 188.23 58.23 186.10 56.86 L 186.09 56.01 Z" />
<path fill="#464646" opacity="1.00" d=" M 188.23 65.14 C 188.82 65.74 188.82 65.74 188.23 65.14 Z" />
</g>
<g id="#336633ff">
<path fill="#336633" opacity="1.00" d=" M 2.99 97.92 C 4.07 87.69 16.23 88.41 24.08 88.87 C 23.14 91.27 21.95 93.57 21.07 96.01 C 37.16 96.47 52.95 92.92 69.00 92.78 C 74.21 90.56 80.89 94.14 85.25 90.18 C 121.68 87.74 158.43 89.62 195.00 88.98 C 202.88 87.38 206.04 97.09 213.98 96.22 C 213.98 96.64 213.98 97.50 213.98 97.93 C 143.66 98.04 73.31 98.06 2.99 97.92 Z" />
<path fill="#336633" opacity="1.00" d=" M 227.01 96.20 C 234.47 96.81 237.80 88.32 244.99 88.83 C 289.15 89.51 333.42 88.40 377.53 89.38 C 379.07 92.81 384.88 93.35 384.02 97.91 C 331.69 98.07 279.35 98.04 227.03 97.92 C 227.02 97.49 227.01 96.63 227.01 96.20 Z" />
</g>
</svg>
